<svg width="74" height="97" viewBox="0 0 74 97" fill="none" xmlns="http://www.w3.org/2000/svg">
<g filter="url(#filter0_dnn_463_1173)">
<g filter="url(#filter1_d_463_1173)">
<path d="M29.203 87.3324C24.9707 87.3324 20.378 85.243 20.2903 80.6504L20.2124 76.6811C20.2124 76.0674 20.2221 17.7163 20.2221 17.1855C20.2221 13.6935 22.555 10.9515 25.7743 10.6593C26.1152 10.63 26.4707 10.6154 26.8945 10.6154C27.1769 10.6154 27.4594 10.6203 27.737 10.63C27.9951 10.6349 28.2533 10.6447 28.5065 10.6447C28.6478 10.6447 28.8036 10.6447 28.9692 10.6349C28.9643 9.73878 29.1007 8.80368 29.7192 7.92216C30.4546 6.87504 31.8475 6.22729 33.3525 6.22729H40.8576C43.1272 6.23704 44.8707 7.94651 44.9194 10.2112C44.9194 10.3524 44.9194 10.4839 44.9194 10.6154V10.6349C45.2068 10.6398 45.4795 10.6398 45.7182 10.6398C45.9958 10.6398 47.1403 10.63 47.4374 10.63H47.7978C50.832 10.6495 53.2282 12.8509 53.6227 15.9776C53.759 17.054 53.6762 67.4324 53.6568 77.5187C53.6568 77.8986 53.6568 78.259 53.6665 78.6243C53.6762 79.2867 53.686 79.9734 53.647 80.6991C53.4084 84.8339 49.4732 87.3081 45.8058 87.3081L29.1932 87.3275L29.203 87.3324Z" fill="white"/>
<path d="M33.3625 7.43515L40.8628 7.44489C42.4651 7.44489 43.6778 8.6235 43.7119 10.2307C43.7216 10.7859 43.7022 11.2535 43.785 11.7989C44.4327 11.8428 45.0805 11.8574 45.7282 11.8574C46.298 11.8574 46.8679 11.8476 47.4572 11.8476C47.5692 11.8476 47.6861 11.8476 47.803 11.8476C50.316 11.8623 52.118 13.6594 52.4249 16.1286C52.5564 17.1806 52.4492 77.5188 52.4492 77.5188C52.4395 78.5561 52.4979 79.5594 52.4346 80.6309C52.2349 84.1326 48.7673 86.0905 45.811 86.0954L29.2179 86.1149H29.2033C25.5408 86.1149 21.5813 84.3908 21.5082 80.626L21.4303 76.6567C21.4303 76.6567 21.44 17.7164 21.44 17.1806C21.44 14.4386 23.1398 12.1155 25.8866 11.872C26.2275 11.8428 26.5636 11.833 26.8996 11.833C27.4451 11.833 27.9808 11.8574 28.5166 11.8574C29.1059 11.8574 29.6854 11.8282 30.2601 11.6967C30.1676 10.5181 30.0994 9.5099 30.7277 8.61376C31.2196 7.91244 32.2229 7.43515 33.3674 7.43515M33.3674 5C31.4436 5 29.7098 5.82795 28.7357 7.21599C28.2243 7.94166 27.9711 8.69169 27.8542 9.41249C27.8299 9.41249 27.8006 9.41249 27.7763 9.41249C27.4889 9.40762 27.1967 9.39788 26.9045 9.39788C26.4418 9.39788 26.0522 9.41249 25.6723 9.44658C21.8053 9.79238 19 13.0506 19.0097 17.1855C19.0097 17.7164 19 76.0674 19 76.6567C19 76.6713 19 76.686 19 76.7054L19.0779 80.6747C19.1266 83.2316 20.4221 85.4233 22.7307 86.8551C24.4986 87.951 26.7974 88.55 29.2081 88.55L45.8207 88.5305C50.053 88.5257 54.597 85.623 54.8746 80.7721C54.9185 80.0026 54.9087 79.2964 54.899 78.6097C54.8941 78.2542 54.8892 77.8987 54.8941 77.5431C54.9331 54.9352 54.9818 16.8787 54.8503 15.8267C54.3827 12.0717 51.4946 9.43684 47.8273 9.41249H47.4669C47.1649 9.41249 46.8679 9.41249 46.5708 9.41249C46.4101 9.41249 46.2493 9.41249 46.0886 9.41249C45.6795 6.85558 43.5561 5.00974 40.8677 5.00974L33.3674 5Z" fill="white"/>
<path d="M21.4838 66.0979L21.4351 29.1323L21.4838 66.0979Z" fill="#0D100F"/>
<path d="M52.454 77.5139C52.454 77.5139 52.5611 17.1806 52.4296 16.1237C52.1228 13.6545 50.3208 11.8573 47.8077 11.8427C46.4197 11.833 45.1144 11.8866 43.7897 11.794C43.7069 11.2486 43.7264 10.781 43.7167 10.2258C43.6826 8.61859 42.4747 7.44485 40.8675 7.43998L33.3673 7.43024C32.2228 7.43024 31.2146 7.90753 30.7227 8.60885C30.0944 9.50011 30.1626 10.5131 30.2552 11.6917C28.8476 12.0083 27.3817 11.7307 25.8865 11.8671C23.1445 12.1155 21.4399 14.4337 21.4399 17.1757C21.4399 17.7114 21.4302 76.6518 21.4302 76.6518L21.5081 80.6211C21.5812 84.3907 25.5504 86.1099 29.2178 86.1099L45.8109 86.0905C48.772 86.0905 52.2348 84.1277 52.4345 80.626C52.4978 79.5545 52.4345 78.5464 52.4491 77.5139H52.454Z" fill="#0D100F"/>
<path d="M50.7935 80.6698L23.2373 80.6844V33.2818L50.7496 33.2915L50.7935 80.6698Z" fill="#004F77"/>
<path d="M50.7979 31.5724L23.2369 31.5578V17.0053C23.2271 15.2179 24.3035 13.7227 26.1591 13.5377L48.0559 13.5523C49.7508 13.7958 50.7882 15.2082 50.7882 16.8933L50.7979 31.5724Z" fill="#D7DF23"/>
<path d="M45.9959 84.2836L28.9596 84.347C27.1478 84.3518 25.3069 83.9573 24.0649 82.4378H50.0188C49.0642 83.7723 47.5934 84.2788 45.9959 84.2836Z" fill="#939598"/>
<path d="M41.8222 11.7794L32.2326 11.7892C31.6238 11.4726 31.8235 9.37349 32.6028 9.31505C35.5444 9.08127 38.413 9.08127 41.3401 9.31992C42.1875 9.3881 42.207 11.195 41.8222 11.7794Z" fill="#A7A9AC"/>
<path d="M34.9601 63.1757C34.6289 63.6628 34.1321 63.6677 33.8302 63.6189C33.5282 63.5702 33.2603 63.0881 33.3577 62.6303C34.0298 59.3428 34.8286 56.2356 35.7344 52.8069L28.9306 52.7143C28.5702 52.7095 28.2244 52.5828 28.0394 52.3442C27.8835 52.1445 27.9225 51.6818 28.1709 51.3166L38.8125 35.6634C39.0901 35.2592 39.5625 35.1082 39.845 35.2007C40.2784 35.342 40.4294 35.8047 40.3223 36.2966L38.2962 45.7255L45.475 45.8959C46.1764 45.9105 45.9329 47.0356 45.6309 47.4788L34.9601 63.1709V63.1757Z" fill="#0F1310"/>
<path d="M48.7913 77.2265C48.7913 77.6405 48.4261 77.8694 48.202 77.8986C47.8075 77.9522 47.4423 77.5918 47.4423 77.0415L47.3936 65.4161C47.3936 65.0557 47.7491 64.8268 47.9244 64.7927C48.1582 64.7391 48.6988 64.9534 48.7037 65.4161L48.7962 77.2265H48.7913Z" fill="#0E211D"/>
<path d="M41.1353 76.0382L33.4159 76.1112C32.9337 76.1112 32.5392 75.7898 32.4856 75.5024C32.398 75.0057 32.8217 74.4846 33.3964 74.4846H40.5849C41.0476 74.4797 41.3398 74.767 41.4421 74.9813C41.5444 75.1956 41.5736 76.0333 41.1353 76.0333V76.0382Z" fill="#0E1F1A"/>
<path d="M47.9344 58.8753C49.0741 58.6853 49.1033 62.7179 47.9588 62.5037C47.0139 62.3235 47.1552 59.0068 47.9344 58.8753Z" fill="#152E28"/>
<path d="M37.8674 23.5948C37.5557 24.7052 38.335 27.0576 37.1223 27.1452C35.5346 27.2621 36.3576 24.8903 36.0508 23.6338L33.3721 23.5169C32.8705 23.4925 32.6319 23.1906 32.5978 22.8448C32.4517 21.3447 34.8235 22.1629 36.0362 21.861C36.3722 20.5996 35.5102 18.0816 37.1125 18.2521C38.335 18.3836 37.5411 20.7164 37.8869 21.8561C39.197 22.1727 41.5396 21.2668 41.4081 22.8496C41.3059 24.0964 39.0168 23.2734 37.8674 23.5997V23.5948Z" fill="#101110"/>
<path d="M36.2259 58.2567C35.924 57.0879 38.4955 51.0925 37.239 51.0779L30.2842 51.0146L37.8137 40.1392C37.8283 41.9851 36.036 46.0469 36.5863 47.094C36.7178 47.3424 37.1075 47.4057 37.5166 47.4106L43.6532 47.4349L36.2308 58.2567H36.2259Z" fill="#F1C451"/>
</g>
</g>
<defs>
<filter id="filter0_dnn_463_1173" x="-2" y="-2" width="84" height="101" filterUnits="userSpaceOnUse" color-interpolation-filters="sRGB">
<feFlood flood-opacity="0" result="BackgroundImageFix"/>
<feColorMatrix in="SourceAlpha" type="matrix" values="0 0 0 0 0 0 0 0 0 0 0 0 0 0 0 0 0 0 127 0" result="hardAlpha"/>
<feOffset dx="3" dy="3"/>
<feGaussianBlur stdDeviation="2.5"/>
<feComposite in2="hardAlpha" operator="out"/>
<feColorMatrix type="matrix" values="0 0 0 0 0 0 0 0 0 0 0 0 0 0 0 0 0 0 0.25 0"/>
<feBlend mode="normal" in2="BackgroundImageFix" result="effect1_dropShadow_463_1173"/>
<feBlend mode="normal" in="SourceGraphic" in2="BackgroundImageFix" result="shape"/>
<feTurbulence type="fractalNoise" baseFrequency="0.5 0.5" stitchTiles="stitch" numOctaves="3" result="noise" seed="7937" />
<feColorMatrix in="noise" type="luminanceToAlpha" result="alphaNoise" />
<feComponentTransfer in="alphaNoise" result="coloredNoise1">
<feFuncA type="discrete" tableValues="0 0 0 0 0 0 0 0 0 0 0 1 1 1 1 1 1 1 1 1 1 1 1 1 1 1 1 1 1 1 1 1 1 1 1 1 1 1 1 0 0 0 0 0 0 0 0 0 0 0 0 0 0 0 0 0 0 0 0 0 0 0 0 0 0 0 0 0 0 0 0 0 0 0 0 0 0 0 0 0 0 0 0 0 0 0 0 0 0 0 0 0 0 0 0 0 0 0 0 0 "/>
</feComponentTransfer>
<feComposite operator="in" in2="shape" in="coloredNoise1" result="noise1Clipped" />
<feComponentTransfer in="alphaNoise" result="coloredNoise2">
<feFuncA type="discrete" tableValues="0 0 0 0 0 0 0 0 0 0 0 0 0 0 0 0 0 0 0 0 0 0 0 0 0 0 0 0 0 0 0 0 0 0 0 0 0 0 0 0 0 0 0 0 0 0 0 0 0 0 0 0 0 0 0 0 0 0 0 0 0 1 1 1 1 1 1 1 1 1 1 1 1 1 1 1 1 1 1 1 1 1 1 1 1 1 1 1 1 0 0 0 0 0 0 0 0 0 0 0 "/>
</feComponentTransfer>
<feComposite operator="in" in2="shape" in="coloredNoise2" result="noise2Clipped" />
<feFlood flood-color="rgba(0, 0, 0, 0.1)" result="color1Flood" />
<feComposite operator="in" in2="noise1Clipped" in="color1Flood" result="color1" />
<feFlood flood-color="rgba(255, 255, 255, 0.1)" result="color2Flood" />
<feComposite operator="in" in2="noise2Clipped" in="color2Flood" result="color2" />
<feMerge result="effect2_noise_463_1173">
<feMergeNode in="shape" />
<feMergeNode in="color1" />
<feMergeNode in="color2" />
</feMerge>
<feTurbulence type="fractalNoise" baseFrequency="0.3333333432674408 0.3333333432674408" stitchTiles="stitch" numOctaves="3" result="noise" seed="1755" />
<feColorMatrix in="noise" type="luminanceToAlpha" result="alphaNoise" />
<feComponentTransfer in="alphaNoise" result="coloredNoise1">
<feFuncA type="discrete" tableValues="0 0 0 1 1 1 1 1 1 1 1 1 1 1 1 1 1 1 1 1 1 1 1 1 1 1 1 1 1 1 1 1 1 1 1 1 1 1 1 1 1 1 1 1 1 1 0 0 0 0 0 0 0 0 0 0 0 0 0 0 0 0 0 0 0 0 0 0 0 0 0 0 0 0 0 0 0 0 0 0 0 0 0 0 0 0 0 0 0 0 0 0 0 0 0 0 0 0 0 0 "/>
</feComponentTransfer>
<feComposite operator="in" in2="effect2_noise_463_1173" in="coloredNoise1" result="noise1Clipped" />
<feComponentTransfer in="alphaNoise" result="coloredNoise2">
<feFuncA type="discrete" tableValues="0 0 0 0 0 0 0 0 0 0 0 0 0 0 0 0 0 0 0 0 0 0 0 0 0 0 0 0 0 0 0 0 0 0 0 0 0 0 0 0 0 0 0 0 0 0 0 0 0 0 0 0 0 0 1 1 1 1 1 1 1 1 1 1 1 1 1 1 1 1 1 1 1 1 1 1 1 1 1 1 1 1 1 1 1 1 1 1 1 1 1 1 1 1 1 1 1 0 0 0 "/>
</feComponentTransfer>
<feComposite operator="in" in2="effect2_noise_463_1173" in="coloredNoise2" result="noise2Clipped" />
<feFlood flood-color="rgba(0, 0, 0, 0.1)" result="color1Flood" />
<feComposite operator="in" in2="noise1Clipped" in="color1Flood" result="color1" />
<feFlood flood-color="rgba(21, 21, 21, 0.1)" result="color2Flood" />
<feComposite operator="in" in2="noise2Clipped" in="color2Flood" result="color2" />
<feMerge result="effect3_noise_463_1173">
<feMergeNode in="effect2_noise_463_1173" />
<feMergeNode in="color1" />
<feMergeNode in="color2" />
</feMerge>
<feBlend mode="normal" in="effect3_noise_463_1173" in2="effect1_dropShadow_463_1173" result="effect3_noise_463_1173"/>
</filter>
<filter id="filter1_d_463_1173" x="17" y="3" width="45.936" height="93.55" filterUnits="userSpaceOnUse" color-interpolation-filters="sRGB">
<feFlood flood-opacity="0" result="BackgroundImageFix"/>
<feColorMatrix in="SourceAlpha" type="matrix" values="0 0 0 0 0 0 0 0 0 0 0 0 0 0 0 0 0 0 127 0" result="hardAlpha"/>
<feOffset dx="3" dy="3"/>
<feGaussianBlur stdDeviation="2.5"/>
<feComposite in2="hardAlpha" operator="out"/>
<feColorMatrix type="matrix" values="0 0 0 0 0 0 0 0 0 0 0 0 0 0 0 0 0 0 0.5 0"/>
<feBlend mode="normal" in2="BackgroundImageFix" result="effect1_dropShadow_463_1173"/>
<feBlend mode="normal" in="SourceGraphic" in2="effect1_dropShadow_463_1173" result="shape"/>
</filter>
</defs>
</svg>
