<svg width="100" height="105" viewBox="0 0 100 105" fill="none" xmlns="http://www.w3.org/2000/svg">
<g filter="url(#filter0_dnn_535_1068)">
<path d="M70.7537 94.915C70.6304 94.915 70.5071 94.902 70.3839 94.8696L24.6368 84.2422L9.82462 83.7881C9.72081 83.7881 9.617 83.7686 9.51319 83.7491C8.24802 83.4637 7.92363 82.3737 7.81333 81.7508C7.48893 81.6989 7.10614 81.5951 6.76227 81.3226C6.09401 80.8036 5.80853 80.0769 5.68526 79.4281C5.38681 79.3567 5.02348 79.2529 4.61474 79.0713C4.02433 78.8118 3.64153 78.2278 3.64153 77.5855L3.62207 5.25049C3.62207 4.82228 3.79075 4.40705 4.09568 4.10211C4.40062 3.79717 4.80938 3.62849 5.24408 3.62849L60.3274 3.61551C60.814 3.61551 61.2747 3.83611 61.5796 4.21242C62.0467 4.78336 62.2219 5.3543 62.3192 5.80847C62.5593 5.86037 62.8059 5.93174 63.0589 6.02257C64.0775 6.39239 64.35 7.29422 64.4603 7.83273C64.8366 7.87814 65.3037 7.9625 65.7514 8.26743C66.4781 8.76052 66.6597 9.53908 66.7376 10.149L84.7289 14.7036C86.1173 15.0539 86.3055 16.3061 86.2471 17.2533C87.1619 17.701 87.8172 18.3563 87.8107 19.5761C87.921 19.6993 88.2259 19.9978 89.0304 20.4779C89.6338 20.8477 89.9323 21.5614 89.7636 22.2491L72.3173 93.6823C72.1356 94.4219 71.4738 94.9215 70.7407 94.9215L70.7537 94.915Z" fill="#FCFCFB"/>
<path d="M60.3274 5.24401C60.8659 5.8993 60.6907 6.5481 60.9762 7.20339C61.5731 7.32017 62.0272 7.37209 62.5008 7.54726C63.0199 7.73542 62.7798 8.6632 63.1821 9.10439C63.5844 9.53908 64.4213 9.32498 64.843 9.61045C65.2193 9.86349 65.0896 10.9016 65.3296 11.4595L84.3266 16.2672C84.9364 16.4229 84.4888 17.8567 84.4693 18.2914C88.0248 19.4463 84.2552 19.4787 88.1869 21.8598L70.7406 93.2865L24.8378 82.6202L9.86349 82.1596C9.18224 82.0038 9.54556 80.8944 9.12384 80.4337C8.80593 80.0899 8.01439 80.2391 7.74838 80.0315C7.28773 79.6746 7.20987 78.9804 7.21636 78.2343C6.71678 77.871 6.14584 77.9618 5.25698 77.579L5.23752 5.24401L60.3209 5.23103M60.3274 2L5.24401 2.01297C4.38111 2.01297 3.55712 2.35684 2.94725 2.96671C2.33737 3.57658 2 4.40057 2 5.26348L2.01946 77.5985C2.01946 78.8896 2.78505 80.051 3.96587 80.57C4.10861 80.6349 4.24486 80.6868 4.37462 80.7387C4.63414 81.4005 5.06234 82.0687 5.76305 82.6137C6.00959 82.8084 6.26262 82.9511 6.50917 83.0614C7.13851 84.638 8.37772 85.17 9.16277 85.3452C9.3639 85.3906 9.57152 85.4165 9.77914 85.423L24.4356 85.8707L70.0205 96.4657C70.267 96.5241 70.5136 96.55 70.7601 96.55C72.2199 96.55 73.55 95.5573 73.9068 94.0781L91.3531 22.6514C91.6905 21.2759 91.0936 19.8421 89.8803 19.1089C89.6662 18.9792 89.504 18.8689 89.3743 18.7845C89.1796 17.6361 88.5568 16.8641 87.8301 16.3256C87.5576 14.0418 85.9421 13.3476 85.1311 13.1399L68.1 8.83189C67.8729 8.1766 67.4577 7.46941 66.6662 6.93739C66.3418 6.72328 66.0174 6.57406 65.7124 6.47025C65.2842 5.523 64.5835 4.87419 63.6233 4.51735C63.4546 4.10211 63.208 3.65445 62.8447 3.20677C62.2284 2.45416 61.3071 2.01946 60.3339 2.01946L60.3274 2Z" fill="white"/>
<path d="M84.4759 18.2914C88.0313 19.4463 84.2618 19.4787 88.1936 21.8598L70.7472 93.293L24.8445 82.6267L9.87009 82.1661C9.18884 82.0103 9.55218 80.9009 9.13046 80.4402C8.81255 80.0964 8.02101 80.2456 7.755 80.038C7.29435 79.6811 7.21 78.9869 7.22298 78.2408C6.7234 77.8775 6.15246 77.9683 5.2636 77.579L5.24414 5.24401L60.3275 5.23103C60.866 5.88632 60.6908 6.53513 60.9763 7.19042C61.5732 7.3072 62.0273 7.35911 62.501 7.53428C63.02 7.72244 62.78 8.65022 63.1822 9.09141C63.5845 9.53259 64.4214 9.312 64.8432 9.59747C65.2195 9.85051 65.0897 10.8886 65.3298 11.4466L84.3267 16.2542C84.9366 16.4099 84.4889 17.8438 84.4694 18.2785L84.4759 18.2914Z" fill="#080A08"/>
<path d="M59.1985 76.3398L6.82715 76.3722L6.86608 6.74924L59.2244 6.77519L59.1985 76.3398Z" fill="#44B574"/>
<path d="M73.959 32.8311L65.6154 30.463C64.8238 30.2359 65.1158 28.4711 65.3818 27.5628L74.5818 29.6195C75.568 27.1151 75.9184 24.5848 76.5931 21.9507C76.8072 21.1137 76.5412 20.2638 75.6458 20.0562L65.3883 17.6621C64.9925 16.1634 65.0769 14.7165 65.3039 13.2373L82.893 17.5583L66.1733 85.9616L51.4131 82.3931L65.0185 82.1336L65.3558 68.8072L73.9525 32.8311H73.959Z" fill="#F2CA40"/>
<path d="M72.2786 33.7394L65.3624 62.0986L65.2002 32.0785L72.2786 33.7394Z" fill="#4BB2A4"/>
<path d="M11.745 81.0112C11.0054 81.0047 10.6745 80.6284 10.7199 80.2002L62.702 80.1548L63.2081 10.8237L63.7206 80.6673C62.1245 80.9268 60.7686 80.9658 59.1076 80.9723L11.745 81.0177V81.0112Z" fill="#DEDCDC"/>
<path d="M8.91634 78.5587C8.40379 78.3316 8.9877 77.7542 9.46781 77.7542L60.6584 77.8191L61.1904 8.79945L61.6575 78.6366L8.90985 78.5587H8.91634Z" fill="#E7E6E5"/>
<path d="M31.6247 82.4256C32.9352 81.926 34.0901 82.2634 35.3877 82.5683L68.9503 90.5356L86.0592 22.1778L69.7158 91.5023L31.6182 82.4321L31.6247 82.4256Z" fill="#EFEEEE"/>
<path d="M41.2852 82.3931C44.4902 81.9844 47.2801 83.1652 50.2776 83.8465L67.2567 87.7003L84.3786 19.7318L68.0547 88.8357L41.2852 82.3931Z" fill="#F1F0F0"/>
<path d="M73.7123 27.9975L65.2713 25.9797L65.2324 19.07L75.0942 21.477C74.8671 23.5986 74.2832 25.4607 73.7123 27.991V27.9975Z" fill="#FDFDFD"/>
<path d="M54.2353 62.6047L11.9464 62.7214L11.875 23.2677L54.2288 23.3197L54.2353 62.6047Z" fill="#0C110A"/>
<path d="M54.1899 20.3352L12.1086 20.413C11.622 17.3052 11.8426 14.3272 11.9659 10.9535L54.177 10.9989V20.3352H54.1899Z" fill="#0A120D"/>
<path d="M47.5136 67.315H18.7976C18.3369 67.315 18.1488 66.8349 18.1618 66.6402C18.1747 66.3742 18.3888 66.1861 18.83 65.9785H47.3579C47.7082 65.9785 47.8445 66.3677 47.9742 66.3872C48.1689 66.4196 48.0845 67.315 47.5136 67.315Z" fill="#0C150E"/>
<path d="M42.972 70.7666L22.9046 70.7017C22.4699 70.7017 22.2103 70.4032 22.1714 70.2151C22.113 69.9296 22.2103 69.3068 22.8072 69.3068H42.9915C43.5948 69.3068 43.9193 69.4819 43.9776 69.8777C44.0685 70.4811 43.7052 70.7666 42.972 70.7666Z" fill="#0A2816"/>
<path d="M45.0614 41.2136L35.524 50.7316L25.0847 40.2664L13.2311 51.9708L13.1792 24.6886L52.834 24.6692L52.8016 48.597L45.0614 41.2136Z" fill="#F2CA3E"/>
<path d="M13.4645 61.3135C12.8352 59.0427 13.3542 56.8044 13.1725 54.2805L25.0327 42.2517L43.8739 61.2097L13.4645 61.3135Z" fill="#FFFEFE"/>
<path d="M52.8403 61.1643C50.4527 61.4693 48.4608 61.2681 46.1641 61.2357L36.6851 51.7761L45.0546 43.1795L52.7429 50.777L52.8403 61.1578V61.1643Z" fill="#45B674"/>
<path d="M52.7108 19.0116L13.3155 18.9921C13.1533 16.7019 13.1597 14.6776 13.2895 12.3614L52.7108 12.3419C52.9378 14.5414 52.8795 16.4878 52.7173 19.0116H52.7108Z" fill="#FBFBFB"/>
<path d="M34.8752 29.107C37.8791 28.0754 40.7338 29.6001 41.6551 32.3315C42.5764 35.063 41.2529 38.0799 38.236 39.092C35.8159 39.903 32.8898 38.7611 31.7739 35.8934C30.8526 33.5188 31.8258 30.1515 34.8752 29.107Z" fill="#13100A"/>
<path d="M35.7184 30.2878C37.9957 29.639 39.8253 31.2221 40.3444 32.909C41.0191 35.1279 39.6826 37.1586 37.7946 37.7101C35.686 38.3265 33.7006 37.23 33.0648 35.3225C32.429 33.415 33.3892 30.9561 35.7249 30.2878H35.7184Z" fill="#FCFCFB"/>
</g>
<defs>
<filter id="filter0_dnn_535_1068" x="0" y="0" width="100" height="109" filterUnits="userSpaceOnUse" color-interpolation-filters="sRGB">
<feFlood flood-opacity="0" result="BackgroundImageFix"/>
<feColorMatrix in="SourceAlpha" type="matrix" values="0 0 0 0 0 0 0 0 0 0 0 0 0 0 0 0 0 0 127 0" result="hardAlpha"/>
<feOffset dx="3" dy="3"/>
<feGaussianBlur stdDeviation="2.5"/>
<feComposite in2="hardAlpha" operator="out"/>
<feColorMatrix type="matrix" values="0 0 0 0 0 0 0 0 0 0 0 0 0 0 0 0 0 0 0.25 0"/>
<feBlend mode="normal" in2="BackgroundImageFix" result="effect1_dropShadow_535_1068"/>
<feBlend mode="normal" in="SourceGraphic" in2="BackgroundImageFix" result="shape"/>
<feTurbulence type="fractalNoise" baseFrequency="0.5 0.5" stitchTiles="stitch" numOctaves="3" result="noise" seed="7937" />
<feColorMatrix in="noise" type="luminanceToAlpha" result="alphaNoise" />
<feComponentTransfer in="alphaNoise" result="coloredNoise1">
<feFuncA type="discrete" tableValues="0 0 0 0 0 0 0 0 0 0 0 1 1 1 1 1 1 1 1 1 1 1 1 1 1 1 1 1 1 1 1 1 1 1 1 1 1 1 1 0 0 0 0 0 0 0 0 0 0 0 0 0 0 0 0 0 0 0 0 0 0 0 0 0 0 0 0 0 0 0 0 0 0 0 0 0 0 0 0 0 0 0 0 0 0 0 0 0 0 0 0 0 0 0 0 0 0 0 0 0 "/>
</feComponentTransfer>
<feComposite operator="in" in2="shape" in="coloredNoise1" result="noise1Clipped" />
<feComponentTransfer in="alphaNoise" result="coloredNoise2">
<feFuncA type="discrete" tableValues="0 0 0 0 0 0 0 0 0 0 0 0 0 0 0 0 0 0 0 0 0 0 0 0 0 0 0 0 0 0 0 0 0 0 0 0 0 0 0 0 0 0 0 0 0 0 0 0 0 0 0 0 0 0 0 0 0 0 0 0 0 1 1 1 1 1 1 1 1 1 1 1 1 1 1 1 1 1 1 1 1 1 1 1 1 1 1 1 1 0 0 0 0 0 0 0 0 0 0 0 "/>
</feComponentTransfer>
<feComposite operator="in" in2="shape" in="coloredNoise2" result="noise2Clipped" />
<feFlood flood-color="rgba(0, 0, 0, 0.1)" result="color1Flood" />
<feComposite operator="in" in2="noise1Clipped" in="color1Flood" result="color1" />
<feFlood flood-color="rgba(255, 255, 255, 0.1)" result="color2Flood" />
<feComposite operator="in" in2="noise2Clipped" in="color2Flood" result="color2" />
<feMerge result="effect2_noise_535_1068">
<feMergeNode in="shape" />
<feMergeNode in="color1" />
<feMergeNode in="color2" />
</feMerge>
<feTurbulence type="fractalNoise" baseFrequency="0.3333333432674408 0.3333333432674408" stitchTiles="stitch" numOctaves="3" result="noise" seed="1755" />
<feColorMatrix in="noise" type="luminanceToAlpha" result="alphaNoise" />
<feComponentTransfer in="alphaNoise" result="coloredNoise1">
<feFuncA type="discrete" tableValues="0 0 0 1 1 1 1 1 1 1 1 1 1 1 1 1 1 1 1 1 1 1 1 1 1 1 1 1 1 1 1 1 1 1 1 1 1 1 1 1 1 1 1 1 1 1 0 0 0 0 0 0 0 0 0 0 0 0 0 0 0 0 0 0 0 0 0 0 0 0 0 0 0 0 0 0 0 0 0 0 0 0 0 0 0 0 0 0 0 0 0 0 0 0 0 0 0 0 0 0 "/>
</feComponentTransfer>
<feComposite operator="in" in2="effect2_noise_535_1068" in="coloredNoise1" result="noise1Clipped" />
<feComponentTransfer in="alphaNoise" result="coloredNoise2">
<feFuncA type="discrete" tableValues="0 0 0 0 0 0 0 0 0 0 0 0 0 0 0 0 0 0 0 0 0 0 0 0 0 0 0 0 0 0 0 0 0 0 0 0 0 0 0 0 0 0 0 0 0 0 0 0 0 0 0 0 0 0 1 1 1 1 1 1 1 1 1 1 1 1 1 1 1 1 1 1 1 1 1 1 1 1 1 1 1 1 1 1 1 1 1 1 1 1 1 1 1 1 1 1 1 0 0 0 "/>
</feComponentTransfer>
<feComposite operator="in" in2="effect2_noise_535_1068" in="coloredNoise2" result="noise2Clipped" />
<feFlood flood-color="rgba(0, 0, 0, 0.1)" result="color1Flood" />
<feComposite operator="in" in2="noise1Clipped" in="color1Flood" result="color1" />
<feFlood flood-color="rgba(21, 21, 21, 0.1)" result="color2Flood" />
<feComposite operator="in" in2="noise2Clipped" in="color2Flood" result="color2" />
<feMerge result="effect3_noise_535_1068">
<feMergeNode in="effect2_noise_535_1068" />
<feMergeNode in="color1" />
<feMergeNode in="color2" />
</feMerge>
<feBlend mode="normal" in="effect3_noise_535_1068" in2="effect1_dropShadow_535_1068" result="effect3_noise_535_1068"/>
</filter>
</defs>
</svg>
