<svg width="127" height="115" viewBox="0 0 127 115" fill="none" xmlns="http://www.w3.org/2000/svg">
<g filter="url(#filter0_dnn_463_1097)">
<g filter="url(#filter1_d_463_1097)">
<path d="M63.2626 105.095C63.0114 105.095 62.7529 105.043 62.5165 104.94L10.2025 81.7553C9.53754 81.4595 9.10165 80.8016 9.10165 80.0697L9.03516 28.4891C9.03516 27.7498 9.47104 27.0844 10.1433 26.7961L62.3391 4.00364C62.5756 3.90014 62.8268 3.84839 63.0779 3.84839C63.3291 3.84839 63.5877 3.90014 63.8241 4.00364L115.99 26.944C116.663 27.2397 117.091 27.905 117.091 28.6369L117.136 79.9883C117.136 80.7203 116.707 81.3782 116.042 81.6739L64.0162 104.932C63.7798 105.043 63.5212 105.095 63.2626 105.095Z" fill="#6D6E71"/>
<path d="M63.0782 5.69647L115.244 28.6368L115.289 79.9882L63.2629 103.246L10.9489 80.0621L10.8824 28.4815L63.0782 5.69647ZM63.0782 2C62.5759 2 62.0735 2.1035 61.6007 2.3105L9.40486 25.0956C8.06025 25.687 7.18848 27.0177 7.18848 28.4889L7.25497 80.0695C7.25497 81.5333 8.11936 82.8567 9.45657 83.4481L61.7706 106.632C62.2434 106.847 62.7532 106.95 63.2629 106.95C63.7727 106.95 64.2899 106.839 64.7701 106.632L116.796 83.3742C118.126 82.7753 118.983 81.452 118.983 79.9956L118.938 28.6442C118.938 27.1804 118.074 25.8496 116.729 25.2656L64.5632 2.3105C64.0904 2.1035 63.5806 2 63.0782 2Z" fill="white"/>
<path d="M63.2628 103.246L10.9488 80.0622L10.8823 28.489L63.0781 5.69653L115.244 28.6368L115.289 79.9883L63.2628 103.246Z" fill="#0B0A07"/>
<path d="M61.268 98.6999L14.362 77.8296L14.229 32.156L61.3419 52.701L61.268 98.6999Z" fill="#F1C551"/>
<path d="M80.4472 45.9955L81.4594 63.0584C85.4341 60.4413 88.404 57.3363 92.6521 57.0036C93.9376 56.9001 95.2009 57.5211 96.1466 56.7892C97.5355 55.7246 96.5308 54.3569 96.5308 52.7601L96.5455 38.8391L111.779 32.2446L111.883 77.8591L64.8439 98.6185L64.6592 52.9079L80.425 45.9807L80.4472 45.9955Z" fill="#F1C450"/>
<path d="M63.2631 49.8621L17.1401 29.5981L33.1129 22.5156L77.7139 43.2159C72.8895 46.0548 68.4051 47.5186 63.2557 49.8695L63.2631 49.8621Z" fill="#F1C550"/>
<path d="M95.1711 35.8004L50.0898 15.1372L63.1517 9.44458L108.868 29.3908L95.1711 35.8004Z" fill="#F2C552"/>
<path d="M90.5246 37.3456C87.9019 39.5044 84.8359 40.4359 81.5778 41.2861L37.2871 20.8372L45.6355 17.0668L90.5246 37.3456Z" fill="#6D6E71"/>
<path d="M93.3245 53.4994C89.7044 54.0908 87.2664 55.5842 84.1117 56.7819C83.6906 52.4422 83.7128 48.5313 84.0157 44.3691L93.1915 40.4065C93.6274 44.8497 93.3762 48.5609 93.3245 53.4994Z" fill="#6D6E71"/>
<path d="M84.4805 85.6955L70.8055 91.7207C66.7273 93.5172 68.9437 83.7363 68.3822 80.1877C73.539 77.5558 78.4963 74.7761 84.3402 73.5858C85.0568 77.7037 84.813 81.3854 84.4805 85.6955Z" fill="#101009"/>
<path d="M72.1647 87.5513C71.4777 85.6366 71.485 83.9066 72.1426 82.0658L81.0746 78.0366C81.5696 79.8405 81.5548 81.6148 81.0303 83.537L72.1647 87.544V87.5513Z" fill="#6D6E71"/>
</g>
</g>
<defs>
<filter id="filter0_dnn_463_1097" x="-2" y="0" width="134" height="117" filterUnits="userSpaceOnUse" color-interpolation-filters="sRGB">
<feFlood flood-opacity="0" result="BackgroundImageFix"/>
<feColorMatrix in="SourceAlpha" type="matrix" values="0 0 0 0 0 0 0 0 0 0 0 0 0 0 0 0 0 0 127 0" result="hardAlpha"/>
<feOffset dx="3" dy="3"/>
<feGaussianBlur stdDeviation="2.5"/>
<feComposite in2="hardAlpha" operator="out"/>
<feColorMatrix type="matrix" values="0 0 0 0 0 0 0 0 0 0 0 0 0 0 0 0 0 0 0.25 0"/>
<feBlend mode="normal" in2="BackgroundImageFix" result="effect1_dropShadow_463_1097"/>
<feBlend mode="normal" in="SourceGraphic" in2="BackgroundImageFix" result="shape"/>
<feTurbulence type="fractalNoise" baseFrequency="0.5 0.5" stitchTiles="stitch" numOctaves="3" result="noise" seed="7937" />
<feColorMatrix in="noise" type="luminanceToAlpha" result="alphaNoise" />
<feComponentTransfer in="alphaNoise" result="coloredNoise1">
<feFuncA type="discrete" tableValues="0 0 0 0 0 0 0 0 0 0 0 1 1 1 1 1 1 1 1 1 1 1 1 1 1 1 1 1 1 1 1 1 1 1 1 1 1 1 1 0 0 0 0 0 0 0 0 0 0 0 0 0 0 0 0 0 0 0 0 0 0 0 0 0 0 0 0 0 0 0 0 0 0 0 0 0 0 0 0 0 0 0 0 0 0 0 0 0 0 0 0 0 0 0 0 0 0 0 0 0 "/>
</feComponentTransfer>
<feComposite operator="in" in2="shape" in="coloredNoise1" result="noise1Clipped" />
<feComponentTransfer in="alphaNoise" result="coloredNoise2">
<feFuncA type="discrete" tableValues="0 0 0 0 0 0 0 0 0 0 0 0 0 0 0 0 0 0 0 0 0 0 0 0 0 0 0 0 0 0 0 0 0 0 0 0 0 0 0 0 0 0 0 0 0 0 0 0 0 0 0 0 0 0 0 0 0 0 0 0 0 1 1 1 1 1 1 1 1 1 1 1 1 1 1 1 1 1 1 1 1 1 1 1 1 1 1 1 1 0 0 0 0 0 0 0 0 0 0 0 "/>
</feComponentTransfer>
<feComposite operator="in" in2="shape" in="coloredNoise2" result="noise2Clipped" />
<feFlood flood-color="rgba(0, 0, 0, 0.1)" result="color1Flood" />
<feComposite operator="in" in2="noise1Clipped" in="color1Flood" result="color1" />
<feFlood flood-color="rgba(255, 255, 255, 0.1)" result="color2Flood" />
<feComposite operator="in" in2="noise2Clipped" in="color2Flood" result="color2" />
<feMerge result="effect2_noise_463_1097">
<feMergeNode in="shape" />
<feMergeNode in="color1" />
<feMergeNode in="color2" />
</feMerge>
<feTurbulence type="fractalNoise" baseFrequency="0.3333333432674408 0.3333333432674408" stitchTiles="stitch" numOctaves="3" result="noise" seed="1755" />
<feColorMatrix in="noise" type="luminanceToAlpha" result="alphaNoise" />
<feComponentTransfer in="alphaNoise" result="coloredNoise1">
<feFuncA type="discrete" tableValues="0 0 0 1 1 1 1 1 1 1 1 1 1 1 1 1 1 1 1 1 1 1 1 1 1 1 1 1 1 1 1 1 1 1 1 1 1 1 1 1 1 1 1 1 1 1 0 0 0 0 0 0 0 0 0 0 0 0 0 0 0 0 0 0 0 0 0 0 0 0 0 0 0 0 0 0 0 0 0 0 0 0 0 0 0 0 0 0 0 0 0 0 0 0 0 0 0 0 0 0 "/>
</feComponentTransfer>
<feComposite operator="in" in2="effect2_noise_463_1097" in="coloredNoise1" result="noise1Clipped" />
<feComponentTransfer in="alphaNoise" result="coloredNoise2">
<feFuncA type="discrete" tableValues="0 0 0 0 0 0 0 0 0 0 0 0 0 0 0 0 0 0 0 0 0 0 0 0 0 0 0 0 0 0 0 0 0 0 0 0 0 0 0 0 0 0 0 0 0 0 0 0 0 0 0 0 0 0 1 1 1 1 1 1 1 1 1 1 1 1 1 1 1 1 1 1 1 1 1 1 1 1 1 1 1 1 1 1 1 1 1 1 1 1 1 1 1 1 1 1 1 0 0 0 "/>
</feComponentTransfer>
<feComposite operator="in" in2="effect2_noise_463_1097" in="coloredNoise2" result="noise2Clipped" />
<feFlood flood-color="rgba(0, 0, 0, 0.1)" result="color1Flood" />
<feComposite operator="in" in2="noise1Clipped" in="color1Flood" result="color1" />
<feFlood flood-color="rgba(21, 21, 21, 0.1)" result="color2Flood" />
<feComposite operator="in" in2="noise2Clipped" in="color2Flood" result="color2" />
<feMerge result="effect3_noise_463_1097">
<feMergeNode in="effect2_noise_463_1097" />
<feMergeNode in="color1" />
<feMergeNode in="color2" />
</feMerge>
<feBlend mode="normal" in="effect3_noise_463_1097" in2="effect1_dropShadow_463_1097" result="effect3_noise_463_1097"/>
</filter>
<filter id="filter1_d_463_1097" x="5.18848" y="0" width="121.794" height="114.95" filterUnits="userSpaceOnUse" color-interpolation-filters="sRGB">
<feFlood flood-opacity="0" result="BackgroundImageFix"/>
<feColorMatrix in="SourceAlpha" type="matrix" values="0 0 0 0 0 0 0 0 0 0 0 0 0 0 0 0 0 0 127 0" result="hardAlpha"/>
<feOffset dx="3" dy="3"/>
<feGaussianBlur stdDeviation="2.5"/>
<feComposite in2="hardAlpha" operator="out"/>
<feColorMatrix type="matrix" values="0 0 0 0 0 0 0 0 0 0 0 0 0 0 0 0 0 0 0.5 0"/>
<feBlend mode="normal" in2="BackgroundImageFix" result="effect1_dropShadow_463_1097"/>
<feBlend mode="normal" in="SourceGraphic" in2="effect1_dropShadow_463_1097" result="shape"/>
</filter>
</defs>
</svg>
