<svg width="78" height="94" viewBox="0 0 78 94" fill="none" xmlns="http://www.w3.org/2000/svg">
<g filter="url(#filter0_dnn_535_891)">
<path d="M56.2264 84.178C55.2097 84.178 54.2589 83.7988 53.4675 83.0734L50.0766 79.9792C46.1141 81.9577 41.7229 82.9964 37.3208 82.9964C32.9187 82.9964 28.489 81.9357 24.5431 79.9298L21.2456 83.0019C20.4597 83.7329 19.4485 84.1396 18.3988 84.1396C17.6623 84.1396 16.9424 83.9417 16.3104 83.5625C14.8375 82.6777 13.7054 80.6772 14.5078 78.7262L16.4367 74.0108C11.0289 68.2897 8.14361 60.6065 8.49534 52.7915C8.8086 45.8228 11.6829 39.2004 16.4863 34.1717L11.0015 37.2988C10.7871 37.4198 10.5563 37.4802 10.32 37.4802C9.92978 37.4802 9.55056 37.3153 9.28127 37.0076C7.04448 34.419 6.02226 31.0116 6.46742 27.6482C6.86312 24.6695 8.39645 21.9546 10.7267 20.053C10.3255 18.5307 10.7706 16.9259 11.9797 15.8652C12.6941 15.2442 13.5075 14.9254 14.4088 14.9254C15.3981 14.9254 16.3269 15.3156 17.1457 15.7498C17.503 15.5025 18.1405 14.6671 18.4482 13.7603C19.4759 10.6882 21.5149 8.69318 24.3397 8.00071C28.6209 6.95101 33.0121 6.41792 37.3813 6.41792C41.7505 6.41792 46.1801 6.9675 50.3514 8.05017C53.2532 8.80859 55.3415 10.8805 56.2209 13.8867C56.4187 14.5572 56.8254 15.1453 57.4849 15.7003C58.1994 15.2222 59.0183 14.9749 59.8976 14.9749C60.4802 14.9749 61.1012 15.0848 61.7332 15.2991C64.0524 16.0905 63.9041 18.168 63.8326 19.1682C63.8161 19.3605 63.7996 19.6463 63.8106 19.7782C64.1294 20.3113 64.613 20.8279 65.1241 21.372C66.0199 22.3338 67.0422 23.4164 67.5423 24.9937C68.9052 29.2805 68.1193 33.765 65.4538 36.9801C65.1846 37.3043 64.7943 37.4747 64.3986 37.4747C64.1678 37.4747 63.937 37.4143 63.7227 37.2988L58.2048 34.1772C63.1071 39.3653 65.921 45.9547 66.2068 53.0443C66.52 60.8648 63.6952 68.3007 58.2324 74.0987L60.046 78.4844C60.7989 80.309 60.2219 82.293 58.6006 83.4251C57.8806 83.9307 57.0562 84.1945 56.2209 84.1945L56.2264 84.178ZM32.5615 24.5761C32.2537 24.9333 31.6492 25.3455 30.3522 26.1094C31.858 25.7302 33.3584 25.4774 34.8423 25.362C34.8313 25.2246 34.8147 25.0817 34.7927 24.9443C34.6004 24.9663 34.3971 24.9882 34.1827 24.9882C33.7485 24.9882 33.3584 24.9168 32.9847 24.7739C32.8363 24.7189 32.6934 24.653 32.5615 24.5761ZM39.1399 25.285C40.8272 25.4004 42.4814 25.6477 44.1027 26.0379L42.8771 25.318C42.0143 24.8069 41.712 24.1474 41.6131 23.6802C41.4482 22.9108 41.767 22.3063 41.9813 21.9051L42.0142 21.8391C44.1026 17.8547 47.9003 15.431 52.2255 15.3046L52.2145 15.2717C51.4451 13.4745 50.9669 12.5183 49.2687 12.1061C45.3887 11.1663 41.3932 10.6882 37.3922 10.6882C33.3913 10.6882 29.5388 11.1443 25.6642 12.0401C23.6583 12.5073 23.1966 13.5515 22.4272 15.2881C25.7741 15.3981 28.8353 16.9424 31.0171 19.5584C31.3414 18.7505 31.9404 18.1734 32.7538 17.9591C34.6499 17.459 36.6888 16.9973 38.7937 16.9973H38.9805C39.8269 17.0083 41.3328 17.415 41.8933 19.9871C42.1571 21.2016 41.8659 22.8009 40.6018 23.6363C40.0578 23.999 39.4972 24.1474 38.997 24.2408L39.1344 25.2795L39.1399 25.285Z" fill="white"/>
<path d="M37.3921 7.78088C41.6513 7.78088 45.9051 8.30298 50.0105 9.36917C52.6265 10.0506 54.2147 11.9082 54.9072 14.2604C55.3194 15.6729 56.3416 16.6621 57.5782 17.437C58.2982 16.6126 59.117 16.3324 59.9029 16.3324C60.3865 16.3324 60.8592 16.4368 61.2934 16.5852C63.3213 17.2776 62.0518 19.4375 62.5849 20.3773C63.5631 22.092 65.5526 23.2406 66.2341 25.3949C67.3882 29.0331 66.91 33.0561 64.3984 36.0843L55.8305 31.237C55.3689 31.7041 55.1325 32.1877 54.8412 32.8637C67.3772 43.5311 68.339 62.0519 56.6164 73.7745L58.7707 78.9955C59.2983 80.2705 58.8422 81.5675 57.809 82.282C57.3199 82.6227 56.7648 82.8041 56.2152 82.8041C55.5722 82.8041 54.9347 82.5623 54.3796 82.0621L50.2798 78.3195C46.2294 80.5178 41.7723 81.628 37.3097 81.628C32.8471 81.628 28.368 80.5123 24.3121 78.2591L20.3001 81.9962C19.7451 82.5128 19.0636 82.7656 18.3931 82.7656C17.915 82.7656 17.4368 82.6392 17.0136 82.3809C16.0079 81.7764 15.277 80.4464 15.7716 79.2373L18.0414 73.6865C6.40675 62.1344 7.25311 43.3167 19.833 32.9077C19.5417 32.3636 19.2889 31.8415 18.8108 31.248L10.3143 36.0953C6.18695 31.3249 7.0992 24.0649 12.3917 20.5037C11.6168 19.1902 11.908 17.7338 12.8808 16.8819C13.3754 16.4533 13.881 16.2829 14.4031 16.2829C15.233 16.2829 16.0794 16.7061 16.9148 17.1732C16.9422 17.1732 16.9697 17.1732 16.9971 17.1732C18.1897 17.1732 19.3439 15.3871 19.7505 14.178C20.5364 11.8313 22.0808 9.95172 24.6693 9.31421C28.8242 8.29199 33.1054 7.76989 37.3866 7.76989M20.1188 16.838C20.7728 16.7171 21.4158 16.6621 22.0423 16.6621C25.9718 16.6621 29.3847 18.9044 31.2862 22.3997C31.4951 22.7899 31.6764 23.1417 31.561 23.5978C31.4071 24.1859 24.2077 27.8351 23.2074 28.8023C22.9931 29.0496 23.5482 30.0499 23.8889 30.0499C23.8999 30.0499 23.9164 30.0499 23.9273 30.0499C27.7469 28.0824 31.8908 26.7744 36.271 26.6699C36.2765 25.5048 36.1665 24.4771 35.8972 23.4C35.3147 23.4384 34.7486 23.6198 34.188 23.6198C33.9517 23.6198 33.7154 23.5868 33.4791 23.4989C32.5613 23.1471 32.2206 22.2184 32.1436 21.4105C32.0777 20.74 32.1876 19.5419 33.1054 19.3001C34.8695 18.8329 36.815 18.3823 38.7935 18.3823C38.8485 18.3823 38.909 18.3823 38.9639 18.3823C40.0631 18.3988 40.4202 19.6793 40.5521 20.2948C40.706 21.0038 40.5632 22.026 39.8432 22.5041C39.1343 22.9713 38.3264 22.9053 37.4635 23.1526L37.9252 26.6095C42.4153 26.7414 46.6855 27.89 50.593 29.9729C50.6095 29.9784 50.6314 29.9784 50.6479 29.9784C51.0216 29.9784 51.6757 28.9837 51.4064 28.7584L43.5748 24.1419C43.2231 23.9385 43.0143 23.6857 42.9593 23.4054C42.8934 23.0977 43.0637 22.8174 43.2286 22.4931C45.1301 18.8659 48.62 16.6896 52.5825 16.6896C53.22 16.6896 53.8685 16.7445 54.528 16.8599C53.0167 14.5517 53.0441 11.6279 49.5928 10.7871C45.5699 9.80884 41.4809 9.3307 37.3921 9.3307C33.3032 9.3307 29.3298 9.79784 25.3508 10.7211C21.6796 11.573 21.7236 14.2549 20.1133 16.8545M37.3921 5.03298C32.9075 5.03298 28.4064 5.57706 24.0208 6.65424C20.7618 7.45663 18.3217 9.81982 17.151 13.3097C17.0686 13.5625 16.9312 13.8263 16.7938 14.0461C16.0739 13.7493 15.2825 13.535 14.4141 13.535C13.1886 13.535 12.0399 13.9746 11.0837 14.81C9.69871 16.0246 9.05572 17.7613 9.24258 19.5089C6.99479 21.5918 5.52191 24.3947 5.11522 27.4449C4.6151 31.1985 5.75827 35.0016 8.24787 37.8814C8.78646 38.5024 9.55032 38.8322 10.3252 38.8322C10.677 38.8322 11.0342 38.7662 11.3694 38.6233C8.83588 42.8661 7.35203 47.7024 7.12671 52.7091C6.76948 60.601 9.56136 68.3611 14.8373 74.2801L13.238 78.1876C12.2818 80.5233 13.2985 83.3317 15.6068 84.7221C16.4476 85.2332 17.4149 85.497 18.4041 85.497C19.8 85.497 21.1465 84.9639 22.1852 83.9912L24.7902 81.562C28.7032 83.3921 32.9954 84.3539 37.3206 84.3539C41.6458 84.3539 45.9051 83.4086 49.8346 81.6005L52.5385 84.0681C53.5717 85.0134 54.8797 85.53 56.2262 85.53C57.3418 85.53 58.441 85.1783 59.3918 84.5133C61.5187 83.0294 62.3101 80.32 61.3208 77.9183L59.8425 74.3406C65.1624 68.3776 67.8993 60.8483 67.586 52.9509C67.3772 47.8013 65.8988 42.9046 63.3048 38.5794C63.6565 38.7332 64.0302 38.8102 64.4039 38.8102C65.2008 38.8102 65.9812 38.464 66.5198 37.8155C69.493 34.2377 70.3669 29.275 68.861 24.5376C68.2675 22.669 67.0859 21.405 66.1406 20.3937C65.7889 20.02 65.4591 19.6628 65.2118 19.3331C65.2118 19.2946 65.2118 19.2561 65.2173 19.2231C65.2613 18.5911 65.3218 17.7283 65.0305 16.794C64.6128 15.453 63.607 14.4473 62.1891 13.9582C61.4087 13.6944 60.6449 13.557 59.9084 13.557C59.172 13.557 58.4465 13.6944 57.7815 13.9582C57.6551 13.7658 57.5892 13.5954 57.5507 13.458C56.5285 9.96821 54.0994 7.56105 50.7084 6.67622C46.4327 5.56057 41.9536 5 37.3976 5L37.3921 5.03298ZM24.5649 14.1615C24.8946 13.7438 25.2849 13.546 25.9773 13.3811C29.7475 12.5073 33.5945 12.0621 37.3976 12.0621C41.2007 12.0621 45.1741 12.5238 48.9498 13.4416C49.4938 13.5735 49.8181 13.7493 50.1149 14.1505C47.279 14.6836 44.7345 16.1345 42.7945 18.3053C41.7118 15.8707 39.6783 15.6289 39.0024 15.6234C38.9364 15.6234 38.865 15.6234 38.7935 15.6234C36.5347 15.6234 34.3859 16.107 32.4019 16.6346C31.8248 16.7885 31.3137 17.0578 30.885 17.426C29.0989 15.7553 26.9281 14.6286 24.5594 14.156L24.5649 14.1615Z" fill="white"/>
<path d="M37.2881 81.3422C24.4225 81.3422 13.2165 72.1202 10.6445 59.4084C8.39123 48.2685 13.4419 36.7932 23.2189 30.8523C27.4891 28.2582 32.3969 26.8843 37.4145 26.8843C43.9216 26.8843 50.1703 29.198 55.0121 33.4023C62.6513 40.0357 66.0257 49.8073 64.0362 59.5294C61.6181 71.3453 51.5278 80.276 39.503 81.2543C38.772 81.3147 38.0301 81.3422 37.2992 81.3422H37.2881Z" fill="white"/>
<path d="M37.4143 28.2582C43.4157 28.2582 49.3842 30.3357 54.1106 34.441C61.2001 40.6018 64.602 49.8897 62.6895 59.2546C60.3648 70.6089 50.7911 78.9625 39.3873 79.8858C38.6838 79.9408 37.9859 79.9682 37.2934 79.9682C25.0488 79.9682 14.4474 71.2354 11.9962 59.1337C9.81988 48.3839 14.7661 37.5956 23.9331 32.0229C28.0769 29.5058 32.7594 28.2582 37.4143 28.2582ZM37.4143 25.5103C32.1438 25.5103 26.9888 26.9502 22.5042 29.6762C12.238 35.9139 6.92907 47.9717 9.29776 59.6778C11.9962 73.0271 23.7682 82.7106 37.2879 82.7106C38.0573 82.7106 38.8377 82.6777 39.6071 82.6172C45.8174 82.1116 51.5715 79.666 56.2594 75.5331C60.9693 71.3838 64.1239 65.9375 65.3825 59.7987C67.4764 49.582 63.9371 39.3268 55.9132 32.3581C50.8241 27.9395 44.2566 25.5048 37.4143 25.5048V25.5103Z" fill="white"/>
<path d="M10.7815 35.5347C10.3308 35.5347 9.89665 35.3148 9.63285 34.9137C6.50024 30.1433 7.6983 24.0155 12.4192 20.6521C12.4357 20.6411 12.4522 20.6301 12.4686 20.6191C14.2987 19.432 15.9805 18.5032 17.7666 17.6953C19.1186 17.0908 20.531 16.7885 21.9709 16.7885C25.8125 16.7885 29.3023 18.9703 31.0719 22.4822C31.4017 23.1307 31.1654 23.9221 30.5333 24.2903L11.4684 35.3478C11.2541 35.4742 11.0123 35.5347 10.7815 35.5347Z" fill="white"/>
<path d="M21.9655 18.1679C25.219 18.1679 28.2746 19.998 29.8409 23.1032L10.776 34.1607C7.98965 29.918 9.21517 24.62 13.2106 21.7787C14.8649 20.707 16.5136 19.7782 18.3272 18.9539C19.5253 18.4208 20.7564 18.1679 21.9655 18.1679ZM21.9655 15.42C20.3332 15.42 18.7339 15.7608 17.2116 16.4423C15.343 17.2886 13.6063 18.2449 11.7158 19.4704C11.6828 19.4924 11.6499 19.5144 11.6169 19.5364C6.28047 23.334 4.93395 30.2697 8.47874 35.6666C9.00634 36.469 9.8802 36.9086 10.776 36.9086C11.2432 36.9086 11.7213 36.7877 12.15 36.5349L31.2149 25.4774C32.4734 24.7464 32.9461 23.1636 32.2921 21.8611C30.2861 17.8822 26.3236 15.4146 21.96 15.4146L21.9655 15.42Z" fill="white"/>
<path d="M63.8491 35.4742C63.6183 35.4742 63.3819 35.4138 63.1621 35.2929L44.0258 24.2628C43.3882 23.8946 43.1519 23.0922 43.4927 22.4437C45.2843 18.9758 48.7906 16.8215 52.6431 16.8215C53.7533 16.8215 54.8525 17.0028 55.9132 17.3601C58.8644 18.3493 61.2661 20.0035 63.2336 21.4929C63.2775 21.5259 63.3215 21.5644 63.3655 21.6028C67.0916 25.2355 67.7401 30.4291 65.0197 34.8257C64.7614 35.2434 64.3107 35.4742 63.8491 35.4742Z" fill="white"/>
<path d="M52.6433 18.1954C53.5831 18.1954 54.5394 18.3438 55.4791 18.6626C58.0347 19.5199 60.211 20.9268 62.4038 22.5866C65.6024 25.7082 66.2564 30.2093 63.8492 34.1058L44.7129 23.0757C46.3067 19.9981 49.3898 18.2009 52.6433 18.2009M52.6488 15.4475C48.2796 15.4475 44.3062 17.8877 42.2782 21.8117C41.6022 23.1142 42.0749 24.7189 43.3444 25.4554L62.4808 36.4855C62.915 36.7328 63.3821 36.8537 63.8492 36.8537C64.7725 36.8537 65.6683 36.392 66.1905 35.5512C69.2626 30.583 68.5317 24.7189 64.3274 20.6191C64.2449 20.5366 64.157 20.4652 64.0691 20.3937C62.0136 18.8384 59.4911 17.1073 56.3584 16.0576C55.1549 15.6564 53.9073 15.4475 52.6488 15.4475Z" fill="white"/>
<path d="M56.4077 82.6227C54.8249 82.6227 53.341 81.0949 52.033 79.7484C51.5933 79.2978 51.1811 78.8691 50.8954 78.6438C50.5601 78.38 50.3623 77.9733 50.3678 77.5446C50.3733 77.1159 50.5821 76.7147 50.9283 76.4564L54.6105 73.747C54.8469 73.5711 55.1381 73.4777 55.4239 73.4777C55.5503 73.4777 55.6767 73.4942 55.7976 73.5272C56.2043 73.6426 56.5395 73.9394 56.6989 74.3351L58.6279 79.1274C59.0731 80.232 58.6719 81.595 57.7102 82.227C57.3255 82.4798 56.8748 82.6172 56.4077 82.6172V82.6227Z" fill="white"/>
<path d="M55.4294 74.8517L57.3584 79.644C57.5618 80.1496 57.3584 80.8201 56.9572 81.0839C56.7869 81.1938 56.6055 81.2433 56.4077 81.2433C54.9623 81.2433 52.9123 78.4734 51.7417 77.5556L55.4239 74.8462M55.4294 72.1038C54.8523 72.1038 54.2753 72.2851 53.8026 72.6369L50.1204 75.3463C49.4279 75.8574 49.0157 76.6598 48.9993 77.5171C48.9883 78.3745 49.373 79.1934 50.049 79.721C50.2578 79.8858 50.681 80.32 51.0492 80.6992C52.5441 82.2435 54.2423 83.9912 56.4077 83.9912C57.1441 83.9912 57.8585 83.7769 58.4686 83.3757C59.9799 82.3754 60.5954 80.331 59.903 78.6163L57.9739 73.8239C57.6552 73.038 56.9902 72.439 56.1768 72.2082C55.9295 72.1367 55.6767 72.1038 55.4239 72.1038H55.4294Z" fill="white"/>
<path d="M18.4427 82.6942C17.97 82.6942 17.5029 82.5513 17.0907 82.2875C15.9476 81.54 15.5409 80.298 16.0191 79.045C16.5906 77.5501 17.1842 76.0058 17.9921 74.2416C18.1624 73.8624 18.4977 73.5821 18.9044 73.4832C19.0143 73.4557 19.1297 73.4392 19.2451 73.4392C19.5419 73.4392 19.8277 73.5327 20.0695 73.714L23.6692 76.4125C23.988 76.6543 24.1913 77.0225 24.2188 77.4237C24.2463 77.8249 24.0924 78.2151 23.8066 78.4954L20.3772 81.8478C19.6573 82.5513 18.9263 82.6997 18.4427 82.6997V82.6942Z" fill="white"/>
<path d="M19.2452 74.8077L22.8449 77.5061L19.4155 80.8586C19.0968 81.1663 18.7615 81.3147 18.4427 81.3147C18.2339 81.3147 18.0306 81.2543 17.8437 81.1279C17.2886 80.7652 17.0413 80.2156 17.3051 79.5286C17.9097 77.9568 18.4813 76.4784 19.2452 74.8022M19.2452 72.0598C19.0199 72.0598 18.789 72.0873 18.5691 72.1422C17.7613 72.3456 17.0908 72.9061 16.7501 73.6646C15.9257 75.4727 15.2992 77.1049 14.7441 78.5448C14.0241 80.4079 14.6562 82.3315 16.3434 83.4306C16.9754 83.8428 17.7008 84.0626 18.4427 84.0626C19.4924 84.0626 20.5202 83.623 21.339 82.8206L24.7684 79.4681C25.34 78.9076 25.6423 78.1217 25.5873 77.3248C25.5323 76.5224 25.1366 75.7859 24.4936 75.3078L20.8939 72.6094C20.4158 72.2467 19.8332 72.0598 19.2452 72.0598Z" fill="white"/>
<path d="M34.1553 23.5044C33.1935 23.5044 32.4351 22.7295 32.2757 21.5699C32.1163 20.4597 32.6219 19.5309 33.5343 19.2671C35.3534 18.7395 37.1449 18.5527 38.5024 18.4482C38.5354 18.4482 38.5958 18.4482 38.6288 18.4482C39.5906 18.4482 40.349 19.2506 40.5084 20.4432C40.6898 21.7842 39.9753 22.4712 39.3103 22.6525C37.7715 23.0702 36.2656 23.2571 34.6719 23.4604L34.3696 23.4989C34.3146 23.5044 34.2157 23.5099 34.1607 23.5099L34.1553 23.5044Z" fill="white"/>
<path d="M38.6288 19.8167C39.1344 19.8167 39.3543 21.2126 38.9476 21.3225C37.4087 21.7402 35.9029 21.9161 34.1937 22.1304C34.1827 22.1304 34.1662 22.1304 34.1552 22.1304C33.6386 22.1304 33.3803 20.7455 33.9134 20.5861C35.4522 20.1409 36.9966 19.9376 38.6013 19.8167C38.6068 19.8167 38.6178 19.8167 38.6233 19.8167M38.6288 17.0688C38.5573 17.0688 38.4639 17.0688 38.3925 17.0798C36.9746 17.1897 35.095 17.3875 33.1495 17.9536C31.5777 18.4098 30.6544 19.9761 30.9127 21.7677C31.171 23.6033 32.5065 24.8838 34.1552 24.8838C34.2816 24.8838 34.4135 24.8728 34.5399 24.8618L34.8476 24.8234C36.4854 24.6145 38.0352 24.4222 39.662 23.9825C40.915 23.6418 42.1406 22.3338 41.8658 20.2618C41.6185 18.3878 40.283 17.0743 38.6288 17.0743V17.0688Z" fill="white"/>
<path d="M53.4178 33.1055C52.7034 33.1055 52.1868 32.6934 51.8131 32.3966C51.7417 32.3416 51.6756 32.2867 51.6097 32.2372C51.148 31.9239 50.8843 31.3963 50.8843 30.7973C50.8843 29.9949 51.4064 29.0661 52.1098 28.599C52.1318 28.5825 52.1538 28.5715 52.1758 28.555C52.4286 28.4066 52.7254 28.3297 53.0387 28.3297C53.9839 28.3297 54.9347 29.0826 55.3084 29.5552C55.6162 29.9399 55.7425 30.4291 55.6656 30.9292C55.5117 31.9844 54.5225 32.7098 54.4071 32.7868C54.1158 32.9901 53.7696 33.1 53.4123 33.1L53.4178 33.1055Z" fill="white"/>
<path d="M53.0386 29.7091C53.4123 29.7091 54.0058 30.1323 54.2312 30.4126C54.5279 30.7918 53.9509 31.4348 53.6211 31.6656C53.5552 31.7096 53.4893 31.7316 53.4178 31.7316C53.0936 31.7316 52.7143 31.3359 52.3791 31.1051C52.0603 30.8852 52.3956 30.0609 52.8682 29.7476C52.9177 29.7201 52.9727 29.7091 53.0386 29.7091ZM53.0386 26.9612C52.489 26.9612 51.9504 27.1041 51.4833 27.3734C51.4393 27.4009 51.3953 27.4284 51.3514 27.4559C50.2577 28.1813 49.5158 29.5168 49.5103 30.7863C49.5048 31.836 49.9994 32.7978 50.8348 33.3693C50.8733 33.3968 50.9172 33.4298 50.9612 33.4683C51.4064 33.82 52.2307 34.474 53.4233 34.474C54.0663 34.474 54.6818 34.2816 55.2039 33.9134C55.4677 33.7266 56.8033 32.7208 57.0341 31.1271C57.1605 30.2477 56.9351 29.3849 56.3911 28.7034C55.9129 28.0989 54.5994 26.9557 53.0441 26.9557L53.0386 26.9612Z" fill="white"/>
<path d="M21.1467 33.0781C20.1904 33.0781 19.5034 32.2757 19.1847 31.5283C18.6955 30.3796 19.1902 29.6817 19.432 29.4289C19.6024 29.2475 20.5201 28.3407 21.5204 28.3407C21.5698 28.3407 21.6633 28.3407 21.7128 28.3517C22.8944 28.4891 23.5539 29.6872 23.7078 30.4566C23.8067 30.9512 23.6803 31.4678 23.356 31.9129C22.9109 32.523 22.1414 32.9626 21.339 33.0616C21.2841 33.0671 21.2017 33.0726 21.1467 33.0726V33.0781Z" fill="white"/>
<path d="M21.5148 29.7146C21.5148 29.7146 21.5422 29.7146 21.5532 29.7146C21.9599 29.7586 22.2896 30.4016 22.3556 30.7259C22.4325 31.1051 21.817 31.6217 21.1685 31.6986C21.1575 31.6986 21.152 31.6986 21.141 31.6986C20.7288 31.6986 20.1408 30.6654 20.4156 30.3741C20.7124 30.0609 21.218 29.7091 21.5093 29.7091M21.5148 26.9667C20.0309 26.9667 18.8657 28.0274 18.4316 28.4781C17.5467 29.4069 17.3544 30.7478 17.9205 32.0668C18.4151 33.2155 19.5198 34.4465 21.1465 34.4465C21.2674 34.4465 21.3884 34.441 21.5038 34.4245C22.6689 34.2871 23.8065 33.6331 24.4715 32.7208C25.0211 31.9624 25.2299 31.0611 25.054 30.1873C24.7738 28.7858 23.6581 27.1866 21.8664 26.9832C21.751 26.9722 21.6356 26.9612 21.5202 26.9612L21.5148 26.9667Z" fill="white"/>
<path d="M60.9306 21.0862C60.6723 21.0862 60.4195 21.0148 60.1942 20.8719C60.0678 20.7949 59.9139 20.718 59.7545 20.6411C59.1225 20.3278 58.2597 19.8991 57.8475 19.0473C57.7925 18.9319 57.754 18.8055 57.732 18.6791C57.6386 18.1515 57.7815 17.6349 58.1333 17.2227C58.5619 16.7116 59.2928 16.4093 60.0842 16.4093C60.5349 16.4093 60.9471 16.5137 61.2823 16.7116C62.1122 17.2007 62.4199 17.8492 62.5353 18.3108C62.6508 18.7835 62.6728 19.5419 62.1122 20.4432C61.9199 20.7565 61.6066 20.9763 61.2493 21.0587C61.1504 21.0807 61.046 21.0917 60.9416 21.0917L60.9306 21.0862Z" fill="white"/>
<path d="M60.0735 17.7777C60.2659 17.7777 60.4473 17.8162 60.5737 17.8877C61.1507 18.2284 61.4915 18.811 60.9309 19.7068C60.3758 19.355 59.3756 19.0473 59.0788 18.4372C59.0074 18.0141 59.5789 17.7722 60.0735 17.7722M60.0735 15.0298C58.8809 15.0298 57.7598 15.519 57.0728 16.3324C56.4683 17.0523 56.21 17.9866 56.3694 18.9099C56.4133 19.1627 56.4958 19.41 56.6057 19.6463C57.2267 20.9213 58.4248 21.5149 59.1393 21.8721C59.2547 21.9271 59.4085 22.004 59.458 22.037C59.9032 22.3173 60.4088 22.4657 60.9254 22.4657C61.1287 22.4657 61.3376 22.4437 61.5409 22.3942C62.2554 22.2293 62.8764 21.7897 63.2611 21.1632C64.0745 19.8552 64.0305 18.7065 63.8546 17.9756C63.6073 16.9699 62.9369 16.096 61.9641 15.5245C61.42 15.2002 60.766 15.0298 60.068 15.0298H60.0735Z" fill="white"/>
<path d="M13.634 20.9653C13.1998 20.9653 12.7822 20.762 12.5129 20.3882C12.1007 19.8112 11.9578 19.1132 12.1007 18.4208C12.2436 17.7283 12.6613 17.1347 13.2438 16.783C13.6615 16.5302 14.1396 16.3983 14.6288 16.3983C15.706 16.3983 16.6402 17.0358 17.0084 18.0251C17.2283 18.6241 17.0084 19.3001 16.4754 19.6518C15.6895 20.1684 15.041 20.4652 14.288 20.8059L14.2056 20.8444C14.0242 20.9268 13.8264 20.9708 13.634 20.9708V20.9653Z" fill="white"/>
<path d="M14.634 17.7722C15.0957 17.7722 15.5463 18.0196 15.7222 18.5032C14.9967 18.9758 14.4142 19.2396 13.6338 19.5969C13.2216 19.0198 13.4579 18.2614 13.9581 17.9646C14.1669 17.8382 14.4032 17.7777 14.634 17.7777M14.634 15.0243C13.8976 15.0243 13.1721 15.2277 12.5401 15.6069C11.6278 16.1565 10.9793 17.0798 10.7595 18.146C10.5396 19.2067 10.7705 20.3168 11.397 21.1906C11.9246 21.9326 12.7709 22.3448 13.6338 22.3448C14.0185 22.3448 14.4087 22.2623 14.7714 22.0974L14.8648 22.0535C15.6342 21.7018 16.3597 21.372 17.228 20.8004C18.2997 20.097 18.7394 18.7505 18.2997 17.5524C17.7336 16.0191 16.2938 15.0298 14.634 15.0298V15.0243Z" fill="white"/>
<path d="M37.2661 77.3193C28.8191 77.3193 21.0205 72.6643 16.9206 65.1736C12.4745 57.0563 13.3594 46.7901 19.1245 39.6291C23.598 34.0673 30.215 30.8797 37.2716 30.8797C39.8272 30.8797 42.3827 31.2974 44.8668 32.1163C53.6107 35.0071 59.9034 43.2013 60.5244 52.5057C61.1674 62.1509 55.7265 71.2739 46.9772 75.2089C43.8611 76.6103 40.5966 77.3193 37.2716 77.3193H37.2661Z" fill="white"/>
<path d="M37.2659 32.2537C39.6401 32.2537 42.0528 32.6329 44.4269 33.4188C52.5333 36.1008 58.5622 43.8608 59.1447 52.5992C59.7438 61.5958 54.7645 70.1967 46.4054 73.9558C43.3937 75.3078 40.2886 75.9453 37.2604 75.9453C29.3849 75.9453 22.0261 71.6476 18.1185 64.5141C13.9362 56.8804 14.7496 47.2517 20.1905 40.4919C24.4827 35.1555 30.7204 32.2537 37.2659 32.2537ZM37.2659 29.5058C29.7916 29.5058 22.7845 32.8802 18.0471 38.7662C11.9413 46.3559 11.0015 57.2321 15.7059 65.833C20.0476 73.7635 28.3077 78.6932 37.2604 78.6932C40.7832 78.6932 44.2346 77.9403 47.5321 76.4619C56.8035 72.2961 62.5686 62.6345 61.8871 52.4178C61.2276 42.5638 54.5612 33.8804 45.2898 30.8138C42.6683 29.9454 39.9698 29.5058 37.2659 29.5058Z" fill="white"/>
<path d="M11.7267 32.9517C11.4958 32.9517 11.2485 32.9132 10.9792 32.8362C10.0724 32.5834 9.77018 31.6162 9.62729 30.9072C9.22609 28.9672 9.35244 25.0267 12.3861 22.5591C12.8423 22.1909 13.3974 21.9765 13.903 21.9765C14.3701 21.9765 14.8098 22.1469 15.134 22.4602C15.5572 22.8614 15.81 23.5099 15.7881 24.1089C15.7661 24.642 15.5298 25.1201 15.1231 25.4499C13.2545 26.9612 13.4029 28.6594 13.5183 30.0279C13.5952 30.9017 13.6667 31.7316 13.0677 32.3856C12.7324 32.7483 12.2598 32.9517 11.7322 32.9517H11.7267Z" fill="white"/>
<path d="M13.9031 23.356C14.0131 23.356 14.1065 23.389 14.1834 23.4604C14.3483 23.6198 14.5681 24.1364 14.2604 24.3892C10.3748 27.5273 13.1942 31.5777 11.7323 31.5777C11.6279 31.5777 11.507 31.5557 11.3531 31.5172C10.8585 31.3799 9.88574 26.3677 13.2547 23.6308C13.4415 23.4769 13.6943 23.356 13.9086 23.356M13.9031 20.6081C12.7765 20.6081 11.9247 21.1687 11.518 21.4984C7.97318 24.3782 7.81929 28.9452 8.28094 31.1875C8.62168 32.8198 9.40207 33.82 10.6057 34.1607C11.0014 34.2706 11.3641 34.3256 11.7268 34.3256C12.6446 34.3256 13.48 33.9684 14.0735 33.3144C15.0793 32.2152 14.9638 30.8852 14.8814 29.9125C14.755 28.4616 14.744 27.5273 15.9806 26.5216C16.6895 25.95 17.1182 25.0927 17.1567 24.1749C17.2006 23.1856 16.7885 22.1524 16.085 21.4764C15.5025 20.9159 14.7275 20.6081 13.9031 20.6081Z" fill="white"/>
<path d="M62.8488 32.9077C62.7004 32.9077 62.552 32.8912 62.4036 32.8582C60.8318 32.49 60.9912 30.8248 61.0682 30.0279C61.1946 28.7199 61.3484 27.0876 59.5348 25.4939C59.0457 25.0652 58.7654 24.5156 58.7434 23.9495C58.7215 23.4494 58.9083 22.9713 59.26 22.6031C59.6612 22.1909 60.2218 21.9491 60.7879 21.9491C61.266 21.9491 61.7167 22.1139 62.0904 22.4217C65.0966 24.9113 65.6516 29.1431 64.8987 31.237C64.5195 32.2812 63.7556 32.9077 62.8488 32.9077Z" fill="white"/>
<path d="M60.7879 23.323C60.9308 23.323 61.0792 23.367 61.2111 23.4824C64.4976 26.2028 64.2392 31.5337 62.8433 31.5337C62.7993 31.5337 62.7554 31.5337 62.7114 31.5172C61.5738 31.2535 64.0524 27.6317 60.4361 24.4551C60.1174 24.1749 59.9965 23.8121 60.2438 23.5538C60.3702 23.4219 60.5735 23.3175 60.7824 23.3175M60.7879 20.5751C59.8481 20.5751 58.9358 20.9653 58.2763 21.6468C57.6552 22.2843 57.3365 23.1197 57.3695 24.0045C57.408 24.9498 57.8531 25.8456 58.6225 26.5271C59.9085 27.6592 59.8096 28.6979 59.6942 29.896C59.6503 30.3851 59.6008 30.8907 59.6667 31.4238C59.8371 32.8253 60.7659 33.8859 62.0849 34.1937C62.3322 34.2542 62.5905 34.2816 62.8433 34.2816C64.0084 34.2816 65.4978 33.6057 66.1847 31.7041C67.207 28.8628 66.2672 24.1034 62.9587 21.361C62.3432 20.8499 61.5683 20.5696 60.7824 20.5696L60.7879 20.5751Z" fill="white"/>
<path d="M37.2053 75.753C32.7207 75.753 28.412 74.368 24.7463 71.741C19.355 67.883 15.9805 61.6233 15.7167 54.9843C15.4474 48.2025 18.1349 41.9428 23.0921 37.8044C23.3064 37.6231 23.5647 37.5187 23.834 37.4912C23.9165 37.2109 24.0813 36.9636 24.3231 36.7767C28.0438 33.9574 32.6877 32.4021 37.3976 32.4021C42.1075 32.4021 46.6416 33.9189 50.3513 36.7877C50.5876 36.9691 50.7525 37.2164 50.8294 37.4857C51.1317 37.5022 51.4229 37.6231 51.6538 37.8264C59.183 44.4599 61.211 55.2701 56.5835 64.1239C54.4291 68.2402 50.9228 71.5707 46.4438 73.747C46.2569 73.8404 46.048 73.8844 45.8447 73.8844C45.7128 73.8844 45.5864 73.8679 45.46 73.8294C45.2731 74.0768 44.9819 74.3186 44.5257 74.4834C42.1515 75.3188 39.6894 75.742 37.2108 75.742L37.2053 75.753Z" fill="white"/>
<path d="M37.3978 33.787C41.6736 33.787 45.9493 35.1335 49.5106 37.8814C48.8951 38.7168 47.8894 39.3763 47.8069 40.4919C47.741 41.3767 48.4499 42.0912 48.4829 42.8881L45.3228 44.5533L45.9383 47.7354C45.9658 48.4059 43.8664 49.1972 44.2951 49.9447C44.3995 50.1205 44.5479 50.1975 44.7238 50.1975C45.5921 50.1975 47.1474 48.4059 47.2628 47.9607C47.4992 47.0594 46.6858 46.1636 46.6913 45.2732L50.1536 43.5311L49.3897 40.7832C49.2083 40.1347 50.2031 39.5356 50.7307 38.8706C57.7048 45.0149 59.6888 55.2042 55.3471 63.4973C53.2587 67.4928 49.9283 70.5265 45.8229 72.5214C45.3063 70.5594 43.8554 70.6199 42.41 69.0811L43.2454 65.0471C42.5639 64.6844 39.8765 63.0796 38.9642 63.0796C38.8433 63.0796 38.7553 63.1071 38.7058 63.1676C37.7276 64.3602 41.0581 64.9372 41.833 65.7121C41.7615 66.8992 40.6184 68.1962 40.9317 69.4163C40.4041 70.0264 45.8229 72.5654 44.0478 73.1919C41.8165 73.9778 39.4972 74.3735 37.189 74.3735C33.1001 74.3735 29.0387 73.1315 25.5269 70.6199C20.6356 67.1246 17.3272 61.3869 17.0689 54.9294C16.827 48.7851 19.2397 42.7891 23.9496 38.8597C24.4717 40.5414 24.6201 42.0472 25.5049 43.3552L28.8354 43.8993C28.676 45.3557 26.8734 46.7186 28.3353 47.7464L31.8965 50.2524C31.9405 50.2854 31.99 50.2964 32.0394 50.2964C32.2757 50.2964 32.5176 49.9667 32.5451 49.8128C32.5945 49.4995 32.4626 49.1698 32.1439 48.9279L29.1871 46.6472C29.5059 45.3887 30.3302 44.3609 30.4621 42.9925L26.3843 42.0417L25.1367 37.8649C28.709 35.1555 33.0452 33.7705 37.3814 33.7705M37.3978 31.0391C32.3912 31.0391 27.4505 32.6933 23.4935 35.6886C23.2462 35.8754 23.0373 36.0953 22.8725 36.3426C22.6361 36.447 22.4108 36.5844 22.2074 36.7547C16.9205 41.1624 14.0517 47.8288 14.343 55.0393C14.6232 62.0959 18.212 68.7568 23.9441 72.8567C27.8461 75.6485 32.4296 77.1214 37.2055 77.1214C39.8435 77.1214 42.454 76.6708 44.9766 75.7804C45.3393 75.654 45.6635 75.4782 45.9493 75.2583C46.323 75.2419 46.6968 75.1539 47.043 74.9836C51.7859 72.6753 55.5065 69.1415 57.7982 64.7614C62.7225 55.3471 60.5682 43.8498 52.5608 36.7987C52.3245 36.5899 52.0551 36.425 51.7694 36.3096C51.61 36.0843 51.4177 35.8754 51.1923 35.6996C47.2409 32.6439 42.4705 31.0281 37.3978 31.0281V31.0391Z" fill="white"/>
<path d="M25.9116 66.6959C25.4445 66.6959 24.7355 66.509 24.2793 65.9814C23.9606 65.6132 23.8177 65.1351 23.8891 64.6679C24.109 63.1566 24.5212 61.6892 24.9169 60.2768L24.9993 59.991C25.7632 57.2761 27.5658 56.9628 28.7639 56.7595C28.9453 56.7265 29.1157 56.699 29.2751 56.666C30.1324 53.8577 31.3469 53.2532 32.7264 52.819C33.1111 52.6981 33.3859 52.6101 33.6442 52.4013C33.7211 52.3244 33.9245 52.0111 34.0564 51.7968C34.2267 51.533 34.4081 51.2472 34.617 50.9834C34.8698 48.3674 36.0349 47.3452 36.7493 46.7186C36.7493 46.7186 36.7493 46.7186 36.7548 46.7131C36.2602 45.625 35.249 43.2343 37.5737 41.0799C38.8487 39.8983 39.8215 39.3708 40.7228 39.3708C41.3823 39.3708 41.9593 39.662 42.344 40.1841C43.0475 41.1404 42.6134 42.1406 42.3825 42.6792C42.0913 43.3497 41.9154 43.7509 42.5309 44.6412C43.1849 45.592 43.4322 46.7956 43.2014 47.9442C42.9761 49.0763 42.333 50.0326 41.3878 50.6427C40.9316 50.9394 40.5744 51.489 40.9591 52.1485C41.5472 53.1542 41.5252 54.1984 41.3438 55.0668L49.4116 62.5356C50.1865 63.25 50.3844 64.4371 49.8623 65.2285C49.4996 65.7726 48.8401 66.1133 48.1366 66.1133C47.6145 66.1133 47.1144 65.921 46.7407 65.5802L38.5849 58.1004C38.0848 58.2214 37.5297 58.2763 36.9527 58.3258C36.48 58.3697 35.7271 58.4357 35.3973 58.5566C34.2762 62.607 31.957 62.629 30.7039 62.64C30.5281 62.64 30.2753 62.64 30.1489 62.6675C30.1324 62.7004 30.1104 62.7499 30.0884 62.8323C29.6707 64.2667 27.0052 66.4376 26.4062 66.6244C26.2468 66.6739 26.082 66.6959 25.9061 66.6959H25.9116Z" fill="white"/>
<path d="M40.7227 40.7447C40.926 40.7447 41.1073 40.8216 41.2392 40.9975C41.8657 41.8439 39.7224 42.987 41.3986 45.4216C42.3054 46.7351 41.9812 48.6257 40.6402 49.4885C39.4751 50.2415 39.0519 51.6154 39.7719 52.841C40.2445 53.6489 40.1181 54.5447 39.7993 55.5064L48.4772 63.5468C48.7795 63.8271 48.8455 64.2777 48.7136 64.4756C48.6091 64.635 48.3783 64.7394 48.1365 64.7394C47.9716 64.7394 47.8013 64.6899 47.6694 64.569L38.8706 56.5012C37.9363 57.2486 34.4794 56.6166 34.1222 58.0015C32.6933 63.5468 29.5827 59.6503 28.7693 62.4531C28.5 63.3874 26.1972 65.256 26.0049 65.3109C25.9774 65.3164 25.9445 65.3219 25.906 65.3219C25.6532 65.3219 25.197 65.1516 25.2409 64.8658C25.4608 63.3434 25.895 61.8486 26.3127 60.3592C27.0711 57.6498 28.9341 58.4687 30.396 57.7157C31.4622 53.462 32.9791 54.6876 34.4959 53.4675C34.9686 53.0883 35.4247 52.0166 35.9468 51.5495C36.1116 48.1421 37.8868 47.9387 38.277 47.0319C38.5134 46.4878 36.2106 44.2016 38.5023 42.0802C38.975 41.6405 40.0027 40.7392 40.7171 40.7392M40.7227 37.9968C39.0904 37.9968 37.6834 39.1069 36.6392 40.0687C34.8146 41.7559 34.3145 43.8663 35.1389 46.3504C34.4244 47.1143 33.5836 48.3509 33.2923 50.4558C33.1439 50.6646 33.012 50.8735 32.8966 51.0603C32.8362 51.1537 32.7537 51.2802 32.6933 51.3791C32.5999 51.4176 32.4569 51.4615 32.3085 51.511C30.5169 52.077 29.165 52.9894 28.2307 55.4625C26.9007 55.7098 24.598 56.3363 23.6747 59.6228L23.5922 59.9141C23.1855 61.3705 22.7624 62.8763 22.5261 64.4756C22.3997 65.3384 22.6579 66.2178 23.2405 66.8882C23.9989 67.7676 25.1201 68.0808 25.9115 68.0808C26.2247 68.0808 26.527 68.0369 26.8127 67.9489C27.1095 67.8555 27.6756 67.6851 29.2364 66.2342C30.1212 65.4099 30.7203 64.6954 31.083 64.0249C33.0175 63.937 35.2268 63.261 36.4634 59.7712C36.6777 59.7492 36.9086 59.7272 37.0789 59.7107C37.4362 59.6778 37.8044 59.6448 38.1616 59.5953L45.8118 66.608C46.4438 67.185 47.2681 67.5038 48.1365 67.5038C49.2961 67.5038 50.3952 66.9267 51.0053 66.0034C51.9011 64.6405 51.6208 62.7279 50.3458 61.5463L42.8111 54.5666C42.8825 53.7258 42.7945 52.7201 42.2779 51.7143C43.454 50.9009 44.2564 49.6699 44.5422 48.2355C44.8445 46.7241 44.5202 45.1358 43.6574 43.8828C43.5585 43.7399 43.5145 43.6465 43.4981 43.597C43.5255 43.5091 43.5914 43.3552 43.6409 43.2453C43.9102 42.6243 44.6246 40.9755 43.4485 39.3872C42.8055 38.5189 41.8108 38.0188 40.7227 38.0188V37.9968Z" fill="white"/>
<path d="M53.9349 56.1275C51.3903 56.1275 50.9891 54.8579 50.9781 54.105C50.9726 53.5774 51.165 53.0828 51.5222 52.7201C52.1487 52.0826 53.094 52.0001 53.8469 52.0001C54.1712 52.0001 54.5174 52.0166 54.8526 52.0331C55.034 52.0441 55.2044 52.0496 55.3748 52.0551C56.1717 52.0825 56.6498 52.4233 56.9136 52.7036C57.2653 53.0828 57.4467 53.5939 57.4192 54.1435C57.3697 55.2481 56.5289 56.0395 55.3748 56.078C55.2374 56.078 55.089 56.089 54.9296 56.1C54.6108 56.1165 54.2701 56.133 53.9404 56.133L53.9349 56.1275Z" fill="white"/>
<path d="M53.8468 53.3686C54.3305 53.3686 54.858 53.4125 55.3252 53.4235C55.8143 53.44 56.0561 53.6763 56.0397 54.083C56.0232 54.4128 55.8198 54.6876 55.3252 54.704C54.9185 54.715 54.4129 54.7535 53.9293 54.7535C53.0994 54.7535 52.352 54.6381 52.3465 54.083C52.3355 53.495 53.0225 53.3686 53.8413 53.3686M53.8468 50.6207C53.2478 50.6207 51.6595 50.6207 50.5439 51.7528C49.9228 52.3848 49.5876 53.2257 49.6041 54.127C49.6151 54.6931 49.8624 57.5069 53.9348 57.5069C54.3085 57.5069 54.6712 57.4904 54.9899 57.4739C55.1383 57.4684 55.2812 57.4574 55.4131 57.4574C57.2872 57.4025 58.7051 56.034 58.7876 54.2149C58.8315 53.2971 58.5183 52.4288 57.9192 51.7803C57.2982 51.1098 56.4079 50.7196 55.4186 50.6921C55.2593 50.6921 55.0944 50.6811 54.924 50.6701C54.5942 50.6536 54.2206 50.6317 53.8468 50.6317V50.6207Z" fill="white"/>
<path d="M37.304 74.1097C36.3093 74.1097 35.5288 73.5107 35.3585 72.6259C35.2321 71.9664 34.8968 69.7296 35.7982 68.5864C36.1444 68.1413 36.6445 67.883 37.194 67.8555C37.216 67.8555 37.2655 67.8555 37.2875 67.8555C38.1888 67.8555 39.2165 68.5095 39.3979 70.3451C39.5188 71.5816 39.321 73.7525 37.7821 74.0603C37.6282 74.0932 37.4634 74.1042 37.304 74.1042V74.1097Z" fill="white"/>
<path d="M37.2878 69.224C38.3705 69.224 38.1782 72.5764 37.5132 72.7138C37.4582 72.7248 37.3868 72.7358 37.3098 72.7358C37.0625 72.7358 36.7657 72.6588 36.7107 72.3676C36.5843 71.7026 36.315 69.2789 37.2603 69.2294C37.2713 69.2294 37.2768 69.2294 37.2878 69.2294M37.2878 66.4761C37.2439 66.4761 37.1724 66.4761 37.1229 66.4761C36.1722 66.5255 35.3148 66.9652 34.7158 67.7291C33.5342 69.2295 33.765 71.5926 34.0069 72.8732C34.2981 74.4065 35.6501 75.4782 37.3043 75.4782C37.5571 75.4782 37.8099 75.4562 38.0518 75.4067C40.393 74.9341 40.9755 72.3126 40.7666 70.2077C40.4919 67.4543 38.7222 66.4761 37.2878 66.4761Z" fill="white"/>
<path d="M20.5145 56.111C19.9814 56.111 19.4593 56.0835 18.8602 56.023C18.6514 56.001 18.4536 55.9351 18.2777 55.8252C17.6182 55.4185 17.2444 54.748 17.2719 54.0336C17.3104 53.0223 18.1513 51.9452 20.3826 51.9452C21.1685 51.9452 23.0426 52.088 23.4987 53.4015C23.7735 54.2039 23.5481 55.2866 22.4215 55.8911C22.2566 55.9791 22.0808 56.034 21.8939 56.0505C21.4158 56.0945 20.9706 56.111 20.52 56.111H20.5145Z" fill="white"/>
<path d="M20.377 53.3191C21.2233 53.3191 22.0807 53.5279 22.1906 53.8522C22.2841 54.127 22.1906 54.4512 21.7619 54.6766C21.3168 54.715 20.9046 54.7315 20.5089 54.7315C19.9923 54.7315 19.5031 54.704 18.992 54.6491C18.7337 54.4897 18.6238 54.2809 18.6348 54.0775C18.6568 53.5334 19.5087 53.3081 20.377 53.3081M20.377 50.5712C17.1674 50.5712 15.9528 52.4068 15.8924 53.9786C15.8429 55.1932 16.464 56.3198 17.5466 56.9903C17.9039 57.2101 18.2996 57.3475 18.7172 57.3915C19.3603 57.4574 19.9318 57.4849 20.5089 57.4849C20.998 57.4849 21.4871 57.4629 22.0037 57.419C22.3719 57.386 22.7347 57.2816 23.0589 57.1057C24.6307 56.2648 25.3397 54.5557 24.7901 52.9564C24.268 51.4395 22.6577 50.5712 20.377 50.5712Z" fill="white"/>
<path d="M37.2328 40.305C36.6997 40.2831 36.2106 40.0577 35.8588 39.662C35.0839 38.7937 35.1993 37.4088 35.2873 36.2931C35.3038 36.0953 35.3203 35.9139 35.3203 35.7765C35.3258 35.5182 35.4082 35.2654 35.5456 35.051C35.9412 34.4575 36.5898 34.1003 37.2877 34.1003C37.9362 34.1003 38.5408 34.4026 38.953 34.9247C39.1289 35.15 39.2332 35.4303 39.2442 35.7161C39.2497 35.8534 39.2662 36.0293 39.2827 36.2217C39.3871 37.3758 39.5135 38.8157 38.7111 39.6895C38.3484 40.0852 37.8483 40.305 37.2987 40.305C37.2823 40.305 37.2383 40.305 37.2218 40.305H37.2328Z" fill="white"/>
<path d="M37.2934 35.4742C37.5077 35.4742 37.722 35.5732 37.8759 35.771C37.9144 36.6888 38.3266 38.9311 37.3099 38.9311C37.2989 38.9311 37.2934 38.9311 37.2824 38.9311C36.2712 38.8926 36.6779 36.6943 36.6999 35.8095C36.8482 35.5896 37.0681 35.4742 37.2934 35.4742ZM37.2934 32.7263C36.1338 32.7263 35.0566 33.3089 34.4081 34.2926C34.1223 34.7213 33.963 35.2269 33.952 35.7435C33.952 35.8644 33.9354 36.0128 33.919 36.1832C33.8145 37.4857 33.6662 39.2663 34.8313 40.5743C35.4358 41.2503 36.2711 41.646 37.1834 41.679C37.2164 41.679 37.2769 41.679 37.3099 41.679C38.2497 41.679 39.107 41.2998 39.7335 40.6183C40.9426 39.2993 40.7777 37.4527 40.6568 36.1007C40.6403 35.9304 40.6293 35.782 40.6238 35.6611C40.6018 35.084 40.3985 34.5344 40.0413 34.0783C39.3708 33.2209 38.3706 32.7263 37.2934 32.7263Z" fill="white"/>
<path d="M46.4438 71.6971C45.1303 71.6971 44.4433 70.422 43.8882 69.3943C43.8003 69.224 43.7124 69.0646 43.6299 68.9272C43.0639 67.9654 43.2947 66.8058 44.163 66.2287C44.4598 66.0309 44.806 65.9265 45.1632 65.9265C46.5976 65.9265 47.7023 67.5807 48.0925 68.6964C48.6366 70.2407 47.9386 71.0156 47.6144 71.2739C47.2682 71.5542 46.856 71.6971 46.4383 71.6971H46.4438Z" fill="white"/>
<path d="M45.1685 67.3004C46.0424 67.3004 47.3999 69.6911 46.7623 70.2022C46.6524 70.2901 46.548 70.3286 46.4436 70.3286C45.8226 70.3286 45.2565 68.9766 44.8168 68.2347C44.6245 67.9105 44.663 67.5587 44.9323 67.3774C45.0037 67.3279 45.0861 67.3059 45.174 67.3059M45.1685 64.5525C44.5365 64.5525 43.9265 64.7394 43.4044 65.0856C41.9151 66.0804 41.5084 68.0314 42.4537 69.6306C42.5251 69.7516 42.602 69.8999 42.6844 70.0483C43.2945 71.1805 44.3112 73.0765 46.4491 73.0765C47.1855 73.0765 47.889 72.8237 48.4825 72.3511C48.9167 72.0048 50.2577 70.6858 49.4004 68.2457C48.9167 66.8773 47.4878 64.558 45.174 64.558L45.1685 64.5525Z" fill="white"/>
<path d="M51.0713 48.0926C50.0051 48.0926 49.3346 47.1748 49.2302 46.2735C49.1313 45.4491 49.6094 44.5918 50.3898 44.1851L52.044 43.3277C52.3738 43.1574 52.731 43.0694 53.0772 43.0694C53.6928 43.0694 54.2643 43.3497 54.5996 43.8224C54.9678 44.339 55.0667 44.9765 54.8744 45.57C54.4182 46.955 52.4452 47.7354 51.6208 48.0047C51.4395 48.0651 51.2526 48.0926 51.0713 48.0926Z" fill="white"/>
<path d="M53.0826 44.4379C53.264 44.4379 53.4123 44.5093 53.4893 44.6138C54.1213 45.4986 52.0109 46.4274 51.1975 46.6967C51.1535 46.7131 51.1151 46.7186 51.0766 46.7186C50.7634 46.7186 50.6205 46.279 50.5985 46.1086C50.571 45.8833 50.7139 45.5645 51.0272 45.4052L52.6814 44.5478C52.8243 44.4764 52.9617 44.4434 53.0826 44.4434M53.0826 41.69C52.5165 41.69 51.9395 41.8329 51.4174 42.1022L49.7631 42.9595C48.4606 43.6355 47.7022 45.0259 47.8671 46.4274C48.0759 48.1585 49.4499 49.461 51.0766 49.461C51.4064 49.461 51.7416 49.4061 52.0604 49.3017C53.3354 48.884 55.5612 47.8947 56.1877 45.9877C56.5175 44.9765 56.3526 43.8938 55.7315 43.0145C55.138 42.1791 54.1488 41.6845 53.0881 41.6845L53.0826 41.69Z" fill="white"/>
<path d="M29.297 42.1571C28.6759 42.1571 28.1099 41.8659 27.7472 41.3657C26.8788 40.1731 26.0105 38.8377 26.4392 37.6561C26.648 37.0845 27.1261 36.6723 27.7417 36.5184C27.9285 36.4745 28.1154 36.4525 28.3022 36.4525C29.0222 36.4525 29.6652 36.8042 30.0114 37.3978L30.9897 39.0575C31.6107 40.1072 31.2205 41.2228 30.539 41.7394C30.1818 42.0142 29.7366 42.1626 29.2914 42.1626L29.297 42.1571Z" fill="white"/>
<path d="M28.3079 37.8264C28.5058 37.8264 28.7146 37.8924 28.8355 38.0957L29.8138 39.7555C30.0556 40.1622 29.8962 40.5084 29.7148 40.6403C29.5994 40.7282 29.451 40.7832 29.2971 40.7832C29.1378 40.7832 28.9729 40.7172 28.8575 40.5579C28.4124 39.9478 27.0494 38.1067 28.0716 37.8539C28.143 37.8374 28.2255 37.8264 28.3079 37.8264ZM28.3079 35.0785C28.0112 35.0785 27.7144 35.117 27.4176 35.1884C26.3459 35.4522 25.5161 36.1777 25.1478 37.1889C24.4829 39.0025 25.5545 40.7007 26.6152 42.1461L26.6372 42.1791C27.2637 43.0419 28.2364 43.5366 29.2971 43.5366C30.0391 43.5366 30.7755 43.2893 31.3746 42.8331C32.732 41.7999 33.0782 39.8764 32.1769 38.3595L31.1987 36.6998C30.5997 35.6831 29.517 35.0785 28.3079 35.0785Z" fill="white"/>
<path d="M53.0279 65.0416C52.6706 65.0416 52.3189 64.9427 52.0002 64.7559L50.1591 63.6512C49.4556 63.228 49.0764 62.4037 49.2303 61.6013C49.4006 60.7 50.1536 60.0899 51.1098 60.0899C52.3849 60.0899 54.1325 61.2056 54.7316 62.1289C55.2042 62.8598 55.0503 63.4753 54.9129 63.7776C54.5667 64.547 53.8303 65.0416 53.0279 65.0416Z" fill="white"/>
<path d="M51.1097 61.4639C52.0495 61.4639 53.8686 62.7499 53.6598 63.217C53.5499 63.4643 53.308 63.6677 53.0278 63.6677C52.9233 63.6677 52.8134 63.6402 52.709 63.5743L50.8679 62.4696C50.6151 62.3212 50.5436 62.0464 50.5821 61.8486C50.6316 61.5738 50.8349 61.4584 51.1152 61.4584M51.1097 58.716C49.4995 58.716 48.1695 59.7987 47.8782 61.343C47.6199 62.7114 48.2574 64.1074 49.4555 64.8273L51.2966 65.932C51.8242 66.2507 52.4232 66.4156 53.0278 66.4156C54.3687 66.4156 55.5998 65.6022 56.1658 64.3382C56.589 63.3874 56.4901 62.3102 55.8856 61.3814C55.0667 60.1229 52.9069 58.716 51.1097 58.716Z" fill="white"/>
<path d="M21.6633 64.9427C20.8555 64.9427 20.174 64.5031 19.8388 63.7721C19.6024 63.2445 19.6629 62.629 20.0146 62.0849C20.5972 61.1836 22.3009 60.0954 23.5429 60.0954C24.2739 60.0954 24.8949 60.4527 25.2082 61.0572C25.5819 61.7771 25.5269 62.8433 24.7025 63.4863C23.7298 64.2448 22.6911 64.9537 21.6633 64.9537V64.9427Z" fill="white"/>
<path d="M23.5428 61.4639C23.7461 61.4639 23.9055 61.5298 23.9825 61.6782C24.0704 61.8431 24.1144 62.1893 23.8506 62.3927C23.312 62.8158 22.3227 63.5688 21.6577 63.5688C21.4104 63.5688 21.2071 63.4643 21.0862 63.2005C20.8553 62.6949 22.6415 61.4639 23.5373 61.4639M23.5428 58.716C21.7786 58.716 19.6572 60.1009 18.8603 61.3375C18.2503 62.2828 18.1514 63.3764 18.5856 64.3382C19.1406 65.5583 20.3167 66.3167 21.6577 66.3167C23.0976 66.3167 24.3781 65.4703 25.5433 64.558C26.7853 63.5853 27.159 61.8431 26.4226 60.4197C25.873 59.3535 24.7958 58.716 23.5373 58.716H23.5428Z" fill="white"/>
<path d="M28.2308 71.6531C28.044 71.6531 27.8626 71.6256 27.6923 71.5652C27.1207 71.3783 26.6535 70.9716 26.4117 70.455C26.1919 69.9714 26.1809 69.4328 26.3898 68.9327C26.8514 67.8115 27.8571 65.932 29.385 65.932C29.6872 65.932 29.9785 66.0034 30.2478 66.1518C30.7369 66.4156 31.0996 66.8772 31.237 67.4158C31.3799 67.9764 31.2755 68.5809 30.9457 69.0811L29.918 70.6474C29.5003 71.2849 28.8848 71.6476 28.2253 71.6476L28.2308 71.6531Z" fill="white"/>
<path d="M29.3849 67.3114C29.4564 67.3114 29.5278 67.3279 29.5993 67.3664C29.94 67.5477 30.0334 67.9764 29.8026 68.3336L28.7749 69.8999C28.588 70.1857 28.3902 70.2791 28.2308 70.2791C28.1923 70.2791 28.1538 70.2737 28.1208 70.2627C27.8186 70.1637 27.4943 69.856 27.6592 69.4603C27.8736 68.9492 28.6759 67.3114 29.3849 67.3114ZM29.3849 64.5635C27.0547 64.5635 25.7137 66.9762 25.1202 68.4106C24.7684 69.2679 24.7849 70.1967 25.1696 71.0321C25.5708 71.8949 26.3348 72.5709 27.269 72.8732C27.5768 72.9721 27.9011 73.027 28.2308 73.027C29.3629 73.027 30.3961 72.4335 31.0721 71.4058L32.0998 69.8395C32.6384 69.0206 32.8088 68.0149 32.5725 67.0806C32.3417 66.1683 31.7316 65.3879 30.9018 64.9427C30.4401 64.6954 29.9125 64.5635 29.3904 64.5635H29.3849Z" fill="white"/>
<path d="M45.2127 42.1956C44.6356 42.1956 44.0255 41.8933 43.6573 41.4207C43.3221 40.992 43.2012 40.4534 43.3331 39.9423C43.3441 39.9093 44.3168 36.5019 46.4162 36.5019C46.702 36.5019 46.9768 36.5624 47.2351 36.6888C47.8121 36.9636 48.3672 37.6341 48.2079 38.7058C48.043 39.8049 46.7954 41.9758 45.4545 42.1736C45.3885 42.1846 45.2841 42.1901 45.2182 42.1901L45.2127 42.1956Z" fill="white"/>
<path d="M46.4108 37.8814C46.4878 37.8814 46.5647 37.8979 46.6362 37.9363C47.4276 38.3101 45.8393 40.7337 45.2402 40.8216C45.2292 40.8216 45.2183 40.8216 45.2073 40.8216C44.9929 40.8216 44.5808 40.5853 44.6577 40.2721C44.7621 39.8489 45.5755 37.8814 46.4053 37.8814M46.4108 35.1335C43.1903 35.1335 42.0087 39.5686 41.9977 39.6181C41.7669 40.5414 41.9812 41.5086 42.5748 42.2725C43.2068 43.0749 44.2125 43.575 45.2128 43.575C45.3557 43.575 45.504 43.5641 45.6469 43.5421C47.8122 43.2233 49.3456 40.36 49.5654 38.9146C49.7907 37.4198 49.1038 36.0623 47.8233 35.4522C47.3781 35.2434 46.9055 35.1335 46.4163 35.1335H46.4108Z" fill="white"/>
<path d="M23.4822 48.0047C22.5809 48.0047 21.7236 47.4551 20.8937 46.922L20.5969 46.7351C19.778 46.2185 19.4318 45.2897 19.7395 44.4214C20.0088 43.6465 20.7178 43.1629 21.5807 43.1629C22.8227 43.1629 24.444 44.1961 25.0595 45.1194C25.5486 45.8503 25.4112 46.4713 25.2903 46.7791C24.9771 47.5485 24.3011 48.0047 23.4822 48.0047Z" fill="white"/>
<path d="M21.5809 44.5423C22.5152 44.5423 24.2134 45.7899 24.021 46.2625C23.9111 46.5318 23.7243 46.6362 23.4825 46.6362C22.9054 46.6362 22.037 46.0207 21.3336 45.5755C21.0533 45.3997 20.9544 45.1249 21.0423 44.8775C21.1247 44.6412 21.3281 44.5423 21.5864 44.5423M21.5809 41.7944C20.1355 41.7944 18.9044 42.6462 18.4428 43.9707C17.9317 45.4381 18.5143 47.0539 19.8662 47.9002C19.9542 47.9552 20.053 48.0157 20.1465 48.0816C21.0478 48.6642 22.1745 49.3841 23.477 49.3841C24.8509 49.3841 26.0325 48.5872 26.5601 47.3067C26.9503 46.3559 26.8184 45.2842 26.2029 44.3609C25.373 43.1244 23.3176 41.7944 21.5809 41.7944Z" fill="white"/>
<path d="M27.071 63.9755C26.7303 63.9755 26.4005 63.8491 26.1422 63.6127C25.7905 63.2885 25.6311 62.8049 25.7245 62.3322C25.7575 62.1673 25.785 61.997 25.8125 61.8266C25.9554 60.9363 26.1367 59.8261 26.9171 58.8809C27.5986 58.051 28.5989 57.9576 29.4068 57.8806C29.687 57.8531 30.275 57.7982 30.385 57.6938C30.385 57.6938 30.4509 57.6058 30.4674 57.3145C30.6213 54.8634 32.8856 53.7203 34.3694 53.7203C34.9245 53.7203 35.3752 53.8797 35.7104 54.1874C36.0786 54.5282 36.7051 55.4185 36.4413 56.3363C36.271 56.9189 35.8039 57.342 35.1884 57.4574C34.1167 57.6608 34.0562 57.9521 33.8749 58.8094C33.6825 59.7052 33.2868 61.5683 30.6433 61.5683C30.462 61.5683 30.2641 61.5573 30.0497 61.5408C29.9618 61.5353 29.8849 61.5298 29.8079 61.5298C29.5332 61.5298 29.3225 61.7149 29.1759 62.0849C28.9506 62.651 28.5769 63.5908 27.4557 63.915C27.3293 63.9535 27.2029 63.97 27.071 63.97V63.9755Z" fill="white"/>
<path d="M34.3641 55.0997C34.551 55.0997 34.6994 55.1327 34.7708 55.2042C34.9577 55.38 35.3753 56.034 34.9246 56.122C31.127 56.8529 33.809 60.2053 30.638 60.2053C30.4951 60.2053 30.3357 60.1998 30.1653 60.1834C30.0389 60.1724 29.918 60.1669 29.8081 60.1669C27.5548 60.1669 28.2473 62.2663 27.0767 62.607C27.258 61.7002 27.3074 60.5791 27.9779 59.7602C28.8243 58.727 31.6711 60.0405 31.836 57.408C31.9404 55.7537 33.5562 55.1052 34.3696 55.1052M34.3641 52.3518C32.1713 52.3518 29.7146 53.9291 29.1816 56.5232C28.2857 56.6111 26.8623 56.7815 25.8511 58.007C24.8398 59.2381 24.6036 60.667 24.4552 61.6068C24.4277 61.7661 24.4057 61.92 24.3782 62.0684C24.1914 63.0082 24.5101 63.981 25.2191 64.624C25.7302 65.0966 26.3952 65.3439 27.0767 65.3439C27.3295 65.3439 27.5877 65.3109 27.8405 65.234C29.3409 64.7998 29.9949 63.6567 30.3137 62.9313C30.4291 62.9313 30.539 62.9368 30.6435 62.9368C32.1768 62.9368 33.3694 62.4366 34.1992 61.4529C34.8917 60.623 35.0895 59.6997 35.2214 59.0952C35.2379 59.0182 35.2599 58.9303 35.2764 58.8479C35.3258 58.8369 35.3808 58.8204 35.4523 58.8094C36.5734 58.5951 37.4582 57.7927 37.766 56.7155C38.1837 55.2591 37.4252 53.9017 36.6503 53.1817C36.2381 52.8025 35.5127 52.3463 34.3751 52.3463L34.3641 52.3518Z" fill="white"/>
<path d="M37.8866 52.8794C36.9578 52.8794 36.1939 52.3189 36.0346 51.511C35.6279 49.4775 36.9578 48.2025 37.7547 47.4441C37.9086 47.2957 38.134 47.0814 38.2384 46.955C38.2054 46.8176 38.046 46.5208 37.9471 46.3339C37.4854 45.4656 36.5237 43.652 38.6506 41.8274C38.9034 41.6075 39.2221 41.4976 39.5464 41.4976C39.7827 41.4976 40.0245 41.5581 40.2389 41.6845C40.7445 41.9813 41.0082 42.5638 40.8928 43.1354C40.7444 43.8828 41.0522 44.4983 41.404 45.2073C41.9096 46.224 42.8439 48.1201 40.6016 49.7358C39.9366 50.214 39.7168 50.5657 39.6948 51.1867C39.6618 52.1485 38.8814 52.8739 37.8866 52.8739V52.8794Z" fill="white"/>
<path d="M39.5412 42.8716C39.0026 45.6195 42.1022 46.9605 39.794 48.6202C38.9861 49.2027 38.3596 49.8897 38.3157 51.1428C38.3047 51.4011 38.0958 51.5 37.876 51.5C37.6451 51.5 37.3979 51.3901 37.3704 51.2362C36.9582 49.1972 39.3434 48.3344 39.5742 47.2957C39.9095 45.7954 37.4528 44.6577 39.5357 42.8716M39.5467 40.1237C38.9037 40.1237 38.2662 40.349 37.7606 40.7832C36.2327 42.0912 35.936 43.4871 35.9524 44.4269C35.9689 45.3612 36.2932 46.1141 36.5735 46.6692C35.6557 47.565 34.1718 49.2302 34.6884 51.7748C34.9797 53.2312 36.2987 54.2424 37.887 54.2424C39.6401 54.2424 41.0086 52.9454 41.0691 51.2307C41.0691 51.1537 41.0801 51.1208 41.0801 51.1098C41.0801 51.1098 41.1515 51.0219 41.3988 50.846C44.5864 48.5542 43.1135 45.5755 42.6299 44.5918C42.3111 43.9433 42.1847 43.6575 42.2397 43.3937C42.465 42.2451 41.9374 41.08 40.9262 40.4919C40.4975 40.2391 40.0193 40.1182 39.5412 40.1182L39.5467 40.1237Z" fill="white"/>
<path d="M37.3206 56.8914C36.2105 56.8914 35.2707 56.2868 34.8091 55.2756C34.4848 54.5612 34.4738 53.7423 34.7816 53.0388C35.0838 52.3408 35.6829 51.8133 36.4578 51.5495C36.7436 51.456 37.0404 51.4066 37.3426 51.4066C38.5572 51.4066 39.6564 52.1815 39.9586 53.2477C40.1785 54.0281 40.0851 54.8689 39.6949 55.5504C39.3431 56.1659 38.7826 56.6056 38.1066 56.787C37.8483 56.8584 37.579 56.8914 37.3152 56.8914H37.3206Z" fill="white"/>
<path d="M37.3428 52.7805C37.9583 52.7805 38.5134 53.1762 38.6398 53.6214C38.8596 54.3963 38.5134 55.2591 37.7605 55.457C37.6176 55.4954 37.4692 55.5174 37.3263 55.5174C36.8152 55.5174 36.3206 55.2701 36.0678 54.7095C35.793 54.0995 35.9194 53.1817 36.9032 52.852C37.0516 52.8025 37.2054 52.7805 37.3538 52.7805M37.3428 50.0326C36.8921 50.0326 36.447 50.1041 36.0183 50.247C34.8697 50.6317 33.9794 51.4285 33.5177 52.4892C33.0561 53.5499 33.0671 54.7755 33.5562 55.8472C34.2377 57.342 35.6776 58.2653 37.3154 58.2653C37.7001 58.2653 38.0847 58.2159 38.4585 58.1169C39.4862 57.8421 40.349 57.1717 40.8876 56.2319C41.4537 55.2316 41.5966 54.0116 41.2778 52.8794C40.8107 51.2307 39.1564 50.0381 37.3373 50.0381L37.3428 50.0326Z" fill="white"/>
<path d="M54.8471 32.8637C55.1329 32.1877 55.3747 31.7096 55.8364 31.237L64.4043 36.0843C66.9159 33.0561 67.3996 29.0332 66.24 25.3949C65.5585 23.2406 63.569 22.0975 62.5907 20.3773C62.0522 19.4375 63.3271 17.2776 61.2992 16.5852C60.1615 16.195 58.7437 16.107 57.5841 17.437C56.3475 16.6621 55.3252 15.6729 54.9131 14.2604C54.2261 11.9027 52.6324 10.0452 50.0163 9.36917C41.7781 7.22581 32.9683 7.29176 24.6806 9.32521C22.0921 9.96272 20.5478 11.8423 19.7619 14.189C19.3497 15.4255 18.1516 17.2666 16.9261 17.1842C15.5686 16.4313 14.1727 15.7773 12.8977 16.8929C11.9249 17.7393 11.6336 19.2012 12.4085 20.5147C7.11059 24.0759 6.20376 31.3359 10.3311 36.1063L18.8277 31.2589C19.3058 31.858 19.5586 32.3746 19.8499 32.9187C7.26999 43.3332 6.42363 62.1454 18.0582 73.6975L15.7885 79.2483C15.2938 80.4574 16.0248 81.7819 17.0305 82.3919C18.0418 83.0019 19.3717 82.8865 20.317 82.0072L24.329 78.27C32.4353 82.7766 42.1958 82.7271 50.2966 78.3305L54.3965 82.0731C55.4242 83.0074 56.7597 83.0404 57.8204 82.2985C58.8536 81.5785 59.3097 80.2815 58.7821 79.012L56.6277 73.791C68.3503 62.0684 67.383 43.5531 54.8526 32.8802L54.8471 32.8637ZM43.2345 22.4767C43.0641 22.8009 42.8992 23.0867 42.9652 23.389C43.0256 23.6692 43.2345 23.9221 43.5807 24.1254L51.4122 28.7419C51.698 28.9782 50.9616 30.0664 50.5989 29.9564C46.6914 27.8735 42.4212 26.7249 37.9311 26.593L37.4694 23.1307C38.3322 22.8833 39.1402 22.9493 39.8491 22.4822C40.5691 22.004 40.7119 20.9818 40.558 20.2728C40.4261 19.6628 40.0689 18.3768 38.9697 18.3603C36.9308 18.3328 34.9249 18.8 33.1113 19.2781C32.1935 19.5199 32.089 20.718 32.1495 21.3885C32.2264 22.1964 32.5671 23.1252 33.4849 23.4769C34.2708 23.7792 35.0677 23.4384 35.8976 23.378C36.1669 24.4606 36.2823 25.4884 36.2713 26.648C31.8912 26.7524 27.7473 28.0604 23.9277 30.0279C23.5925 30.1048 22.988 29.0441 23.2133 28.7858C24.2135 27.8186 31.4075 24.1694 31.5669 23.5813C31.6878 23.1252 31.5064 22.7679 31.2921 22.3832C29.0828 18.3273 24.8456 15.9641 20.1247 16.827C21.7349 14.2275 21.691 11.5455 25.3622 10.6937C33.3696 8.83607 41.6133 8.82509 49.6042 10.7596C53.0555 11.595 53.0335 14.5187 54.5394 16.8325C49.7965 15.9971 45.4438 18.2559 43.24 22.4657L43.2345 22.4767Z" fill="#0D0F0E"/>
<path d="M62.6838 59.2491C60.3591 70.6034 50.7854 78.957 39.3816 79.8803C26.2741 80.9465 14.5791 71.9169 11.9906 59.1337C9.81423 48.3839 14.7604 37.5956 23.9274 32.0229C33.4132 26.2578 45.7128 27.1481 54.1049 34.4355C61.1945 40.5963 64.5964 49.8842 62.6838 59.2491Z" fill="#3C7020"/>
<path d="M10.7816 34.1607C7.99519 29.918 9.22072 24.62 13.2162 21.7787C14.8704 20.707 16.5192 19.7782 18.3328 18.9539C22.7569 16.9864 27.6976 18.8494 29.8465 23.1087L10.7816 34.1662V34.1607Z" fill="#EFC54D"/>
<path d="M62.4092 22.5811C65.6078 25.7027 66.2618 30.2038 63.8546 34.1003L44.7183 23.0702C46.7737 19.1022 51.3077 17.2611 55.4845 18.6571C58.0401 19.5144 60.2164 20.9213 62.4092 22.5811Z" fill="#F1C54F"/>
<path d="M56.9571 81.0839C55.5337 82.0237 53.0716 78.5998 51.7471 77.5611L55.4293 74.8517L57.3583 79.644C57.5617 80.1496 57.3583 80.8201 56.9571 81.0839Z" fill="#563C2A"/>
<path d="M19.4156 80.8641C18.8935 81.3752 18.3165 81.4466 17.8383 81.1389C17.2833 80.7761 17.036 80.2266 17.2998 79.5396C17.9043 77.9678 18.4759 76.4894 19.2398 74.8132L22.8395 77.5116L19.4101 80.8641H19.4156Z" fill="#563C2A"/>
<path d="M34.1939 22.1304C33.6499 22.2019 33.3641 20.751 33.9191 20.5916C35.458 20.1464 37.0023 19.9431 38.6071 19.8222C39.1292 19.7837 39.36 21.2126 38.9478 21.3225C37.409 21.7402 35.9031 21.9161 34.1939 22.1304Z" fill="#563C2A"/>
<path d="M54.2313 30.4126C54.5281 30.7918 53.9511 31.4348 53.6213 31.6656C53.2641 31.913 52.7914 31.3853 52.3793 31.1051C52.0605 30.8852 52.3957 30.0609 52.8684 29.7476C53.1926 29.5607 53.9675 30.0774 54.2313 30.4126Z" fill="#563C2A"/>
<path d="M21.1739 31.7041C20.7617 31.7536 20.1406 30.6819 20.4209 30.3796C20.7341 30.0499 21.2673 29.6872 21.553 29.7201C21.9597 29.7641 22.2895 30.4071 22.3554 30.7314C22.4323 31.1106 21.8169 31.6272 21.1684 31.7041H21.1739Z" fill="#563C2A"/>
<path d="M60.9309 19.7123C60.3758 19.3605 59.3756 19.0528 59.0788 18.4427C58.9799 17.8547 60.1175 17.6239 60.5737 17.8877C61.1507 18.2284 61.4915 18.811 60.9309 19.7068V19.7123Z" fill="#563C2A"/>
<path d="M15.7223 18.4977C14.9968 18.9703 14.4142 19.2341 13.6338 19.5914C13.2217 19.0143 13.458 18.2559 13.9581 17.9591C14.5792 17.5854 15.4585 17.7777 15.7278 18.4977H15.7223Z" fill="#563C2A"/>
<path d="M46.4054 73.9558C35.5622 78.8306 23.5319 74.39 18.1185 64.5141C13.9362 56.8804 14.7496 47.2518 20.1904 40.4919C26.038 33.2265 35.5017 30.4676 44.4269 33.4243C52.5332 36.1063 58.5621 43.8663 59.1447 52.6046C59.7437 61.6013 54.7645 70.2022 46.4054 73.9613V73.9558Z" fill="#0E100F"/>
<path d="M14.2604 24.3892C10.1056 27.7471 13.6229 32.1548 11.3531 31.5172C10.8585 31.3799 9.88579 26.3677 13.2492 23.6308C13.535 23.4 13.9582 23.2461 14.1835 23.4604C14.3484 23.6198 14.5682 24.1364 14.2604 24.3892Z" fill="#1C170D"/>
<path d="M61.211 23.4824C64.5964 26.2907 64.2227 31.8745 62.7114 31.5228C61.5737 31.259 64.0523 27.6372 60.4361 24.4606C60.1173 24.1804 59.9964 23.8176 60.2437 23.5593C60.4581 23.3395 60.8703 23.2021 61.2055 23.4824H61.211Z" fill="#1F1A0E"/>
<path d="M43.2619 65.0471C42.487 64.635 39.1565 62.6455 38.7224 63.1676C37.7441 64.3547 41.0746 64.9372 41.8495 65.7121C41.7781 66.8992 40.6349 68.1962 40.9482 69.4163C40.4206 70.0263 45.8394 72.5654 44.0643 73.1919C37.876 75.3738 31.0393 74.5494 25.5435 70.6199C20.6522 67.1245 17.3437 61.3869 17.0854 54.9294C16.8436 48.7851 19.2563 42.7891 23.9662 38.8596C24.4883 40.5414 24.6366 42.0472 25.5214 43.3552L28.8519 43.8993C28.6926 45.3557 26.8899 46.7186 28.3518 47.7463L31.9131 50.2524C32.1824 50.4448 32.5286 49.9996 32.5616 49.8183C32.6111 49.505 32.4792 49.1753 32.1604 48.9334L29.2037 46.6527C29.5224 45.3996 30.3468 44.3664 30.4787 42.998L26.4008 42.0472L25.1533 37.8704C32.2484 32.4955 42.3386 32.3306 49.5106 37.8704C48.8951 38.7058 47.8894 39.3652 47.807 40.4809C47.741 41.3657 48.45 42.0802 48.4829 42.8771L45.3228 44.5423L45.9384 47.7244C45.9658 48.3949 43.8665 49.1863 44.2951 49.9337C44.8997 50.9779 47.12 48.4883 47.2629 47.9497C47.4992 47.0484 46.6858 46.1526 46.6913 45.2623L50.1537 43.5201L49.3897 40.7722C49.2084 40.1237 50.2031 39.5246 50.7307 38.8596C57.7049 45.004 59.6889 55.1932 55.3472 63.4863C53.2588 67.4818 49.9283 70.5155 45.823 72.5104C45.3064 70.5484 43.8554 70.6089 42.41 69.0701L43.2454 65.0362L43.2619 65.0471Z" fill="#FFFEFF"/>
<path d="M28.7748 62.4531C28.5055 63.3874 26.2028 65.2505 26.0104 65.3109C25.8071 65.3714 25.197 65.1955 25.2465 64.8658C25.4663 63.3434 25.9005 61.8486 26.3182 60.3592C27.0766 57.6498 28.9397 58.4687 30.4016 57.7157C31.4677 53.462 32.9846 54.6876 34.5015 53.4675C34.9741 53.0883 35.4302 52.0166 35.9523 51.5495C36.1172 48.1421 37.8923 47.9387 38.2825 47.0319C38.5188 46.4878 36.2161 44.2016 38.5079 42.0802C39.1179 41.5141 40.6402 40.1786 41.2393 40.992C41.8383 41.8054 39.7224 42.9815 41.3987 45.4161C42.3055 46.7296 41.9812 48.6202 40.6402 49.483C39.4751 50.236 39.052 51.6099 39.7719 52.8355C40.2446 53.6434 40.1181 54.5392 39.7994 55.5009L48.4773 63.5413C48.7795 63.8216 48.8455 64.2667 48.7136 64.4701C48.5377 64.7394 47.9937 64.8603 47.6749 64.5635L38.8761 56.4957C37.9418 57.2431 34.485 56.6111 34.1277 57.996C32.6988 63.5413 29.5882 59.6448 28.7748 62.4476V62.4531Z" fill="#0E110F"/>
<path d="M55.3304 54.704C54.2312 54.737 52.3627 54.9678 52.3517 54.083C52.3352 53.1487 54.0663 53.385 55.3304 53.429C55.8195 53.4455 56.0613 53.6818 56.0448 54.0885C56.0284 54.4183 55.825 54.6931 55.3304 54.7095V54.704Z" fill="#151515"/>
<path d="M37.2603 69.2295C38.3704 69.1745 38.1781 72.5819 37.5076 72.7138C37.2658 72.7633 36.7766 72.7468 36.7052 72.3676C36.5788 71.7026 36.3095 69.2734 37.2548 69.2295H37.2603Z" fill="#141515"/>
<path d="M21.7675 54.6821C20.7398 54.77 19.8989 54.748 18.9976 54.6546C18.7393 54.4952 18.6294 54.2864 18.6404 54.083C18.6844 53.0058 21.9709 53.1927 22.1962 53.8522C22.2897 54.127 22.1962 54.4512 21.7675 54.6821Z" fill="#111211"/>
<path d="M37.8758 35.771C37.9143 36.6943 38.332 38.9696 37.2823 38.9311C36.2326 38.8926 36.6778 36.6943 36.6997 35.8095C36.9855 35.3808 37.557 35.3643 37.8813 35.771H37.8758Z" fill="#181818"/>
<path d="M46.7625 70.1967C46.0151 70.7958 45.3336 69.0976 44.817 68.2237C44.6246 67.8995 44.6631 67.5477 44.9324 67.3664C45.7678 66.8113 47.466 69.6361 46.768 70.1967H46.7625Z" fill="#212222"/>
<path d="M51.1976 46.6967C50.7964 46.8285 50.6205 46.2955 50.5985 46.1086C50.5711 45.8833 50.714 45.5645 51.0272 45.4052L52.6815 44.5478C53.0387 44.3609 53.3629 44.4434 53.4893 44.6192C54.1214 45.5041 52.0109 46.4329 51.1976 46.7022V46.6967Z" fill="#181818"/>
<path d="M29.8136 39.75C30.0554 40.1567 29.896 40.5029 29.7146 40.6348C29.4728 40.8161 29.0881 40.8656 28.8573 40.5524C28.4122 39.9423 27.0492 38.1012 28.0714 37.8484C28.3132 37.788 28.6594 37.799 28.8353 38.0902L29.8136 39.75Z" fill="#161616"/>
<path d="M52.7089 63.5743L50.8678 62.4696C50.615 62.3212 50.5435 62.0464 50.582 61.8486C50.8073 60.634 53.9345 62.607 53.6597 63.2115C53.5058 63.5523 53.1046 63.8051 52.7089 63.5688V63.5743Z" fill="#181919"/>
<path d="M23.8561 62.3927C23.1197 62.9697 21.5314 64.1733 21.0918 63.2005C20.8115 62.5795 23.5649 60.8593 23.9881 61.6782C24.076 61.8431 24.1199 62.1893 23.8561 62.3927Z" fill="#1F1F1F"/>
<path d="M28.7749 69.8999C28.5386 70.2572 28.2858 70.3176 28.1209 70.2627C27.8186 70.1637 27.4944 69.856 27.6593 69.4603C27.8901 68.8942 28.8464 66.9652 29.5993 67.3664C29.94 67.5477 30.0335 67.9764 29.8026 68.3336L28.7749 69.8999Z" fill="#181918"/>
<path d="M46.6419 37.9309C47.4333 38.3046 45.845 40.7282 45.246 40.8161C45.0481 40.8436 44.581 40.5963 44.6635 40.2666C44.7789 39.8049 45.7406 37.4967 46.6419 37.9254V37.9309Z" fill="#191A19"/>
<path d="M24.0211 46.2625C23.6474 47.1748 22.3284 46.1965 21.3336 45.5755C21.0533 45.3997 20.9544 45.1249 21.0423 44.8775C21.427 43.7839 24.2739 45.658 24.0266 46.2625H24.0211Z" fill="#181818"/>
<path d="M30.1654 60.1779C27.478 59.947 28.3023 62.2443 27.0713 62.6015C27.2527 61.6947 27.3021 60.5736 27.9726 59.7547C28.819 58.7215 31.6657 60.035 31.8306 57.4025C31.957 55.358 34.3917 54.8469 34.7709 55.1987C34.9578 55.3745 35.3754 56.0285 34.9247 56.1165C30.9568 56.8804 34.0674 60.5131 30.1654 60.1779Z" fill="#231F20"/>
<path d="M38.3211 51.1428C38.3047 51.6759 37.4363 51.533 37.3759 51.2362C36.9637 49.1973 39.3489 48.3344 39.5797 47.2957C39.9149 45.7954 37.4583 44.6577 39.5412 42.8716C39.0026 45.6195 42.1022 46.9605 39.794 48.6202C38.9861 49.2027 38.3596 49.8897 38.3156 51.1428H38.3211Z" fill="#231F20"/>
<path d="M36.8923 52.852C37.6672 52.5937 38.4805 53.0663 38.6344 53.6214C38.8542 54.3963 38.508 55.2591 37.7551 55.457C37.1121 55.6273 36.3867 55.4295 36.0569 54.704C35.7821 54.094 35.9085 53.1762 36.8923 52.8465V52.852Z" fill="#E2BC4F"/>
</g>
<defs>
<filter id="filter0_dnn_535_891" x="-2" y="-2" width="84" height="101" filterUnits="userSpaceOnUse" color-interpolation-filters="sRGB">
<feFlood flood-opacity="0" result="BackgroundImageFix"/>
<feColorMatrix in="SourceAlpha" type="matrix" values="0 0 0 0 0 0 0 0 0 0 0 0 0 0 0 0 0 0 127 0" result="hardAlpha"/>
<feOffset dx="3" dy="3"/>
<feGaussianBlur stdDeviation="2.5"/>
<feComposite in2="hardAlpha" operator="out"/>
<feColorMatrix type="matrix" values="0 0 0 0 0 0 0 0 0 0 0 0 0 0 0 0 0 0 0.25 0"/>
<feBlend mode="normal" in2="BackgroundImageFix" result="effect1_dropShadow_535_891"/>
<feBlend mode="normal" in="SourceGraphic" in2="BackgroundImageFix" result="shape"/>
<feTurbulence type="fractalNoise" baseFrequency="0.5 0.5" stitchTiles="stitch" numOctaves="3" result="noise" seed="7937" />
<feColorMatrix in="noise" type="luminanceToAlpha" result="alphaNoise" />
<feComponentTransfer in="alphaNoise" result="coloredNoise1">
<feFuncA type="discrete" tableValues="0 0 0 0 0 0 0 0 0 0 0 1 1 1 1 1 1 1 1 1 1 1 1 1 1 1 1 1 1 1 1 1 1 1 1 1 1 1 1 0 0 0 0 0 0 0 0 0 0 0 0 0 0 0 0 0 0 0 0 0 0 0 0 0 0 0 0 0 0 0 0 0 0 0 0 0 0 0 0 0 0 0 0 0 0 0 0 0 0 0 0 0 0 0 0 0 0 0 0 0 "/>
</feComponentTransfer>
<feComposite operator="in" in2="shape" in="coloredNoise1" result="noise1Clipped" />
<feComponentTransfer in="alphaNoise" result="coloredNoise2">
<feFuncA type="discrete" tableValues="0 0 0 0 0 0 0 0 0 0 0 0 0 0 0 0 0 0 0 0 0 0 0 0 0 0 0 0 0 0 0 0 0 0 0 0 0 0 0 0 0 0 0 0 0 0 0 0 0 0 0 0 0 0 0 0 0 0 0 0 0 1 1 1 1 1 1 1 1 1 1 1 1 1 1 1 1 1 1 1 1 1 1 1 1 1 1 1 1 0 0 0 0 0 0 0 0 0 0 0 "/>
</feComponentTransfer>
<feComposite operator="in" in2="shape" in="coloredNoise2" result="noise2Clipped" />
<feFlood flood-color="rgba(0, 0, 0, 0.1)" result="color1Flood" />
<feComposite operator="in" in2="noise1Clipped" in="color1Flood" result="color1" />
<feFlood flood-color="rgba(255, 255, 255, 0.1)" result="color2Flood" />
<feComposite operator="in" in2="noise2Clipped" in="color2Flood" result="color2" />
<feMerge result="effect2_noise_535_891">
<feMergeNode in="shape" />
<feMergeNode in="color1" />
<feMergeNode in="color2" />
</feMerge>
<feTurbulence type="fractalNoise" baseFrequency="0.3333333432674408 0.3333333432674408" stitchTiles="stitch" numOctaves="3" result="noise" seed="1755" />
<feColorMatrix in="noise" type="luminanceToAlpha" result="alphaNoise" />
<feComponentTransfer in="alphaNoise" result="coloredNoise1">
<feFuncA type="discrete" tableValues="0 0 0 1 1 1 1 1 1 1 1 1 1 1 1 1 1 1 1 1 1 1 1 1 1 1 1 1 1 1 1 1 1 1 1 1 1 1 1 1 1 1 1 1 1 1 0 0 0 0 0 0 0 0 0 0 0 0 0 0 0 0 0 0 0 0 0 0 0 0 0 0 0 0 0 0 0 0 0 0 0 0 0 0 0 0 0 0 0 0 0 0 0 0 0 0 0 0 0 0 "/>
</feComponentTransfer>
<feComposite operator="in" in2="effect2_noise_535_891" in="coloredNoise1" result="noise1Clipped" />
<feComponentTransfer in="alphaNoise" result="coloredNoise2">
<feFuncA type="discrete" tableValues="0 0 0 0 0 0 0 0 0 0 0 0 0 0 0 0 0 0 0 0 0 0 0 0 0 0 0 0 0 0 0 0 0 0 0 0 0 0 0 0 0 0 0 0 0 0 0 0 0 0 0 0 0 0 1 1 1 1 1 1 1 1 1 1 1 1 1 1 1 1 1 1 1 1 1 1 1 1 1 1 1 1 1 1 1 1 1 1 1 1 1 1 1 1 1 1 1 0 0 0 "/>
</feComponentTransfer>
<feComposite operator="in" in2="effect2_noise_535_891" in="coloredNoise2" result="noise2Clipped" />
<feFlood flood-color="rgba(0, 0, 0, 0.1)" result="color1Flood" />
<feComposite operator="in" in2="noise1Clipped" in="color1Flood" result="color1" />
<feFlood flood-color="rgba(21, 21, 21, 0.1)" result="color2Flood" />
<feComposite operator="in" in2="noise2Clipped" in="color2Flood" result="color2" />
<feMerge result="effect3_noise_535_891">
<feMergeNode in="effect2_noise_535_891" />
<feMergeNode in="color1" />
<feMergeNode in="color2" />
</feMerge>
<feBlend mode="normal" in="effect3_noise_535_891" in2="effect1_dropShadow_535_891" result="effect3_noise_535_891"/>
</filter>
</defs>
</svg>
