<svg width="104" height="76" viewBox="0 0 104 76" fill="none" xmlns="http://www.w3.org/2000/svg">
<g filter="url(#filter0_dnn_535_1032)">
<path d="M77.4545 66.2283C75.3797 66.2283 73.1767 65.5143 71.2544 64.2267C66.9217 61.3097 64.6821 56.7451 63.2236 52.9799L46.8934 40.2074L28.3908 48.0918C28.1345 48.2077 27.5365 48.995 27.0971 49.5686C25.2358 52.0157 22.1175 56.1043 14.4589 57.0136C14.0745 57.0563 13.69 57.0807 13.3116 57.0807C9.64407 57.0807 6.47692 54.8655 5.24422 51.4359C3.98102 47.927 4.88417 44.235 7.52653 41.8124C6.78814 41.3913 6.08635 40.897 5.42118 40.3417C2.85815 38.1875 3.48671 34.7457 3.9444 32.2376L4.04813 31.664C4.52412 28.9667 7.09936 27.3313 9.81495 25.9704C11.127 25.3114 12.4512 24.994 13.8731 24.994C16.2836 24.994 18.4438 25.9216 20.537 26.8187C22.1785 27.5265 23.7346 28.1917 25.2541 28.3382C27.4998 28.5578 29.8554 28.7287 32.3696 28.8447L28.0918 25.5005C27.4632 25.3419 26.8408 25.1954 26.2183 25.0551C23.0451 24.3167 19.768 23.5477 16.8633 21.4851C12.9516 18.7085 9.85766 13.857 11.7494 9.28631C13.1774 5.83842 16.7351 3.52561 20.5919 3.52561C22.4226 3.52561 24.174 4.04431 25.6508 5.02681C30.1422 8.01091 32.9371 11.7517 34.4139 16.7679L48.4435 27.5998L65.4937 20.344C65.9758 20.1365 66.7081 19.3004 67.4892 18.4095C69.7837 15.7793 73.256 11.8066 80.5301 11.056C80.7498 11.0316 80.9634 11.0255 81.177 11.0255C85.4243 11.0255 88.7806 15.0836 89.2505 18.8794C89.5801 21.5034 88.86 23.8712 87.2062 25.7934C89.8242 26.5318 91.8624 28.2039 92.9669 30.529C94.0959 32.9089 94.1691 35.8198 93.1561 37.9434C92.0211 40.3234 89.9218 42.0382 86.9194 43.0451C85.345 43.5699 83.9048 43.8262 82.5074 43.8262C79.7491 43.8262 77.5583 42.8132 75.2454 41.7392C73.8785 41.1045 72.4749 40.4576 70.7723 39.9023H64.3648L69.9485 44.2045C70.2109 44.3144 70.992 44.5158 71.6328 44.6805C75.4529 45.6691 83.4044 47.7256 85.8393 54.0356C86.6997 56.263 85.9918 60.2601 84.8385 62.0786C83.142 64.7515 80.5241 66.2283 77.4667 66.2283H77.4545Z" fill="#BFBEBE"/>
<path d="M20.5914 5.05123C22.0621 5.05123 23.5328 5.44787 24.8021 6.29611C29.2813 9.27411 31.7711 12.8746 33.0771 17.665L48.2111 29.3512L66.0852 21.7414C68.7337 20.6125 71.0893 13.558 80.6762 12.5694C80.841 12.5511 81.0057 12.545 81.1705 12.545C84.4658 12.545 87.3401 15.9075 87.7306 19.0563C88.17 22.5958 86.3942 25.11 83.6481 26.7576C84.5208 26.8003 85.4361 26.9224 86.443 27.1604C92.2098 28.5518 93.1496 34.3857 91.7704 37.2722C90.7696 39.3592 88.9389 40.7383 86.4247 41.5805C84.9418 42.0748 83.6664 42.2823 82.5008 42.2823C78.5587 42.2823 75.9041 39.9084 71.0038 38.3584L59.8729 38.3462L69.0754 45.4494C70.1922 46.316 81.6099 47.3351 84.3987 54.5665C85.0639 56.2996 84.4536 59.8024 83.5321 61.2487C82.0187 63.6408 79.7852 64.6905 77.448 64.6905C75.6356 64.6905 73.756 64.0619 72.0961 62.9452C68.2882 60.3821 66.1341 56.3728 64.4864 52.0218L47.1127 38.4377L27.7801 46.676C25.6321 47.5914 24.1065 54.3224 14.2693 55.488C13.9398 55.5246 13.6164 55.5429 13.3052 55.5429C10.1258 55.5429 7.64814 53.6145 6.67175 50.905C5.64654 48.0491 6.20797 44.6988 9.03951 42.5081C9.5277 42.1297 10.0281 41.7941 10.5468 41.489C9.08834 41.0008 7.68478 40.2379 6.39106 39.1517C4.35284 37.4369 5.09733 34.3979 5.53671 31.902C5.90285 29.8028 8.2889 28.4114 10.4858 27.313C11.6514 26.7271 12.7681 26.5013 13.8605 26.5013C17.766 26.5013 21.3054 29.4671 25.0951 29.8394C29.0555 30.2299 33.0161 30.4252 36.9888 30.5167L28.7687 24.0848C24.8632 23.0901 21.0186 22.5591 17.7355 20.2219C14.5256 17.9396 11.5354 13.7472 13.1526 9.85385C14.4219 6.79042 17.5036 5.0329 20.5854 5.0329M70.4363 30.4008C71.7605 30.0591 72.9505 29.6441 74.0672 29.2108C73.8658 29.2108 73.6645 29.2169 73.4631 29.2169C72.0961 29.2169 70.778 29.101 69.588 28.8813L66.1401 30.352C67.5742 30.352 69.0083 30.3703 70.4424 30.4008M24.1614 39.5911L26.8831 38.4316C25.6687 38.5537 24.5093 38.8466 23.3742 39.4812C23.6366 39.5179 23.899 39.5484 24.1614 39.5911ZM20.5914 2C16.0512 2 12.0297 4.63014 10.3393 8.70048C8.11804 14.0462 11.572 19.5994 15.978 22.73C19.1269 24.9696 22.5564 25.769 25.8701 26.544C26.3766 26.66 26.8953 26.782 27.4079 26.9102L27.5421 27.0139C26.8159 26.9529 26.102 26.8919 25.4002 26.8248C24.1126 26.6966 22.6663 26.0803 21.1346 25.4212C19.0048 24.5058 16.5944 23.4745 13.8727 23.4745C12.2311 23.4745 10.6384 23.859 9.13106 24.6096C7.20879 25.5738 3.2178 27.5754 2.54653 31.4016C2.51601 31.5847 2.47937 31.7738 2.44276 31.9691C1.94846 34.6847 1.20397 38.7917 4.43827 41.5134C4.68847 41.7209 4.93867 41.9222 5.20108 42.1175C3.12624 44.8697 2.5648 48.4946 3.8097 51.9608C5.26208 56.0067 8.99069 58.6185 13.3112 58.6185C13.7506 58.6185 14.1961 58.5941 14.6355 58.5392C22.9348 57.5567 26.4315 52.9677 28.3049 50.5023C28.5918 50.13 28.9701 49.6296 29.1715 49.4221L46.655 41.9711L61.9478 53.9318C63.4917 57.8252 65.8655 62.4509 70.3936 65.496C72.5966 66.9789 75.0314 67.76 77.448 67.76C81.0484 67.76 84.124 66.033 86.1073 62.9024C87.5048 60.6934 88.2859 56.2019 87.2424 53.4925C84.5268 46.4502 76.0627 44.2595 71.9985 43.2098C71.5347 43.0878 70.9733 42.9413 70.6682 42.8498L68.8252 41.4279H70.5095C72.029 41.9405 73.3288 42.5447 74.592 43.1244C77.0696 44.2717 79.4069 45.3518 82.5008 45.3518C84.0631 45.3518 85.668 45.0711 87.3949 44.4913C90.8001 43.3502 93.1984 41.3669 94.5226 38.6025C95.7309 36.0761 95.6577 32.6526 94.3395 29.876C93.3326 27.7584 91.685 26.1108 89.5797 25.0734C90.6415 23.1877 91.0503 21.0274 90.7574 18.6902C90.2021 14.2537 86.2172 9.4999 81.1705 9.4999C80.902 9.4999 80.6335 9.51211 80.365 9.54262C72.4928 10.3542 68.636 14.7663 66.3293 17.4087C65.8289 17.9823 65.1393 18.7695 64.8464 18.9587L48.6566 25.8484L35.7194 15.8587C34.1023 10.7204 31.1426 6.85753 26.4864 3.75749C24.7594 2.61023 22.7151 2 20.5854 2H20.5914Z" fill="white"/>
<path d="M24.8026 6.2961C29.2818 9.2741 31.7716 12.8745 33.0776 17.665L69.0759 45.4616C70.1927 46.3282 81.6104 47.3473 84.3992 54.5787C85.0644 56.3118 84.4541 59.8146 83.5326 61.2609C80.8414 65.5082 75.8985 65.5082 72.1027 62.9574C68.307 60.4066 66.1406 56.385 64.493 52.034L28.7692 24.097C24.8637 23.1023 21.0191 22.5713 17.736 20.2341C14.4529 17.8969 11.5359 13.7594 13.1531 9.85993C15.0326 5.33802 20.8543 3.66596 24.7965 6.29002L24.8026 6.2961Z" fill="#090C0A"/>
<path d="M31.9667 20.1304L66.2136 46.5418C67.0618 47.1947 66.0733 48.6044 65.7559 49.593L30.5265 22.3028C30.0566 21.9367 31.1062 20.3379 31.9605 20.1243L31.9667 20.1304Z" fill="#4EB484"/>
<path d="M78.8762 61.505C73.1399 61.8467 71.4129 56.9831 70.3511 52.0645C71.358 50.7281 72.8836 50.069 74.934 50.0873C78.5467 52.6747 78.3941 49.6601 82.2631 55.6344C82.9343 56.6718 82.0434 58.4355 81.8664 59.4424C81.5186 61.4318 80.0417 61.2487 78.8762 61.5111V61.505Z" fill="#FCFCFC"/>
<path d="M74.9342 50.0873C75.4285 52.0767 72.4444 50.3924 71.4436 52.2659C71.3947 52.3635 74.2934 59.6682 74.9097 60.3639C76.5696 59.5217 77.9915 60.2235 78.8763 61.505C77.8389 61.7369 77.5399 62.7072 76.6428 62.4082C76.1119 62.2312 75.4407 61.1632 74.9097 61.09C71.3764 60.6323 68.7219 55.2256 66.9766 52.0584C68.2337 51.0576 69.2955 49.2757 70.8272 49.0804C72.3589 48.8851 73.6771 49.9897 74.9342 50.0812V50.0873Z" fill="#C4C3C3"/>
<path d="M6.40359 39.17C4.36538 37.4552 5.1099 34.4162 5.54927 31.9203C5.91542 29.8211 8.30147 28.4297 10.4984 27.3313C15.8258 24.6584 20.2562 29.3756 25.1076 29.8577C40.1135 31.3345 55.211 30.0957 70.4366 30.4008C76.5818 28.8264 79.8039 25.5677 86.4495 27.1665C92.2163 28.5579 93.156 34.3918 91.7769 37.2783C90.7761 39.3653 88.9453 40.7445 86.4311 41.5866C79.932 43.7652 77.3568 40.3722 71.0042 38.3645L29.6662 38.3218C27.2374 38.3218 25.0771 38.3584 22.9901 39.6887C18.0105 42.8498 11.3649 43.3319 6.40359 39.1639V39.17Z" fill="#0A0D0B"/>
<path d="M47.8816 35.295C40.9492 36.0089 33.9558 35.6306 26.5902 35.5513C25.7846 35.5452 26.0166 33.0553 27.2126 33.0492L63.2049 32.9882C65.8594 32.9882 68.7764 32.1461 70.4851 34.0989L69.3439 34.764C62.0759 35.0692 54.9239 35.24 47.8755 35.2889L47.8816 35.295Z" fill="#58AE86"/>
<path d="M86.9495 38.279C82.867 38.7428 79.3642 38.7489 76.4534 35.179C74.6409 32.9516 74.9278 32.2742 77.6189 31.5236L77.918 30.3825C81.3231 29.5037 85.4422 28.6433 88.2371 30.7608C89.537 31.7494 90.0679 34.0806 89.8116 35.3377C89.5553 36.5948 88.5789 38.2729 86.9495 38.279Z" fill="#FCFCFB"/>
<path d="M19.9208 38.3218C15.4782 38.9076 4.01779 36.8023 11.1577 31.6213L12.0181 29.9065C16.3874 29.0705 20.5188 30.1567 23.8935 32.7685C23.5639 34.3308 24.0887 35.5513 23.5822 36.8938C21.9224 36.9548 20.9643 37.9129 19.9269 38.3157L19.9208 38.3218Z" fill="#FBFBFA"/>
<path d="M12.018 29.9065C12.3231 30.3825 12.433 30.9134 12.4391 31.3345C12.4696 33.3483 9.39398 33.2445 9.77843 34.9654C18.2975 39.5362 15.295 35.0936 19.9207 38.3218C13.1409 40.9397 15.1059 39.4141 13.385 39.3043C11.5115 39.1883 9.1865 39.0358 7.83786 37.4247C6.66619 36.0212 7.52664 33.8975 8.11247 32.4634C8.72882 30.9439 10.5229 30.5411 12.018 29.9065Z" fill="#BCBBBB"/>
<path d="M77.9181 30.3764C78.3331 30.5412 79.3705 31.3162 78.8823 31.8349C78.0707 32.7075 76.8563 32.4268 76.1667 33.2689C84.5149 41.013 82.5743 35.24 86.9497 38.2729C85.3387 38.2729 84.5148 39.7009 83.3066 39.884C76.2643 38.6269 80.6093 39.1822 74.0431 37.1928L73.085 32.7747C74.098 31.3345 76.4596 31.011 77.9181 30.3703V30.3764Z" fill="#CCCBCA"/>
<path d="M47.882 35.295L55.8518 34.4772C60.9046 33.9585 65.7073 33.7266 70.4855 34.105C70.4489 34.4406 70.754 35.1912 70.3635 35.4536C63.0161 35.9479 55.9434 35.9296 48.5655 35.832C48.1139 35.832 47.6196 35.6489 47.8759 35.295H47.882Z" fill="#3B8B65"/>
<path d="M29.5073 18.9038C29.1778 19.6422 28.653 20.7833 27.7742 20.8688C27.2372 20.9176 19.0355 16.8167 18.3825 15.7549C17.8394 13.4055 16.9607 11.7822 15.4595 10.043C16.7227 7.61425 20.2011 7.73629 22.0013 7.88275C25.7177 8.18177 30.3189 15.5352 30.38 17.4575C30.3983 17.9396 29.3242 18.3973 29.5012 18.9099L29.5073 18.9038Z" fill="#FBFBFA"/>
<path d="M15.472 10.043C18.3706 9.70738 18.7368 13.1431 19.4386 15.1691C21.4768 17.7443 25.4189 17.6345 27.6524 20.0693C28.3786 20.8627 28.9096 19.3309 29.5076 18.9038C29.5869 19.9107 28.2383 21.839 27.3046 21.418C24.5829 20.1792 21.9344 19.6727 19.3775 18.0494C16.845 16.4445 14.0196 12.8257 15.4659 10.043H15.472Z" fill="#BDBDBD"/>
<path d="M14.2815 55.5002C10.6383 55.9335 7.75794 53.9013 6.68391 50.9233C5.6587 48.0674 6.22013 44.7171 9.05166 42.5264C13.3173 39.2249 18.84 38.7795 24.1613 39.5911L66.0852 21.7475C68.7336 20.6186 71.0892 13.5641 80.6762 12.5755C84.1729 12.2155 87.3217 15.7549 87.7305 19.0625C88.7985 27.6303 76.8926 30.2238 69.5819 28.8813L27.7923 46.6821C25.6442 47.5975 24.1186 54.3285 14.2815 55.4941V55.5002Z" fill="#0A0C0B"/>
<path d="M27.2373 44.052C26.627 44.3083 25.614 42.0443 26.0351 41.4523L66.8117 24.1458C67.6782 24.9025 67.9345 26.0131 68.0566 26.9773L27.2373 44.0459V44.052Z" fill="#55B287"/>
<path d="M24.3629 45.0406C24.546 45.3579 24.6741 45.6142 24.6131 45.6752C21.452 48.7142 13.7385 55.0059 10.5958 49.5442C9.24104 49.5686 8.6735 49.117 8.89929 47.6646C8.87488 43.4783 18.9256 40.6407 23.1912 42.1419C24.1432 42.4775 23.7832 44.5463 24.3629 45.0406Z" fill="#FCFCFC"/>
<path d="M84.6796 22.2357C82.0799 23.8651 73.5487 26.1596 71.1627 23.8468C70.2656 22.9741 70.0093 22.016 70.9063 21.0762C72.554 19.1784 74.0796 16.8717 76.3497 16.2797L80.4627 15.2057C82.2203 14.748 83.7337 16.5543 84.6308 17.4697C86.0587 18.9221 84.8138 20.643 84.6857 22.2357H84.6796Z" fill="#FBFAFA"/>
<path d="M70.9003 21.0702C71.1688 21.9367 71.6387 22.8765 72.5419 23.3464C73.1399 23.6576 80.5056 23.1755 81.0243 22.9009C81.6345 22.5775 82.1471 21.7597 82.8306 21.6255C83.3798 21.5156 84.167 21.6438 84.6797 22.2357C84.5393 23.9444 83.2517 23.5111 82.4035 24.2556C80.8351 25.6287 79.8404 26.4647 77.5642 26.4464C75.288 26.4281 72.8226 27.3557 70.7661 26.1352C69.9483 25.6531 69.4846 23.8895 69.4419 22.9192C69.4113 22.2235 70.1314 21.656 70.9064 21.0702H70.9003Z" fill="#BCBABB"/>
<path d="M8.90566 47.6585C9.19247 48.6532 10.5838 47.9819 11.2429 48.4824C11.9752 49.0377 12.1216 50.191 12.738 50.4473C13.6106 50.8135 17.6565 50.1605 20.2501 47.6951C21.4706 46.5296 23.4295 46.2977 24.3692 45.0345C25.0466 45.4555 25.4982 45.6691 25.0222 46.1085L24.2289 46.853C21.9222 49.0072 20.1525 52.0035 15.1729 52.7907C12.8906 53.1507 11.963 53.8647 10.3214 52.3391C8.88735 51.0027 8.08183 49.471 8.91176 47.6524L8.90566 47.6585Z" fill="#BFBEBE"/>
</g>
<defs>
<filter id="filter0_dnn_535_1032" x="0" y="0" width="103.381" height="76" filterUnits="userSpaceOnUse" color-interpolation-filters="sRGB">
<feFlood flood-opacity="0" result="BackgroundImageFix"/>
<feColorMatrix in="SourceAlpha" type="matrix" values="0 0 0 0 0 0 0 0 0 0 0 0 0 0 0 0 0 0 127 0" result="hardAlpha"/>
<feOffset dx="3" dy="3"/>
<feGaussianBlur stdDeviation="2.5"/>
<feComposite in2="hardAlpha" operator="out"/>
<feColorMatrix type="matrix" values="0 0 0 0 0 0 0 0 0 0 0 0 0 0 0 0 0 0 0.25 0"/>
<feBlend mode="normal" in2="BackgroundImageFix" result="effect1_dropShadow_535_1032"/>
<feBlend mode="normal" in="SourceGraphic" in2="BackgroundImageFix" result="shape"/>
<feTurbulence type="fractalNoise" baseFrequency="0.5 0.5" stitchTiles="stitch" numOctaves="3" result="noise" seed="7937" />
<feColorMatrix in="noise" type="luminanceToAlpha" result="alphaNoise" />
<feComponentTransfer in="alphaNoise" result="coloredNoise1">
<feFuncA type="discrete" tableValues="0 0 0 0 0 0 0 0 0 0 0 1 1 1 1 1 1 1 1 1 1 1 1 1 1 1 1 1 1 1 1 1 1 1 1 1 1 1 1 0 0 0 0 0 0 0 0 0 0 0 0 0 0 0 0 0 0 0 0 0 0 0 0 0 0 0 0 0 0 0 0 0 0 0 0 0 0 0 0 0 0 0 0 0 0 0 0 0 0 0 0 0 0 0 0 0 0 0 0 0 "/>
</feComponentTransfer>
<feComposite operator="in" in2="shape" in="coloredNoise1" result="noise1Clipped" />
<feComponentTransfer in="alphaNoise" result="coloredNoise2">
<feFuncA type="discrete" tableValues="0 0 0 0 0 0 0 0 0 0 0 0 0 0 0 0 0 0 0 0 0 0 0 0 0 0 0 0 0 0 0 0 0 0 0 0 0 0 0 0 0 0 0 0 0 0 0 0 0 0 0 0 0 0 0 0 0 0 0 0 0 1 1 1 1 1 1 1 1 1 1 1 1 1 1 1 1 1 1 1 1 1 1 1 1 1 1 1 1 0 0 0 0 0 0 0 0 0 0 0 "/>
</feComponentTransfer>
<feComposite operator="in" in2="shape" in="coloredNoise2" result="noise2Clipped" />
<feFlood flood-color="rgba(0, 0, 0, 0.1)" result="color1Flood" />
<feComposite operator="in" in2="noise1Clipped" in="color1Flood" result="color1" />
<feFlood flood-color="rgba(255, 255, 255, 0.1)" result="color2Flood" />
<feComposite operator="in" in2="noise2Clipped" in="color2Flood" result="color2" />
<feMerge result="effect2_noise_535_1032">
<feMergeNode in="shape" />
<feMergeNode in="color1" />
<feMergeNode in="color2" />
</feMerge>
<feTurbulence type="fractalNoise" baseFrequency="0.3333333432674408 0.3333333432674408" stitchTiles="stitch" numOctaves="3" result="noise" seed="1755" />
<feColorMatrix in="noise" type="luminanceToAlpha" result="alphaNoise" />
<feComponentTransfer in="alphaNoise" result="coloredNoise1">
<feFuncA type="discrete" tableValues="0 0 0 1 1 1 1 1 1 1 1 1 1 1 1 1 1 1 1 1 1 1 1 1 1 1 1 1 1 1 1 1 1 1 1 1 1 1 1 1 1 1 1 1 1 1 0 0 0 0 0 0 0 0 0 0 0 0 0 0 0 0 0 0 0 0 0 0 0 0 0 0 0 0 0 0 0 0 0 0 0 0 0 0 0 0 0 0 0 0 0 0 0 0 0 0 0 0 0 0 "/>
</feComponentTransfer>
<feComposite operator="in" in2="effect2_noise_535_1032" in="coloredNoise1" result="noise1Clipped" />
<feComponentTransfer in="alphaNoise" result="coloredNoise2">
<feFuncA type="discrete" tableValues="0 0 0 0 0 0 0 0 0 0 0 0 0 0 0 0 0 0 0 0 0 0 0 0 0 0 0 0 0 0 0 0 0 0 0 0 0 0 0 0 0 0 0 0 0 0 0 0 0 0 0 0 0 0 1 1 1 1 1 1 1 1 1 1 1 1 1 1 1 1 1 1 1 1 1 1 1 1 1 1 1 1 1 1 1 1 1 1 1 1 1 1 1 1 1 1 1 0 0 0 "/>
</feComponentTransfer>
<feComposite operator="in" in2="effect2_noise_535_1032" in="coloredNoise2" result="noise2Clipped" />
<feFlood flood-color="rgba(0, 0, 0, 0.1)" result="color1Flood" />
<feComposite operator="in" in2="noise1Clipped" in="color1Flood" result="color1" />
<feFlood flood-color="rgba(21, 21, 21, 0.1)" result="color2Flood" />
<feComposite operator="in" in2="noise2Clipped" in="color2Flood" result="color2" />
<feMerge result="effect3_noise_535_1032">
<feMergeNode in="effect2_noise_535_1032" />
<feMergeNode in="color1" />
<feMergeNode in="color2" />
</feMerge>
<feBlend mode="normal" in="effect3_noise_535_1032" in2="effect1_dropShadow_535_1032" result="effect3_noise_535_1032"/>
</filter>
</defs>
</svg>
