<svg width="130" height="87" viewBox="0 0 130 87" fill="none" xmlns="http://www.w3.org/2000/svg">
<g filter="url(#filter0_dnn_463_1066)">
<g filter="url(#filter1_d_463_1066)">
<path d="M64.6507 71.6332C63.8763 71.6332 63.1423 71.4442 62.5362 71.0797C60.0918 69.6285 61.5329 66.6992 63.1962 63.3041C64.6103 60.4288 66.543 56.487 67.2838 52.0458C67.3107 51.8771 67.3309 51.7218 67.3511 51.5936C65.0211 58.7617 61.4184 64.2423 56.6305 67.9006C55.9705 68.4068 55.0749 68.6836 54.1119 68.6836C53.6203 68.6836 52.6843 68.6026 51.9301 68.0761C49.6068 66.436 51.2297 63.1152 53.2836 58.9102C54.5631 56.2913 56.1187 53.1122 56.3745 50.8579C56.2937 50.8444 56.2062 50.8376 56.1119 50.8309C54.7382 55.2924 48.7785 63.7024 44.6168 63.7024C44.105 63.7024 43.6269 63.5876 43.1892 63.3649C42.1522 62.8317 41.7346 62.0487 41.5596 61.4818C41.041 59.7741 42.0714 57.9247 43.2565 55.7783C44.1993 54.0774 45.2498 52.1875 45.5529 50.3652C45.5057 50.3652 45.4519 50.3652 45.398 50.3652C45.2229 50.3652 45.0882 50.3787 44.9939 50.3989C43.3374 53.173 40.3205 58.1609 36.6167 58.1609C35.8019 58.1609 35.0208 57.9247 34.307 57.4522C31.9298 55.8796 33.3238 53.0852 34.2463 51.2359C34.4753 50.7769 34.7716 50.1897 34.9736 49.6767C34.3878 49.5215 33.7211 49.3932 33.1824 49.3932C33.0409 49.3932 32.9399 49.4 32.8659 49.4135C28.7109 57.3847 21.0139 66.9962 7.78138 68.1234C7.66691 68.1301 7.55243 68.1369 7.43795 68.1369C6.50191 68.1369 5.5524 67.8196 4.83185 67.2594C4.11131 66.6992 3.72746 65.8015 3.68706 64.5933C3.53218 60.0036 8.60294 48.86 11.7208 44.6685C8.21237 39.7953 1.77458 26.5931 4.38741 22.8808C5.07428 21.9021 6.32682 21.3419 7.81506 21.3419C8.03728 21.3419 8.26624 21.3554 8.50193 21.3824C18.7647 22.5635 27.5459 29.3739 32.6908 40.1058C32.8591 40.1328 33.0881 40.1598 33.3911 40.1598C33.9164 40.1598 34.4888 40.0923 35.0477 40.0045C34.8389 39.4443 34.5426 38.8571 34.2531 38.2901C33.3979 36.5892 32.3271 34.4766 33.876 32.6812C34.5157 31.9387 35.5662 31.4933 36.6841 31.4933C37.1555 31.4933 37.6201 31.5743 38.0578 31.7363C41.7818 33.0862 43.0882 35.8265 43.9502 37.6422C44.7313 39.2823 44.9266 39.4443 45.4047 39.4443C45.4519 39.4443 45.5125 39.4443 45.5798 39.4375C45.2027 37.7164 44.1657 35.7658 43.2364 33.9974C41.7616 31.2098 40.5966 29.0094 41.7346 27.2613C42.4148 26.2218 43.802 25.7561 44.8862 25.7561C45.5529 25.7561 46.1859 25.9248 46.7044 26.2353C51.8021 29.2996 53.5934 33.5721 54.7786 36.4002C55.2298 37.4734 55.8426 38.9381 56.1927 38.9381C56.2197 38.9381 56.2533 38.9381 56.3072 38.9313C55.9705 36.6837 54.4823 33.5249 53.2499 30.906C51.3913 26.9575 50.159 24.3454 51.1758 22.5973C51.7482 21.6186 53.0412 20.9841 54.4823 20.9841C55.4116 20.9841 56.2466 21.2474 56.8931 21.7401C62.7854 26.2556 64.9134 31.8915 66.3275 35.6173C66.6171 36.3935 66.9605 37.2912 67.2501 37.8784C66.5026 32.6744 64.5363 28.9149 63.0682 26.1138C61.5935 23.2857 60.4285 21.0584 61.8763 19.1482C62.5497 18.2573 63.7686 17.9401 64.6844 17.9401C65.4858 17.9401 66.2265 18.1695 66.8124 18.6015C72.3074 22.6378 76.2536 28.8947 78.5499 37.2102C79.4725 31.8847 81.8833 21.5106 88.8261 21.5106C89.2504 21.5106 89.6881 21.5511 90.1258 21.6388C101.075 23.7245 110.813 29.5561 117.56 38.0674C119.715 40.7875 119.594 42.9608 118.853 44.5065C119.877 46.5584 119.594 48.833 118.005 50.8916C110.934 60.0913 100.422 66.2807 89.1763 67.8804C88.7992 67.9344 88.4221 67.9614 88.0584 67.9614C85.6611 67.9614 83.6813 66.8274 82.6308 64.8498C80.3681 60.6043 79.2435 56.2373 78.496 52.3833C76.092 60.4828 72.469 66.4697 67.4521 70.6612C66.6979 71.2889 65.708 71.6399 64.6575 71.6399L64.6507 71.6332Z" fill="white"/>
<path d="M64.6848 19.6275C65.0821 19.6275 65.4929 19.722 65.8161 19.9582C72.0317 24.5277 75.4863 31.6755 77.3112 39.1406C77.3988 39.4983 78.025 39.6603 78.6446 39.6603C79.2641 39.6603 79.8836 39.4916 79.9308 39.1946C80.6446 34.6656 82.7254 23.1913 88.8265 23.1913C89.143 23.1913 89.473 23.225 89.8097 23.2858C100.241 25.2702 109.695 30.8453 116.241 39.1068C117.588 40.8077 118.281 42.6841 116.881 44.4998C118.167 46.2209 118.012 48.1108 116.672 49.8522C109.911 58.6469 99.9781 64.6338 88.941 66.2065C88.6379 66.247 88.3484 66.2672 88.0588 66.2672C86.3618 66.2672 84.9005 65.5248 84.1126 64.0534C81.85 59.8079 80.7389 55.4274 79.8971 50.7229C79.8298 50.3382 79.0755 50.1087 78.3954 50.1087C77.8499 50.1087 77.3449 50.2504 77.2573 50.5744C75.2843 57.8032 72.1327 64.5528 66.3751 69.3653C65.8969 69.7635 65.2639 69.9525 64.6579 69.9525C64.1932 69.9525 63.7488 69.8445 63.3986 69.6353C61.1696 68.3124 67.3986 61.6033 68.9475 52.3361C69.0956 51.4384 69.2572 49.9872 68.5502 49.751C68.3212 49.6767 67.9172 49.6025 67.4929 49.6025C66.8465 49.6025 66.1596 49.7645 65.9845 50.3314C64.0451 56.6356 60.8194 62.582 55.6073 66.5642C55.2099 66.868 54.6375 67.0029 54.1123 67.0029C53.6274 67.0029 53.1695 66.895 52.9002 66.6992C50.6173 65.0861 58.449 55.2924 58.0854 49.886C57.8093 49.4067 56.8531 49.1502 55.9911 49.1502C55.4793 49.1502 55.0012 49.238 54.7184 49.427C54.348 53.038 47.8698 62.0285 44.624 62.0285C44.3883 62.0285 44.166 61.9812 43.964 61.88C40.8663 60.2871 47.2233 54.9617 47.3311 49.535C47.3445 49.0018 46.3614 48.698 45.4118 48.698C44.6778 48.698 43.964 48.8803 43.7283 49.2717C42.4556 51.4046 39.4993 56.5006 36.6239 56.5006C36.1592 56.5006 35.6946 56.3656 35.2434 56.0686C33.2838 54.7727 37.1424 50.8579 36.8932 48.563C36.3747 48.3335 34.5902 47.7328 33.1827 47.7328C32.4151 47.7328 31.7619 47.9151 31.4925 48.4348C26.5429 58.053 18.6573 65.5315 7.64036 66.4697C7.57302 66.4697 7.50568 66.4765 7.43834 66.4765C6.81207 66.4765 6.2262 66.2335 5.86256 65.95C3.37768 64.0196 10.9131 47.4021 13.9031 44.736C10.563 41.0845 3.77499 26.6876 5.76828 23.8527C6.14539 23.3195 6.92655 23.0293 7.82218 23.0293C7.9838 23.0293 8.14541 23.036 8.31377 23.0563C18.9402 24.278 27.0345 31.797 31.4656 41.449C31.9841 41.7392 32.6642 41.8404 33.3915 41.8404C34.6642 41.8404 36.0919 41.5232 37.0279 41.3477C37.0144 38.3711 33.6945 35.4621 35.1491 33.7747C35.4521 33.4237 36.038 33.1739 36.6777 33.1739C36.9404 33.1739 37.2165 33.2144 37.4791 33.3157C43.2233 35.4013 41.836 41.125 45.4051 41.125C45.9438 41.125 46.6038 40.99 47.4119 40.6997C47.4253 36.029 41.9169 30.0624 43.1425 28.1725C43.4118 27.7608 44.1593 27.43 44.8799 27.43C45.2166 27.43 45.5533 27.5043 45.8361 27.673C53.9372 32.5395 52.7587 40.6187 56.1864 40.6187C56.6914 40.6187 57.2975 40.4433 58.0517 40.0585C58.2874 35.0233 51.4254 25.4996 52.6241 23.4478C52.9002 22.9753 53.688 22.6716 54.4759 22.6716C54.981 22.6716 55.486 22.7931 55.8632 23.0833C64.8666 29.9881 64.5838 39.9573 67.1697 39.9978C67.2034 39.9978 67.237 39.9978 67.2774 39.9978C67.8835 39.9978 69.1562 39.9033 69.062 38.9381C67.9306 27.8013 61.4053 22.5366 63.2033 20.1675C63.4323 19.8637 64.0451 19.6275 64.6713 19.6275M93.1498 27.5313C93.1498 27.5313 93.2037 27.5043 93.2306 27.4975C93.2037 27.511 93.1767 27.5245 93.1498 27.5313ZM87.1564 27.5448C87.1564 27.5448 87.1699 27.5245 87.1834 27.5178C87.1767 27.5245 87.1699 27.538 87.1564 27.5448ZM85.4797 30.0759C85.8096 29.3739 86.1733 28.7529 86.5773 28.2197C86.1733 28.7462 85.8096 29.3739 85.4797 30.0759ZM95.7155 28.9554C95.0757 28.9892 94.5235 29.1647 94.0926 29.5022C93.9377 29.6236 93.7963 29.7654 93.675 29.9341C92.5774 29.9679 91.6683 30.2919 90.8871 30.8318C91.675 30.2986 92.5841 29.9679 93.675 29.9341C93.7963 29.7654 93.9377 29.6236 94.0926 29.5022C94.5235 29.1647 95.0757 28.9892 95.7155 28.9554C95.803 28.9554 95.8906 28.9487 95.9781 28.9487C96.1465 28.9487 96.3215 28.9554 96.4966 28.9757C99.5068 29.2592 103.978 31.851 107.695 34.7668C111.244 37.5544 114.1 40.6255 114.315 42.2387C114.1 40.6255 111.244 37.5477 107.695 34.7668C103.985 31.8578 99.5135 29.2592 96.4966 28.9757C96.3215 28.9622 96.1465 28.9487 95.9781 28.9487C95.8906 28.9487 95.803 28.9487 95.7155 28.9554ZM16.2869 30.8656C16.7246 30.7373 17.1489 30.5618 17.5327 30.3121C17.1489 30.5618 16.7246 30.7306 16.2869 30.8656ZM84.9611 31.3245C85.0554 31.0748 85.1497 30.8251 85.2507 30.5888C85.1497 30.8251 85.0554 31.0681 84.9611 31.3245ZM9.89628 30.7778C9.89628 30.7306 9.88281 30.6901 9.87607 30.6428C9.87607 30.6901 9.88954 30.7306 9.89628 30.7778ZM17.8021 32.0535C17.3778 31.6823 16.9334 31.338 16.4822 31.0141C16.9334 31.338 17.3711 31.6823 17.8021 32.0535ZM18.92 34.5441C18.462 34.2471 18.0041 33.9366 17.5462 33.6329C18.0041 33.9434 18.462 34.2471 18.92 34.5441ZM99.1162 34.9828C99.1162 34.9828 99.0758 34.9828 99.0556 34.9828C98.7727 34.9828 98.4899 35.0166 98.2138 35.0706C98.4899 35.0166 98.7727 34.9896 99.0556 34.9828C99.0758 34.9828 99.096 34.9828 99.1162 34.9828C100.948 34.9828 102.813 36.0155 103.46 38.1889C104.032 40.126 103.446 41.8269 102.322 42.9204C103.446 41.8269 104.032 40.1193 103.46 38.1889C102.813 36.0155 100.948 34.9828 99.1162 34.9828ZM98.032 35.1111C97.8973 35.1448 97.7694 35.1786 97.6414 35.2191C97.5202 35.2596 97.399 35.3001 97.2778 35.3541C96.7323 35.5835 96.2609 35.9075 95.8636 36.3058C96.2542 35.9143 96.7323 35.5903 97.2778 35.3541C97.399 35.3068 97.5202 35.2596 97.6414 35.2191C97.7694 35.1786 97.9041 35.1448 98.032 35.1111ZM83.877 35.2258C83.7423 35.894 83.6143 36.5825 83.5133 37.2912C83.6211 36.5892 83.7423 35.9008 83.877 35.2258ZM12.5024 36.1033C12.5226 35.894 12.5697 35.6848 12.6505 35.4553C12.563 35.6848 12.5226 35.9008 12.5024 36.1033ZM86.6716 37.6962C86.5235 37.1225 86.4494 36.5622 86.4359 36.0155C86.4494 36.5622 86.5302 37.1225 86.6716 37.6962ZM22.5631 42.9001C21.2971 40.1868 12.3003 39.7346 12.4822 36.2045C12.3003 39.7346 21.2904 40.18 22.5631 42.9001ZM95.2508 37.0752C95.3316 36.9537 95.4124 36.8322 95.5067 36.7175C95.4192 36.8322 95.3316 36.9537 95.2508 37.0752ZM21.9234 39.1473C21.9234 39.1473 21.9368 39.1541 21.9368 39.1608C22.9402 40.0113 23.8628 40.9697 24.6911 42.0767C23.8628 40.9697 22.9335 40.0113 21.9368 39.1608C21.9368 39.1608 21.9234 39.1541 21.9234 39.1473ZM83.116 40.6187C83.1833 39.8425 83.2642 39.0798 83.3652 38.3239C83.2642 39.0798 83.1833 39.8493 83.116 40.6187ZM82.914 44.0408C82.9476 42.9541 83.015 41.8472 83.1025 40.7605C83.0083 41.8539 82.9476 42.9541 82.914 44.0408ZM15.6135 40.9967C15.5192 40.9967 15.4182 40.9967 15.3172 41.0035C15.3172 41.0035 15.3105 41.0035 15.3037 41.0035C15.6472 42.1239 16.5765 42.7989 17.1489 43.6088C17.1556 43.6156 17.1624 43.6291 17.1691 43.6358C17.1826 43.6561 17.2028 43.6831 17.2162 43.7033C17.4519 44.061 17.6135 44.4458 17.6337 44.9047C17.6876 46.2749 16.1388 46.9026 15.728 48.1783C16.1388 46.8959 17.6876 46.2682 17.6337 44.9047C17.6135 44.439 17.4519 44.0543 17.2162 43.7033C17.2028 43.6763 17.1826 43.6561 17.1691 43.6358C17.1624 43.6291 17.1556 43.6156 17.1489 43.6088C16.5698 42.7989 15.6472 42.1239 15.3037 41.0035C15.3037 41.0035 15.3105 41.0035 15.3172 41.0035C15.4182 41.0035 15.5125 40.9967 15.6135 40.9967ZM101.244 43.6966C101.008 43.8181 100.759 43.9193 100.51 44.0003C100.47 44.0138 100.429 44.0273 100.396 44.034C99.9781 44.1488 99.5674 44.2095 99.1633 44.2095C99.5674 44.2095 99.9849 44.1555 100.396 44.034C100.436 44.0205 100.476 44.0138 100.51 44.0003C100.766 43.9193 101.008 43.8181 101.244 43.6966C101.258 43.6898 101.278 43.6831 101.291 43.6696C101.655 43.4738 101.985 43.2308 102.281 42.9474C101.985 43.2308 101.648 43.4738 101.291 43.6696C101.278 43.6763 101.258 43.6831 101.244 43.6966ZM96.3215 43.1768C96.6582 43.4536 97.0286 43.6831 97.4259 43.8586C97.0286 43.6898 96.6582 43.4603 96.3215 43.1768C96.3215 43.1768 96.3215 43.1768 96.3148 43.1768C96.3148 43.1768 96.3148 43.1768 96.3215 43.1768ZM111.089 43.6898C111.372 43.6493 111.662 43.6088 111.965 43.5413C112.046 43.5211 112.133 43.5143 112.227 43.5076C112.133 43.5143 112.046 43.5278 111.965 43.5413C111.662 43.6088 111.379 43.6561 111.089 43.6898ZM106.611 44.736C106.982 44.4458 107.365 44.2568 107.769 44.1218C107.365 44.25 106.982 44.4458 106.611 44.736ZM27.7012 46.9499C28.1052 46.3222 28.3948 45.7417 28.516 45.2827C28.3948 45.7484 28.1052 46.3222 27.7012 46.9499ZM107.958 45.357C108.133 45.3975 108.322 45.4312 108.517 45.4582C108.322 45.4312 108.14 45.3975 107.958 45.357ZM109.48 45.546C109.258 45.5325 109.042 45.5122 108.827 45.492C109.035 45.5122 109.258 45.5325 109.48 45.546ZM112.645 45.6877C112.477 45.6742 112.302 45.6607 112.113 45.6472C112.302 45.6607 112.477 45.6675 112.645 45.6877ZM114.012 46.0994C113.823 45.9037 113.453 45.7957 112.968 45.7282C113.453 45.7957 113.823 45.9104 114.012 46.0994ZM83.0756 51.1346C82.9948 50.1829 82.9409 49.1705 82.9072 48.1176C82.8938 47.5911 82.8803 47.0579 82.8803 46.5179C82.8803 47.0579 82.8938 47.5978 82.9072 48.1176C82.9409 49.1705 82.9948 50.1829 83.0756 51.1346ZM25.9234 49.2312C26.314 48.7993 26.6844 48.3605 27.0211 47.9218C27.1894 47.7058 27.3443 47.4831 27.4924 47.2739C27.3443 47.4898 27.1894 47.7058 27.0211 47.9218C26.6911 48.3605 26.3207 48.806 25.9234 49.2312ZM100.2 55.1641C100.611 55.0427 101.008 54.8874 101.406 54.6782L113.669 48.3133C113.722 48.2863 113.77 48.2391 113.81 48.1851C113.77 48.2391 113.722 48.2795 113.669 48.3133L101.406 54.6782C101.008 54.8874 100.604 55.0427 100.2 55.1641ZM20.6035 52.2618C21.2567 51.3844 22.0715 50.7432 22.7449 49.9602C22.0715 50.7432 21.2499 51.3844 20.6035 52.2618ZM85.6615 51.1751C85.6682 50.9186 85.7086 50.6892 85.7894 50.4934C85.7086 50.6959 85.6682 50.9254 85.6615 51.1751ZM91.0285 54.3812C93.3047 54.7727 95.5471 55.4341 97.6886 55.4746C97.7559 55.4746 97.8232 55.4746 97.8906 55.4746C98.2475 55.4746 98.5977 55.4544 98.9478 55.4139C98.9478 55.4139 98.9546 55.4139 98.9613 55.4139C98.9613 55.4139 98.9546 55.4139 98.9478 55.4139C98.5977 55.4544 98.2475 55.4746 97.8906 55.4746C97.8232 55.4746 97.7559 55.4746 97.6886 55.4746C95.5538 55.4341 93.3047 54.7727 91.0285 54.3812ZM92.2878 58.5457C92.3215 58.5457 92.3484 58.5457 92.3821 58.5457C92.3821 58.5457 92.3821 58.5457 92.3888 58.5457C92.3888 58.5457 92.3956 58.5457 92.4023 58.5457C92.4023 58.5457 92.3956 58.5457 92.3888 58.5457C92.3888 58.5457 92.3888 58.5457 92.3821 58.5457C92.3484 58.5457 92.3215 58.5457 92.2878 58.5457ZM83.9308 56.4196C83.8433 56.1293 83.7692 55.8189 83.6884 55.4746C83.7625 55.8121 83.8433 56.1293 83.9308 56.4196ZM96.3956 56.9595C96.6986 57.0743 96.9949 57.216 97.2912 57.3983C96.9949 57.216 96.6919 57.0743 96.3956 56.9595C96.3821 56.9595 96.3687 56.9528 96.3619 56.946C96.3754 56.946 96.3889 56.9528 96.3956 56.9595ZM84.6379 58.0327C84.5369 57.8977 84.4359 57.729 84.3349 57.5265C84.4291 57.729 84.5302 57.8977 84.6379 58.0327ZM85.6076 58.3702C85.5201 58.3905 85.4258 58.404 85.3248 58.4107C85.4258 58.404 85.5201 58.3837 85.6076 58.3702ZM92.436 58.5389C92.9073 58.5187 93.3855 58.458 93.8636 58.3702C93.3855 58.458 92.9006 58.5254 92.436 58.5389ZM64.6848 16.2527C62.9743 16.2527 61.4255 16.9546 60.5366 18.1223C59.641 19.2968 59.4187 20.5252 59.5736 21.7806C59.0551 21.3081 58.5029 20.8492 57.917 20.4037C56.9743 19.6815 55.7891 19.2968 54.4827 19.2968C52.4288 19.2968 50.6038 20.235 49.7217 21.7401C48.9809 23.0158 48.9674 24.3927 49.4052 26.0261C48.8395 25.5941 48.2267 25.1824 47.5668 24.7842C46.7789 24.3117 45.8563 24.062 44.8799 24.062C43.0078 24.062 41.2165 24.9529 40.3209 26.3298C39.4252 27.7068 39.432 29.1647 39.8832 30.6833C39.4926 30.4876 39.0751 30.3121 38.6239 30.1434C37.9976 29.9139 37.3444 29.7991 36.671 29.7991C35.075 29.7991 33.5464 30.4606 32.5901 31.5675C31.7955 32.4922 31.4588 33.4574 31.4049 34.4091C25.883 26.0261 17.856 20.7614 8.69761 19.7085C8.40804 19.6747 8.11174 19.6545 7.82218 19.6545C5.78175 19.6545 4.03089 20.4779 3.02077 21.9089C1.86925 23.5423 1.02749 26.5391 4.73797 35.3068C6.03091 38.3576 7.88279 42.0294 9.66732 44.709C6.30701 49.778 1.84904 59.9361 2.00393 64.6676C2.078 66.8275 3.02077 68.0019 3.79519 68.6094C4.80531 69.3923 6.12519 69.8445 7.4316 69.8445C7.59322 69.8445 7.75484 69.8378 7.91646 69.8243C17.1893 69.0346 25.3308 63.9251 31.3174 55.2654C31.4049 56.757 32.1188 58.0462 33.3713 58.8764C34.3477 59.5244 35.4723 59.8686 36.6037 59.8686C37.8158 59.8686 38.9337 59.4974 39.964 58.8899C39.6811 59.9091 39.6138 60.9351 39.937 61.9947C40.1997 62.8722 40.8461 64.0804 42.4084 64.8836C43.0819 65.2278 43.8226 65.4033 44.6038 65.4033C46.1459 65.4033 47.789 64.6878 49.5264 63.2704C48.4287 66.7735 49.6813 68.5689 50.9473 69.4598C51.7823 70.047 52.9002 70.3778 54.0988 70.3778C55.4254 70.3778 56.6847 69.9795 57.6342 69.2506C58.3346 68.7173 59.008 68.1436 59.6612 67.5362C59.0618 70.7017 61.008 72.1529 61.6679 72.5376C62.5366 73.0506 63.5669 73.3273 64.6444 73.3273C66.0855 73.3273 67.4592 72.8414 68.5165 71.9572C72.5906 68.5554 75.7758 64.0534 78.1732 58.3095C78.887 60.7056 79.823 63.1894 81.1294 65.6395C82.4628 68.1436 85.0487 69.642 88.0453 69.642C88.4898 69.642 88.9477 69.6083 89.4056 69.5475C101.089 67.8871 111.992 61.4615 119.332 51.9176C121.143 49.562 121.588 46.8891 120.659 44.4525C121.251 42.6571 121.278 40.0585 118.867 37.0145C111.871 28.186 101.769 22.1383 90.4292 19.9785C89.8905 19.8772 89.345 19.8232 88.8198 19.8232C82.887 19.8232 79.8365 25.6616 78.2203 31.0816C75.7556 25.1622 72.2674 20.5252 67.8027 17.2449C66.9273 16.6037 65.8498 16.2594 64.6848 16.2594V16.2527Z" fill="white"/>
<path d="M79.4926 47.4897C63.149 46.727 47.4384 46.5853 31.7749 44.6684L43.2902 43.6425L79.4186 42.3735C79.7418 44.2094 79.6139 45.7551 79.4926 47.4897Z" fill="#F5F5F4"/>
<path d="M85.8904 50.2977C87.5672 52.5115 87.2305 56.0213 89.6615 57.8302C91.6885 59.3421 95.1498 58.0935 97.2912 57.405C94.8198 55.8931 92.0723 57.0608 91.0285 54.3812C94.6717 55.0089 98.2273 56.3318 101.406 54.6849L113.669 48.32C114.106 48.0973 114.025 46.9229 114.113 46.6259C114.658 44.8507 108.174 46.3222 106.604 44.736C108.086 43.5751 109.803 44.007 111.958 43.5346C112.611 43.3928 113.675 43.6696 114.18 42.9069C116.073 40.045 97.3114 24.9867 93.6683 29.9274C89.8568 30.0354 88.2339 33.6329 86.6649 37.6894C85.4931 33.0997 88.7524 29.3672 93.2171 27.4975C80.7254 18.9188 81.5739 58.7414 85.2844 58.4174C88.8602 58.107 84.6446 52.2483 85.877 50.2909L85.8904 50.2977ZM94.7929 40.9157C94.0387 38.7086 95.0959 36.272 97.2778 35.3473C99.5 34.4024 102.591 35.2528 103.46 38.1821C104.295 40.9967 102.679 43.3253 100.51 44.0003C98.0387 44.7697 95.6279 43.3523 94.7929 40.9157Z" fill="#F5F5F4"/>
<path d="M71.8699 40.2542C71.6477 35.2932 69.6746 31.1152 68.3682 26.2487C69.2975 26.026 79.1292 43.2172 71.8699 40.2542Z" fill="#F5F5F4"/>
<path d="M68.8667 62.2242C69.9442 57.81 71.4526 53.9965 71.7422 50.0952C78.1395 46.5584 70.2539 62.3322 68.8667 62.2242Z" fill="#F5F5F4"/>
<path d="M60.5836 40.3757L57.4253 28.2196C57.5263 27.4164 67.2773 43.6087 60.5836 40.3757Z" fill="#F5F5F4"/>
<path d="M23.7478 48.3065C23.108 50.0681 21.6467 50.8579 20.6029 52.2618C22.475 53.5037 27.8556 47.753 28.5155 45.2827C29.2428 42.5693 27.337 41.2869 26.603 39.5118C24.8926 35.3675 21.5727 32.4382 17.7948 30.1231C15.1483 28.5032 12.421 25.8641 8.39404 26.6673C10.7038 29.4414 14.0103 29.2726 16.2797 30.8588C16.7174 30.7305 17.1416 30.555 17.5255 30.3053C17.1416 30.555 16.7174 30.7238 16.2797 30.8588C18.374 32.3234 20.1922 34.3281 21.7477 36.2045C17.842 34.2201 14.6635 31.0545 9.99002 29.6168C9.59271 30.8453 10.192 32.8027 11.586 33.4304C16.4211 35.5902 21.3572 37.6151 24.6905 42.0766C20.7174 39.6805 17.3975 37.1764 12.6433 35.4553C11.0607 39.6873 21.2023 40.0045 22.5558 42.8933C19.714 42.6638 17.8824 40.8482 15.2965 41.0034C15.8083 42.6571 17.5726 43.332 17.6332 44.9114C17.6871 46.2816 16.1382 46.9093 15.7275 48.185L21.8959 47.0983C19.7746 50.0749 10.9934 49.2784 12.6567 54.3136L23.7343 48.293L23.7478 48.3065Z" fill="white"/>
<path d="M59.2704 57.4927C59.0415 56.595 60.4758 46.7069 62.9809 49.7104C62.092 52.5048 62.2469 55.2316 59.2704 57.4927Z" fill="#F5F5F4"/>
<path d="M50.1795 40.5647L48.0044 33.4102C50.1054 35.4013 50.8192 37.8716 51.7081 40.3285C51.6139 40.7875 50.4287 41.3747 50.1795 40.5647Z" fill="#F5F5F4"/>
<path d="M48.5635 54.8873C51.4255 44.8034 51.4187 49.8791 52.0181 49.3256C50.7386 50.5135 51.3447 54.3946 48.5635 54.8873Z" fill="#F5F5F4"/>
<path d="M103.453 38.1888C104.288 41.0034 102.672 43.332 100.503 44.0069C98.0319 44.7764 95.6211 43.359 94.7861 40.9224C94.0318 38.7153 95.0891 36.2787 97.2709 35.354C99.4932 34.409 102.584 35.2595 103.453 38.1888ZM100.759 38.4925C100.14 37.4328 98.5033 37.3856 97.8029 37.993C96.9948 38.695 96.9544 40.2069 97.5201 40.9696C98.18 41.8673 99.6683 41.7593 100.456 41.1721C101.157 40.6456 101.318 39.4375 100.766 38.4858L100.759 38.4925Z" fill="#212423"/>
<path d="M5.86222 65.9433C3.37734 64.0129 10.9128 47.3954 13.9027 44.7293C10.5626 41.0845 3.77465 26.6876 5.76794 23.8528C6.21239 23.225 7.21577 22.9281 8.31342 23.0563C18.9398 24.278 27.0342 31.797 31.4652 41.449C32.8861 42.2522 35.5528 41.6245 37.0276 41.3545C37.0141 38.3779 33.6942 35.4688 35.1488 33.7814C35.573 33.2887 36.5697 32.985 37.4855 33.3157C44.0984 35.7186 41.2566 42.9474 47.4183 40.6998C47.4317 36.029 41.9232 30.0624 43.1489 28.1725C43.5462 27.565 44.9671 27.1466 45.8425 27.673C55.1423 33.2617 52.2129 43.0689 58.0581 40.0518C58.2938 35.0166 51.4318 25.4929 52.6304 23.441C53.0816 22.6716 54.9133 22.3476 55.8695 23.0765C64.873 29.9814 64.5902 39.9506 67.1761 39.9911C67.7215 39.9978 69.1761 39.9641 69.0684 38.9314C67.937 27.7945 61.4117 22.5298 63.2097 20.1607C63.5868 19.6612 64.9875 19.3508 65.8091 19.9515C72.0246 24.521 75.4792 31.6688 77.3041 39.1339C77.4792 39.8561 79.8294 39.7886 79.9237 39.1878C80.6779 34.4226 82.9406 21.9764 89.8026 23.279C100.234 25.2634 109.688 30.8386 116.234 39.1001C117.581 40.801 118.274 42.6774 116.874 44.493C118.16 46.2142 118.005 48.1041 116.665 49.8455C109.904 58.6402 99.9711 64.6271 88.9339 66.1998C86.8665 66.4967 85.0281 65.7745 84.1056 64.0466C81.8429 59.8011 80.7318 55.4206 79.89 50.7162C79.7688 50.0277 77.4523 49.8387 77.2503 50.5677C75.2772 57.7965 72.1256 64.5461 66.368 69.3586C65.5262 70.0605 64.1996 70.1078 63.3915 69.6286C61.1625 68.3056 67.3916 61.5965 68.9404 52.3293C69.0886 51.4316 69.2502 49.9805 68.5431 49.7442C67.9707 49.5552 66.267 49.3932 65.9841 50.3247C64.0447 56.6288 60.8191 62.5752 55.6069 66.5575C54.8392 67.1447 53.4587 67.0907 52.8998 66.6925C50.617 65.0793 58.4487 55.2857 58.0851 49.8792C57.6406 49.1165 55.4722 48.914 54.7113 49.4202C54.314 53.2945 46.8795 63.3649 43.9637 61.8665C40.866 60.2736 47.223 54.9482 47.3307 49.5215C47.3509 48.5833 44.2667 48.3606 43.728 49.2583C42.2465 51.7421 38.5023 58.2082 35.243 56.0551C33.2834 54.7592 37.142 50.8444 36.8929 48.5495C36.0915 48.1986 32.2531 46.9566 31.4989 48.4213C26.5493 58.0395 18.6637 65.518 7.64675 66.4562C6.9464 66.517 6.27299 66.2538 5.86895 65.9433H5.86222ZM93.6747 29.9341C89.8632 30.0421 88.2403 33.6397 86.6713 37.6962C85.4995 33.1065 88.7588 29.3739 93.2235 27.5043C80.7318 18.9255 81.5803 58.7482 85.2975 58.4242C89.0147 58.1002 84.6578 52.2551 85.8901 50.2977C87.5669 52.5116 87.2302 56.0214 89.6612 57.8302C91.6881 59.3422 95.1495 58.0935 97.2909 57.405C94.8195 55.8931 92.072 57.0608 91.0282 54.388C94.6713 55.0157 98.227 56.3386 101.405 54.6917L113.668 48.3268C114.099 48.1041 114.025 46.9296 114.113 46.6327C114.658 44.8575 108.173 46.3289 106.604 44.7428C108.086 43.5818 109.803 44.0138 111.958 43.5413C112.611 43.3996 113.675 43.6696 114.18 42.9136C116.072 40.0518 97.3111 24.9934 93.668 29.9341H93.6747ZM79.4927 47.4899C79.6139 45.7552 79.7419 44.2096 79.4186 42.3737L43.2903 43.6426L31.775 44.6685C47.4385 46.5854 63.1491 46.7272 79.4927 47.4899ZM71.8697 40.2543C79.1291 43.2174 69.2973 26.0261 68.368 26.2489C69.6744 31.1153 71.6475 35.2933 71.8697 40.2543ZM68.8663 62.2242C70.2536 62.3322 78.1392 46.5584 71.7418 50.0952C71.4522 53.9965 69.9438 57.81 68.8663 62.2242ZM60.5834 40.3758C67.2704 43.6088 57.5261 27.4165 57.4251 28.2197L60.5834 40.3758ZM59.2703 57.4928C62.2467 55.2317 62.0918 52.5048 62.9807 49.7105C60.4757 46.7069 59.048 56.5951 59.2703 57.4928ZM50.1792 40.5648C50.4284 41.3747 51.6136 40.7875 51.7079 40.3285C50.819 37.8649 50.1052 35.4013 48.0041 33.4102L50.1792 40.5648ZM48.5631 54.8874C51.3442 54.4015 50.7314 50.5204 52.0176 49.3258C51.425 49.8792 51.425 44.8035 48.5631 54.8874ZM26.6032 39.5118C24.8927 35.3676 21.5728 32.4382 17.795 30.1231C15.1485 28.5032 12.4212 25.8641 8.39423 26.6673C10.704 29.4414 14.0105 29.2727 16.2798 30.8588C18.3741 32.3235 20.1924 34.3281 21.7479 36.2045C17.8422 34.2201 14.6704 31.0546 9.99021 29.6169C9.5929 30.8453 10.1922 32.8027 11.5862 33.4304C16.4213 35.5903 21.3573 37.6152 24.6907 42.0767C20.7176 39.6806 17.3977 37.1765 12.6434 35.4553C11.0609 39.6873 21.2025 40.0046 22.556 42.8934C19.7142 42.6639 17.8826 40.8482 15.2967 41.0035C15.8085 42.6571 17.5728 43.3321 17.6334 44.9115C17.6873 46.2817 16.1384 46.9094 15.7277 48.1851L21.8961 47.0984C19.7748 50.075 10.9936 49.2785 12.6569 54.3137L23.7345 48.2931C23.0947 50.0547 21.6334 50.8444 20.5897 52.2483C22.4617 53.4903 27.8423 47.7396 28.5022 45.2692C29.2295 42.5559 27.3237 41.2735 26.5897 39.4983L26.6032 39.5118Z" fill="#212423"/>
<path d="M100.759 38.4926C101.311 39.4443 101.15 40.6525 100.449 41.1789C99.6683 41.7661 98.1733 41.8741 97.5134 40.9764C96.9544 40.2137 96.9881 38.6951 97.7962 37.9999C98.4966 37.3924 100.133 37.4329 100.752 38.4993L100.759 38.4926Z" fill="#F5F5F4"/>
</g>
</g>
<defs>
<filter id="filter0_dnn_463_1066" x="-1.90771" y="-2" width="134" height="97" filterUnits="userSpaceOnUse" color-interpolation-filters="sRGB">
<feFlood flood-opacity="0" result="BackgroundImageFix"/>
<feColorMatrix in="SourceAlpha" type="matrix" values="0 0 0 0 0 0 0 0 0 0 0 0 0 0 0 0 0 0 127 0" result="hardAlpha"/>
<feOffset dx="3" dy="3"/>
<feGaussianBlur stdDeviation="2.5"/>
<feComposite in2="hardAlpha" operator="out"/>
<feColorMatrix type="matrix" values="0 0 0 0 0 0 0 0 0 0 0 0 0 0 0 0 0 0 0.25 0"/>
<feBlend mode="normal" in2="BackgroundImageFix" result="effect1_dropShadow_463_1066"/>
<feBlend mode="normal" in="SourceGraphic" in2="BackgroundImageFix" result="shape"/>
<feTurbulence type="fractalNoise" baseFrequency="0.5 0.5" stitchTiles="stitch" numOctaves="3" result="noise" seed="7937" />
<feColorMatrix in="noise" type="luminanceToAlpha" result="alphaNoise" />
<feComponentTransfer in="alphaNoise" result="coloredNoise1">
<feFuncA type="discrete" tableValues="0 0 0 0 0 0 0 0 0 0 0 1 1 1 1 1 1 1 1 1 1 1 1 1 1 1 1 1 1 1 1 1 1 1 1 1 1 1 1 0 0 0 0 0 0 0 0 0 0 0 0 0 0 0 0 0 0 0 0 0 0 0 0 0 0 0 0 0 0 0 0 0 0 0 0 0 0 0 0 0 0 0 0 0 0 0 0 0 0 0 0 0 0 0 0 0 0 0 0 0 "/>
</feComponentTransfer>
<feComposite operator="in" in2="shape" in="coloredNoise1" result="noise1Clipped" />
<feComponentTransfer in="alphaNoise" result="coloredNoise2">
<feFuncA type="discrete" tableValues="0 0 0 0 0 0 0 0 0 0 0 0 0 0 0 0 0 0 0 0 0 0 0 0 0 0 0 0 0 0 0 0 0 0 0 0 0 0 0 0 0 0 0 0 0 0 0 0 0 0 0 0 0 0 0 0 0 0 0 0 0 1 1 1 1 1 1 1 1 1 1 1 1 1 1 1 1 1 1 1 1 1 1 1 1 1 1 1 1 0 0 0 0 0 0 0 0 0 0 0 "/>
</feComponentTransfer>
<feComposite operator="in" in2="shape" in="coloredNoise2" result="noise2Clipped" />
<feFlood flood-color="rgba(0, 0, 0, 0.1)" result="color1Flood" />
<feComposite operator="in" in2="noise1Clipped" in="color1Flood" result="color1" />
<feFlood flood-color="rgba(255, 255, 255, 0.1)" result="color2Flood" />
<feComposite operator="in" in2="noise2Clipped" in="color2Flood" result="color2" />
<feMerge result="effect2_noise_463_1066">
<feMergeNode in="shape" />
<feMergeNode in="color1" />
<feMergeNode in="color2" />
</feMerge>
<feTurbulence type="fractalNoise" baseFrequency="0.3333333432674408 0.3333333432674408" stitchTiles="stitch" numOctaves="3" result="noise" seed="1755" />
<feColorMatrix in="noise" type="luminanceToAlpha" result="alphaNoise" />
<feComponentTransfer in="alphaNoise" result="coloredNoise1">
<feFuncA type="discrete" tableValues="0 0 0 1 1 1 1 1 1 1 1 1 1 1 1 1 1 1 1 1 1 1 1 1 1 1 1 1 1 1 1 1 1 1 1 1 1 1 1 1 1 1 1 1 1 1 0 0 0 0 0 0 0 0 0 0 0 0 0 0 0 0 0 0 0 0 0 0 0 0 0 0 0 0 0 0 0 0 0 0 0 0 0 0 0 0 0 0 0 0 0 0 0 0 0 0 0 0 0 0 "/>
</feComponentTransfer>
<feComposite operator="in" in2="effect2_noise_463_1066" in="coloredNoise1" result="noise1Clipped" />
<feComponentTransfer in="alphaNoise" result="coloredNoise2">
<feFuncA type="discrete" tableValues="0 0 0 0 0 0 0 0 0 0 0 0 0 0 0 0 0 0 0 0 0 0 0 0 0 0 0 0 0 0 0 0 0 0 0 0 0 0 0 0 0 0 0 0 0 0 0 0 0 0 0 0 0 0 1 1 1 1 1 1 1 1 1 1 1 1 1 1 1 1 1 1 1 1 1 1 1 1 1 1 1 1 1 1 1 1 1 1 1 1 1 1 1 1 1 1 1 0 0 0 "/>
</feComponentTransfer>
<feComposite operator="in" in2="effect2_noise_463_1066" in="coloredNoise2" result="noise2Clipped" />
<feFlood flood-color="rgba(0, 0, 0, 0.1)" result="color1Flood" />
<feComposite operator="in" in2="noise1Clipped" in="color1Flood" result="color1" />
<feFlood flood-color="rgba(21, 21, 21, 0.1)" result="color2Flood" />
<feComposite operator="in" in2="noise2Clipped" in="color2Flood" result="color2" />
<feMerge result="effect3_noise_463_1066">
<feMergeNode in="effect2_noise_463_1066" />
<feMergeNode in="color1" />
<feMergeNode in="color2" />
</feMerge>
<feBlend mode="normal" in="effect3_noise_463_1066" in2="effect1_dropShadow_463_1066" result="effect3_noise_463_1066"/>
</filter>
<filter id="filter1_d_463_1066" x="0" y="14.2527" width="129.13" height="67.0746" filterUnits="userSpaceOnUse" color-interpolation-filters="sRGB">
<feFlood flood-opacity="0" result="BackgroundImageFix"/>
<feColorMatrix in="SourceAlpha" type="matrix" values="0 0 0 0 0 0 0 0 0 0 0 0 0 0 0 0 0 0 127 0" result="hardAlpha"/>
<feOffset dx="3" dy="3"/>
<feGaussianBlur stdDeviation="2.5"/>
<feComposite in2="hardAlpha" operator="out"/>
<feColorMatrix type="matrix" values="0 0 0 0 0 0 0 0 0 0 0 0 0 0 0 0 0 0 0.5 0"/>
<feBlend mode="normal" in2="BackgroundImageFix" result="effect1_dropShadow_463_1066"/>
<feBlend mode="normal" in="SourceGraphic" in2="effect1_dropShadow_463_1066" result="shape"/>
</filter>
</defs>
</svg>
