<svg width="74" height="104" viewBox="0 0 74 104" fill="none" xmlns="http://www.w3.org/2000/svg">
<g filter="url(#filter0_dnn_535_527)">
<g filter="url(#filter1_d_535_527)">
<path d="M35.3289 94.6563C28.3775 94.6563 19.2001 93.9394 14.9273 90.525C11.7251 87.9689 9.73497 83.7104 9.73025 79.4093L9.68311 38.0356C9.68311 34.2062 10.9753 30.8248 13.6446 27.6981C14.1067 27.1557 14.5265 25.9013 14.4604 25.4862C12.2298 23.4583 12.4278 21.6946 12.9466 19.4356C13.1824 18.398 13.1541 17.2096 13.1164 15.9504C13.0645 14.1065 13.0126 12.1965 13.7577 10.3336C14.5925 8.24915 17.4834 7.27765 19.7613 6.83434C25.3781 5.73551 31.0609 5.17902 36.6494 5.17902C42.2379 5.17902 47.8311 5.74022 53.2215 6.84377C55.0938 7.22577 58.9986 8.0275 59.2344 10.6873L60.055 19.9496C60.0786 20.2043 60.1069 20.4448 60.1352 20.6759C60.3144 22.185 60.4983 23.746 58.5129 25.2976C58.1356 25.59 58.0884 25.7881 59.574 27.9244C61.1067 30.1315 63.2053 33.1545 63.1912 37.6772L63.0544 80.4563C63.0356 86.8795 58.3997 92.0624 51.5284 93.3499C48.1565 93.9819 42.1341 94.6563 35.3336 94.6563H35.3289Z" fill="#131313"/>
<path d="M36.6497 6.35802C42.125 6.35802 47.5909 6.89564 52.986 7.99919C54.764 8.36233 57.9095 9.07916 58.0604 10.7911L58.881 20.0534C59.0414 21.8879 59.4988 23.0292 57.7869 24.3733C54.8866 26.6369 62.0361 29.7873 62.0125 37.6772L61.8757 80.4563C61.8569 86.8088 57.1833 91.0957 51.3118 92.1945C47.5673 92.8972 41.5072 93.482 35.3339 93.482C27.4157 93.482 19.3088 92.5199 15.6681 89.6101C12.7205 87.2568 10.919 83.3755 10.9143 79.414L10.8671 38.0403C10.8671 34.2911 12.2112 31.2021 14.5456 28.4715C15.2247 27.6745 16.1396 25.4061 15.3238 24.6798C13.5034 23.0575 13.6024 21.8549 14.0976 19.7044C14.7296 16.9597 13.7062 13.649 14.8569 10.7722C15.5077 9.14991 18.1581 8.34818 19.9926 7.98976C25.501 6.91451 31.08 6.35802 36.6544 6.35802M36.6497 4C30.9857 4 25.2274 4.56592 19.5352 5.67419C15.8048 6.40517 13.494 7.8247 12.6639 9.89504C11.8292 11.9842 11.8858 14.1065 11.9377 15.9834C11.9707 17.1672 11.999 18.2849 11.7962 19.1762C11.2586 21.5106 11.0039 23.647 13.2157 25.9295C13.1072 26.2927 12.895 26.7596 12.7441 26.9388C9.8862 30.2824 8.49969 33.9138 8.50441 38.0403L8.55156 79.414C8.55627 84.1348 10.6643 88.6292 14.1919 91.4494C18.7335 95.076 28.1938 95.84 35.3292 95.84C42.4645 95.84 48.3171 95.1562 51.741 94.5148C59.1876 93.1188 64.2101 87.4737 64.229 80.4657L64.3658 37.6866C64.3799 32.7961 62.0691 29.4618 60.5364 27.2595C60.2392 26.8303 59.862 26.288 59.6356 25.8965C61.7154 24.0195 61.4796 22.0247 61.3051 20.5391C61.2815 20.3175 61.2532 20.0911 61.2296 19.8459L60.409 10.5836C60.0978 7.04656 55.4478 6.09391 53.4623 5.68834C47.9917 4.56592 42.3372 4 36.6544 4H36.6497Z" fill="white"/>
<path d="M51.307 92.1945C42.7568 93.7932 22.1478 94.7883 15.6632 89.6054C12.7157 87.2521 10.9142 83.3708 10.9095 79.4093L10.8623 38.0356C10.8623 34.2863 12.2064 31.1973 14.5408 28.4668C15.2199 27.6697 16.1348 25.4013 15.3189 24.6751C13.4985 23.0528 13.5976 21.8502 14.0928 19.6997C14.7247 16.9549 13.7013 13.6443 14.852 10.7675C15.5029 9.14518 18.1533 8.34346 19.9878 7.98504C30.9054 5.84868 42.1013 5.76379 52.9859 7.99447C54.7638 8.3576 57.9094 9.07916 58.0603 10.7864L58.8809 20.0486C59.0413 21.8832 59.4987 23.0245 57.7868 24.3685C54.8864 26.6322 62.0359 29.7825 62.0124 37.6724L61.8756 80.4516C61.8567 86.8041 57.1831 91.0909 51.3117 92.1898L51.307 92.1945Z" fill="#0A0907"/>
<path d="M51.3118 90.011C41.2902 92.0106 31.3488 91.8644 21.5819 89.9449C16.6254 88.9734 13.1214 85.0686 13.1119 79.8432L13.0176 38.4978C12.9988 30.5607 17.1583 31.4379 17.8799 25.3919C30.2264 28.264 42.7947 28.2404 55.0705 25.524C55.377 30.7635 59.862 30.8436 59.8478 38.012L59.7393 80.2959C59.7252 85.2949 56.207 89.0347 51.3165 90.011H51.3118Z" fill="white"/>
<path d="M55.9804 11.5268C49.0997 15.6769 23.5954 15.4647 16.9741 11.4372C24.4915 7.62193 48.8026 7.51817 55.9804 11.5268Z" fill="#EFC742"/>
<path d="M37.3522 17.9878C37.3381 18.4782 37.423 18.9451 37.4796 19.1385C37.5409 19.3507 37.9417 19.3696 38.1775 19.28C38.7718 19.0489 38.0643 17.0728 38.9368 16.7899C41.9315 15.8137 39.4131 20.3646 41.6014 19.1762C42.3465 18.7706 41.5778 16.9597 42.3465 16.6154C42.7474 16.4362 43.4406 16.3513 43.7802 16.5777C44.5819 17.1153 43.7566 18.9357 44.6432 19.1385C45.7421 19.3884 45.0299 16.7097 45.544 16.4362C45.9307 16.2334 46.6098 16.0495 46.822 16.2711C47.487 16.955 46.8833 19.4733 48.2463 18.6669C49.0433 18.1953 48.1331 16.3985 48.7933 15.9363C49.0763 15.7382 49.6375 15.559 50.1563 15.6486C50.5666 15.7193 50.5665 16.5116 50.6656 17.0493L50.8165 17.8746C50.892 18.2896 51.5286 18.3415 51.8776 18.1245C52.1936 17.9265 51.7031 16.0212 52.17 15.4505C52.4341 15.1298 53.4339 14.8044 53.698 15.243C54.2215 16.1108 53.6084 17.2285 54.6931 17.8604C55.99 16.672 54.8157 15.3704 55.7872 13.8707C56.4993 15.3609 56.6125 17.1247 56.2588 18.9121C45.2657 22.5953 27.6655 22.4916 16.7243 18.9734C16.3329 17.1955 16.4791 15.625 16.8469 13.9084C18.6249 15.045 17.045 14.9176 17.8609 17.4077C17.9646 17.7237 18.7145 17.9547 18.9503 17.6105C19.2568 17.1577 18.7758 15.3751 19.5964 14.9176C21.8129 13.6773 20.1482 20.0864 21.9355 18.0821C22.5769 17.3605 21.9591 16.2853 22.4166 15.7052C22.7137 15.3326 23.4163 15.7288 23.7182 15.8184C24.9113 16.1721 23.4777 19.6054 25.1189 18.6763C25.8168 18.2802 25.7083 16.5164 25.9583 16.2994C28.3116 14.2432 26.9723 20.4259 28.8162 19.0206C29.0756 18.8225 28.7313 16.5871 29.4151 16.356C31.6128 15.6156 30.3065 20.044 32.0467 19.1149C32.3957 18.931 32.0939 17.2709 32.7305 16.7663C32.971 16.5729 33.5983 16.6154 34.018 16.8135C34.5415 17.054 33.9803 19.4073 34.9612 19.2328C36.0034 19.0442 34.8669 16.8088 36.0931 16.7522C36.758 16.7191 37.39 16.8135 37.3522 17.9925V17.9878Z" fill="#F0CA53"/>
<path d="M57.3245 20.9211C55.6692 26.3634 32.7398 25.2552 28.9953 25.0147C14.5407 24.0903 14.6209 20.393 17.3467 21.1098C30.4762 24.5619 43.8838 23.9583 57.3245 20.9259V20.9211Z" fill="#EEC757"/>
<path d="M20.0208 85.3893C22.2279 87.436 28.6558 87.1012 28.9435 88.1717C29.4198 89.9591 19.3322 88.1293 18.7993 85.7854C18.2664 83.4416 22.8881 82.4606 24.8358 82.1588C32.4192 80.9892 40.0026 80.9138 47.5813 82.1824C55.8154 83.5642 53.9715 85.7807 53.5376 85.5921C45.4638 82.0456 35.8949 82.4701 27.2929 83.2576C24.817 83.6632 22.4684 83.8236 20.0255 85.3893H20.0208Z" fill="#111111"/>
<path d="M17.0121 51.3914C17.0121 52.1978 16.7433 52.5845 16.234 52.5893C15.9416 52.5893 15.5737 52.2308 15.5737 51.6366L15.5596 39.3891C15.5549 34.7532 17.4507 33.2488 19.8417 29.8344C21.2141 33.1451 17.064 33.2582 17.0451 39.4032L17.0121 51.3914Z" fill="#151515"/>
<path d="M57.3625 61.6158C57.3625 63.0306 58.3104 84.2904 55.4431 81.4608C55.0658 80.013 55.9288 78.8953 55.9336 77.5324L55.9948 61.6346C55.9948 61.1347 56.4664 60.8471 56.7022 60.8895C56.9097 60.9272 57.3578 61.1395 57.3578 61.6158H57.3625Z" fill="#131313"/>
</g>
</g>
<defs>
<filter id="filter0_dnn_535_527" x="-2" y="-2" width="84" height="112" filterUnits="userSpaceOnUse" color-interpolation-filters="sRGB">
<feFlood flood-opacity="0" result="BackgroundImageFix"/>
<feColorMatrix in="SourceAlpha" type="matrix" values="0 0 0 0 0 0 0 0 0 0 0 0 0 0 0 0 0 0 127 0" result="hardAlpha"/>
<feOffset dx="3" dy="3"/>
<feGaussianBlur stdDeviation="2.5"/>
<feComposite in2="hardAlpha" operator="out"/>
<feColorMatrix type="matrix" values="0 0 0 0 0 0 0 0 0 0 0 0 0 0 0 0 0 0 0.25 0"/>
<feBlend mode="normal" in2="BackgroundImageFix" result="effect1_dropShadow_535_527"/>
<feBlend mode="normal" in="SourceGraphic" in2="BackgroundImageFix" result="shape"/>
<feTurbulence type="fractalNoise" baseFrequency="0.5 0.5" stitchTiles="stitch" numOctaves="3" result="noise" seed="7937" />
<feColorMatrix in="noise" type="luminanceToAlpha" result="alphaNoise" />
<feComponentTransfer in="alphaNoise" result="coloredNoise1">
<feFuncA type="discrete" tableValues="0 0 0 0 0 0 0 0 0 0 0 1 1 1 1 1 1 1 1 1 1 1 1 1 1 1 1 1 1 1 1 1 1 1 1 1 1 1 1 0 0 0 0 0 0 0 0 0 0 0 0 0 0 0 0 0 0 0 0 0 0 0 0 0 0 0 0 0 0 0 0 0 0 0 0 0 0 0 0 0 0 0 0 0 0 0 0 0 0 0 0 0 0 0 0 0 0 0 0 0 "/>
</feComponentTransfer>
<feComposite operator="in" in2="shape" in="coloredNoise1" result="noise1Clipped" />
<feComponentTransfer in="alphaNoise" result="coloredNoise2">
<feFuncA type="discrete" tableValues="0 0 0 0 0 0 0 0 0 0 0 0 0 0 0 0 0 0 0 0 0 0 0 0 0 0 0 0 0 0 0 0 0 0 0 0 0 0 0 0 0 0 0 0 0 0 0 0 0 0 0 0 0 0 0 0 0 0 0 0 0 1 1 1 1 1 1 1 1 1 1 1 1 1 1 1 1 1 1 1 1 1 1 1 1 1 1 1 1 0 0 0 0 0 0 0 0 0 0 0 "/>
</feComponentTransfer>
<feComposite operator="in" in2="shape" in="coloredNoise2" result="noise2Clipped" />
<feFlood flood-color="rgba(0, 0, 0, 0.1)" result="color1Flood" />
<feComposite operator="in" in2="noise1Clipped" in="color1Flood" result="color1" />
<feFlood flood-color="rgba(255, 255, 255, 0.1)" result="color2Flood" />
<feComposite operator="in" in2="noise2Clipped" in="color2Flood" result="color2" />
<feMerge result="effect2_noise_535_527">
<feMergeNode in="shape" />
<feMergeNode in="color1" />
<feMergeNode in="color2" />
</feMerge>
<feTurbulence type="fractalNoise" baseFrequency="0.3333333432674408 0.3333333432674408" stitchTiles="stitch" numOctaves="3" result="noise" seed="1755" />
<feColorMatrix in="noise" type="luminanceToAlpha" result="alphaNoise" />
<feComponentTransfer in="alphaNoise" result="coloredNoise1">
<feFuncA type="discrete" tableValues="0 0 0 1 1 1 1 1 1 1 1 1 1 1 1 1 1 1 1 1 1 1 1 1 1 1 1 1 1 1 1 1 1 1 1 1 1 1 1 1 1 1 1 1 1 1 0 0 0 0 0 0 0 0 0 0 0 0 0 0 0 0 0 0 0 0 0 0 0 0 0 0 0 0 0 0 0 0 0 0 0 0 0 0 0 0 0 0 0 0 0 0 0 0 0 0 0 0 0 0 "/>
</feComponentTransfer>
<feComposite operator="in" in2="effect2_noise_535_527" in="coloredNoise1" result="noise1Clipped" />
<feComponentTransfer in="alphaNoise" result="coloredNoise2">
<feFuncA type="discrete" tableValues="0 0 0 0 0 0 0 0 0 0 0 0 0 0 0 0 0 0 0 0 0 0 0 0 0 0 0 0 0 0 0 0 0 0 0 0 0 0 0 0 0 0 0 0 0 0 0 0 0 0 0 0 0 0 1 1 1 1 1 1 1 1 1 1 1 1 1 1 1 1 1 1 1 1 1 1 1 1 1 1 1 1 1 1 1 1 1 1 1 1 1 1 1 1 1 1 1 0 0 0 "/>
</feComponentTransfer>
<feComposite operator="in" in2="effect2_noise_535_527" in="coloredNoise2" result="noise2Clipped" />
<feFlood flood-color="rgba(0, 0, 0, 0.1)" result="color1Flood" />
<feComposite operator="in" in2="noise1Clipped" in="color1Flood" result="color1" />
<feFlood flood-color="rgba(21, 21, 21, 0.1)" result="color2Flood" />
<feComposite operator="in" in2="noise2Clipped" in="color2Flood" result="color2" />
<feMerge result="effect3_noise_535_527">
<feMergeNode in="effect2_noise_535_527" />
<feMergeNode in="color1" />
<feMergeNode in="color2" />
</feMerge>
<feBlend mode="normal" in="effect3_noise_535_527" in2="effect1_dropShadow_535_527" result="effect3_noise_535_527"/>
</filter>
<filter id="filter1_d_535_527" x="6.50439" y="2" width="65.8613" height="101.84" filterUnits="userSpaceOnUse" color-interpolation-filters="sRGB">
<feFlood flood-opacity="0" result="BackgroundImageFix"/>
<feColorMatrix in="SourceAlpha" type="matrix" values="0 0 0 0 0 0 0 0 0 0 0 0 0 0 0 0 0 0 127 0" result="hardAlpha"/>
<feOffset dx="3" dy="3"/>
<feGaussianBlur stdDeviation="2.5"/>
<feComposite in2="hardAlpha" operator="out"/>
<feColorMatrix type="matrix" values="0 0 0 0 0 0 0 0 0 0 0 0 0 0 0 0 0 0 0.5 0"/>
<feBlend mode="normal" in2="BackgroundImageFix" result="effect1_dropShadow_535_527"/>
<feBlend mode="normal" in="SourceGraphic" in2="effect1_dropShadow_535_527" result="shape"/>
</filter>
</defs>
</svg>
