<svg width="82" height="102" viewBox="0 0 82 102" fill="none" xmlns="http://www.w3.org/2000/svg">
<g filter="url(#filter0_dnn_535_812)">
<g filter="url(#filter1_d_535_812)">
<path d="M40.1644 92.2923C28.4328 92.2923 17.9855 89.9414 12.2287 86.0079C8.82269 83.6799 8.57042 80.5836 8.80551 77.579C9.3961 70.0102 9.10366 62.688 8.78829 54.93L8.67362 51.9942C8.65068 51.4093 8.8055 50.9047 8.92592 50.4976C8.94312 50.446 8.96032 50.3887 8.97752 50.3313C8.61628 49.9644 8.12889 49.6719 7.5727 49.3394C5.64036 48.1754 2.9913 46.5756 3.51882 40.3084C4.09221 33.4965 4.08647 26.094 3.49588 18.3016C3.24932 15.0275 3.54748 11.375 7.64724 9.09862C14.0234 5.56078 24.3674 3.44495 35.3192 3.44495C46.271 3.44495 56.4717 5.5837 62.6414 9.32223C66.7297 11.7936 66.7297 15.6353 66.4086 19.0413C65.9613 23.7718 66.0474 28.422 66.1391 33.3474C66.1735 35.3142 66.2137 37.3497 66.2137 39.3738C66.2137 39.9586 66.3111 40.5664 66.4201 41.2144C66.6093 42.3726 66.8329 43.743 66.4201 45.1823C71.7125 47.4988 71.8903 52.5045 71.5233 56.2029C70.8582 62.8198 71.1391 69.6719 71.4086 76.3003L71.4602 77.5102C71.5806 80.3542 71.701 83.0377 68.5875 85.4574C63.0887 89.7407 52.4579 92.298 40.1701 92.298L40.1644 92.2923Z" fill="white"/>
<path d="M35.3196 4.87271C45.4744 4.87271 55.589 6.71902 61.8964 10.5378C65.2049 12.5447 65.2966 15.469 64.9755 18.8922C64.3333 25.6754 64.7748 32.4529 64.7748 39.3623C64.7748 41.6215 65.9445 43.7488 64.4824 45.9907C69.8436 47.5446 70.5489 51.5412 70.0959 56.0423C69.3964 63.0205 69.7232 70.1077 70.0042 77.126C70.1246 80.0675 70.3597 82.2464 67.7049 84.3164C62.0856 88.6914 51.1395 90.8531 40.1648 90.8531C29.19 90.8531 18.9033 88.829 13.0375 84.8152C10.3311 82.9689 10.0043 80.6409 10.2394 77.6822C10.916 69.0526 10.4458 60.5721 10.1132 51.9311C10.0788 51.0939 10.7497 50.2453 10.3368 49.6949C8.49625 47.2637 4.32194 47.9862 4.95841 40.4174C5.58341 33.0378 5.49741 25.5607 4.93549 18.1812C4.67746 14.7809 5.14764 12.1204 8.35291 10.3371C14.8495 6.7305 25.1075 4.86697 35.3253 4.86697M35.3196 2.00574C23.9721 2.00574 13.6339 4.13302 6.95382 7.83714C2.11438 10.5206 1.79902 14.8956 2.06852 18.4048C2.65338 26.1169 2.66484 33.4449 2.09144 40.1823C1.53525 46.7878 4.127 48.9323 6.83342 50.5607C7.01117 50.6696 7.18318 50.7728 7.34373 50.8703C7.27492 51.2144 7.22332 51.61 7.24052 52.04C7.28066 53.0205 7.31505 53.9953 7.35519 54.9701C7.66482 62.6822 7.95727 69.97 7.37241 77.4586C7.11438 80.7269 7.39534 84.4368 11.4148 87.1833C17.4068 91.2774 28.1522 93.72 40.159 93.72C52.7622 93.72 63.714 91.048 69.4594 86.5755C73.1521 83.6971 73.0088 80.3714 72.8826 77.4299L72.8654 77.0056L72.8367 76.2315C72.5672 69.649 72.292 62.8485 72.9457 56.3233C73.175 54.024 73.823 47.5963 68.0317 44.3623C68.175 43.0951 67.9801 41.9311 67.8253 40.9678C67.7278 40.383 67.6418 39.8268 67.6418 39.3623C67.6418 37.3268 67.6074 35.2798 67.5672 33.3073C67.4755 28.422 67.3895 23.8119 67.831 19.1617C68.0948 16.3922 68.5764 11.2316 63.3815 8.0837C56.9939 4.21902 46.7703 2 35.3196 2V2.00574Z" fill="white"/>
<path d="M67.7051 84.3164C56.65 92.923 24.9758 92.9746 13.0377 84.821C10.3313 82.9746 10.0045 80.6467 10.2396 77.6879C10.9162 69.0584 10.446 60.5779 10.1134 51.9368C10.079 51.0997 10.7499 50.2511 10.3371 49.7006C8.49646 47.2694 4.32215 47.9919 4.95862 40.4231C5.58362 33.0435 5.49762 25.5665 4.9357 18.1869C4.67767 14.7867 5.14785 12.1261 8.35312 10.3429C21.3003 3.15252 49.2418 2.87155 61.9081 10.5378C65.2165 12.5447 65.3083 15.469 64.9872 18.8922C64.345 25.6754 64.7865 32.4529 64.7865 39.3623C64.7865 41.6215 65.9562 43.7488 64.4941 45.9907C69.8553 47.5446 70.5606 51.5412 70.1076 56.0423C69.408 63.0205 69.7349 70.1077 70.0159 77.126C70.1363 80.0675 70.3714 82.2464 67.7165 84.3164H67.7051Z" fill="#0A0B0A"/>
<path d="M66.839 77.5847C65.4915 80.079 61.3917 81.3691 58.6853 82.0916C46.0707 85.446 33.112 85.3485 20.5432 81.8221C18.1693 81.157 14.4365 79.7521 13.4904 77.6707C12.6934 71.9081 13.4102 66.3978 13.2152 60.7671C25.4686 68.1409 54.8952 68.1237 67.0855 60.618C66.8849 66.2487 67.6761 71.5756 66.8332 77.5905L66.839 77.5847Z" fill="#F3CA3F"/>
<path d="M61.7189 40.3486C61.1856 42.9804 56.6787 44.2992 54.2705 44.9586C42.0974 48.2786 29.6547 48.399 17.4128 45.4862C14.305 44.7465 10.1307 43.3875 8.26141 40.9048C7.30384 35.3256 8.23846 29.7408 7.89443 23.9667C19.7579 31.1513 50.1765 31.4954 62.1432 23.7374C61.7647 29.1961 62.9115 34.477 61.7189 40.3486Z" fill="#43B56F"/>
<path d="M52.0056 17.258C52.4643 12.6708 36.696 11.8796 33.1524 12.4243C31.5183 15.102 46.4552 13.1123 50.6123 16.9713C46.501 20.7499 34.11 20.0733 29.735 20.3027C31.0481 19.5114 32.0974 19.4082 32.8772 18.6227C33.7373 17.7568 34.1559 16.3406 33.2958 15.1135C31.1456 12.0458 27.5103 12.7511 23.961 12.1089C31.0194 10.4174 52.8141 10.6525 58.0893 16.1169C59.3623 17.4357 57.7969 19.1215 56.4036 19.6662C45.7155 23.8692 27.1892 23.938 16.5068 20.6353C28.8348 20.102 37.4242 24.477 49.9414 19.586C51.0366 19.1559 51.9139 18.1582 52.0056 17.258Z" fill="#F9F8F8"/>
<path d="M57.4354 13.3819C45.7267 7.55618 25.5146 8.8291 13.0031 12.7396C10.744 13.4449 9.32195 15.3945 9.28182 17.3383C8.23251 17.0344 7.68205 16.4323 7.52723 15.9507C6.56967 12.9231 14.3678 10.2511 17.1946 9.56878C28.5077 6.85663 40.3139 6.82223 51.7015 9.25342C54.6487 9.88415 64.1384 12.8601 62.2347 16.2431C61.8907 16.8566 61.3345 17.4759 60.4056 17.7396C60.1762 15.4862 59.1441 14.219 57.4411 13.3704L57.4354 13.3819Z" fill="#F6F5F4"/>
<path d="M45.4919 59.7006C39.6375 60.3944 17.4071 59.0297 16.5928 54.4713C16.461 53.7201 16.805 52.43 17.8142 52.2866C19.2018 52.0859 20.5493 52.6765 22.0974 52.9346C22.6249 54.93 23.8921 56.3405 25.9965 56.9426C35.555 59.6719 45.876 59.5802 55.2797 56.4667C56.4265 56.0882 57.2407 54.7407 57.2923 53.9724C57.3611 52.9116 56.3405 52.2064 55.2109 51.4208C56.8336 49.0871 63.6111 51.2086 63.657 53.9437C63.72 58.118 48.743 59.3164 45.4919 59.7063V59.7006Z" fill="#F8F7F7"/>
<path d="M62.4755 43.2614C61.3 46.157 58.3929 47.4758 55.417 48.3933C42.0627 52.5045 27.4354 52.5848 14.1671 48.2442C11.3231 47.3153 8.49051 46.0767 7.49854 43.0836C19.3104 51.5011 49.534 51.4093 62.4755 43.2614Z" fill="#F5F4F3"/>
<path d="M20.6637 61.9999C17.3839 61.1513 14.3047 59.9529 12.9458 57.0802C26.604 64.1444 54.0295 64.2074 67.2634 56.8393C65.7496 60.1019 62.3207 61.1169 59.0925 61.9884C46.6327 65.3428 33.3988 65.2854 20.6579 61.9999H20.6637Z" fill="#F5F4F3"/>
<path d="M62.4468 20.125C60.4112 23.5825 56.6211 24.5458 53.0775 25.4518C41.495 28.4048 29.3448 28.1754 17.6533 25.7499C15.8414 25.3715 7.06844 22.7912 7.78519 19.9988C20.8471 27.5045 48.6108 27.2866 62.4525 20.1307L62.4468 20.125Z" fill="#F7F6F5"/>
<path d="M67.5328 80.2109C65.6234 83.6168 62.0454 84.9586 58.5535 85.8932C46.237 89.1902 33.026 89.1271 20.784 85.6237C17.5443 84.6948 14.3563 83.3187 12.8081 80.2109C26.0306 88.2441 53.6051 88.4448 67.5328 80.2109Z" fill="#F7F6F6"/>
<path d="M55.5889 53.7946C53.8859 58.0377 25.2621 58.3302 24.3218 53.4449C34.0408 54.2763 43.0488 54.1501 52.2059 52.2178C53.324 51.9827 54.5453 53.1524 55.5946 53.7946H55.5889Z" fill="#F7F5F4"/>
<path d="M22.2346 18.5367C20.2563 18.6571 11.1795 18.313 11.4605 16.1456C11.7185 14.1617 20.4226 13.6972 22.8137 14.2305C21.7242 15.5206 21.5121 16.5757 22.2346 18.5367Z" fill="#E8E7E7"/>
<path d="M31.8046 16.266C31.3917 18.3646 23.7886 18.9208 23.6165 16.6961C23.4675 14.8096 29.3849 14.2477 31.8046 16.266Z" fill="#F0EEEE"/>
<path d="M65.6806 54.2533C65.4226 50.3371 61.0132 49.8153 61.1221 48.7832C61.3515 46.6329 67.7391 49.8497 67.5728 52.1834C67.5269 52.8084 67.2861 53.6513 65.6806 54.2533Z" fill="#F1F0EF"/>
<path d="M15.4861 51.7534C15.7212 52.3669 14.5629 53.4334 14.5056 54.2362C13.3817 53.8921 13.1352 53.3875 12.9058 53.032C12.5388 52.4758 12.4643 51.4667 13.1581 51.1341C13.6455 50.899 14.8324 50.8703 15.4861 51.7591V51.7534Z" fill="#E7E5E4"/>
<path d="M18.7372 17.086C17.275 17.969 15.1305 17.2121 13.7314 16.3234C14.775 14.7236 16.7016 14.7408 18.3301 15.2454C18.8346 15.4002 19.4482 16.6559 18.7372 17.086Z" fill="#191919"/>
</g>
</g>
<defs>
<filter id="filter0_dnn_535_812" x="0" y="-1" width="83" height="103" filterUnits="userSpaceOnUse" color-interpolation-filters="sRGB">
<feFlood flood-opacity="0" result="BackgroundImageFix"/>
<feColorMatrix in="SourceAlpha" type="matrix" values="0 0 0 0 0 0 0 0 0 0 0 0 0 0 0 0 0 0 127 0" result="hardAlpha"/>
<feOffset dx="3" dy="3"/>
<feGaussianBlur stdDeviation="2.5"/>
<feComposite in2="hardAlpha" operator="out"/>
<feColorMatrix type="matrix" values="0 0 0 0 0 0 0 0 0 0 0 0 0 0 0 0 0 0 0.25 0"/>
<feBlend mode="normal" in2="BackgroundImageFix" result="effect1_dropShadow_535_812"/>
<feBlend mode="normal" in="SourceGraphic" in2="BackgroundImageFix" result="shape"/>
<feTurbulence type="fractalNoise" baseFrequency="0.5 0.5" stitchTiles="stitch" numOctaves="3" result="noise" seed="7937" />
<feColorMatrix in="noise" type="luminanceToAlpha" result="alphaNoise" />
<feComponentTransfer in="alphaNoise" result="coloredNoise1">
<feFuncA type="discrete" tableValues="0 0 0 0 0 0 0 0 0 0 0 1 1 1 1 1 1 1 1 1 1 1 1 1 1 1 1 1 1 1 1 1 1 1 1 1 1 1 1 0 0 0 0 0 0 0 0 0 0 0 0 0 0 0 0 0 0 0 0 0 0 0 0 0 0 0 0 0 0 0 0 0 0 0 0 0 0 0 0 0 0 0 0 0 0 0 0 0 0 0 0 0 0 0 0 0 0 0 0 0 "/>
</feComponentTransfer>
<feComposite operator="in" in2="shape" in="coloredNoise1" result="noise1Clipped" />
<feComponentTransfer in="alphaNoise" result="coloredNoise2">
<feFuncA type="discrete" tableValues="0 0 0 0 0 0 0 0 0 0 0 0 0 0 0 0 0 0 0 0 0 0 0 0 0 0 0 0 0 0 0 0 0 0 0 0 0 0 0 0 0 0 0 0 0 0 0 0 0 0 0 0 0 0 0 0 0 0 0 0 0 1 1 1 1 1 1 1 1 1 1 1 1 1 1 1 1 1 1 1 1 1 1 1 1 1 1 1 1 0 0 0 0 0 0 0 0 0 0 0 "/>
</feComponentTransfer>
<feComposite operator="in" in2="shape" in="coloredNoise2" result="noise2Clipped" />
<feFlood flood-color="rgba(0, 0, 0, 0.1)" result="color1Flood" />
<feComposite operator="in" in2="noise1Clipped" in="color1Flood" result="color1" />
<feFlood flood-color="rgba(255, 255, 255, 0.1)" result="color2Flood" />
<feComposite operator="in" in2="noise2Clipped" in="color2Flood" result="color2" />
<feMerge result="effect2_noise_535_812">
<feMergeNode in="shape" />
<feMergeNode in="color1" />
<feMergeNode in="color2" />
</feMerge>
<feTurbulence type="fractalNoise" baseFrequency="0.3333333432674408 0.3333333432674408" stitchTiles="stitch" numOctaves="3" result="noise" seed="1755" />
<feColorMatrix in="noise" type="luminanceToAlpha" result="alphaNoise" />
<feComponentTransfer in="alphaNoise" result="coloredNoise1">
<feFuncA type="discrete" tableValues="0 0 0 1 1 1 1 1 1 1 1 1 1 1 1 1 1 1 1 1 1 1 1 1 1 1 1 1 1 1 1 1 1 1 1 1 1 1 1 1 1 1 1 1 1 1 0 0 0 0 0 0 0 0 0 0 0 0 0 0 0 0 0 0 0 0 0 0 0 0 0 0 0 0 0 0 0 0 0 0 0 0 0 0 0 0 0 0 0 0 0 0 0 0 0 0 0 0 0 0 "/>
</feComponentTransfer>
<feComposite operator="in" in2="effect2_noise_535_812" in="coloredNoise1" result="noise1Clipped" />
<feComponentTransfer in="alphaNoise" result="coloredNoise2">
<feFuncA type="discrete" tableValues="0 0 0 0 0 0 0 0 0 0 0 0 0 0 0 0 0 0 0 0 0 0 0 0 0 0 0 0 0 0 0 0 0 0 0 0 0 0 0 0 0 0 0 0 0 0 0 0 0 0 0 0 0 0 1 1 1 1 1 1 1 1 1 1 1 1 1 1 1 1 1 1 1 1 1 1 1 1 1 1 1 1 1 1 1 1 1 1 1 1 1 1 1 1 1 1 1 0 0 0 "/>
</feComponentTransfer>
<feComposite operator="in" in2="effect2_noise_535_812" in="coloredNoise2" result="noise2Clipped" />
<feFlood flood-color="rgba(0, 0, 0, 0.1)" result="color1Flood" />
<feComposite operator="in" in2="noise1Clipped" in="color1Flood" result="color1" />
<feFlood flood-color="rgba(21, 21, 21, 0.1)" result="color2Flood" />
<feComposite operator="in" in2="noise2Clipped" in="color2Flood" result="color2" />
<feMerge result="effect3_noise_535_812">
<feMergeNode in="effect2_noise_535_812" />
<feMergeNode in="color1" />
<feMergeNode in="color2" />
</feMerge>
<feBlend mode="normal" in="effect3_noise_535_812" in2="effect1_dropShadow_535_812" result="effect3_noise_535_812"/>
</filter>
<filter id="filter1_d_535_812" x="0" y="0" width="81.0889" height="101.72" filterUnits="userSpaceOnUse" color-interpolation-filters="sRGB">
<feFlood flood-opacity="0" result="BackgroundImageFix"/>
<feColorMatrix in="SourceAlpha" type="matrix" values="0 0 0 0 0 0 0 0 0 0 0 0 0 0 0 0 0 0 127 0" result="hardAlpha"/>
<feOffset dx="3" dy="3"/>
<feGaussianBlur stdDeviation="2.5"/>
<feComposite in2="hardAlpha" operator="out"/>
<feColorMatrix type="matrix" values="0 0 0 0 0 0 0 0 0 0 0 0 0 0 0 0 0 0 0.5 0"/>
<feBlend mode="normal" in2="BackgroundImageFix" result="effect1_dropShadow_535_812"/>
<feBlend mode="normal" in="SourceGraphic" in2="effect1_dropShadow_535_812" result="shape"/>
</filter>
</defs>
</svg>
