<svg width="111" height="87" viewBox="0 0 111 87" fill="none" xmlns="http://www.w3.org/2000/svg">
<g filter="url(#filter0_dnn_535_579)">
<g filter="url(#filter1_d_535_579)">
<path d="M73.7281 77.2181C73.6267 77.2181 73.5253 77.2055 73.4239 77.1759L44.348 68.4949L40.9981 70.6873C40.8249 70.8014 40.6221 70.8605 40.4194 70.8605C40.2462 70.8605 40.0687 70.8183 39.9124 70.7296L23.0574 61.4826L22.5674 61.2164C21.8197 60.8109 21.2283 60.4898 20.4088 59.9153C18.0305 58.2467 15.4199 56.8612 12.8937 55.5221C10.9294 54.4829 8.90176 53.4057 6.95435 52.1849C4.28881 50.5162 2.89479 47.969 3.12713 45.1936C3.2961 43.1744 4.48736 41.8226 5.8856 40.7919C3.51999 38.7642 2.57797 36.162 3.28765 33.4754C3.70586 31.8955 4.83797 30.4888 6.47701 29.5087L24.2698 18.9057C24.7683 18.61 25.2836 18.3059 25.7399 17.9721L45.7716 3.26308C45.9574 3.12791 46.1771 3.05609 46.3968 3.05609C46.5446 3.05609 46.6967 3.08566 46.8361 3.15325L57.9967 8.26044C58.3093 7.55498 58.8374 6.90866 59.8132 6.90866C60.0117 6.90866 60.2145 6.93823 60.4173 7.0016L100.793 19.1212C101.064 19.2014 101.287 19.3873 101.423 19.6365C101.554 19.8858 101.583 20.1772 101.499 20.4476L86.1433 70.0706C86.0631 70.3283 85.8856 70.5479 85.6533 70.6789L74.2477 77.0872C74.0871 77.1759 73.9097 77.2223 73.7323 77.2223L73.7281 77.2181Z" fill="#070807"/>
<path d="M46.3924 4.11216L58.6386 9.71359C58.833 8.93632 59.0695 7.96473 59.8088 7.96473C59.9017 7.96473 60.0031 7.98163 60.1087 8.0112L100.485 20.1308L85.1293 69.7538L73.7237 76.162L44.1788 67.3375L40.4192 69.796L23.5642 60.549C22.5757 60.0083 21.9463 59.6999 21.0127 59.0451C16.7335 56.0374 11.9431 54.0604 7.51178 51.2851C5.39118 49.9586 3.96336 47.8296 4.17458 45.2781C4.34355 43.2462 5.80516 41.9873 7.723 40.8426C5.16729 39.1909 3.52826 36.6774 4.30553 33.7373C4.68149 32.3052 5.7418 31.1689 7.01754 30.4085L24.5146 19.9787C25.1229 19.6154 25.7735 19.2479 26.3607 18.817L46.3924 4.10793M46.3924 2C45.9488 2 45.5095 2.1394 45.142 2.40976L25.1103 17.1188C24.7005 17.4187 24.2316 17.6976 23.7331 17.989L23.429 18.1664L5.93189 28.5963C4.05207 29.7157 2.74676 31.3505 2.26096 33.1966C1.55128 35.8874 2.30743 38.5614 4.30553 40.7243C3.15652 41.7973 2.23139 43.1955 2.07087 45.1007C1.80896 48.2351 3.42265 51.2175 6.38812 53.0719C8.36509 54.3097 10.4139 55.3953 12.3909 56.443C15.0057 57.8285 17.4727 59.1381 19.7961 60.7686C20.6621 61.377 21.3084 61.7276 22.0561 62.1331C22.2082 62.2176 22.3729 62.3021 22.5461 62.3992L39.4011 71.6463C39.7179 71.8195 40.0686 71.9082 40.415 71.9082C40.8205 71.9082 41.2218 71.7941 41.5724 71.5618L44.5125 69.6397L73.1196 78.1813C73.3181 78.2404 73.5209 78.27 73.7237 78.27C74.0827 78.27 74.4376 78.177 74.7586 77.9996L86.1643 71.5913C86.6374 71.3252 86.988 70.8901 87.1485 70.3747L102.504 20.7517C102.669 20.2152 102.614 19.6323 102.352 19.1338C102.086 18.6353 101.634 18.2678 101.093 18.1031L60.717 5.98352C60.4129 5.89059 60.1087 5.84835 59.8088 5.84835C58.7696 5.84835 58.0641 6.3088 57.5868 6.90865L47.271 2.19009C46.9922 2.06336 46.6923 2 46.3924 2Z" fill="white"/>
<path d="M72.955 75.4144C72.8536 75.4144 72.7523 75.4017 72.6551 75.3679L45.1084 67.1601C44.7282 67.046 44.4451 66.7334 44.3733 66.3448C44.3015 65.9561 44.4494 65.559 44.762 65.3183L49.0665 61.9599C49.2524 61.8121 49.4847 61.736 49.7171 61.736C49.7593 61.736 49.8058 61.736 49.848 61.7445C49.8945 61.5502 49.9917 61.3727 50.1395 61.2333C50.2958 61.0813 50.4563 60.9081 50.6253 60.7307C51.335 59.9745 52.1418 59.117 53.2233 58.8466C53.3077 58.8255 53.3922 58.8128 53.4809 58.8128C53.5401 58.8128 53.5992 58.817 53.6541 58.8255C53.671 58.6185 53.7513 58.4157 53.8865 58.2468C54.7863 57.1358 55.5128 56.6204 56.2817 56.0797L56.59 55.86C56.7717 55.7291 56.9871 55.6615 57.2068 55.6615C57.2575 55.6615 57.3124 55.6615 57.3673 55.6742C57.4138 55.5136 57.494 55.3658 57.6081 55.2391C58.4361 54.3477 59.1331 53.731 60.1047 52.8946C60.299 52.7256 60.544 52.6369 60.7932 52.6369C60.8608 52.6369 60.9284 52.6453 61.0002 52.658C61.0425 52.451 61.1438 52.2609 61.2959 52.1088C61.5874 51.8216 61.8366 51.5724 62.0521 51.3611C63.2138 50.1994 63.6235 49.7897 64.8443 49.7094C64.8148 49.3757 64.9415 49.042 65.2034 48.8181L65.4569 48.5984C66.9481 47.2973 68.3547 46.0723 70.1839 44.9275C70.3571 44.8177 70.5514 44.767 70.7457 44.767C70.9696 44.767 71.1935 44.8388 71.3836 44.9782C71.7342 45.2401 71.8821 45.6963 71.7595 46.1145L70.3317 51.0274L82.8315 54.8546L85.7843 45.4513L75.9965 42.3464C75.667 42.2408 75.4136 41.9874 75.308 41.6579C75.2024 41.3284 75.2657 40.9735 75.4769 40.699C76.1275 39.8457 76.8245 39.3387 77.5004 38.8445C77.6356 38.7431 77.775 38.646 77.9186 38.5361C78.1045 38.3967 78.3284 38.3249 78.5522 38.3249C78.6283 38.3249 78.7043 38.3334 78.7804 38.3502C78.793 38.139 78.8733 37.932 79.0127 37.7588C79.2281 37.4927 79.2957 37.3533 79.3126 37.273C79.3042 37.2646 79.2957 37.2562 79.283 37.2477C78.9873 36.9942 78.4424 36.5211 78.3452 35.5918C78.3072 35.2454 78.4466 34.899 78.717 34.6751C78.8479 34.561 79.0042 34.485 79.1732 34.4512C79.0761 33.957 78.8733 33.4247 78.6747 32.9093L78.5607 32.6094C78.3959 32.1659 78.4551 31.6885 78.7212 31.2999C78.8226 31.1562 78.9451 31.0337 79.0803 30.9281C78.5311 30.6873 78.0115 30.3916 77.4835 29.9988C77.2469 29.8214 77.0949 29.5552 77.0653 29.2637C77.0357 28.9723 77.1286 28.6808 77.3187 28.4569C77.8932 27.7979 78.4931 27.2741 79.2493 26.6362C78.8226 26.3067 78.4762 25.8843 78.3326 25.3394C78.2777 25.1324 78.2861 24.9169 78.3579 24.7184C78.548 24.1735 78.8944 23.6539 79.2324 23.1554C79.3211 23.0244 79.4098 22.8935 79.49 22.7625L79.0676 22.6274C78.755 22.5302 78.5058 22.2894 78.3917 21.981C78.2819 21.6727 78.3199 21.3305 78.4973 21.0517L78.6072 20.8827C78.6663 20.794 78.793 20.6039 78.8986 20.4223C76.0303 18.8297 73.0057 17.4906 70.074 16.1937C68.4012 15.4545 66.6693 14.6856 64.9669 13.8746C64.6205 13.7098 64.329 13.5113 64.0671 13.3339C63.6404 13.0424 63.3827 12.8776 63.0955 12.8776C63.0194 12.8776 62.9434 12.8861 62.8547 12.9072C62.7744 12.9283 62.6899 12.9368 62.6097 12.9368C62.2506 12.9368 61.9085 12.7551 61.7141 12.4383C61.6212 12.2862 61.4353 12.2102 61.034 12.0623C60.3412 11.8089 59.1838 11.3865 58.9937 9.7263C58.9514 9.37568 59.0908 9.02506 59.3654 8.79695C59.5597 8.63643 59.8005 8.55194 60.0455 8.55194C60.1469 8.55194 60.2483 8.56462 60.3455 8.59419L98.9472 20.0928C99.2176 20.173 99.4457 20.3589 99.5766 20.6081C99.7076 20.8574 99.7372 21.1488 99.6527 21.4192L84.9985 68.5921C84.8591 69.0441 84.4409 69.3356 83.9889 69.3356C83.8918 69.3356 83.7946 69.3229 83.6975 69.2933L76.4654 67.2234C76.4654 67.2234 76.4485 67.2234 76.4359 67.2192C76.4105 67.2614 76.3683 67.3459 76.3218 67.4853L73.9689 74.6709C73.8252 75.1145 73.4112 75.3975 72.9635 75.3975L72.955 75.4144Z" fill="#FFFEFE"/>
<path d="M60.0285 9.61646L98.6303 21.115L83.9762 68.2879L76.7441 66.218C76.609 66.1842 76.4907 66.1673 76.3766 66.1673C75.8021 66.1673 75.498 66.5855 75.3079 67.1643L72.9549 74.3498L45.4082 66.142L49.7128 62.7837L61.4141 66.2898C61.5028 66.3152 61.5873 66.3279 61.6718 66.3279C61.9295 66.3279 62.1491 66.218 62.2294 66.0744C62.4068 65.7491 62.1703 65.4196 61.7352 65.2887L50.8702 61.981C51.6179 61.2545 52.467 60.1139 53.4766 59.8604L62.5336 62.4499C62.6983 62.4964 62.8377 62.5302 62.9602 62.5302C63.1081 62.5302 63.2263 62.4795 63.3235 62.3401C63.5558 62.0106 63.3277 61.6431 62.8757 61.4995L54.7059 58.9057C55.6268 57.7694 56.3069 57.3554 57.2025 56.7175L80.3771 63.5947C80.5165 63.637 80.6559 63.6581 80.7868 63.6581C81.0487 63.6581 81.2726 63.5694 81.3824 63.3666C81.4838 63.1765 81.3698 62.8259 80.9473 62.7034L58.3768 55.9572C59.1837 55.087 59.8722 54.4871 60.7889 53.6972L81.7077 59.9534C81.788 59.9787 81.8682 59.9872 81.9443 59.9872C82.2273 59.9872 82.4554 59.8266 82.5568 59.6154C82.6624 59.4042 82.4977 59.0536 82.0245 58.91L62.0309 52.8565C64.0374 50.8922 63.9402 50.7444 65.3596 50.7444C65.6131 50.7444 65.913 50.7486 66.2847 50.7486C66.327 50.7486 66.3692 50.7486 66.4115 50.7486C66.4157 50.3135 66.0778 50.0516 65.8919 49.608C67.438 48.2605 68.8785 46.9805 70.7414 45.8146L69.0263 51.7244L83.5242 56.1642L87.1064 44.7543L76.3175 41.3326C76.9976 40.4413 77.7326 39.9935 78.5522 39.3767L87.7189 41.8987C87.7189 41.8987 87.7485 41.9029 87.7654 41.9029C87.9893 41.9029 88.0949 41.5016 88.0906 41.3917C88.078 41.1552 87.8287 40.9482 87.5035 40.8468L79.8406 38.4178C80.2714 37.8813 80.4869 37.4336 80.3306 36.8759C80.2081 36.4408 79.4942 36.3226 79.4055 35.4777L88.6018 38.0588C88.6863 38.0841 88.7623 38.0926 88.8257 38.0926C89.0242 38.0926 89.1425 37.9996 89.2228 37.9025C89.472 37.5899 89.4086 37.2097 88.9228 37.0618L80.2503 34.4512C80.1405 33.6908 79.811 32.9135 79.5533 32.2334C79.3928 31.811 80.0095 31.5364 80.47 31.5364C80.5587 31.5364 80.639 31.5449 80.7108 31.566L89.7001 34.2864C89.7593 34.3033 89.8226 34.3118 89.8818 34.3118C90.1479 34.3118 90.3971 34.147 90.4943 33.9738C90.6041 33.7795 90.4816 33.412 90.055 33.2811L80.8586 30.4465C79.8786 30.1424 79.0084 29.8129 78.117 29.1497C78.6958 28.4865 79.3336 27.9415 80.1236 27.2825L90.8238 30.4381C90.9378 30.4719 91.0392 30.4846 91.1279 30.4846C91.3265 30.4846 91.4743 30.4128 91.5588 30.3156C91.8376 30.003 91.6391 29.5848 91.149 29.4369L81.2642 26.4461C80.5038 26.218 79.5406 25.7702 79.3505 25.0648C79.5533 24.4818 80.0729 23.8186 80.4362 23.2314L92.07 26.6531C92.1333 26.67 92.1925 26.6785 92.2474 26.6785C92.598 26.6785 92.8261 26.3405 92.8219 25.8632L79.3759 21.6177C79.6251 21.2249 80.4742 20.1012 79.9124 19.7844C75.2234 17.1146 70.2809 15.2432 65.4145 12.9199C64.6077 12.5355 64.0332 11.8173 63.0912 11.8173C62.9391 11.8173 62.7786 11.8342 62.6054 11.8765C61.9041 10.7486 60.2355 11.3442 60.037 9.60378M60.0285 7.5043C59.5385 7.5043 59.0569 7.67327 58.6725 7.99854C58.1276 8.45477 57.8488 9.15179 57.9333 9.85725C58.1994 12.1595 59.9229 12.7931 60.6622 13.0635C60.7424 13.0931 60.8438 13.1311 60.9156 13.1607C61.317 13.6971 61.9464 14.0055 62.6054 14.0055C62.7574 14.0055 62.9053 13.9886 63.0574 13.9548C63.1588 14.0097 63.3319 14.128 63.4671 14.2167C63.7417 14.4068 64.0881 14.6392 64.5063 14.8377C66.2214 15.6572 67.9576 16.4261 69.6388 17.1695C72.3382 18.365 74.9108 19.5013 77.42 20.8362C77.2257 21.3178 77.213 21.8543 77.3905 22.3528C77.5087 22.678 77.6988 22.9611 77.9481 23.1892C77.72 23.5567 77.5045 23.9538 77.3567 24.3804C77.2173 24.7817 77.2004 25.2168 77.3102 25.6266C77.3862 25.9139 77.5172 26.2349 77.7326 26.5602C77.3018 26.9446 76.9047 27.3332 76.5203 27.7726C76.1316 28.2161 75.95 28.7991 76.0091 29.382C76.0683 29.965 76.3724 30.5015 76.8455 30.8521C77.0779 31.0253 77.306 31.1816 77.5341 31.321C77.3524 31.8532 77.3567 32.4362 77.5637 32.9854L77.6819 33.2895C77.7664 33.5134 77.8551 33.7415 77.9312 33.9612C77.4623 34.409 77.2215 35.0553 77.2933 35.7058C77.3693 36.4324 77.6439 36.9731 77.9312 37.3617C77.6988 37.4336 77.4792 37.5434 77.2764 37.6955C77.137 37.8011 77.0018 37.8982 76.8709 37.9954C76.1696 38.5065 75.3755 39.0853 74.632 40.0611C74.2138 40.606 74.0913 41.3242 74.2983 41.9789C74.5053 42.6337 75.0164 43.1491 75.6754 43.356L84.4577 46.1441L82.1344 53.5409L71.6327 50.3262L72.7479 46.4905C72.8155 46.2835 72.8536 46.0596 72.8536 45.8273C72.8536 44.6614 71.9115 43.7193 70.7456 43.7151H70.7372C70.7372 43.7151 70.6992 43.7151 70.6823 43.7151C70.2809 43.7236 69.905 43.8503 69.5882 44.0531C67.7041 45.2401 66.2045 46.5412 64.7555 47.8042L64.5021 48.0239C64.2613 48.2351 64.0754 48.4928 63.9529 48.7758C62.9602 49.0082 62.3519 49.5658 61.3001 50.6176C61.0888 50.8289 60.8438 51.0739 60.5524 51.3569C60.4636 51.4456 60.3792 51.5385 60.3073 51.6399C59.9821 51.716 59.6695 51.8723 59.4076 52.0961C58.4064 52.9579 57.6883 53.5916 56.8265 54.5209C56.7843 54.5674 56.742 54.6138 56.704 54.6645C56.4421 54.7279 56.1929 54.842 55.969 54.9983C55.8676 55.0743 55.7662 55.1419 55.669 55.2137C54.8749 55.7713 54.0596 56.35 53.0626 57.5793C52.9951 57.6596 52.9359 57.7483 52.8852 57.837C51.5461 58.2003 50.6083 59.1972 49.8522 59.9998C49.6874 60.173 49.5353 60.3378 49.4002 60.4687C49.3115 60.5574 49.2312 60.6504 49.1594 60.7518C48.8932 60.8236 48.6398 60.9503 48.4159 61.1235L44.1113 64.4818C43.4861 64.9676 43.1904 65.7618 43.3341 66.5391C43.4777 67.3164 44.048 67.9458 44.8083 68.1697L72.3551 76.3775C72.5578 76.4366 72.7606 76.4662 72.9592 76.4662C73.8505 76.4662 74.6742 75.9002 74.9657 75.0088L77.0948 68.5118L83.4017 70.3156C83.596 70.3705 83.7903 70.3959 83.9846 70.3959C84.8886 70.3959 85.7208 69.8129 85.9996 68.9089L100.654 21.736C100.823 21.1953 100.768 20.6123 100.502 20.1139C100.236 19.6154 99.7835 19.2437 99.2428 19.0831L60.6411 7.58456C60.4425 7.52542 60.2398 7.49585 60.037 7.49585L60.0285 7.5043Z" fill="white"/>
<path d="M41.6823 50.3177C41.5049 50.3177 41.3317 50.2755 41.1711 50.1868L24.709 41.058C24.3922 40.8806 24.1852 40.5553 24.1683 40.192C24.1472 39.8287 24.3161 39.4823 24.6161 39.2711L41.1204 27.6585C41.3021 27.5318 41.5133 27.4642 41.7287 27.4642C41.8555 27.4642 41.9864 27.4853 42.1089 27.536C42.3666 27.6374 42.5736 27.8317 42.6877 28.0767C42.8482 27.9838 43.0341 27.9331 43.2199 27.9331C43.3593 27.9331 43.4987 27.9626 43.6339 28.0176C45.0533 28.6174 46.1474 29.2215 47.4569 29.9988C47.6766 30.1297 47.8413 30.3367 47.9216 30.5817C47.9681 30.5817 48.0187 30.5775 48.0694 30.5775C48.2173 30.5775 48.3609 30.5944 48.5003 30.6282C49.4254 30.8605 50.6167 31.3717 51.094 32.4911C51.2461 32.4573 51.4024 32.4404 51.5629 32.4404C52.5514 32.4404 53.3667 33.1036 53.9624 33.5852C54.0722 33.6739 54.1778 33.7626 54.2792 33.8344C54.4355 33.9527 54.5538 34.109 54.6256 34.2907C54.672 34.2864 54.7185 34.2822 54.765 34.2822C54.8959 34.2822 55.0269 34.3076 55.1536 34.3583C56.1548 34.7553 57.2024 35.2707 58.0853 36.3479C58.2627 36.5676 58.3472 36.8506 58.3176 37.1336C58.288 37.4167 58.1444 37.6743 57.9205 37.8475L42.3413 50.0938C42.1512 50.2417 41.9188 50.3177 41.6907 50.3177H41.6823Z" fill="#FEFEFE"/>
<path d="M41.7249 28.5244C42.1854 30.5775 42.4008 33.4331 41.1504 34.9961C39.3382 37.2561 33.12 40.4328 33.9268 41.3537C34.0324 41.4762 34.1634 41.5776 34.3281 41.5776C34.4337 41.5776 34.552 41.5353 34.6914 41.434L41.746 36.1324C42.0079 36.2043 42.2276 36.2634 42.4008 36.2634C42.4853 36.2634 42.5571 36.2507 42.6162 36.2127C42.6712 36.1789 43.8328 30.2733 43.2161 28.9891C44.5468 29.551 45.5944 30.1212 46.9081 30.907C46.2787 31.7096 45.362 31.8067 45.041 32.6389C44.9269 32.9346 45.3494 33.1839 45.5564 33.1839C45.5733 33.1839 45.5902 33.1839 45.6071 33.1796C46.4224 32.9431 47.2503 31.6293 48.0656 31.6293C48.1247 31.6293 48.1839 31.6378 48.243 31.6504C48.9823 31.8363 49.8609 32.2207 50.1397 32.9431C49.6708 33.4796 48.0318 34.3244 48.7119 34.8694C48.8387 34.9708 48.9654 35.013 49.0963 35.013C49.8314 35.013 50.6509 33.695 51.2888 33.526C51.3817 33.5007 51.4704 33.4922 51.5633 33.4922C52.3195 33.4922 53.0714 34.2484 53.6459 34.6793L52.0238 36.2043C51.7999 36.4155 52.0153 36.69 52.1505 36.783C52.2646 36.859 52.3786 36.8928 52.4927 36.8928C53.1897 36.8928 53.9416 35.6762 54.7696 35.3383C55.7158 35.7142 56.5607 36.1451 57.2746 37.0153L41.6953 49.2616L25.2332 40.1329L41.7376 28.5202M41.7249 26.4123C41.294 26.4123 40.8716 26.5432 40.5083 26.7967L24.0039 38.4093C23.4083 38.8276 23.0703 39.5246 23.1084 40.2511C23.1464 40.9777 23.5561 41.6325 24.194 41.9873L40.6562 51.1161C40.9772 51.2935 41.3278 51.3822 41.6784 51.3822C42.1431 51.3822 42.6036 51.2301 42.9838 50.9302L58.563 38.6839C59.0108 38.3333 59.2938 37.8179 59.3572 37.2519C59.4206 36.6858 59.2516 36.124 58.8925 35.6847C57.8533 34.4174 56.6114 33.8091 55.5342 33.3824C55.4286 33.3402 55.3188 33.3064 55.2131 33.2853C55.1202 33.1796 55.0188 33.0867 54.9048 33.0022C54.8161 32.9346 54.7189 32.8544 54.6175 32.7741C53.9585 32.2376 52.97 31.435 51.6605 31.3928C51.048 30.5563 50.0426 29.9354 48.7457 29.6101C48.6739 29.5932 48.6021 29.5763 48.5303 29.5636C48.3782 29.382 48.1966 29.2215 47.9853 29.099C46.6378 28.2963 45.5057 27.6711 44.0314 27.0502C43.7653 26.9361 43.4865 26.8854 43.2119 26.8854C43.1612 26.8854 43.1063 26.8854 43.0556 26.8896C42.8866 26.7502 42.6923 26.6362 42.4811 26.5559C42.2361 26.463 41.9784 26.4165 41.7207 26.4165L41.7249 26.4123Z" fill="white"/>
<path d="M43.6001 26.4968C43.5072 26.4968 43.4143 26.4841 43.3213 26.4587C42.9834 26.3658 42.713 26.1123 42.599 25.7786C42.3497 25.0394 42.4131 24.4775 42.4554 24.11C42.468 23.9917 42.4849 23.8692 42.4765 23.8228C42.4427 23.6285 42.4638 23.4257 42.5398 23.2398C42.6455 22.9779 42.7004 22.7963 42.7299 22.678C42.5652 22.4837 42.4723 22.2344 42.4807 21.9683C42.5145 20.6545 42.2653 19.666 41.6908 18.8508C41.3021 18.3016 40.7699 18.0059 40.1531 18.0059C39.8194 18.0059 39.4645 18.0946 39.1308 18.2636C38.324 18.6691 38.0198 19.6745 38.3873 20.7052C38.4042 20.7475 38.4169 20.7939 38.4254 20.8404C38.5817 21.5881 38.9323 22.2387 39.3336 22.9906C39.642 23.5651 39.9588 24.1565 40.2165 24.8451C40.3728 25.259 40.2545 25.7237 39.925 26.011C39.7265 26.1842 39.4814 26.2729 39.228 26.2729C39.059 26.2729 38.8858 26.2306 38.7295 26.1461L27.8266 20.2828C27.5097 20.1096 27.2985 19.7885 27.2732 19.4295C27.2478 19.0704 27.4041 18.7198 27.6956 18.5044L45.9151 4.92319C46.1009 4.78379 46.3206 4.71198 46.5445 4.71198C46.6966 4.71198 46.8529 4.74577 46.9965 4.81336L61.8788 11.8215C62.2167 11.982 62.4448 12.3073 62.4786 12.679C62.5124 13.0508 62.3477 13.4141 62.0435 13.6337L47.8033 23.9073C47.2795 24.2874 46.7599 24.5958 46.2615 24.8957C45.5729 25.3055 44.9224 25.6984 44.2929 26.2391C44.0986 26.4038 43.8536 26.4925 43.6044 26.4925L43.6001 26.4968Z" fill="#FEFEFE"/>
<path d="M46.5402 5.77231L61.4224 12.7805L47.1823 23.054C45.9868 23.9157 44.7787 24.4227 43.6001 25.4407C43.3128 24.6001 43.6085 24.1565 43.5156 23.6369C43.9127 22.6611 43.9211 22.1162 43.5367 21.9937C43.5747 20.5405 43.3044 19.3028 42.5524 18.2383C41.9357 17.3638 41.0613 16.9498 40.153 16.9498C39.6546 16.9498 39.1434 17.0766 38.6534 17.3216C37.3692 17.9679 36.8369 19.5098 37.3861 21.0601C37.7072 22.5766 38.6492 23.7003 39.2237 25.2211L28.3207 19.3577L46.5402 5.77654M46.5402 3.66016C46.0924 3.66016 45.6489 3.80379 45.2771 4.07837L27.0577 17.6595C26.4789 18.0904 26.1621 18.7874 26.2128 19.5098C26.2677 20.2279 26.6817 20.8742 27.3196 21.2164L38.2225 27.0797C38.5351 27.2487 38.8815 27.3332 39.2237 27.3332C39.7264 27.3332 40.2206 27.1558 40.6135 26.8094C41.2767 26.2307 41.509 25.2971 41.1964 24.4733C40.9134 23.7172 40.5628 23.0667 40.2544 22.4921C39.8911 21.812 39.5743 21.2206 39.4476 20.6208C39.4264 20.5278 39.4011 20.4391 39.3715 20.3504C39.2237 19.928 39.2279 19.3873 39.5954 19.2056C39.7855 19.1127 39.9714 19.062 40.1446 19.062C40.3178 19.062 40.5712 19.1042 40.8205 19.4591C41.264 20.0885 41.4499 20.8531 41.4203 21.9388C41.4119 22.2387 41.4668 22.5259 41.5766 22.7921C41.5724 22.809 41.5639 22.8259 41.5555 22.8428C41.4203 23.1765 41.3696 23.5398 41.4161 23.8946C41.4161 23.9242 41.4077 23.958 41.4034 23.9918C41.3527 24.4269 41.2682 25.1535 41.5935 26.1208C41.8174 26.7841 42.3581 27.2952 43.0382 27.4811C43.2199 27.5317 43.41 27.5571 43.5958 27.5571C44.0943 27.5571 44.5843 27.3797 44.973 27.046C45.5348 26.5644 46.1178 26.2138 46.7936 25.8125C47.3132 25.4999 47.8497 25.1788 48.4116 24.7733L62.6517 14.4997C63.26 14.0604 63.5895 13.3381 63.5177 12.5904C63.4501 11.8469 62.9897 11.1921 62.3138 10.8753L47.4315 3.86715C47.1443 3.73197 46.8359 3.66438 46.5317 3.66438L46.5402 3.66016Z" fill="white"/>
<path d="M23.9447 40.5638C23.7715 40.5638 23.5983 40.5215 23.442 40.4371L8.04857 32.0645C7.71485 31.8828 7.50363 31.5364 7.49518 31.1562C7.49096 30.7761 7.6895 30.4212 8.01477 30.2269L26.568 19.3197C26.7327 19.2226 26.9186 19.1761 27.1044 19.1761C27.2776 19.1761 27.4508 19.2183 27.6114 19.3028L39.7351 25.9012C40.1238 26.1124 40.335 26.5391 40.2759 26.9742C40.2463 27.1938 40.1491 27.3924 40.0055 27.5444C40.2801 27.6923 40.4786 27.9584 40.5378 28.271C40.618 28.6766 40.449 29.0948 40.1111 29.3356L24.5614 40.3695C24.3798 40.5004 24.1643 40.5638 23.9489 40.5638H23.9447Z" fill="#FEFDFD"/>
<path d="M27.1001 20.2279L39.2239 26.8263C38.8141 26.9193 38.4213 26.9615 38.0369 26.9615C36.2077 26.9615 34.6616 26.0026 33.2507 24.9127C33.031 24.8029 32.8283 24.7015 32.6171 24.7015C32.5157 24.7015 32.4101 24.7268 32.3002 24.786C30.9527 25.5168 34.9151 27.4346 35.346 27.8486L24.3163 35.2876C23.9403 35.5411 24.2107 35.9255 24.2994 35.9931C24.3923 36.0649 24.5486 36.1916 24.7387 36.1916C24.8148 36.1916 24.8992 36.1705 24.9837 36.1156C28.8152 33.6148 32.5495 31.2027 36.2753 28.3048C36.5879 28.2119 36.9385 28.1697 37.3187 28.1697C37.965 28.1697 38.7001 28.2879 39.4985 28.478L23.9488 39.5119L8.55537 31.1393L27.1086 20.2322M27.1001 18.1158C26.7284 18.1158 26.3609 18.2129 26.0314 18.4073L7.47817 29.3144C6.8234 29.6989 6.42209 30.4085 6.43899 31.1689C6.45166 31.9293 6.87409 32.6263 7.54154 32.9896L22.9349 41.3622C23.2518 41.5354 23.5981 41.6199 23.9445 41.6199C24.3754 41.6199 24.8021 41.4889 25.1654 41.2312L40.7151 30.1973C41.391 29.7158 41.7247 28.8878 41.5684 28.0725C41.5177 27.8064 41.4163 27.5571 41.2727 27.3375C41.2896 27.2656 41.3022 27.1938 41.3149 27.122C41.4374 26.2518 41.0065 25.3943 40.2335 24.9718L28.1097 18.3735C27.7929 18.2003 27.4465 18.1158 27.1001 18.1158Z" fill="white"/>
<path d="M58.6262 36.9773C58.5755 36.9773 58.5291 36.9773 58.4784 36.9688C57.2745 36.7999 56.4085 35.9423 55.7157 35.2496C55.6101 35.1439 55.5002 35.0383 55.3946 34.9369C55.289 34.8398 55.213 34.7215 55.1581 34.599C55.0609 34.6159 54.9638 34.6201 54.8666 34.6201C53.9753 34.6201 53.198 34.0118 52.577 33.5218C52.4292 33.4035 52.2898 33.2937 52.163 33.2092C51.9645 33.074 51.8166 32.8713 51.749 32.6474C51.6519 32.6643 51.5505 32.6727 51.4491 32.6727C50.4649 32.6727 49.544 31.9081 48.9314 31.4012C48.8638 31.3463 48.8005 31.2914 48.7456 31.2491C48.6357 31.1604 48.5428 31.0506 48.4752 30.9281C48.3654 30.9661 48.2513 30.983 48.1373 30.983C47.9979 30.983 47.8542 30.9534 47.7191 30.8985C46.6165 30.4254 45.7125 29.9185 44.7916 29.2595C44.4114 28.9891 44.2551 28.4991 44.4072 28.0555C44.555 27.6289 44.9564 27.3459 45.4041 27.3459C45.421 27.3459 45.4337 27.3459 45.4506 27.3459C45.7167 27.3585 45.9744 27.367 46.2279 27.367C47.3262 27.367 48.1035 27.2149 48.8343 26.8558C49.0244 26.7629 49.6031 26.4757 49.4721 25.3731C49.4384 25.2041 48.8554 24.7521 48.4668 24.4522L48.2851 24.3128C48.0232 24.11 47.8711 23.7932 47.8796 23.4595C47.8838 23.1258 48.0486 22.8174 48.3189 22.6231L61.4312 13.1733C61.9127 12.8269 62.4408 12.6495 63.0068 12.6495C63.632 12.6495 64.1854 12.8691 64.5487 13.0381L78.5988 19.4886C78.9325 19.6407 79.1606 19.9575 79.2071 20.3208C79.2493 20.6841 79.1015 21.0474 78.8142 21.2755L59.2768 36.7576C59.0909 36.9055 58.8586 36.9857 58.622 36.9857L58.6262 36.9773Z" fill="#FDFCFC"/>
<path d="M63.011 13.7013C63.3742 13.7013 63.7418 13.8238 64.1135 13.9928L78.1636 20.4433L58.6261 35.9254C57.6207 35.7818 56.873 34.8947 56.1253 34.1766C56.8772 33.3021 62.3731 29.9776 61.1396 29.3228C61.0931 29.2975 61.034 29.2848 60.9706 29.2848C59.8216 29.2848 56.2014 33.1796 55.0059 33.5556C54.9594 33.564 54.9129 33.5683 54.8665 33.5683C54.1652 33.5683 53.3288 32.7276 52.7585 32.339L57.4729 28.5118C57.7728 28.2668 57.908 27.9922 57.8995 27.8021C57.8953 27.65 57.6545 27.4092 57.4011 27.4092C57.325 27.4092 57.2448 27.4303 57.173 27.4853L51.6729 31.5828C51.6011 31.6082 51.525 31.6166 51.4448 31.6166C50.7478 31.6166 49.8395 30.776 49.4002 30.4212L54.2793 26.5052C54.5032 26.3236 54.5919 26.0237 54.4778 25.804C54.3976 25.6477 54.2371 25.5674 54.047 25.5674C53.8864 25.5674 53.7048 25.6266 53.5485 25.7491L48.1371 29.9227C47.0811 29.4707 46.2573 29.0018 45.4082 28.3935C45.6913 28.4062 45.9658 28.4146 46.232 28.4146C47.3261 28.4146 48.3103 28.2837 49.2988 27.7979C50.2324 27.3374 50.6591 26.4292 50.5197 25.2464C50.4436 24.6001 49.7846 24.1354 48.9355 23.4764L62.0478 14.0266C62.3689 13.7943 62.6857 13.7056 63.0067 13.7056M63.011 11.5892C62.221 11.5892 61.4817 11.83 60.8185 12.3115L47.7063 21.7613C47.1656 22.15 46.8403 22.7709 46.8276 23.4384C46.8149 24.1016 47.1191 24.7352 47.6429 25.145L47.8288 25.2886C48.0273 25.4407 48.2765 25.635 48.4371 25.7744C48.4286 25.8378 48.4202 25.8716 48.416 25.8842C48.416 25.8842 48.3991 25.8927 48.3737 25.9054C47.795 26.1884 47.174 26.3067 46.2362 26.3067C46.025 26.3067 45.7842 26.3025 45.5054 26.2898C45.4758 26.2898 45.442 26.2898 45.4125 26.2898C44.5169 26.2898 43.7143 26.8558 43.4186 27.7134C43.1144 28.5963 43.4228 29.5763 44.1832 30.1212C45.1675 30.8267 46.1306 31.3674 47.305 31.8743C47.5415 31.9757 47.795 32.0348 48.0442 32.0433C48.0611 32.056 48.0738 32.0686 48.0907 32.0813C48.1414 32.1236 48.2005 32.17 48.2639 32.2207C48.8975 32.7445 49.9283 33.5978 51.1618 33.7203C51.28 33.8598 51.4194 33.9865 51.5757 34.0921C51.656 34.147 51.7954 34.2568 51.9264 34.3624C52.5938 34.8863 53.4893 35.5917 54.6341 35.6804C54.6426 35.6889 54.6553 35.7016 54.6679 35.71C54.7693 35.8072 54.8707 35.9085 54.9763 36.0099C55.7409 36.7661 56.7843 37.8053 58.3346 38.0249C58.4318 38.0376 58.5332 38.046 58.6303 38.046C59.1035 38.046 59.5681 37.8855 59.9441 37.5898L79.4815 22.1077C80.0561 21.6515 80.356 20.9291 80.2673 20.1983C80.1786 19.4675 79.7181 18.8381 79.0507 18.5297L65.0006 12.0792C64.5486 11.8722 63.8516 11.5934 63.0152 11.5934L63.011 11.5892Z" fill="white"/>
<path d="M82.8737 55.8684C82.7723 55.8684 82.6751 55.8558 82.5737 55.8262L70.0275 52.1046C69.7487 52.0201 69.5164 51.8258 69.3854 51.5639C69.2545 51.3019 69.2376 50.9978 69.3389 50.7274C69.8121 49.4475 70.0782 48.3956 70.3148 47.4705C70.9315 45.0584 71.3793 43.3138 74.5898 41.3326C74.7587 41.227 74.9488 41.1763 75.1432 41.1763C75.2445 41.1763 75.3459 41.1932 75.4473 41.2227L86.025 44.4079C86.2953 44.4881 86.5192 44.674 86.6502 44.919C86.7811 45.164 86.8107 45.4555 86.7305 45.7259L83.879 55.1292C83.7396 55.5854 83.3214 55.8811 82.8694 55.8811L82.8737 55.8684Z" fill="#47B1A3"/>
<path d="M75.1475 42.2281L85.7252 45.4133L82.8738 54.8166L70.3276 51.095C72.0553 46.3975 71.1682 44.6909 75.1475 42.2324M75.1475 40.116C74.7589 40.116 74.3744 40.2216 74.0365 40.4328C70.4627 42.6421 69.9474 44.6571 69.2926 47.2086C69.0603 48.1084 68.7984 49.1307 68.3464 50.3642C68.1436 50.9133 68.1774 51.5174 68.4393 52.0412C68.7012 52.565 69.1659 52.9537 69.7277 53.1184L82.2739 56.84C82.4725 56.8992 82.6752 56.9287 82.8738 56.9287C83.782 56.9287 84.6184 56.3416 84.893 55.4291L87.7444 46.0258C87.9091 45.4893 87.85 44.9106 87.5839 44.4163C87.3177 43.9221 86.87 43.5546 86.3293 43.3898L75.7516 40.2047C75.553 40.1455 75.346 40.116 75.1433 40.116H75.1475Z" fill="white"/>
<path d="M39.8025 65.6055C39.0421 65.6055 38.1508 65.369 37.4791 64.9888L22.3687 56.4261C21.8956 56.1557 21.5788 55.6404 21.4985 55.0067C21.4267 54.4407 21.545 53.6549 22.0815 53.1396C22.0984 53.1269 22.111 53.11 22.1279 53.0973C21.6633 52.6158 21.338 51.8976 21.7604 50.8289C21.8703 50.5458 22.0984 50.3262 22.3814 50.2248C22.4997 50.1825 22.6222 50.1614 22.7447 50.1614C22.9179 50.1614 23.0911 50.2037 23.2474 50.2882L41.8555 60.3082L58.1867 47.4536C58.381 47.3016 58.6091 47.2255 58.8372 47.2255C59.1287 47.2255 59.4202 47.348 59.6272 47.5804C60.32 48.3619 60.3411 49.5109 59.6821 50.5712C59.6187 50.6726 59.5385 50.7655 59.4413 50.8415L41.5133 65.0775C41.074 65.4239 40.4826 65.6097 39.8067 65.6097L39.8025 65.6055Z" fill="#F2F1F0"/>
<path d="M58.8333 48.2816C59.2642 48.7674 59.1375 49.4391 58.7826 50.0136L40.8547 64.2495C40.5801 64.4649 40.2041 64.5536 39.8028 64.5536C39.1649 64.5536 38.4637 64.334 37.999 64.0721L22.8887 55.5094C22.4409 55.2559 22.424 54.2801 22.8126 53.9084L39.0804 62.8724C39.448 62.8301 39.6338 62.5175 39.6465 62.3612C39.6718 62.1078 39.4522 61.698 39.1227 61.5164L23.78 52.9664C23.083 52.5777 22.331 52.2609 22.7408 51.2217L41.9572 61.5671L58.8333 48.2816ZM58.8333 46.1694C58.3729 46.1694 57.9124 46.3173 57.528 46.6214L41.7418 59.0494L23.7462 49.3588C23.4336 49.1898 23.0914 49.1053 22.745 49.1053C22.5 49.1053 22.255 49.1476 22.0184 49.2363C21.4524 49.4433 21.0004 49.8868 20.7807 50.4487C20.3329 51.5935 20.5357 52.489 20.8272 53.0762C20.4977 53.676 20.3625 54.3984 20.4554 55.1419C20.578 56.1092 21.0849 56.9119 21.8537 57.347L36.9641 65.9096C37.8005 66.3828 38.8608 66.6658 39.8112 66.6658C40.7617 66.6658 41.5474 66.4039 42.1769 65.9054L60.1048 51.6695C60.2949 51.5174 60.4555 51.3358 60.5864 51.1288C61.5031 49.6545 61.4397 48.0239 60.4217 46.8791C60.0077 46.4102 59.4247 46.1694 58.8418 46.1694H58.8333Z" fill="white"/>
<path d="M39.6972 55.0067C38.5101 55.0067 37.3822 54.4406 36.9513 54.1956L23.1505 46.3806C22.5802 46.0596 22.2169 45.4428 22.1705 44.7374C22.124 44.0404 22.407 43.394 22.9266 43.0054C22.9689 42.9716 23.0153 42.9463 23.0576 42.9209C23.0322 42.8829 22.952 42.7731 22.952 42.7731C22.821 42.5872 22.5507 42.0845 22.914 41.3748C23.1505 40.9101 23.6659 40.3694 24.3418 40.3694C24.5445 40.3694 24.7473 40.4201 24.9205 40.5173L41.8178 49.7178L57.1562 37.6025C57.3294 37.4673 57.5407 37.3871 57.7603 37.3744C57.7772 37.3744 57.8068 37.3744 57.8237 37.3744C58.4362 37.3744 58.9896 37.801 59.2642 38.4896C59.5641 39.2415 59.4374 40.0399 58.9389 40.5173C58.9178 40.5384 58.8924 40.5595 58.8671 40.5806L41.5009 54.4237C41.0151 54.8124 40.4068 55.0109 39.7014 55.0109L39.6972 55.0067Z" fill="#F3F2F2"/>
<path d="M57.8237 38.4347C58.225 38.4347 58.5925 39.3851 58.2081 39.7569L40.842 53.6C40.5209 53.8534 40.1238 53.9548 39.7014 53.9548C38.9241 53.9548 38.0666 53.6169 37.4794 53.2831L23.6786 45.4682C23.1463 45.1682 23.0576 44.2347 23.5688 43.8545L39.0298 52.2693C39.0551 52.2862 39.0847 52.2904 39.1185 52.2904C39.3508 52.2904 39.6423 51.8849 39.6127 51.7455C39.5705 51.5343 39.4522 51.1034 39.0931 50.9049L24.3883 42.7435C24.101 42.583 23.9321 42.3084 23.8222 42.1563C23.7039 41.9873 24.0884 41.4255 24.3503 41.4255C24.3756 41.4255 24.4052 41.4297 24.4263 41.4424L41.9361 50.9767L57.8195 38.4262C57.8195 38.4262 57.8279 38.4262 57.8322 38.4262M57.8237 36.3225C57.7899 36.3225 57.7435 36.3225 57.7097 36.3225C57.2703 36.3436 56.8479 36.4999 56.5015 36.7745L41.7122 48.459L25.4275 39.5921C25.098 39.4105 24.722 39.3176 24.3418 39.3176C23.1928 39.3176 22.3691 40.1328 21.9762 40.8932C21.6721 41.4846 21.6002 42.1141 21.7608 42.6843C21.3003 43.2673 21.068 44.0192 21.1187 44.8049C21.1863 45.8695 21.7523 46.803 22.631 47.3015L36.4318 55.1165C37.057 55.4713 38.3074 56.0627 39.6972 56.0627C40.635 56.0627 41.4841 55.7797 42.1557 55.2474L59.5219 41.4044C59.5726 41.3663 59.6191 41.3241 59.6655 41.2776C60.4808 40.4961 60.7047 39.25 60.24 38.0925C59.8007 36.9984 58.8714 36.3183 57.8195 36.3183L57.8237 36.3225Z" fill="white"/>
<path d="M40.2757 58.3819C39.076 58.3819 37.7749 57.63 37.0018 57.178L23.0531 49.1053C22.6603 48.8772 22.4195 48.5773 22.2759 48.3957C22.2547 48.3661 22.2336 48.3407 22.2167 48.3196C21.8196 47.8676 21.8281 47.2171 21.9675 46.7651C22.1322 46.2244 22.504 45.8484 22.9856 45.7259C23.07 45.7048 23.1588 45.6921 23.2475 45.6921C23.4249 45.6921 23.6065 45.7386 23.7628 45.8273L37.8213 53.7099C38.3621 54.0098 38.8816 54.1576 39.4097 54.1576C40.1954 54.1576 41.0149 53.8197 41.8471 53.1522L57.8826 40.2934C58.0727 40.1414 58.305 40.0611 58.5416 40.0611C58.6092 40.0611 58.6725 40.0653 58.7401 40.078C59.0443 40.1371 59.3062 40.323 59.4583 40.5934C60.1046 41.7297 59.7751 42.6253 59.5597 43.2124L59.4878 43.411C59.4245 43.5968 59.3062 43.7616 59.1541 43.8883L41.6443 57.968C41.6063 58.0018 41.5641 58.0271 41.5176 58.0567C41.1585 58.2679 40.7403 58.3777 40.2757 58.3777V58.3819Z" fill="#EEEDEC"/>
<path d="M58.5459 41.1172C59.0022 41.924 58.7149 42.4309 58.4952 43.0688L40.9855 57.1484C40.7785 57.2709 40.5377 57.3216 40.28 57.3216C39.3253 57.3216 38.1383 56.6119 37.4539 56.2149L23.5813 48.1887C23.2983 48.0239 23.142 47.7705 23.011 47.6184C22.8505 47.4367 22.9519 46.8158 23.2476 46.7397L37.3061 54.6181C38.02 55.0194 38.7255 55.201 39.4098 55.201C40.4997 55.201 41.5389 54.7406 42.5062 53.9633L58.5417 41.1045M58.5459 39.005C58.0686 39.005 57.6039 39.1655 57.2237 39.4697L41.1882 52.3285C40.5504 52.8396 39.9505 53.1015 39.4098 53.1015C39.0634 53.1015 38.7128 53.0001 38.3368 52.7889L24.2783 44.9106C23.9615 44.7332 23.6024 44.6402 23.2476 44.6402C23.0744 44.6402 22.897 44.6614 22.728 44.7036C21.8958 44.9148 21.2326 45.5696 20.958 46.4567C20.6707 47.386 20.8482 48.3703 21.4227 49.0208L21.448 49.0546C21.6254 49.2785 21.9549 49.6967 22.521 50.022L36.3936 58.0482L36.4697 58.0905C37.3357 58.5931 38.7888 59.438 40.2758 59.438C40.9306 59.438 41.5262 59.2817 42.0542 58.9733C42.1429 58.9226 42.2274 58.8635 42.3035 58.8001L59.8132 44.7205C60.1216 44.4713 60.3539 44.1418 60.4849 43.7658C60.506 43.7024 60.5271 43.6433 60.5525 43.5842C60.8017 42.904 61.2664 41.641 60.3793 40.078C60.0751 39.5373 59.5471 39.1613 58.9388 39.043C58.8078 39.0177 58.6727 39.005 58.5417 39.005H58.5459Z" fill="white"/>
<path d="M40.3307 69.0102C39.545 69.0102 38.848 68.668 38.3242 68.3681L22.8505 59.4928C22.1324 59.0831 21.6592 58.4199 21.579 57.7271C21.5156 57.1737 21.7142 56.6372 22.1239 56.2528C22.3225 56.0669 22.5844 55.9698 22.8463 55.9698C23.0237 55.9698 23.2011 56.012 23.3616 56.1049L38.1679 64.3888C38.6283 64.6465 39.1141 64.7775 39.6083 64.7775C40.2673 64.7775 40.9137 64.5409 41.4713 64.0931L58.1404 50.7485C58.3305 50.5964 58.5628 50.5162 58.7994 50.5162C58.8754 50.5162 58.9515 50.5246 59.0275 50.5415C59.3401 50.6133 59.6062 50.8203 59.7456 51.1076C60.2019 52.0369 60.337 53.4774 58.3981 55.0615L42.3415 68.2118C41.6867 68.7483 41.0319 69.006 40.3307 69.006V69.0102Z" fill="#ECEBEA"/>
<path d="M58.7954 51.5765C59.3108 52.6284 58.6095 53.5281 57.7267 54.2505L41.6658 67.4008C41.1885 67.7894 40.7618 67.9584 40.3267 67.9584C39.862 67.9584 39.3931 67.7683 38.8482 67.4557L23.3745 58.5804C22.7071 58.196 22.3692 57.4694 22.8423 57.0259L37.6485 65.3098C38.2779 65.6604 38.9454 65.8336 39.6044 65.8336C40.4957 65.8336 41.3743 65.521 42.1263 64.9169L58.7954 51.5723M58.7954 49.4644C58.3181 49.4644 57.8534 49.6249 57.4774 49.929L40.8083 63.2736C40.4408 63.5693 40.0226 63.7256 39.6044 63.7256C39.2918 63.7256 38.9834 63.6412 38.6792 63.4722L23.873 55.1883C23.552 55.0067 23.1929 54.9179 22.8423 54.9179C22.3185 54.9179 21.8031 55.1123 21.4018 55.484C20.7428 56.0965 20.426 56.9583 20.5274 57.8496C20.6456 58.8761 21.3173 59.8351 22.3227 60.4138L37.7964 69.2891C38.43 69.6523 39.2918 70.0706 40.3267 70.0706C41.2645 70.0706 42.1685 69.7242 43.0049 69.0356L59.0658 55.8853C61.6722 53.752 61.2033 51.6863 60.6921 50.6472C60.4091 50.0727 59.8811 49.6544 59.2559 49.515C59.1038 49.4813 58.9475 49.4644 58.7954 49.4644Z" fill="white"/>
<path d="M21.4438 47.9817C21.2622 47.9817 21.0805 47.9352 20.92 47.8423L7.6134 40.2258C5.92368 39.2585 4.64371 37.1463 4.5719 35.2074C4.52543 33.9232 5.01123 32.8713 5.94058 32.2377C6.47284 31.8786 7.15295 31.6801 7.84996 31.6801C8.46249 31.6801 9.05812 31.8321 9.58193 32.1152L22.9392 39.4105C23.4673 39.6978 23.7292 40.0991 23.8432 40.2723C24.122 40.699 24.1051 41.2692 23.7967 41.8437C23.501 42.3929 23.0364 42.7055 22.5252 42.7055C22.3267 42.7055 22.1281 42.6548 21.9507 42.5619L9.41718 35.8157C9.23976 35.7227 9.04122 35.6678 8.85113 35.6678C8.76242 35.6678 8.46249 35.6847 8.35688 35.879C8.25972 36.0607 8.16679 36.7492 8.66103 37.0407L22.107 44.9317C22.5632 45.1979 22.8294 45.709 22.8209 46.3004C22.8125 46.9594 22.4703 47.5677 21.9507 47.8507C21.7902 47.9394 21.617 47.9817 21.4438 47.9817Z" fill="#F8F8F7"/>
<path d="M7.84981 32.7361C8.25956 32.7361 8.69044 32.8333 9.07486 33.0445L22.4321 40.3399C22.7194 40.4962 22.8715 40.7201 22.9602 40.8552C23.07 41.0242 22.7828 41.6494 22.5251 41.6494C22.4997 41.6494 22.4744 41.6452 22.449 41.6283L9.91549 34.8821C9.57755 34.7004 9.20581 34.6075 8.85097 34.6075C8.25111 34.6075 7.70195 34.8652 7.42737 35.3721C7.06831 36.0311 7.1021 37.3448 8.12861 37.9447L21.5746 45.8357C21.8956 46.0216 21.7943 46.727 21.4479 46.9171L8.14128 39.3007C5.93619 38.0376 4.65622 34.3794 6.53604 33.1079C6.89089 32.8671 7.35979 32.7319 7.85403 32.7319M7.84981 30.624C6.94158 30.624 6.05025 30.8859 5.34479 31.3632C4.11974 32.1954 3.44807 33.6106 3.51144 35.2454C3.60015 37.5603 5.07021 39.985 7.0852 41.1383L20.3918 48.7547C20.7171 48.9406 21.0804 49.0335 21.4394 49.0335C21.7985 49.0335 22.1407 48.9448 22.4575 48.7716C23.315 48.2985 23.86 47.3565 23.8726 46.3088C23.8853 45.3372 23.4248 44.4797 22.6349 44.0193L22.1407 43.7278C22.2674 43.7489 22.3941 43.7616 22.5208 43.7616C23.4206 43.7616 24.2444 43.2335 24.7217 42.3464C25.2117 41.4382 25.216 40.4455 24.7217 39.6978C24.4978 39.3556 24.1219 38.8614 23.4417 38.4854L10.0845 31.19C9.40435 30.8183 8.6313 30.624 7.84558 30.624H7.84981Z" fill="white"/>
<path d="M21.1142 58.3397C20.9367 58.3397 20.7593 58.2932 20.5946 58.2045L7.87516 51.0063C6.02068 49.9544 4.73649 47.9985 4.60976 46.0173C4.5295 44.7543 4.95193 43.6771 5.77145 43.0645C6.33328 42.6421 7.08099 42.414 7.88361 42.414C8.50036 42.414 9.08331 42.5534 9.57333 42.8153L21.431 49.2109C22.204 49.6291 22.5166 50.5374 22.4279 51.2175C22.3477 51.8342 21.9463 52.3031 21.3803 52.4383C21.3 52.4594 21.2155 52.4679 21.1353 52.4679C20.9663 52.4679 20.7931 52.4256 20.641 52.3454L9.26496 46.3299C9.15935 46.275 9.03684 46.2455 8.91434 46.2455C8.67355 46.2455 8.48346 46.3511 8.4032 46.4524C8.23422 46.6721 8.25957 46.7904 8.27224 46.8538C8.34828 47.2339 8.93546 47.9267 10.3464 48.7251L21.1564 54.8377C21.845 55.2263 22.297 55.8135 22.3941 56.4514C22.4786 57.0048 22.3012 57.5497 21.8872 57.9933C21.6802 58.2172 21.3972 58.3312 21.1142 58.3312V58.3397Z" fill="#F7F5F5"/>
<path d="M7.88389 43.4701C8.30632 43.4701 8.72875 43.563 9.07092 43.7447L20.9286 50.1403C21.4228 50.4064 21.5538 51.3146 21.1356 51.416L9.75949 45.4006C9.48913 45.257 9.19765 45.1936 8.91462 45.1936C8.38236 45.1936 7.86699 45.4217 7.56707 45.8104C6.35469 47.3776 8.47529 48.8856 9.82285 49.6502L20.6329 55.7628C21.1989 56.0839 21.6551 56.6964 21.1102 57.2836L8.39081 50.0854C5.60276 48.5097 4.95222 44.9951 6.39693 43.9094C6.78979 43.6179 7.33473 43.4701 7.87544 43.4701M7.88389 41.3579C6.85738 41.3579 5.88157 41.6663 5.13809 42.2197C4.03132 43.0519 3.45259 44.4586 3.55819 46.0849C3.70605 48.4083 5.19723 50.7021 7.35585 51.9229L20.0753 59.1212C20.4005 59.307 20.7596 59.3957 21.1144 59.3957C21.6889 59.3957 22.255 59.1634 22.6648 58.7198C23.3026 58.0355 23.5772 57.1737 23.4378 56.2951C23.29 55.3362 22.6479 54.4702 21.6763 53.921L20.9539 53.5155C21.0131 53.5197 21.0722 53.5239 21.1356 53.5239C21.3003 53.5239 21.4651 53.5028 21.6298 53.4648C22.6141 53.2282 23.3407 52.4003 23.4758 51.3526C23.6364 50.1191 23.0027 48.8561 21.934 48.2773L10.0763 41.8817C9.43421 41.5353 8.67806 41.3537 7.88812 41.3537L7.88389 41.3579Z" fill="white"/>
<path d="M60.6706 46.0638C60.358 46.0638 60.0496 45.9286 59.8426 45.6625C59.1794 44.8303 59.1668 44.0615 59.2724 43.5672C59.4329 42.8068 59.982 42.1352 60.8185 41.6663L75.8401 29.5678C76.1062 29.3524 76.4357 29.2383 76.7821 29.2383C77.9312 29.2383 78.8605 30.4592 79.0253 30.7591C79.2787 31.2111 79.1647 31.7814 78.7549 32.1024L61.3169 45.8314C61.1226 45.9835 60.8945 46.0596 60.6664 46.0596L60.6706 46.0638Z" fill="#F9F9F8"/>
<path d="M76.7865 30.2987C77.2934 30.2987 77.9567 31.0084 78.1087 31.2787L60.6708 45.0077C59.8175 43.9348 60.5018 43.0265 61.4058 42.5492L76.5035 30.3916C76.588 30.324 76.6809 30.2945 76.7865 30.2945M76.7865 28.1865C76.1951 28.1865 75.6375 28.3808 75.1813 28.7484L60.223 40.7919C59.1585 41.4086 58.4572 42.3126 58.2376 43.3518C58.0221 44.3656 58.3009 45.4217 59.0148 46.3215C59.433 46.8453 60.0498 47.1199 60.6708 47.1199C61.127 47.1199 61.5874 46.972 61.9761 46.6679L79.414 32.9389C80.2293 32.2968 80.4575 31.1562 79.9505 30.2522C79.6506 29.7157 78.4298 28.1907 76.7823 28.1907L76.7865 28.1865Z" fill="white"/>
<path d="M60.3453 42.5112C60.113 42.5112 59.8849 42.4351 59.6906 42.283C59.2048 41.8986 58.9344 41.3453 58.9302 40.7243C58.9302 39.9681 59.3315 39.174 59.9863 38.6459L76.3808 25.4999C76.7526 25.1999 77.1623 24.9084 77.6777 24.9084C77.8678 24.9084 78.0494 24.9507 78.2142 25.031C78.6197 25.2253 79.1182 25.6393 79.3252 26.1208C79.6335 26.839 79.3463 27.5571 78.4803 28.2499L61.0043 42.2788C60.81 42.4351 60.5777 42.5112 60.3453 42.5112Z" fill="#E2E1E0"/>
<path d="M77.6776 25.9645C77.7072 25.9645 77.7325 25.9687 77.7579 25.9814C77.986 26.0912 78.2733 26.3405 78.3535 26.5348C78.4845 26.8389 78.1508 27.16 77.817 27.4261L60.3411 41.4551C59.6863 40.9355 60.02 39.9723 60.6452 39.4739L77.0398 26.3236C77.2763 26.1335 77.5087 25.9645 77.6734 25.9645M77.6776 23.8524C76.7483 23.8524 76.0808 24.3888 75.7218 24.6761L59.3272 37.8264C58.4148 38.5572 57.8698 39.6428 57.874 40.7327C57.874 41.6705 58.3007 42.5365 59.0357 43.1194C59.4201 43.4236 59.8806 43.5715 60.3453 43.5715C60.8099 43.5715 61.2831 43.4152 61.6675 43.1068L79.1435 29.0778C80.8247 27.7303 80.5882 26.3869 80.2967 25.7068C79.9588 24.9211 79.2364 24.3508 78.6703 24.0805C78.3577 23.9326 78.024 23.8566 77.6776 23.8566V23.8524Z" fill="white"/>
<path d="M59.8681 39.5246C59.7582 39.5246 59.6484 39.5077 59.5428 39.4739C58.4022 39.1022 58.2966 38.0376 58.2502 37.5265L58.2417 37.4251C58.2037 37.066 58.3516 36.7112 58.6388 36.4873L76.9385 22.0233C77.1878 21.8247 77.4877 21.7191 77.8003 21.7191C78.7592 21.7191 79.5196 22.7118 79.5365 23.5651C79.5407 23.8946 79.3971 24.2072 79.1394 24.41L60.5355 39.288C60.3454 39.4401 60.1131 39.5204 59.8765 39.5204L59.8681 39.5246Z" fill="#E1E1DF"/>
<path d="M77.7922 22.7752C78.1259 22.7752 78.4681 23.2821 78.4723 23.5863L59.8684 38.4643C59.3446 38.2953 59.3361 37.8011 59.2855 37.3153L77.5852 22.8512C77.6528 22.8005 77.7204 22.7752 77.7922 22.7752ZM77.7922 20.663C77.2388 20.663 76.715 20.8447 76.2756 21.1953L57.9759 35.6593C57.4099 36.1071 57.1099 36.8126 57.186 37.5349L57.1944 37.6279C57.2493 38.1855 57.4141 39.8879 59.2136 40.4751C59.4291 40.5469 59.6487 40.5807 59.8684 40.5807C60.3415 40.5807 60.8062 40.4201 61.1864 40.116L79.7903 25.238C80.3014 24.8282 80.5971 24.203 80.5844 23.5482C80.5591 22.1838 79.4059 20.6673 77.7922 20.6673V20.663Z" fill="white"/>
<path d="M41.7797 60.7898C40.9053 60.718 40.428 60.3589 39.9168 59.9829L39.8028 59.8985C39.4902 59.6704 39.3296 59.2859 39.3803 58.8973C39.4352 58.5129 39.6971 58.1876 40.0647 58.0524C40.8166 57.7779 41.4587 57.3216 42.312 56.6331L58.1701 43.8207C58.3602 43.6687 58.5925 43.5842 58.8333 43.5842C58.8713 43.5842 58.9135 43.5842 58.9516 43.5926C59.2346 43.6264 59.4881 43.77 59.6655 43.9897C60.3794 44.9021 60.4174 46.5116 59.3318 47.3649L42.519 60.5617C42.3331 60.7095 42.1008 60.7856 41.8684 60.7856C41.8389 60.7856 41.8093 60.7856 41.7797 60.7856V60.7898Z" fill="#F4F3F2"/>
<path d="M58.8376 44.6444C59.2093 45.1176 59.2727 46.0765 58.6855 46.5369L41.8685 59.7337C41.2475 59.683 40.9518 59.4295 40.4323 59.0451C41.3574 58.7072 42.1178 58.1538 42.9837 57.4526L58.8418 44.6402M58.8376 42.5323C58.356 42.5323 57.8871 42.697 57.5111 43.0012L41.6531 55.8135C40.8843 56.4345 40.3182 56.84 39.7014 57.0639C38.9706 57.3301 38.4468 57.9806 38.337 58.7494C38.2272 59.5183 38.5524 60.2871 39.1776 60.7475L39.2875 60.8278C39.8366 61.2333 40.5167 61.7402 41.6911 61.8374C41.7502 61.8416 41.8094 61.8458 41.8685 61.8458C42.3416 61.8458 42.7979 61.6895 43.1738 61.3938L59.9908 48.1971C61.5623 46.9636 61.5242 44.6487 60.5062 43.3434C60.1598 42.8956 59.6444 42.6083 59.0826 42.545C59.0023 42.5365 58.9221 42.5323 58.8418 42.5323H58.8376Z" fill="white"/>
<path d="M60.6875 52.8269C60.3918 52.8269 60.1004 52.7044 59.8934 52.4679C59.3611 51.8596 59.2935 51.2513 59.3315 50.8457C59.3991 50.0938 59.8554 49.3926 60.7298 48.6955L76.2584 36.3183C76.3217 36.2676 76.3851 36.2127 76.44 36.1578C76.7061 35.917 77.1117 35.5537 77.7073 35.5537C77.8932 35.5537 78.0748 35.5875 78.248 35.6593C78.6155 35.8072 79.4097 36.3732 79.528 37.1801C79.5998 37.6532 79.4139 38.1179 79.038 38.4178L61.3465 52.5946C61.1522 52.7509 60.9199 52.8269 60.6875 52.8269Z" fill="#E0E0DF"/>
<path d="M77.7074 36.6098C77.7538 36.6098 77.8045 36.6182 77.851 36.6393C78.096 36.7365 78.7381 37.3068 78.3748 37.5983L60.6876 51.7751C59.9653 50.9513 60.6327 50.1234 61.3846 49.5235L76.9132 37.1463C77.2216 36.9013 77.4455 36.614 77.7074 36.614M77.7074 34.4976C76.7062 34.4976 76.0472 35.089 75.7304 35.3721C75.6881 35.4101 75.6459 35.4523 75.5952 35.4903L60.0666 47.8676C58.9725 48.742 58.3685 49.7094 58.2755 50.7486C58.1995 51.6103 58.491 52.4679 59.095 53.1606C59.5133 53.638 60.0962 53.883 60.6876 53.883C61.1523 53.883 61.617 53.7309 62.0056 53.4183L79.6928 39.2415C80.3645 38.7008 80.694 37.8729 80.5672 37.0238C80.3856 35.7987 79.3168 34.9496 78.6367 34.6793C78.3368 34.5568 78.02 34.4976 77.6989 34.4976H77.7074Z" fill="white"/>
<path d="M60.6623 49.5996C60.62 49.5996 60.5778 49.5996 60.5356 49.5911C60.2525 49.5573 59.9948 49.4095 59.8216 49.1814C58.9599 48.045 59.264 46.6383 60.5905 45.5949L77.1287 32.6052C77.3652 32.4193 77.6483 32.3221 77.944 32.3221C78.7888 32.3221 79.4098 33.1079 79.5365 33.6739C79.6675 34.2738 79.3844 34.861 78.6917 35.4186L61.3255 49.3672C61.1354 49.5193 60.9031 49.5996 60.6623 49.5996Z" fill="#DEDEDD"/>
<path d="M77.9439 33.374C78.2016 33.374 78.4677 33.7373 78.5015 33.8936C78.5438 34.0879 78.3199 34.354 78.0242 34.5906L60.658 48.5393C60.0877 47.7916 60.5059 46.9974 61.241 46.4229L77.7792 33.4331C77.8299 33.3909 77.889 33.374 77.9439 33.374ZM77.9439 31.2618C77.4074 31.2618 76.9005 31.4393 76.4738 31.773L59.9357 44.7627C58.1657 46.1525 57.7728 48.2309 58.9767 49.8192C59.3231 50.2712 59.8343 50.5669 60.4003 50.6388C60.4848 50.6472 60.5735 50.6557 60.658 50.6557C61.1354 50.6557 61.6043 50.4951 61.9802 50.191L79.3464 36.2423C80.7024 35.1567 80.6897 34.0245 80.563 33.4458C80.3264 32.3728 79.283 31.2661 77.9397 31.2661L77.9439 31.2618Z" fill="white"/>
<path d="M21.68 45.3415C21.5237 45.3288 21.3759 45.2866 21.2407 45.2105L8.51284 38.0672C7.95101 37.7504 7.57082 37.159 7.52858 36.5169C7.48211 35.8875 7.75247 35.3003 8.26361 34.9032C8.4537 34.7596 8.67759 34.6835 8.90571 34.6835C9.0789 34.6835 9.2521 34.7258 9.41262 34.8145L22.4151 41.924C23.0867 42.2915 23.3655 43.1364 23.1205 44.0826C22.884 45.0162 22.263 45.3457 21.7645 45.3457C21.7392 45.3457 21.7011 45.3457 21.6758 45.3457L21.68 45.3415Z" fill="#F6F5F4"/>
<path d="M8.91039 35.7396L21.9128 42.8491C22.3606 43.0941 22.1029 44.2896 21.7692 44.2896H21.7608L9.0329 37.1463C8.5471 36.8717 8.37813 36.1494 8.91039 35.7438M8.91039 33.6274C8.45417 33.6274 8.00217 33.7753 7.6262 34.0625C6.83626 34.6666 6.4096 35.6129 6.47719 36.5887C6.549 37.5941 7.11928 38.4896 8.00217 38.9839L20.73 46.1272C21.0004 46.2793 21.3003 46.368 21.6087 46.3933C21.6594 46.3933 21.7227 46.3975 21.7734 46.3975C22.6267 46.3975 23.7631 45.8568 24.1517 44.3403C24.5108 42.9378 24.0208 41.5903 22.9267 40.9946L9.92423 33.8851C9.60741 33.7119 9.25679 33.6274 8.91039 33.6274Z" fill="white"/>
<path d="M41.7333 27.0418C41.4672 27.0418 41.2053 26.9404 41.0025 26.7503C40.1576 25.9434 37.0232 21.8585 37.5217 19.2437C37.6822 18.403 38.206 17.7652 38.9959 17.4441C39.3339 17.3089 39.6929 17.2371 40.0605 17.2371C41.2264 17.2371 42.2613 17.9384 42.688 19.0282C43.592 21.3136 43.6047 23.7721 42.7302 26.3278C42.6119 26.67 42.3331 26.9277 41.9825 27.0122C41.898 27.0333 41.8136 27.0418 41.7333 27.0418Z" fill="#FAF9F9"/>
<path d="M40.0602 18.2932C40.7361 18.2932 41.412 18.6692 41.7077 19.4169C42.4977 21.4192 42.5357 23.6454 41.7331 25.9857C40.4489 24.7606 36.8962 19.4295 39.3928 18.4241C39.6082 18.3397 39.8363 18.2932 40.0645 18.2932M40.0602 16.181C39.5575 16.181 39.0633 16.2782 38.5986 16.4641C37.4834 16.9161 36.7103 17.8539 36.4865 19.0451C35.8908 22.1669 39.2661 26.5517 40.2757 27.5149C40.6728 27.8951 41.1966 28.0978 41.7331 28.0978C41.902 28.0978 42.0668 28.0767 42.2357 28.0387C42.937 27.8697 43.4988 27.3501 43.7312 26.67C44.6774 23.9073 44.6563 21.1319 43.672 18.6396C43.0806 17.1442 41.6655 16.181 40.0602 16.181Z" fill="white"/>
<path d="M74.9787 74.6878C74.759 74.6878 74.5436 74.6202 74.3577 74.485C74.024 74.2443 73.8635 73.8303 73.9395 73.429C74.2521 71.8279 74.6999 70.5057 75.1308 69.23C75.3209 68.6724 75.5109 68.1106 75.6926 67.5149C75.832 67.0629 76.246 66.7672 76.7022 66.7672C76.7782 66.7672 76.8585 66.7757 76.9388 66.7926C79.1312 67.291 80.7956 67.8148 82.6838 68.6006C83.0556 68.7569 83.309 69.1117 83.3344 69.5172C83.3597 69.9228 83.1485 70.303 82.7937 70.5015L75.4941 74.5568C75.3335 74.6456 75.1561 74.6878 74.9829 74.6878H74.9787Z" fill="#61B57C"/>
<path d="M76.7021 67.8233C78.7297 68.2837 80.3392 68.7695 82.2782 69.5764L74.9785 73.6317C75.4094 71.4182 76.098 69.796 76.7021 67.8233ZM76.7021 65.7111C75.7938 65.7111 74.9616 66.3025 74.6828 67.2065C74.5054 67.781 74.3153 68.3471 74.1295 68.892C73.6859 70.2016 73.2297 71.5576 72.9044 73.2304C72.7481 74.0372 73.0734 74.861 73.7366 75.3426C74.1041 75.6087 74.5392 75.7439 74.9785 75.7439C75.3292 75.7439 75.684 75.6552 76.0051 75.4777L83.3047 71.4224C84.0144 71.0295 84.4326 70.2649 84.3861 69.4581C84.3396 68.6512 83.8369 67.9373 83.0892 67.629C81.1418 66.8179 79.4267 66.2772 77.171 65.766C77.0147 65.7322 76.8584 65.7111 76.7021 65.7111Z" fill="white"/>
<path d="M21.0465 55.5601C20.8649 55.5601 20.6874 55.5136 20.5269 55.4249L8.71574 48.7589C8.36934 48.5646 8.17925 48.2774 8.06519 48.0999C7.74837 47.8549 7.50336 47.4156 7.60474 46.7524C7.72725 45.916 8.23839 45.3752 8.90161 45.3752C9.0748 45.3752 9.2818 45.4259 9.43387 45.5104L21.3971 51.9103C21.7942 52.1215 22.0899 52.5017 22.2335 52.979C22.4236 53.6169 22.3223 54.3773 21.9716 55.0194C21.8365 55.2686 21.6083 55.4502 21.3338 55.5263C21.2408 55.5516 21.1394 55.5685 21.0465 55.5685V55.5601Z" fill="#F4F2F1"/>
<path d="M8.90584 46.4313C8.90584 46.4313 8.93119 46.4313 8.93964 46.4398L20.9029 52.8396C21.3211 53.0635 21.4098 53.8534 21.0465 54.5082L9.23534 47.8465C8.97765 47.6986 8.90584 47.3353 8.74109 47.2846C8.5172 47.217 8.71152 46.4355 8.90162 46.4355M8.90584 44.3192C7.71036 44.3192 6.76834 45.2358 6.56557 46.5961C6.42195 47.5592 6.75144 48.3069 7.25413 48.7843C7.42311 49.0377 7.71881 49.4095 8.20038 49.684L20.0073 56.3458C20.3284 56.5274 20.6832 56.6204 21.0465 56.6204C21.2408 56.6204 21.4352 56.595 21.6252 56.5401C22.166 56.3838 22.6264 56.0205 22.8968 55.5263C23.391 54.6307 23.5177 53.5915 23.2474 52.6791C23.0235 51.9314 22.5461 51.3273 21.8998 50.9809L9.93657 44.5811C9.61975 44.4121 9.26491 44.3234 8.90584 44.3234V44.3192Z" fill="white"/>
<path d="M43.5157 24.6846C43.0088 24.6846 42.5652 24.3255 42.4765 23.8186C42.3117 22.8935 42.4005 22.2852 42.4976 21.7867C42.5737 21.4065 42.8482 21.0982 43.22 20.9799C43.9634 20.7475 47.0725 18.3861 49.3368 16.6584C54.1525 12.9917 55.4789 12.0708 56.3576 12.0708C56.497 12.0708 56.6279 12.0919 56.7547 12.1342C57.2193 12.2905 57.5657 12.7171 57.6545 13.2452C57.7558 13.8323 57.5235 14.428 57.0504 14.7997C53.4724 17.6004 49.5987 20.5659 45.48 23.2948C45.2434 23.4511 45.0111 23.5609 44.821 23.6454C44.7365 23.6834 44.6309 23.7341 44.5591 23.7721C44.4873 24.2664 44.0733 24.6508 43.5664 24.6761C43.5495 24.6761 43.5326 24.6761 43.5157 24.6761V24.6846Z" fill="#121212"/>
<path d="M56.3577 13.1311C56.3789 13.1311 56.4 13.1311 56.4169 13.1395C56.6239 13.2071 56.7548 13.6929 56.4 13.9717C52.6277 16.9245 48.9018 19.7632 44.8972 22.4203C44.3015 22.8132 43.5792 22.8512 43.5158 23.6369C43.3849 22.8977 43.4482 22.4372 43.5369 21.9937C45.4337 21.4065 55.12 13.1311 56.362 13.1311M56.3577 11.0189C55.1242 11.0189 53.895 11.868 48.6991 15.822C46.6925 17.3512 43.6637 19.6576 42.878 19.9871C42.1514 20.2237 41.6107 20.8362 41.4628 21.5881C41.3361 22.2218 41.2474 22.9568 41.4375 24.0087C41.6191 25.0225 42.4978 25.7491 43.5158 25.7491C43.5496 25.7491 43.5834 25.7491 43.6214 25.7491C44.4198 25.7111 45.1042 25.2295 45.4294 24.5367C45.6153 24.448 45.835 24.334 46.0673 24.1819C50.2156 21.4318 54.1146 18.4495 57.7053 15.6361C58.4868 15.0236 58.867 14.0435 58.7022 13.0719C58.5459 12.1595 57.9292 11.416 57.097 11.1372C56.8647 11.0569 56.6154 11.0189 56.3662 11.0189H56.3577Z" fill="white"/>
<path d="M46.4304 28.2203C45.9699 28.2203 45.5137 28.1865 45.1124 28.157C44.8378 28.1358 44.5759 28.1189 44.3436 28.1105C43.9634 28.102 43.617 27.8908 43.4354 27.5571C43.2537 27.2234 43.2664 26.8178 43.4649 26.4968C44.3563 25.0648 45.4926 24.448 46.7768 23.8482C47.0302 23.7299 47.3302 23.6665 47.6597 23.6665C48.4581 23.6665 49.531 24.0382 49.9957 24.8493C50.3083 25.39 50.2956 26.0279 49.9619 26.594C49.0114 28.2161 47.064 28.2161 46.4219 28.2161L46.4304 28.2203Z" fill="#ECEBEA"/>
<path d="M47.664 24.7268C48.4329 24.7268 49.527 25.2633 49.0581 26.0659C48.53 26.9699 47.4866 27.1642 46.4305 27.1642C45.6913 27.1642 44.9478 27.0713 44.3649 27.0586C45.1126 25.8547 46.0842 25.3436 47.2289 24.8071C47.3472 24.7522 47.4993 24.7268 47.6683 24.7268M47.664 22.6147C47.1783 22.6147 46.7263 22.7076 46.3334 22.8935C44.9436 23.544 43.6129 24.2664 42.5695 25.9434C42.1682 26.5897 42.1471 27.3966 42.5104 28.064C42.8737 28.7315 43.5665 29.1539 44.3226 29.1666C44.5169 29.1666 44.7704 29.1877 45.0365 29.2088C45.4547 29.2384 45.9321 29.2722 46.4305 29.2722C48.5512 29.2722 50.0508 28.5498 50.883 27.1262C51.4026 26.2391 51.4152 25.1873 50.921 24.3213C50.2409 23.1385 48.7962 22.6062 47.6683 22.6062L47.664 22.6147Z" fill="white"/>
<path d="M11.2126 43.9644C11.1408 43.9644 11.069 43.9559 10.9972 43.9432C9.9791 43.732 8.98639 43.4701 7.95566 42.6379C7.65995 42.3971 7.51633 42.0127 7.57969 41.6368C7.64306 41.2608 7.90919 40.9482 8.26826 40.8215C8.56818 40.7159 8.87656 40.6609 9.18071 40.6609C10.5071 40.6609 11.4576 41.6452 11.9688 42.1733C12.2898 42.507 12.3574 43.0097 12.1335 43.4152C11.9434 43.7574 11.5886 43.9601 11.2084 43.9601L11.2126 43.9644Z" fill="#B9B7B7"/>
<path d="M9.18489 41.7212C9.99595 41.7212 10.6634 42.3422 11.2126 42.9125C10.2621 42.7139 9.46369 42.5027 8.62305 41.8226C8.81737 41.755 9.00747 41.7212 9.18489 41.7212ZM9.18489 39.6091C8.75823 39.6091 8.33158 39.6809 7.92182 39.8287C7.19946 40.0822 6.67142 40.7074 6.54047 41.4635C6.40951 42.2197 6.69677 42.9843 7.29239 43.4659C8.50477 44.4459 9.67913 44.7543 10.7817 44.9824C10.9253 45.012 11.0689 45.0289 11.2126 45.0289C11.9687 45.0289 12.6826 44.6191 13.0628 43.939C13.5106 43.1279 13.3754 42.1183 12.7333 41.4509C12.1588 40.8552 10.9591 39.6175 9.18489 39.6175V39.6091Z" fill="white"/>
<path d="M16.493 46.9889C16.4043 46.9889 16.3156 46.9763 16.2269 46.9551C15.0399 46.6468 13.8317 46.2497 13.2277 45.0922C13.0376 44.7247 13.0756 44.2812 13.329 43.9559C13.5318 43.694 13.8402 43.5504 14.1612 43.5504C14.2415 43.5504 14.326 43.5588 14.4062 43.5799C15.5003 43.8418 16.7085 44.26 17.3928 45.3922C17.6167 45.7597 17.5914 46.2243 17.3379 46.5707C17.1351 46.8411 16.8183 46.9974 16.493 46.9974V46.9889Z" fill="#A1A0A1"/>
<path d="M14.1613 44.6022C15.2258 44.8557 16.0411 45.1894 16.4889 45.9329C15.4582 45.6667 14.5584 45.371 14.1613 44.6022ZM14.1613 42.4901C13.5192 42.4901 12.8982 42.7858 12.4927 43.3054C11.9858 43.9601 11.9055 44.8472 12.2857 45.5823C13.1602 47.2551 14.909 47.7071 15.9567 47.9774C16.1341 48.0239 16.3115 48.045 16.4889 48.045C17.1479 48.045 17.7773 47.7367 18.1829 47.196C18.694 46.5074 18.7405 45.5738 18.2969 44.8388C17.4056 43.3645 15.8764 42.8407 14.6513 42.545C14.4908 42.507 14.3261 42.4858 14.1613 42.4858V42.4901Z" fill="white"/>
<path d="M14.1609 45.6541C14.0807 45.6541 13.9962 45.6456 13.9159 45.6245C12.9105 45.3837 11.7657 45.0373 10.942 43.939C10.7012 43.6179 10.6632 43.1871 10.8448 42.828C11.0265 42.4732 11.3898 42.2493 11.7869 42.2493H11.7995C13.2062 42.2662 14.1694 43.0772 14.9255 43.8672C15.2508 44.2051 15.3099 44.7163 15.0776 45.1218C14.8875 45.4555 14.5327 45.6541 14.1609 45.6541Z" fill="#AEAEAE"/>
<path d="M11.7871 43.3095C12.7967 43.3222 13.5106 43.9221 14.1612 44.6022C13.3121 44.3994 12.4081 44.1375 11.7871 43.3095ZM11.7871 41.1974C10.9929 41.1974 10.2621 41.6452 9.90305 42.3549C9.53976 43.073 9.6158 43.9347 10.0974 44.5768C11.2168 46.0722 12.8136 46.4524 13.6711 46.6552C13.8359 46.6932 13.9964 46.7143 14.1612 46.7143C14.9046 46.7143 15.6101 46.3215 15.9945 45.654C16.4592 44.843 16.3367 43.8207 15.6904 43.1448C15.1412 42.5703 13.8528 41.2227 11.8124 41.2016C11.804 41.2016 11.7955 41.2016 11.7913 41.2016L11.7871 41.1974Z" fill="white"/>
<path d="M18.85 48.29C18.8078 48.29 18.7655 48.29 18.7275 48.2816C17.3039 48.1126 16.1887 47.4747 15.5888 46.4778C15.365 46.1103 15.3903 45.6456 15.6438 45.2992C15.8465 45.0289 16.1634 44.8726 16.4886 44.8726C16.5773 44.8726 16.666 44.8852 16.7548 44.9063L16.8139 44.9232C17.701 45.1514 18.9134 45.4682 19.7202 46.6341C19.9568 46.9763 19.9695 47.424 19.754 47.7789C19.5597 48.0999 19.2175 48.29 18.85 48.29Z" fill="#949395"/>
<path d="M16.4929 45.9328C17.3335 46.1525 18.2586 46.3722 18.8543 47.2339C17.9334 47.1241 16.9956 46.7566 16.4929 45.9328ZM16.4929 43.8207C15.8339 43.8207 15.2044 44.1291 14.7989 44.6698C14.2878 45.3583 14.2413 46.2919 14.6849 47.0269C15.4621 48.3069 16.8519 49.1264 18.605 49.3334C18.6895 49.3419 18.7698 49.3461 18.8543 49.3461C19.5893 49.3461 20.2778 48.9617 20.6623 48.3238C21.0889 47.6141 21.0636 46.7186 20.5904 46.0342C19.5639 44.543 18.0685 44.1586 17.08 43.901L17.0209 43.8841C16.8435 43.8376 16.6661 43.8165 16.4886 43.8165L16.4929 43.8207Z" fill="white"/>
<path d="M30.8853 40.6778C30.2263 40.6778 29.77 40.2469 29.5799 39.8794C29.242 39.2247 29.3054 38.2573 30.0784 37.6786L37.8596 31.8532C38.1257 31.6505 38.4425 31.5449 38.7678 31.5449C39.3465 31.5449 39.9042 31.8828 40.1914 32.4024C40.5167 32.9938 40.4575 33.8809 39.7183 34.4343L31.8146 40.3525C31.5316 40.5638 31.2063 40.6778 30.881 40.6778H30.8853Z" fill="#131313"/>
<path d="M38.7761 32.6009C38.9958 32.6009 39.1944 32.7614 39.2746 32.9093C39.3633 33.0656 39.3844 33.3697 39.093 33.5894L31.1893 39.5035C31.0794 39.5879 30.9781 39.6175 30.8894 39.6175C30.6993 39.6175 30.5683 39.4781 30.5261 39.3936C30.4036 39.1571 30.3993 38.7642 30.7204 38.5234L38.5016 32.6981C38.5945 32.6305 38.6874 32.6009 38.7804 32.6009M38.7761 30.4888C38.2185 30.4888 37.6863 30.6662 37.2343 31.0084L29.4531 36.8337C28.359 37.6532 28.0168 39.1359 28.6462 40.361C29.0771 41.1974 29.9558 41.7339 30.8894 41.7339C31.447 41.7339 31.9877 41.548 32.4566 41.1974L40.3603 35.2834C41.4417 34.4765 41.7627 33.0487 41.1291 31.8955C40.6602 31.0422 39.7393 30.493 38.7804 30.493L38.7761 30.4888Z" fill="white"/>
<path d="M37.7877 44.5895C37.2301 44.5895 36.8415 44.298 36.6767 44.1755C36.3177 43.9094 36.1191 43.5039 36.1191 43.0476C36.1191 42.5196 36.3684 42.0169 36.795 41.6959L44.5762 35.8705C44.8888 35.634 45.269 35.5115 45.6661 35.5115C45.8604 35.5115 46.0505 35.541 46.2195 35.6002C46.7222 35.7692 47.0897 36.2127 47.1826 36.7576C47.2798 37.3448 47.039 37.9405 46.549 38.3122L38.7847 44.2389C38.4848 44.467 38.1341 44.5895 37.7793 44.5895H37.7877Z" fill="#171717"/>
<path d="M45.6704 36.5676C45.7549 36.5676 45.831 36.5802 45.8859 36.6014C46.1943 36.7027 46.2703 37.2012 45.9112 37.4758L38.1469 43.4025C38.016 43.4997 37.8935 43.5377 37.7836 43.5377C37.5598 43.5377 37.3781 43.3898 37.2767 43.3138C37.1078 43.1913 37.1247 42.7688 37.4204 42.545L45.2015 36.7196C45.3494 36.6056 45.5184 36.5718 45.662 36.5718M45.6704 34.4554C45.041 34.4554 44.4454 34.6539 43.9469 35.0257L36.1657 40.851C35.473 41.3706 35.0632 42.1943 35.0674 43.0519C35.0674 43.846 35.4265 44.5642 36.039 45.012C36.2544 45.1725 36.8839 45.6456 37.7921 45.6456C38.3793 45.6456 38.9496 45.4471 39.4354 45.0753L47.1996 39.1486C47.998 38.5403 48.3951 37.556 48.2304 36.5802C48.0783 35.6509 47.4362 34.8905 46.5618 34.5948C46.283 34.5019 45.9746 34.4512 45.6704 34.4512V34.4554Z" fill="white"/>
<path d="M41.1629 46.5074C40.939 46.5074 40.7278 46.4609 40.5377 46.368C40.0604 46.1356 39.7436 45.6752 39.6886 45.1387C39.6295 44.5642 39.883 44.0024 40.3603 43.6348L48.0359 37.725C48.1415 37.6405 48.2682 37.5814 48.3992 37.5434C48.6357 37.48 48.8301 37.4462 49.0075 37.4462C49.5397 37.4462 49.8566 37.7166 49.9622 37.8053C50.3255 38.1137 50.5367 38.5952 50.524 39.0937C50.5113 39.5753 50.2917 40.0146 49.9199 40.2976L42.4894 45.992C42.05 46.3257 41.5938 46.5032 41.1629 46.5032V46.5074Z" fill="#151515"/>
<path d="M49.0076 38.5065C49.1343 38.5065 49.2019 38.5487 49.2822 38.6163C49.4934 38.7938 49.5694 39.2415 49.278 39.4654L41.8474 45.1598C41.5855 45.3583 41.3447 45.4555 41.1631 45.4555C41.0997 45.4555 41.0448 45.4428 41.0025 45.4217C40.673 45.2612 40.6308 44.7627 41.0025 44.4755L48.6781 38.5656C48.8217 38.5276 48.9273 38.5065 49.0076 38.5065ZM49.0076 36.3943C48.7288 36.3943 48.45 36.4366 48.1205 36.5253C47.8586 36.5971 47.6094 36.7196 47.3939 36.8886L39.7183 42.7984C38.9495 43.3898 38.5482 44.3065 38.6411 45.2443C38.7341 46.1483 39.2663 46.9213 40.0774 47.3142C40.4154 47.4789 40.7829 47.5634 41.1673 47.5634C41.8305 47.5634 42.5106 47.31 43.1358 46.8326L50.5664 41.1382C51.1958 40.6567 51.5675 39.9216 51.5844 39.119C51.6056 38.3037 51.2549 37.5138 50.6509 37.0027C50.1735 36.5971 49.6201 36.3943 49.0118 36.3943H49.0076Z" fill="white"/>
<path d="M43.3046 17.5624C43.03 17.5624 42.6244 17.4864 42.2274 17.1357C41.9148 16.8569 41.7458 16.4345 41.7669 15.9825C41.788 15.484 42.033 15.0109 42.4259 14.7152L49.2186 9.61224C49.5143 9.38835 49.8607 9.27429 50.2198 9.27429C50.7182 9.27429 51.1956 9.5024 51.4955 9.89104C51.7363 10.1994 51.8419 10.5881 51.7912 10.9809C51.7321 11.4329 51.4659 11.8553 51.0435 12.1722L44.3395 17.1991C43.934 17.5033 43.5538 17.5666 43.3046 17.5666V17.5624Z" fill="#161717"/>
<path d="M50.2156 10.3261C50.4057 10.3261 50.5705 10.4233 50.6592 10.5331C50.8493 10.7781 50.7057 11.095 50.41 11.3189L43.706 16.3458C43.5539 16.4598 43.4187 16.5021 43.3047 16.5021C43.1315 16.5021 43.0047 16.4092 42.9287 16.3416C42.7513 16.1853 42.7808 15.7628 43.0597 15.5558L49.8523 10.4529C49.9749 10.3599 50.1016 10.3261 50.2199 10.3261M50.2156 8.21399C49.6285 8.21399 49.0624 8.40408 48.5808 8.76737L41.7881 13.8703C41.1376 14.3604 40.7405 15.1123 40.7067 15.936C40.6729 16.7049 40.9686 17.4314 41.522 17.9215C42.1641 18.496 42.8484 18.6185 43.3047 18.6185C43.8918 18.6185 44.4706 18.4199 44.9733 18.0397L51.6772 13.0128C52.3278 12.527 52.7376 11.8511 52.8347 11.1161C52.9234 10.4444 52.7418 9.77698 52.3236 9.23627C51.8251 8.59418 51.0352 8.21399 50.2156 8.21399Z" fill="white"/>
<path d="M40.6349 15.8642C40.3814 15.8642 40.1364 15.8008 39.9294 15.6868C39.4394 15.408 39.1141 14.9095 39.0803 14.3857C39.0465 13.8745 39.2831 13.3887 39.7309 13.0592L46.363 8.0999C46.6545 7.88446 46.9925 7.76617 47.3389 7.76617C47.7697 7.76617 48.1837 7.9436 48.471 8.25197C48.7582 8.56035 48.8934 8.99545 48.8554 9.4559C48.8132 9.93325 48.5724 10.3641 48.2006 10.6472L41.7543 15.4798C41.4164 15.7332 41.0193 15.8726 40.6391 15.8726L40.6349 15.8642Z" fill="#171817"/>
<path d="M47.3389 8.81804C47.4952 8.81804 47.6262 8.88985 47.698 8.96589C47.8501 9.12642 47.867 9.56574 47.5628 9.79385L41.1165 14.6265C40.9476 14.7532 40.7744 14.8081 40.635 14.8081C40.5631 14.8081 40.4998 14.7912 40.4491 14.7659C40.1618 14.6011 39.9548 14.204 40.3604 13.8999L46.9926 8.94054C47.1108 8.85183 47.2291 8.81804 47.3347 8.81804M47.3389 6.70588C46.7602 6.70588 46.2068 6.89175 45.7295 7.24659L39.0973 12.2059C38.3623 12.7551 37.9736 13.5746 38.0286 14.4448C38.0835 15.3362 38.5988 16.1388 39.4099 16.5992C39.7774 16.8062 40.1999 16.916 40.635 16.916C41.2433 16.916 41.8642 16.7006 42.3838 16.312L48.8301 11.4794C49.4427 11.0189 49.8355 10.3134 49.9031 9.53617C49.9707 8.78002 49.7299 8.04499 49.2399 7.52117C48.7541 6.99736 48.0571 6.70166 47.3347 6.70166L47.3389 6.70588Z" fill="white"/>
<path d="M21.1142 35.4143C20.9283 35.4143 20.7466 35.3679 20.5819 35.2707L14.6003 31.7603C14.2834 31.5744 14.0849 31.2365 14.0764 30.869C14.068 30.5015 14.2539 30.1551 14.5622 29.9608L24.8822 23.3455C25.0554 23.2357 25.254 23.1765 25.4525 23.1765C25.6173 23.1765 25.782 23.2145 25.9299 23.2906C26.2467 23.4511 26.5551 23.6074 26.8634 23.7595C28.5363 24.5959 30.1162 25.3858 31.8481 26.632C32.1269 26.8348 32.2917 27.16 32.2875 27.5022C32.2832 27.8486 32.11 28.1697 31.8228 28.364L21.7056 35.2285C21.5281 35.351 21.3211 35.4101 21.1142 35.4101V35.4143Z" fill="#0D1312"/>
<path d="M25.4527 24.2326C27.4339 25.2422 29.2546 26.0702 31.2316 27.4895L21.1144 34.3583L15.1327 30.8478L25.4527 24.2326ZM25.4527 22.1204C25.0556 22.1204 24.6586 22.2345 24.3122 22.4541L13.9922 29.0694C13.3754 29.4665 13.0037 30.1551 13.0206 30.8901C13.0332 31.6251 13.4303 32.2968 14.064 32.6685L20.0456 36.1789C20.3751 36.3733 20.7468 36.4704 21.1144 36.4704C21.5283 36.4704 21.9423 36.3479 22.3014 36.1071L32.4186 29.2384C32.9889 28.8497 33.3353 28.2077 33.3437 27.5191C33.3522 26.8305 33.0227 26.18 32.4651 25.7745C30.6655 24.4818 28.9758 23.6369 27.341 22.8174C27.0326 22.6654 26.7242 22.5091 26.4116 22.3485C26.1117 22.1965 25.7822 22.1204 25.4527 22.1204Z" fill="white"/>
<path d="M64.2785 29.4285C64.118 29.4285 63.9533 29.3904 63.8054 29.3144L51.8928 23.337C51.5676 23.1723 51.3479 22.8512 51.3141 22.4879C51.2803 22.1246 51.4366 21.7698 51.7281 21.5501L60.8273 14.6772C61.0131 14.5378 61.237 14.4659 61.4651 14.4659C61.6172 14.4659 61.7693 14.4997 61.9087 14.5631L73.6945 20.0378C74.024 20.1899 74.2521 20.5025 74.2986 20.8616C74.3451 21.2206 74.2014 21.5797 73.9226 21.812L64.9502 29.1877C64.7559 29.3482 64.5193 29.4285 64.2785 29.4285Z" fill="#0E1410"/>
<path d="M61.4693 15.522L73.2551 20.9967L64.2826 28.3724L52.3701 22.395L61.4693 15.522ZM61.4693 13.4099C61.0173 13.4099 60.5695 13.5535 60.1977 13.8365L51.0986 20.7095C50.5156 21.1488 50.203 21.8585 50.2664 22.5851C50.3297 23.3116 50.7691 23.9537 51.4238 24.2832L63.3364 30.2606C63.6363 30.4127 63.9616 30.4845 64.2826 30.4845C64.7642 30.4845 65.2373 30.3198 65.626 30.003L74.5984 22.6273C75.1603 22.1669 75.4433 21.4487 75.3546 20.7306C75.2616 20.0082 74.8096 19.3873 74.1506 19.0831L62.3648 13.6084C62.0818 13.4774 61.7776 13.4099 61.4735 13.4099H61.4693Z" fill="white"/>
<path d="M21.0044 34.0457C20.8269 34.0457 20.6537 34.0034 20.4932 33.9147C20.1384 33.7204 19.8089 33.5388 19.4878 33.3698C18.5162 32.846 17.5953 32.3517 16.5604 31.6252C16.2731 31.4224 16.1042 31.0887 16.1126 30.7338C16.1211 30.379 16.3069 30.0537 16.6069 29.8678L24.9203 24.6339C25.0893 24.5283 25.2878 24.4734 25.4821 24.4734C25.6173 24.4734 25.7483 24.4987 25.875 24.5494C27.3957 25.162 28.6715 25.8716 29.8881 26.7799C30.1627 26.9869 30.3232 27.3164 30.3105 27.6585C30.2979 28.0007 30.1204 28.3217 29.829 28.5076L21.5789 33.8725C21.4057 33.9865 21.2029 34.0415 21.0044 34.0415V34.0457Z" fill="#4DB0A2"/>
<path d="M25.4781 25.5295C26.8848 26.0955 28.0761 26.7461 29.2547 27.6289L21.0046 32.9938C19.5768 32.2039 18.4785 31.6843 17.1647 30.7634L25.4781 25.5295ZM25.4781 23.4173C25.0853 23.4173 24.6924 23.5271 24.3545 23.7426L16.041 28.9765C15.4412 29.3525 15.0737 30.003 15.0568 30.7085C15.0399 31.4139 15.3736 32.0856 15.9523 32.4911C17.038 33.2557 17.9884 33.7626 18.9896 34.3034C19.3064 34.4723 19.6359 34.6497 19.9823 34.8441C20.3034 35.0215 20.654 35.1102 21.0046 35.1102C21.4059 35.1102 21.8072 34.9961 22.1578 34.768L30.4079 29.4031C30.9866 29.0272 31.3457 28.3893 31.3668 27.7008C31.388 27.0122 31.0711 26.3532 30.522 25.9392C29.2293 24.9761 27.8776 24.2241 26.2723 23.5736C26.0189 23.4722 25.7485 23.4215 25.4824 23.4215L25.4781 23.4173Z" fill="white"/>
<path d="M64.025 28.1232C63.8603 28.1232 63.6998 28.0852 63.5477 28.0091L53.9501 23.1385C53.6248 22.9737 53.4051 22.6485 53.3755 22.2852C53.346 21.9219 53.5065 21.567 53.8022 21.3474L61.0891 15.9656C61.275 15.8304 61.4947 15.7586 61.7186 15.7586C61.8664 15.7586 62.0185 15.7924 62.1579 15.8558L71.726 20.2575C72.0597 20.4096 72.2878 20.7222 72.3343 21.0855C72.3807 21.4488 72.2329 21.8078 71.9499 22.0359L64.6925 27.8866C64.5024 28.0429 64.2658 28.1189 64.0293 28.1189L64.025 28.1232Z" fill="#47B776"/>
<path d="M61.7102 16.8147L71.2782 21.2164L64.0209 27.0671L54.4232 22.1965L61.7102 16.8147ZM61.7144 14.7025C61.2708 14.7025 60.8273 14.8419 60.4598 15.1165L53.1728 20.4983C52.5856 20.9334 52.2604 21.6431 52.3237 22.3739C52.3871 23.1047 52.818 23.751 53.4727 24.0805L63.0704 28.9511C63.3745 29.1032 63.6998 29.1792 64.0251 29.1792C64.4982 29.1792 64.9671 29.0187 65.3515 28.7103L72.6089 22.8597C73.1792 22.3992 73.4707 21.6811 73.3777 20.9545C73.289 20.2279 72.8286 19.6027 72.1653 19.2944L62.5973 14.8926C62.3142 14.7617 62.0143 14.6983 61.7144 14.6983V14.7025Z" fill="white"/>
<path d="M23.5643 60.5532C22.5758 60.0125 21.9463 59.7041 21.0128 59.0494C16.7335 56.0417 11.9432 54.0647 7.51187 51.2893C5.39126 49.9629 3.96344 47.8338 4.17466 45.2823C4.34363 43.2504 5.80524 41.9916 7.72308 40.8468C5.16737 39.1951 3.52834 36.6816 4.30561 33.7415C4.68158 32.3095 5.74188 31.1731 7.01762 30.4128L24.5147 19.9829C25.123 19.6196 25.7736 19.2521 26.3608 18.8212L46.3924 4.11218L58.6387 9.71362C58.8584 8.83919 59.1287 7.71974 60.113 8.01122L100.489 20.1308L85.1336 69.7538L73.728 76.1621L44.1831 67.3375L40.4235 69.796L23.5685 60.549L23.5643 60.5532Z" fill="#070807"/>
<path d="M87.094 44.767L76.3051 41.3453C76.9853 40.454 77.7203 40.0062 78.5398 39.3894L87.7066 41.9113C87.9643 41.9705 88.0783 41.5227 88.0741 41.4044C88.0614 41.1679 87.8122 40.9609 87.4869 40.8595L79.824 38.4305C80.2549 37.894 80.4703 37.4463 80.314 36.8886C80.1915 36.4535 79.4776 36.3353 79.3889 35.4904L88.5852 38.0714C88.9232 38.1644 89.1006 38.0461 89.2062 37.9152C89.4554 37.6026 89.3921 37.2224 88.9063 37.0745L80.2338 34.4639C80.1239 33.7035 79.7944 32.9262 79.5367 32.2461C79.3466 31.7434 80.2591 31.452 80.6942 31.5829L89.6835 34.3034C90.013 34.4047 90.3594 34.202 90.4777 33.9908C90.5875 33.7964 90.465 33.4289 90.0384 33.298L80.8421 30.4635C79.862 30.1593 78.9918 29.8298 78.1005 29.1666C78.6792 28.5034 79.3171 27.9584 80.107 27.2995L90.8072 30.455C91.1663 30.5606 91.4197 30.4761 91.5422 30.3367C91.8211 30.0241 91.6225 29.6059 91.1325 29.4581L81.2476 26.4673C80.4872 26.2391 79.5241 25.7914 79.334 25.0817C79.5367 24.4987 80.0563 23.8355 80.4196 23.2483L92.0534 26.67C92.5054 26.801 92.8095 26.4377 92.8095 25.8843L79.3636 21.6389C79.6128 21.246 80.4619 20.1223 79.9 19.8055C75.211 17.1358 70.2686 15.2644 65.4022 12.941C64.4644 12.4932 63.8392 11.6019 62.593 11.9018C61.8918 10.7739 60.2232 11.3696 60.0246 9.62915L98.6264 21.1277L83.9723 68.3006L76.7403 66.2307C75.9165 66.0237 75.5321 66.4884 75.304 67.1812L72.951 74.3668L45.4043 66.1589L49.7089 62.8006L61.4102 66.3068C61.7651 66.4124 62.1199 66.2814 62.2255 66.0913C62.4029 65.766 62.1664 65.4365 61.7313 65.3056L50.8663 61.998C51.614 61.2714 52.4631 60.1308 53.4727 59.8774L62.5297 62.4669C62.893 62.5725 63.138 62.6147 63.3154 62.357C63.5477 62.0275 63.3196 61.66 62.8676 61.5164L54.6978 58.9227C55.6187 57.7863 56.2988 57.3723 57.1944 56.7345L80.3689 63.6116C80.7787 63.7341 81.2096 63.6877 81.3743 63.3835C81.4757 63.1934 81.3616 62.8428 80.9392 62.7203L58.3687 55.9741C59.1756 55.1039 59.8641 54.504 60.7808 53.7141L81.6996 59.9745C82.0925 60.0928 82.4177 59.9027 82.5487 59.6408C82.6543 59.4296 82.4895 59.079 82.0164 58.9353L62.0227 52.8819C64.4264 50.5289 63.8096 50.7824 66.4034 50.774C66.4076 50.3389 66.0696 50.0769 65.8838 49.6334C67.4299 48.2858 68.8704 47.0059 70.7333 45.84L69.0182 51.7498L83.5161 56.1895L87.0983 44.7797L87.094 44.767Z" fill="#FFFEFE"/>
<path d="M50.131 32.9473C49.6621 33.4838 48.0231 34.3287 48.7032 34.8736C49.5185 35.5284 50.5281 33.7246 51.28 33.5303C52.1291 33.3106 52.9951 34.1977 53.6372 34.6835L52.015 36.2085C51.7911 36.4197 52.0066 36.6943 52.1418 36.7872C52.9359 37.3237 53.7935 35.7354 54.7608 35.3425C55.7071 35.7185 56.5519 36.1494 57.2616 37.0196L41.6824 49.2659L25.2202 40.1371L41.7246 28.5245C42.1893 30.5775 42.4005 33.4331 41.1501 34.9961C39.3379 37.2561 33.1197 40.4328 33.9265 41.3537C34.1039 41.5523 34.3363 41.6959 34.6911 41.434L41.7457 36.1325C42.1344 36.2423 42.4343 36.3226 42.6159 36.217C42.6709 36.1832 43.8325 30.2776 43.2158 28.9934C44.5464 29.5552 45.5941 30.1255 46.9078 30.9112C46.2784 31.7138 45.3617 31.811 45.0407 32.6432C44.9182 32.9642 45.4293 33.2346 45.6025 33.1839C46.477 32.9304 47.3641 31.4393 48.2343 31.6589C48.9735 31.8448 49.8522 32.2292 50.131 32.9516V32.9473Z" fill="#FEFEFE"/>
<path d="M43.5161 23.637C43.9132 22.6611 43.9217 22.1162 43.5373 21.9937C43.5753 20.5405 43.3049 19.3028 42.553 18.2383C41.5983 16.8865 40.0269 16.6288 38.654 17.3174C37.3698 17.9637 36.8375 19.5056 37.3867 21.0559C37.7077 22.5724 38.6497 23.6961 39.2242 25.2169L28.3213 19.3535L46.5408 5.77234L61.423 12.7805L47.1828 23.054C45.9874 23.9158 44.7792 24.4227 43.6006 25.4407C43.3134 24.6001 43.6091 24.1566 43.5161 23.637Z" fill="#FEFEFE"/>
<path d="M24.3122 35.2876C23.9362 35.5411 24.2066 35.9255 24.2953 35.9931C24.422 36.0945 24.6839 36.3099 24.9796 36.1156C28.8111 33.6148 32.5454 31.2027 36.2712 28.3048C37.1161 28.0556 38.2313 28.1781 39.4944 28.478L23.9447 39.5119L8.55127 31.1394L27.1045 20.2322L39.2282 26.8306C36.8626 27.3586 34.9617 26.2307 33.2551 24.9127C32.934 24.7522 32.6425 24.6001 32.3046 24.786C30.957 25.5168 34.9194 27.4346 35.3503 27.8486L24.3206 35.2876H24.3122Z" fill="#FEFDFD"/>
<path d="M57.473 28.5076C57.7729 28.2626 57.9081 27.988 57.8997 27.7979C57.8912 27.6078 57.4857 27.253 57.1773 27.4811L51.6773 31.5787C50.9676 31.811 49.8988 30.8099 49.4046 30.417L54.2837 26.5011C54.5075 26.3194 54.5963 26.0195 54.4822 25.7998C54.3386 25.5126 53.8992 25.4788 53.5528 25.7449L48.1415 29.9185C47.0854 29.4665 46.2617 28.9976 45.4126 28.3893C46.8531 28.4527 48.0739 28.3978 49.3032 27.7937C50.2368 27.3332 50.6634 26.425 50.524 25.2422C50.448 24.5959 49.789 24.1312 48.9399 23.4722L62.0522 14.0224C62.7407 13.5282 63.4124 13.6718 64.1094 13.9886L78.1595 20.4392L58.622 35.9213C57.6166 35.7776 56.8689 34.8905 56.1212 34.1724C56.8732 33.298 62.369 29.9734 61.1355 29.3187C60.2315 28.8371 56.2649 33.1543 55.0018 33.5514C54.271 33.6782 53.3628 32.7446 52.7545 32.3348L57.4688 28.5076H57.473Z" fill="#FDFCFC"/>
<path d="M82.8738 54.8124L70.3276 51.0908C72.0554 46.3891 71.1683 44.6867 75.1476 42.2281L85.7253 45.4133L82.8738 54.8166V54.8124Z" fill="#47B1A3"/>
<path d="M22.8127 53.9041L39.0806 62.8681C39.4481 62.8259 39.634 62.5133 39.6466 62.357C39.672 62.1035 39.4523 61.6938 39.1228 61.5121L23.7801 52.9621C23.0831 52.5735 22.3312 52.2566 22.7409 51.2175L41.9573 61.5628L58.8335 48.2773C59.2643 48.7631 59.1376 49.4348 58.7828 50.0093L40.8548 64.2452C40.1493 64.8071 38.7553 64.4987 37.9991 64.0678L22.8888 55.5051C22.441 55.2517 22.4241 54.2759 22.8127 53.9041Z" fill="#F2F1F0"/>
<path d="M23.5647 43.8545L39.0257 52.2694C39.2664 52.4003 39.6382 51.9061 39.6086 51.7498C39.5664 51.5385 39.4481 51.1077 39.089 50.9091L24.3842 42.7478C24.0969 42.5872 23.928 42.3126 23.8181 42.1606C23.6872 41.9747 24.1687 41.3115 24.4222 41.4509L41.932 50.9852L57.8154 38.4347C58.2209 38.4136 58.6011 39.381 58.2125 39.7569L40.8463 53.6C39.9381 54.3224 38.392 53.7986 37.4796 53.2832L23.6787 45.4682C23.1465 45.1683 23.0577 44.2347 23.5689 43.8545H23.5647Z" fill="#F3F2F2"/>
<path d="M23.5817 48.1929C23.2987 48.0282 23.1424 47.7747 23.0114 47.6226C22.8509 47.441 22.9523 46.82 23.248 46.744L37.3065 54.6265C39.161 55.6657 40.9352 55.2348 42.5108 53.976L58.5463 41.1172C59.0026 41.924 58.7153 42.4309 58.4956 43.0688L40.9859 57.1485C40.0016 57.7272 38.3245 56.7218 37.4543 56.2191L23.5817 48.1929Z" fill="#EEEDEC"/>
<path d="M23.3786 58.5805C22.7111 58.196 22.3732 57.4695 22.8463 57.0259L37.6525 65.3098C39.1353 66.1378 40.825 65.9646 42.1303 64.9169L58.7994 51.5723C59.3148 52.6242 58.6136 53.524 57.7307 54.2463L41.6699 67.3966C40.6898 68.1992 39.9083 68.0598 38.8522 67.4515L23.3786 58.5762V58.5805Z" fill="#ECEBEA"/>
<path d="M8.12459 37.9489L21.5706 45.84C21.8916 46.0258 21.7902 46.7313 21.4439 46.9214L8.13727 39.3049C5.93217 38.0419 4.65221 34.3836 6.53203 33.1121C7.18257 32.6728 8.22598 32.5756 9.07929 33.0403L22.4366 40.3357C22.7238 40.492 22.8759 40.7159 22.9646 40.851C23.0829 41.0369 22.728 41.7762 22.4535 41.6283L9.91993 34.8821C9.00747 34.3921 7.86691 34.5653 7.4318 35.3721C7.07274 36.0311 7.10653 37.3449 8.13304 37.9447L8.12459 37.9489Z" fill="#F8F8F7"/>
<path d="M7.5669 45.8104C6.35452 47.3776 8.47512 48.8857 9.82268 49.6503L20.6327 55.7629C21.1988 56.0839 21.655 56.6965 21.11 57.2836L8.39064 50.0854C5.60259 48.5097 4.95205 44.9951 6.39676 43.9095C7.09377 43.3857 8.28503 43.3223 9.0623 43.7447L20.9199 50.1403C21.4142 50.4065 21.5451 51.3147 21.1269 51.4161L9.75087 45.4007C8.98204 44.9951 8.0189 45.2148 7.55845 45.8104H7.5669Z" fill="#F7F5F5"/>
<path d="M60.6708 45.0078C59.8175 43.9348 60.5018 43.0266 61.4058 42.5492L76.5035 30.3916C77.002 29.9903 77.9271 30.9493 78.1087 31.2745L60.6708 45.0035V45.0078Z" fill="#F9F9F8"/>
<path d="M60.3457 41.4551C59.691 40.9355 60.0247 39.9724 60.6499 39.4739L77.0445 26.3236C77.3233 26.0997 77.5978 25.9054 77.7626 25.9814C77.9907 26.0913 78.278 26.3405 78.3582 26.5348C78.4892 26.839 78.1554 27.16 77.8217 27.4262L60.3457 41.4551Z" fill="#E2E1E0"/>
<path d="M59.8681 38.4685C59.3443 38.2995 59.3358 37.8053 59.2852 37.3195L77.5849 22.8555C77.9651 22.5555 78.4635 23.2272 78.472 23.5905L59.8681 38.4685Z" fill="#E1E1DF"/>
<path d="M41.8684 59.7379C41.2474 59.6873 40.9517 59.4338 40.4321 59.0494C41.3573 58.7114 42.1176 58.1581 42.9836 57.4568L58.8417 44.6445C59.2134 45.1176 59.2768 46.0765 58.6896 46.537L41.8726 59.7337L41.8684 59.7379Z" fill="#F4F3F2"/>
<path d="M60.6876 51.7709C59.9652 50.9471 60.6327 50.1192 61.3846 49.5193L76.9132 37.1421C77.2765 36.8548 77.5215 36.5042 77.851 36.6394C78.096 36.7366 78.7381 37.3068 78.3748 37.5983L60.6876 51.7751V51.7709Z" fill="#E0E0DF"/>
<path d="M60.6623 48.5435C60.0921 47.7958 60.5103 47.0016 61.2453 46.4271L77.7835 33.4374C78.075 33.2092 78.4636 33.7077 78.5058 33.902C78.5481 34.0963 78.3242 34.3625 78.0285 34.599L60.6623 48.5477V48.5435Z" fill="#DEDEDD"/>
<path d="M21.7606 44.2896L9.03274 37.1463C8.54695 36.8717 8.37798 36.1494 8.91024 35.7438L21.9127 42.8534C22.3647 43.1026 22.0985 44.315 21.7606 44.2896Z" fill="#F6F5F4"/>
<path d="M41.7333 25.9856C40.4492 24.7606 36.8965 19.4295 39.3931 18.4241C40.2379 18.082 41.3151 18.4199 41.708 19.4168C42.4979 21.4192 42.536 23.6454 41.7333 25.9856Z" fill="#FAF9F9"/>
<path d="M82.2781 69.5764L74.9785 73.6317C75.4094 71.4182 76.098 69.7961 76.702 67.8233C78.7297 68.2838 80.3392 68.7695 82.2781 69.5764Z" fill="#61B57C"/>
<path d="M21.047 54.504L9.23579 47.8381C8.97811 47.6902 8.90629 47.3269 8.74155 47.2762C8.50498 47.2044 8.74155 46.33 8.94009 46.4356L20.9033 52.8354C21.3216 53.0593 21.4103 53.8493 21.047 54.504Z" fill="#F4F2F1"/>
<path d="M43.5161 23.637C43.3852 22.8977 43.4485 22.4373 43.5373 21.9937C45.4678 21.3939 55.4794 12.8227 56.4214 13.1395C56.6284 13.2071 56.7594 13.6929 56.4045 13.9717C52.6322 16.9245 48.9064 19.7633 44.9017 22.4204C44.3061 22.8132 43.5837 22.8512 43.5204 23.637H43.5161Z" fill="#121212"/>
<path d="M49.0584 26.0659C48.1587 27.6036 45.7762 27.0882 44.3652 27.0586C45.1129 25.8547 46.0845 25.3436 47.2293 24.8071C47.8756 24.5029 49.633 25.0859 49.0584 26.0659Z" fill="#ECEBEA"/>
<path d="M11.2126 42.9083C10.2621 42.7097 9.46369 42.4985 8.62305 41.8184C9.69602 41.4424 10.5409 42.2113 11.2126 42.9083Z" fill="#B9B7B7"/>
<path d="M16.4931 45.9329C15.4624 45.6668 14.5626 45.3711 14.1655 44.6022C15.2301 44.8557 16.0453 45.1894 16.4931 45.9329Z" fill="#A1A0A1"/>
<path d="M14.1612 44.598C13.3121 44.3952 12.4081 44.1333 11.7871 43.3054C12.7967 43.318 13.5106 43.9179 14.1612 44.598Z" fill="#AEAEAE"/>
<path d="M16.4932 45.9329C17.3338 46.1525 18.2589 46.3722 18.8546 47.2382C17.9337 47.1283 16.9959 46.7608 16.4932 45.9329Z" fill="#949395"/>
<path d="M31.1854 39.5077C30.8391 39.7654 30.5856 39.5204 30.518 39.3936C30.3955 39.1571 30.3913 38.7642 30.7123 38.5234L38.4935 32.6981C38.8061 32.4658 39.1525 32.6981 39.2708 32.9135C39.3595 33.0698 39.3806 33.374 39.0891 33.5937L31.1854 39.5077Z" fill="#131313"/>
<path d="M38.1552 43.3983C37.7623 43.6982 37.437 43.4194 37.2849 43.3095C37.116 43.187 37.1329 42.7646 37.4286 42.5407L45.2098 36.7154C45.4505 36.5338 45.742 36.5506 45.8856 36.5971C46.194 36.6985 46.2701 37.197 45.911 37.4716L38.1467 43.3983H38.1552Z" fill="#171717"/>
<path d="M41.8429 45.1556C41.4923 45.426 41.1755 45.502 40.9981 45.4175C40.6686 45.257 40.6263 44.7585 40.9981 44.4713L48.6736 38.5615C49.0454 38.4601 49.1468 38.5066 49.2777 38.6164C49.4889 38.7938 49.565 39.2416 49.2735 39.4655L41.8429 45.1599V45.1556Z" fill="#151515"/>
<path d="M43.7061 16.35C43.3217 16.6372 43.0555 16.4556 42.9288 16.3458C42.7514 16.1895 42.781 15.767 43.0598 15.56L49.8525 10.4571C50.1735 10.2163 50.5199 10.3557 50.6635 10.5373C50.8536 10.7824 50.71 11.0992 50.4143 11.3231L43.7103 16.35H43.7061Z" fill="#161717"/>
<path d="M41.1166 14.6265C40.8589 14.8208 40.5886 14.8462 40.4492 14.7659C40.1619 14.6012 39.9549 14.2041 40.3605 13.8999L46.9927 8.9406C47.2799 8.72516 47.5714 8.83499 47.6939 8.97017C47.846 9.1307 47.8629 9.57003 47.5587 9.79814L41.1124 14.6307L41.1166 14.6265Z" fill="#171817"/>
<path d="M21.1144 34.3583L15.1328 30.8479L25.4528 24.2326C27.434 25.2422 29.2547 26.0702 31.2317 27.4895L21.1144 34.3583Z" fill="#0D1312"/>
<path d="M64.2783 28.3724L52.3657 22.395L61.4691 15.522L73.2507 21.001L64.2783 28.3724Z" fill="#0E1410"/>
<path d="M21.0045 32.9896C19.5766 32.1996 18.4783 31.68 17.1646 30.7591L25.478 25.5252C26.8847 26.0913 28.076 26.7418 29.2545 27.6247L21.0045 32.9896Z" fill="#4DB0A2"/>
<path d="M71.2823 21.2164L64.0249 27.0671L54.4272 22.1965L61.71 16.8147L71.2823 21.2164Z" fill="#47B776"/>
</g>
</g>
<defs>
<filter id="filter0_dnn_535_579" x="-1" y="0" width="117" height="89" filterUnits="userSpaceOnUse" color-interpolation-filters="sRGB">
<feFlood flood-opacity="0" result="BackgroundImageFix"/>
<feColorMatrix in="SourceAlpha" type="matrix" values="0 0 0 0 0 0 0 0 0 0 0 0 0 0 0 0 0 0 127 0" result="hardAlpha"/>
<feOffset dx="3" dy="3"/>
<feGaussianBlur stdDeviation="2.5"/>
<feComposite in2="hardAlpha" operator="out"/>
<feColorMatrix type="matrix" values="0 0 0 0 0 0 0 0 0 0 0 0 0 0 0 0 0 0 0.25 0"/>
<feBlend mode="normal" in2="BackgroundImageFix" result="effect1_dropShadow_535_579"/>
<feBlend mode="normal" in="SourceGraphic" in2="BackgroundImageFix" result="shape"/>
<feTurbulence type="fractalNoise" baseFrequency="0.5 0.5" stitchTiles="stitch" numOctaves="3" result="noise" seed="7937" />
<feColorMatrix in="noise" type="luminanceToAlpha" result="alphaNoise" />
<feComponentTransfer in="alphaNoise" result="coloredNoise1">
<feFuncA type="discrete" tableValues="0 0 0 0 0 0 0 0 0 0 0 1 1 1 1 1 1 1 1 1 1 1 1 1 1 1 1 1 1 1 1 1 1 1 1 1 1 1 1 0 0 0 0 0 0 0 0 0 0 0 0 0 0 0 0 0 0 0 0 0 0 0 0 0 0 0 0 0 0 0 0 0 0 0 0 0 0 0 0 0 0 0 0 0 0 0 0 0 0 0 0 0 0 0 0 0 0 0 0 0 "/>
</feComponentTransfer>
<feComposite operator="in" in2="shape" in="coloredNoise1" result="noise1Clipped" />
<feComponentTransfer in="alphaNoise" result="coloredNoise2">
<feFuncA type="discrete" tableValues="0 0 0 0 0 0 0 0 0 0 0 0 0 0 0 0 0 0 0 0 0 0 0 0 0 0 0 0 0 0 0 0 0 0 0 0 0 0 0 0 0 0 0 0 0 0 0 0 0 0 0 0 0 0 0 0 0 0 0 0 0 1 1 1 1 1 1 1 1 1 1 1 1 1 1 1 1 1 1 1 1 1 1 1 1 1 1 1 1 0 0 0 0 0 0 0 0 0 0 0 "/>
</feComponentTransfer>
<feComposite operator="in" in2="shape" in="coloredNoise2" result="noise2Clipped" />
<feFlood flood-color="rgba(0, 0, 0, 0.1)" result="color1Flood" />
<feComposite operator="in" in2="noise1Clipped" in="color1Flood" result="color1" />
<feFlood flood-color="rgba(255, 255, 255, 0.1)" result="color2Flood" />
<feComposite operator="in" in2="noise2Clipped" in="color2Flood" result="color2" />
<feMerge result="effect2_noise_535_579">
<feMergeNode in="shape" />
<feMergeNode in="color1" />
<feMergeNode in="color2" />
</feMerge>
<feTurbulence type="fractalNoise" baseFrequency="0.3333333432674408 0.3333333432674408" stitchTiles="stitch" numOctaves="3" result="noise" seed="1755" />
<feColorMatrix in="noise" type="luminanceToAlpha" result="alphaNoise" />
<feComponentTransfer in="alphaNoise" result="coloredNoise1">
<feFuncA type="discrete" tableValues="0 0 0 1 1 1 1 1 1 1 1 1 1 1 1 1 1 1 1 1 1 1 1 1 1 1 1 1 1 1 1 1 1 1 1 1 1 1 1 1 1 1 1 1 1 1 0 0 0 0 0 0 0 0 0 0 0 0 0 0 0 0 0 0 0 0 0 0 0 0 0 0 0 0 0 0 0 0 0 0 0 0 0 0 0 0 0 0 0 0 0 0 0 0 0 0 0 0 0 0 "/>
</feComponentTransfer>
<feComposite operator="in" in2="effect2_noise_535_579" in="coloredNoise1" result="noise1Clipped" />
<feComponentTransfer in="alphaNoise" result="coloredNoise2">
<feFuncA type="discrete" tableValues="0 0 0 0 0 0 0 0 0 0 0 0 0 0 0 0 0 0 0 0 0 0 0 0 0 0 0 0 0 0 0 0 0 0 0 0 0 0 0 0 0 0 0 0 0 0 0 0 0 0 0 0 0 0 1 1 1 1 1 1 1 1 1 1 1 1 1 1 1 1 1 1 1 1 1 1 1 1 1 1 1 1 1 1 1 1 1 1 1 1 1 1 1 1 1 1 1 0 0 0 "/>
</feComponentTransfer>
<feComposite operator="in" in2="effect2_noise_535_579" in="coloredNoise2" result="noise2Clipped" />
<feFlood flood-color="rgba(0, 0, 0, 0.1)" result="color1Flood" />
<feComposite operator="in" in2="noise1Clipped" in="color1Flood" result="color1" />
<feFlood flood-color="rgba(21, 21, 21, 0.1)" result="color2Flood" />
<feComposite operator="in" in2="noise2Clipped" in="color2Flood" result="color2" />
<feMerge result="effect3_noise_535_579">
<feMergeNode in="effect2_noise_535_579" />
<feMergeNode in="color1" />
<feMergeNode in="color2" />
</feMerge>
<feBlend mode="normal" in="effect3_noise_535_579" in2="effect1_dropShadow_535_579" result="effect3_noise_535_579"/>
</filter>
<filter id="filter1_d_535_579" x="0" y="0" width="110.597" height="86.27" filterUnits="userSpaceOnUse" color-interpolation-filters="sRGB">
<feFlood flood-opacity="0" result="BackgroundImageFix"/>
<feColorMatrix in="SourceAlpha" type="matrix" values="0 0 0 0 0 0 0 0 0 0 0 0 0 0 0 0 0 0 127 0" result="hardAlpha"/>
<feOffset dx="3" dy="3"/>
<feGaussianBlur stdDeviation="2.5"/>
<feComposite in2="hardAlpha" operator="out"/>
<feColorMatrix type="matrix" values="0 0 0 0 0 0 0 0 0 0 0 0 0 0 0 0 0 0 0.5 0"/>
<feBlend mode="normal" in2="BackgroundImageFix" result="effect1_dropShadow_535_579"/>
<feBlend mode="normal" in="SourceGraphic" in2="effect1_dropShadow_535_579" result="shape"/>
</filter>
</defs>
</svg>
