<svg width="89" height="96" viewBox="0 0 89 96" fill="none" xmlns="http://www.w3.org/2000/svg">
<g filter="url(#filter0_dnn_535_846)">
<path d="M38.7107 86.3303C37.3356 86.3303 36.6932 85.7079 36.3971 85.181C31.8752 77.1712 32.5377 74.8726 33.7874 72.8902C34.0584 72.4536 34.1286 72.3181 34.1186 72.1023C33.9781 68.7047 32.9091 65.5027 31.1977 63.2594C30.5553 64.0724 29.8076 64.9657 28.2718 65.2669C28.1915 65.2819 28.1112 65.292 28.0309 65.292C27.5492 65.292 27.1025 65.0159 26.8917 64.5643L22.2745 54.5771C21.9884 55.1643 21.5518 55.7414 20.794 56.1228C20.3523 56.3487 19.8605 56.4591 19.3436 56.4591C18.0237 56.4591 16.7991 55.7414 15.7502 55.0739C14.9874 54.5821 14.3149 54.3362 13.7478 54.3362C13.266 54.3362 12.8845 54.5169 12.478 54.7076C12.0816 54.8983 11.6299 55.1091 11.0929 55.1091C10.6914 55.1091 10.32 54.9936 9.98879 54.7628C9.20086 54.2157 8.86462 53.4629 8.6187 52.9159C8.30252 52.2032 8.26736 52.128 7.58482 52.128C7.4443 52.128 7.28872 52.138 7.11809 52.1531C7.00266 52.1631 6.88224 52.1731 6.76681 52.1731C5.70786 52.1731 4.58367 51.6412 3.90113 50.8181C3.39926 50.2209 2.92751 49.1268 3.49964 47.3151C4.96008 42.7129 6.13443 38.2312 7.30378 33.6592C8.07665 30.638 9.5923 28.0935 12.0715 25.6494L18.9271 18.8893C19.1529 18.6684 19.449 18.5379 19.7652 18.5279C27.248 18.287 33.8426 15.2959 38.8412 9.88574C39.0369 9.66994 39.3079 9.53443 39.594 9.49428C40.2263 9.40897 40.8486 9.32365 41.471 9.23331C45.0643 8.73144 48.462 8.25467 52.0503 8.25467C52.3063 8.25467 52.5622 8.25467 52.8182 8.25969C55.192 8.30485 57.3701 9.36379 59.2873 10.2973L59.4378 10.3726C60.2408 10.764 61.0338 11.1555 61.8267 11.5419C65.2244 13.2081 68.4363 14.784 71.9093 16.2294C72.8076 16.6058 73.5704 17.3134 73.9468 18.1264C74.3282 18.9495 74.1024 19.7224 73.9368 20.2844C73.8967 20.425 73.8515 20.5705 73.8213 20.7161C73.3998 22.9594 72.0046 24.3496 69.9369 24.6206C70.0273 25.3985 70.1276 25.9957 70.2129 26.5076C70.6546 29.1876 70.5341 29.6443 68.0248 34.6379C67.9094 34.8687 67.7287 35.0544 67.5028 35.1799C67.0712 35.4158 66.5895 35.5362 66.0826 35.5362C65.6209 35.5362 65.1742 35.4409 64.7476 35.2953C64.9383 35.6918 65.1441 36.0832 65.3448 36.4747C66.4941 38.698 67.6835 41.0015 66.3385 43.0893C66.1779 43.3403 66.1077 43.6263 66.1127 43.9977C66.73 44.7806 68.7324 46.9085 69.4451 47.3C69.8817 47.3401 70.238 47.6162 70.4287 48.0277L78.9705 66.642C79.1964 67.1288 79.081 67.711 78.6895 68.0773C76.6318 70.0145 61.8669 80.1372 56.4919 80.1372C55.1117 80.1372 54.4392 79.5199 54.118 79.003C53.6061 78.1749 52.8834 77.7985 52.4267 77.7985C52.2109 77.7985 52.0453 77.8788 51.8847 78.0545L47.5687 82.9828C47.4482 83.1183 47.3077 83.2237 47.1471 83.299L47.0166 83.3642C43.2174 85.3315 40.417 86.3303 38.6956 86.3303H38.7107Z" fill="white"/>
<path d="M52.0654 9.50934C52.3113 9.50934 52.5622 9.50934 52.8082 9.51436C54.9662 9.55451 56.9937 10.5683 58.9058 11.5018C63.1265 13.5544 67.1114 15.587 71.4425 17.3887C72.11 17.6647 72.6018 18.1766 72.8226 18.6584C73.0786 19.2104 72.7223 19.8428 72.6018 20.4902C72.2355 22.4525 70.9959 23.4161 69.1791 23.4161C68.9834 23.4161 68.7776 23.4061 68.5668 23.381C69.0586 29.4335 70.233 27.4712 66.9157 34.0758C66.6497 34.2213 66.3736 34.2765 66.0926 34.2765C64.9182 34.2765 63.6284 33.2577 62.6146 32.9415C63.1617 36.4145 66.8705 39.9476 65.2896 42.4068C64.8329 43.1144 64.8329 43.8622 64.8931 44.4143C64.9182 44.6401 68.351 48.5446 69.2795 48.5446C69.2845 48.5446 69.2895 48.5446 69.2945 48.5446L77.8363 67.1589C75.608 69.2567 61.2044 78.8825 56.4969 78.8825C55.8746 78.8825 55.4229 78.7169 55.187 78.3405C54.5045 77.2465 53.4255 76.5438 52.4318 76.5438C51.8847 76.5438 51.3628 76.7546 50.9462 77.2314L46.6302 82.1597C46.595 82.1597 41.2652 85.0756 38.7006 85.0756C38.1235 85.0756 37.6869 84.9301 37.4811 84.5637C31.3633 73.7233 35.4636 74.4611 35.3632 72.0521C35.2026 68.1777 33.8777 64.0373 31.1827 61.3423C30.0083 62.4915 29.657 63.7111 28.0209 64.0323L22.1992 51.4354C21.3109 52.5094 21.597 54.3011 20.2219 54.9987C19.9408 55.1392 19.6397 55.1994 19.3336 55.1994C18.3047 55.1994 17.2056 54.5169 16.4177 54.01C15.3136 53.3023 14.4454 53.0715 13.7377 53.0715C12.4429 53.0715 11.7052 53.8444 11.0879 53.8444C10.9574 53.8444 10.8269 53.8092 10.7014 53.7189C9.38151 52.8005 9.9988 50.8582 7.58481 50.8582C7.40414 50.8582 7.20342 50.8683 6.98762 50.8934C6.91736 50.9034 6.84205 50.9034 6.77179 50.9034C5.98887 50.9034 5.25113 50.4618 4.86469 50C4.37286 49.4129 4.42307 48.5446 4.69408 47.6814C6.14949 43.0994 7.32888 38.6026 8.51831 33.9553C9.27613 30.9993 10.8018 28.6456 12.9498 26.5277L19.8053 19.7675C27.5391 19.5166 34.4599 16.4602 39.7596 10.7239C43.9803 10.1517 47.925 9.4993 52.0453 9.4993M48.4871 29.579C48.4569 29.4084 48.4168 29.2327 48.3716 29.0571C48.4218 29.2378 48.4569 29.4134 48.4871 29.579ZM48.6928 31.5514C48.6326 31.0194 48.6276 30.4172 48.5122 29.7346C48.6226 30.4222 48.6326 31.0194 48.6928 31.5514ZM45.1798 35.2351C45.7368 33.7747 46.3039 32.3995 46.9564 31.0545C46.2989 32.3995 45.7318 33.7747 45.1798 35.2351ZM51.6037 35.3957C51.6488 35.0544 51.684 34.7232 51.689 34.407C51.6789 34.7232 51.6488 35.0594 51.6037 35.3957ZM45.6917 35.2903C47.0718 35.4258 48.1558 35.476 48.8233 36.5299C48.1558 35.476 47.0768 35.4258 45.6917 35.2903ZM52.0654 7C48.3867 7 44.9489 7.48179 41.3103 7.98868C40.693 8.074 40.0707 8.16434 39.4434 8.24965C38.8663 8.32995 38.3343 8.60598 37.9378 9.03257C33.1751 14.1918 26.8817 17.0374 19.7451 17.2732C19.1127 17.2933 18.5155 17.5493 18.0638 17.9959L11.2083 24.7561C8.5986 27.3307 6.92739 30.1411 6.10935 33.3481C4.94501 37.9 3.77564 42.3666 2.32524 46.9387C1.57746 49.2874 2.26001 50.783 2.9576 51.6211C3.88606 52.7352 5.35152 53.4278 6.78686 53.4278C6.94746 53.4278 7.10806 53.4178 7.26866 53.4027C7.33892 53.3927 7.40917 53.3877 7.46939 53.3877C7.47441 53.4027 7.47945 53.4127 7.48949 53.4278C7.76049 54.0351 8.21215 55.0438 9.28615 55.7966C9.82315 56.173 10.4555 56.3688 11.1029 56.3688C11.921 56.3688 12.5583 56.0676 13.0251 55.8468C13.3714 55.6812 13.5621 55.5959 13.7528 55.5959C13.9335 55.5959 14.345 55.6661 15.0777 56.1379C15.9409 56.6899 17.5469 57.7238 19.3486 57.7238C20.0663 57.7238 20.7438 57.5632 21.3661 57.252C21.5869 57.1416 21.7827 57.0212 21.9684 56.8907L25.7625 65.1013C26.179 65.9996 27.0774 66.5567 28.041 66.5567C28.2016 66.5567 28.3622 66.5416 28.5278 66.5115C29.6369 66.2907 30.4349 65.829 31.0421 65.302C32.0911 67.1689 32.7435 69.5277 32.8689 72.017C32.8288 72.0822 32.7786 72.1676 32.7334 72.2378C30.997 75.0031 30.8966 77.9842 35.313 85.8133C35.6894 86.4808 36.6329 87.6 38.7157 87.6C39.4334 87.6 41.6165 87.6 47.6188 84.4934L47.7142 84.4432C48.0253 84.2977 48.3014 84.0869 48.5322 83.8259L52.6074 79.1736C52.7429 79.269 52.9135 79.4346 53.0691 79.6805C53.4706 80.3279 54.4493 81.4069 56.5069 81.4069C57.4454 81.4069 60.301 81.4069 69.3949 75.9767C73.5604 73.4875 78.1224 70.3608 79.5678 69.0058C80.3507 68.268 80.5765 67.1087 80.1299 66.1301L71.5881 47.5158C71.2719 46.8282 70.6746 46.3364 69.977 46.1457C69.3899 45.7241 68.1854 44.4795 67.4828 43.6715C68.9131 41.3177 67.9495 38.8435 66.8956 36.7357C67.3222 36.6554 67.7337 36.5098 68.1202 36.3041C68.5718 36.0582 68.9382 35.6818 69.169 35.2251C71.6884 30.2064 71.9946 29.4486 71.4777 26.3269C71.4425 26.1061 71.4024 25.8652 71.3622 25.5992C73.3095 24.9267 74.6494 23.3007 75.0861 20.972C75.0961 20.9118 75.1363 20.7813 75.1714 20.6659C75.3571 20.0385 75.6984 18.8742 75.1162 17.6245C74.6043 16.5154 73.6206 15.597 72.4212 15.0951C68.9834 13.6648 65.7915 12.099 62.4089 10.4378C61.6159 10.0514 60.823 9.6599 60.015 9.26845L59.8644 9.19818C57.8268 8.2095 55.5233 7.08532 52.8684 7.03011C52.6024 7.02509 52.3414 7.02007 52.0754 7.02007L52.0654 7Z" fill="white"/>
<path d="M44.3969 14.6836C46.048 18.4526 41.9679 23.8878 35.278 26.8238C28.5881 29.7597 21.8229 29.0822 20.1717 25.3132C18.5206 21.5441 27.0222 20.5354 33.7121 17.5994C40.402 14.6635 42.7407 10.9146 44.3969 14.6836Z" fill="#917A2C"/>
<path d="M41.1148 59.0989C40.086 61.0963 41.9881 68.0974 39.5138 67.5604C39.0521 67.46 38.756 66.6721 38.4248 66.6621C37.8376 66.647 37.8125 67.4751 37.2655 68.1727C35.9757 65.3221 35.2279 62.356 32.834 59.8969C33.9582 58.3361 34.465 56.9409 35.7548 55.7464C36.2818 57.6636 36.322 59.2645 36.9643 60.9157L41.1198 59.0989H41.1148Z" fill="#231F20"/>
<path d="M54.8257 65.844C54.9462 67.7662 51.7995 68.8251 51.0316 66.9782C50.9312 62.9683 56.4819 57.1466 57.6161 48.6299C57.7065 47.9474 58.4292 47.3753 58.8307 47.4656C60.0602 47.7466 59.719 50.1506 60.6725 51.2146C61.9171 52.6047 63.4328 53.4278 64.6323 54.9886C61.074 59.119 64.1454 62.07 64.567 66.4412C62.8908 65.3572 62.1932 63.7061 60.3262 63.2995C59.5333 63.9219 59.3677 64.8152 58.6299 65.583C57.1544 64.2681 55.9951 65.1163 54.8207 65.844H54.8257Z" fill="#10110C"/>
<path d="M49.3603 40.9313L48.8233 36.5299C48.0755 35.3505 46.8108 35.4258 45.1797 35.2351C46.068 32.8964 46.9914 30.7835 48.2461 28.6506C49.2047 31.5363 47.5786 33.062 51.6889 34.407C51.6387 36.4145 50.8408 38.9489 49.3552 40.9313H49.3603Z" fill="#231F20"/>
<path d="M71.4378 17.3887C67.1067 15.587 63.1219 13.5544 58.9011 11.5017C56.989 10.5733 54.9615 9.55951 52.8035 9.51435C48.4121 9.42903 44.2466 10.1266 39.775 10.7339C34.4752 16.4753 27.5495 19.5266 19.8207 19.7775L12.9652 26.5377C10.8172 28.6556 9.2915 31.0094 8.53368 33.9654C7.34425 38.6127 6.16487 43.1094 4.70945 47.6915C4.43342 48.5547 4.38827 49.4179 4.8801 50.0101C5.30167 50.517 6.13978 50.9937 7.00299 50.9034C10.1196 50.5722 9.30153 52.7402 10.7218 53.7289C11.7506 54.4416 12.8648 51.7265 16.4381 54.015C17.4569 54.6724 19.0027 55.621 20.2372 54.9986C21.6174 54.3011 21.3313 52.5094 22.2146 51.4354L28.0363 64.0323C29.6724 63.7111 30.0237 62.4915 31.1981 61.3423C33.8931 64.0323 35.218 68.1727 35.3786 72.0521C35.479 74.4611 31.3737 73.7233 37.4965 84.5637C38.6157 86.5461 46.6857 82.1096 46.6455 82.1597L50.9616 77.2314C52.131 75.8964 54.1435 76.6442 55.1974 78.3405C57.1998 81.5575 75.3223 69.5327 77.8416 67.1639L69.2999 48.5496C68.3915 48.5948 64.9236 44.6451 64.8985 44.4193C64.8383 43.8672 64.8383 43.1194 65.295 42.4118C66.8759 39.9527 63.167 36.4195 62.62 32.9466C63.8797 33.343 65.566 34.8135 66.921 34.0808C70.2384 27.4762 69.064 29.4385 68.5722 23.386C70.7252 23.6168 72.2007 22.6683 72.6072 20.4902C72.7276 19.8428 73.0839 19.2104 72.828 18.6584C72.6072 18.1816 72.1103 17.6697 71.4478 17.3887H71.4378ZM36.3572 23.0748C32.7589 26.2516 25.5721 25.6494 23.2183 21.6094C29.2859 21.0071 34.4602 18.5229 39.3986 14.5481C40.6131 17.8704 38.5504 21.1326 36.3572 23.0748ZM49.3607 40.9313L48.8237 36.5299C48.0759 35.3505 46.8112 35.4258 45.1801 35.2351C46.0684 32.8964 46.9918 30.7835 48.2465 28.6506C49.2051 31.5363 47.579 33.062 51.6893 34.407C51.6391 36.4145 50.8412 38.9489 49.3556 40.9313H49.3607Z" fill="#0D0C0A"/>
<path d="M39.1474 84.4131C38.7058 84.4131 38.2792 84.1772 38.0534 83.7707L37.7171 83.1735C35.7197 79.6253 33.657 75.9617 36.076 72.0421C36.1965 71.8464 36.3671 71.6858 36.5728 71.5854C37.4361 71.1437 37.963 70.5666 38.6355 69.8288C38.8815 69.5578 39.1374 69.2818 39.4134 69.0058C39.7146 68.6996 40.0207 68.4387 40.2967 68.2028C41.2754 67.3597 41.6417 67.0435 41.4008 65.8842C40.9993 63.952 41.3406 61.5982 42.3343 59.4402L43.6642 56.5444C42.7458 57.237 41.3858 57.8543 38.8664 58.9584C38.7008 59.0286 38.5301 59.0638 38.3645 59.0638C37.9329 59.0638 37.5164 58.843 37.2855 58.4515C36.5478 57.2119 36.6582 55.1291 37.0547 52.5044C36.1111 54.2107 34.6858 56.2935 32.3421 58.5318C32.0912 58.7677 31.8704 59.0688 31.6094 59.4201C31.0975 60.1077 30.4601 60.9608 29.351 61.6032C29.1603 61.7136 28.9395 61.7739 28.7237 61.7739C28.5982 61.7739 28.4727 61.7538 28.3522 61.7187C28.016 61.6133 27.74 61.3774 27.5894 61.0612L27.2632 60.3737C25.4414 56.5494 23.6799 52.8507 22.104 49.0766C21.9836 49.7692 21.7627 50.4919 21.4365 51.2296C21.0601 52.0778 20.0413 54.0551 18.7114 54.0551C18.6863 54.0551 18.6461 54.0551 18.616 54.0551C17.6775 53.9949 17.1255 53.3575 16.8294 53.0163C16.7892 52.9661 16.7491 52.9209 16.7089 52.8757C16.5684 52.8256 16.4279 52.7754 16.2924 52.7302C15.2937 52.3839 14.1193 51.9774 13.3012 51.0138C13.226 51.34 13.0905 51.7164 12.8195 52.1029C12.5836 52.4341 12.2021 52.6298 11.7956 52.6298C11.7454 52.6298 11.6953 52.6298 11.6401 52.6198C10.2348 52.4441 9.58741 51.4856 9.16082 50.8482C9.02532 50.6424 8.89483 50.4517 8.7794 50.3413C8.65895 50.2961 8.35284 50.251 8.14707 50.2259C7.4294 50.1255 6.45075 49.99 5.82342 49.177C4.75444 47.7968 5.72805 46.3565 6.24999 45.5786C6.36542 45.408 6.54109 45.147 6.57622 45.0466C7.20857 42.7932 7.66023 40.9162 8.05671 39.2551C9.61752 32.7508 10.3302 29.7848 17.7829 23.12C18.0188 22.9092 18.3199 22.7988 18.6211 22.7988H18.6311C18.7013 22.3973 18.9272 21.9808 19.414 21.5843C19.7352 21.3233 20.1166 21.1878 20.5131 21.1878C21.3964 21.1878 22.0087 21.7951 22.7866 22.5629C24.1165 23.8828 26.129 25.8752 30.2493 25.8752C30.9469 25.8752 31.6847 25.815 32.4475 25.7046C34.987 25.3232 37.0847 24.0635 38.5151 22.051C40.2616 19.6019 40.8889 16.1741 40.2315 12.651C40.1411 12.1592 40.3519 11.6573 40.7635 11.3813C40.9742 11.2408 41.2201 11.1655 41.4661 11.1655C41.712 11.1655 41.9378 11.2307 42.1436 11.3662C42.6154 11.6674 43.0018 11.9986 43.323 12.3499C43.3983 11.9233 43.6944 11.557 44.1109 11.3964C45.1247 11.0099 48.5324 10.4227 51.3529 10.4227C52.9639 10.4227 55.0968 10.5783 55.965 11.828C55.9901 11.843 56.0202 11.8531 56.0403 11.8631C58.1381 12.114 59.98 13.1328 61.7616 14.1165C62.4391 14.4879 63.0765 14.8442 63.7139 15.1453C64.6473 15.592 65.7213 15.9784 66.7552 16.3548C69.1993 17.2381 71.1315 17.9357 71.5731 19.4212C71.7136 19.888 71.7538 20.6157 71.1566 21.4187C70.996 21.6345 70.5041 22.2969 69.671 22.2969C69.2394 22.2969 68.9283 22.1213 68.7376 21.9958C68.5569 22.0861 68.1554 22.3421 67.4327 23.0598C67.3474 23.4663 67.5532 24.6306 67.6887 25.4185C67.9145 26.6933 68.1454 28.0082 67.9798 29.1173C67.7389 30.7584 67.1868 31.993 66.2433 32.9968C66.0024 33.2527 65.6712 33.3932 65.3299 33.3932C65.1994 33.3932 65.0689 33.3732 64.9384 33.333C63.0213 32.7006 61.6512 32.0281 60.6726 31.3306C62.1029 34.2012 63.478 37.2275 64.813 40.4495C64.9435 40.7707 64.9384 41.127 64.7979 41.4432C63.9548 43.3202 64.0551 45.0968 64.3111 47.039C64.3111 47.039 64.3211 47.034 64.3211 47.029C64.552 46.8483 64.828 46.758 65.099 46.758C65.4654 46.758 65.8267 46.9186 66.0727 47.2247L68.2809 49.9499C70.6999 52.936 75.2067 62.1854 76.4362 66.2104C76.6069 66.7675 76.376 67.3647 75.8742 67.6558C73.8316 68.8602 72.0198 70.1099 70.2733 71.3144C66.3085 74.0496 62.5596 76.6292 57.1896 77.9089C57.0942 77.934 56.9939 77.9441 56.8985 77.9441C56.6325 77.9441 56.3766 77.8587 56.1557 77.7032C55.8095 77.4472 55.4682 77.1662 55.142 76.8901C54.4895 76.3431 53.6815 75.6656 53.2198 75.6656C51.0668 75.7208 50.319 76.5689 49.2852 77.7383C48.9138 78.1599 48.5324 78.5915 48.0656 79.008C47.7645 79.274 47.6692 79.4497 47.5136 79.7458C46.7809 81.1108 45.8775 82.1045 39.564 84.363C39.4235 84.4131 39.2829 84.4382 39.1424 84.4382L39.1474 84.4131ZM46.9515 34.1661C48.0405 34.3267 49.1346 34.678 49.8824 35.8574C49.9828 36.013 50.048 36.1937 50.0681 36.3793L50.0932 36.5701C50.2136 36.1284 50.309 35.6868 50.3642 35.2552C48.6277 34.5224 47.9301 33.6442 47.629 32.5902C47.4032 33.0871 47.1773 33.6141 46.9515 34.1711V34.1661Z" fill="#EFC54D"/>
<path d="M51.3477 11.6674C53.1946 11.6674 54.7504 11.9384 55.0314 12.7363C55.197 12.8468 55.5634 13.0375 55.7541 13.0877C58.409 13.3587 60.7828 15.1353 63.1717 16.2745C66.6296 17.9206 71.583 18.7337 70.1477 20.6608C69.9369 20.9419 69.7964 21.0322 69.6709 21.0322C69.425 21.0322 69.2543 20.6859 68.8027 20.6859C68.351 20.6859 67.6935 21.0021 66.4639 22.2417C65.5505 23.1652 67.0461 26.8539 66.74 28.9216C66.5744 30.0408 66.2181 31.18 65.3297 32.1235C56.7779 29.313 60.8129 26.0308 57.9774 24.8113C57.9623 24.8013 57.9422 24.7962 57.9222 24.7912C57.9422 24.7962 57.9573 24.8063 57.9774 24.8113C58.3186 24.9769 58.2132 25.3684 58.2132 25.7849C58.2132 26.0459 58.1781 26.2215 58.0677 26.2215C57.9874 26.2215 57.877 26.1362 57.7114 25.9355C56.7779 25.0823 56.3212 23.2154 55.207 23.2154C55.0866 23.2154 54.9611 23.2354 54.8256 23.2856C58.2233 28.8814 61.094 34.7583 63.6485 40.9112C62.6046 43.2349 62.8154 45.428 63.1165 47.581L63.9145 48.8909C64.1102 48.911 64.2959 48.9612 64.4715 49.0314C64.4916 49.0214 64.5067 49.0114 64.5217 48.9913C64.6823 48.8156 64.6572 48.3439 65.0989 47.9926L67.3071 50.7177C69.6056 53.5533 74.0372 62.627 75.2416 66.5516C68.4965 70.5315 64.341 74.8927 56.9034 76.6643C55.6939 75.781 54.4693 74.3858 53.2297 74.3858C53.2146 74.3858 53.2046 74.3858 53.1896 74.3858C49.6313 74.4711 48.9186 76.5589 47.2424 78.0444C45.4859 79.6002 47.7593 80.082 39.1473 83.1584C37.0896 79.4747 34.9918 76.1775 37.1398 72.6995C38.5601 71.9768 39.2426 70.948 40.2966 69.8891C41.5964 68.5792 43.1121 67.997 42.6202 65.6282C42.2488 63.8365 42.6453 61.7387 43.4634 59.9621L46.4695 53.4228C46.2086 52.8406 46.0028 52.1179 45.3403 51.9122C43.3329 55.5858 43.8398 55.4001 38.3543 57.8091C37.0394 55.5959 39.7295 47.2849 38.8161 47.2849C38.811 47.2849 38.806 47.2849 38.801 47.2849C37.0444 47.4756 37.4359 51.9272 31.4687 57.6234C30.5754 58.4766 30.1086 59.7112 28.7185 60.5192C25.4714 53.7038 22.3748 47.2899 20.1967 40.2186C20.1566 40.0831 20.0311 39.9828 19.8956 39.9276L19.449 39.9476C19.5644 40.3491 19.9609 40.6402 19.9408 41.4231L18.3599 40.3341L19.986 45.2122C22.4451 47.9173 19.4841 52.7954 18.7112 52.7954H18.7012C17.9935 52.7503 17.7326 51.9071 17.2457 51.7265C15.7452 51.1794 14.2747 50.8632 13.7528 49.2673C13.3161 49.443 12.5131 49.2322 12.3024 49.5985C12.0364 50.0653 12.2722 50.6976 11.7955 51.3651C10.5157 51.2095 10.3049 49.9699 9.56215 49.3476C8.92477 48.8106 7.39911 49.1469 6.81694 48.3991C6.06414 47.4255 7.5597 46.1909 7.78555 45.3929C10.9473 34.1259 9.63743 32.0833 18.6259 24.0484C19.8956 25.1576 19.9358 26.1412 20.7438 26.7033C22.5455 27.958 24.3422 29.6192 26.7963 29.6192C27.2129 29.6192 27.6495 29.569 28.1062 29.4636C25.0197 27.692 22.0637 26.9292 20.2168 23.9581C19.8705 23.401 19.6346 23.0146 20.2068 22.5579C20.3072 22.4776 20.4125 22.4374 20.5179 22.4374C21.7375 22.4374 23.6295 27.1249 30.2542 27.1249C30.9869 27.1249 31.7799 27.0697 32.6381 26.9392C39.3781 25.9305 42.7858 19.4814 41.4709 12.4151C44.5373 14.3825 43.2074 17.9357 42.6353 20.6859C42.3442 22.0861 40.8988 23.0798 41.5061 24.6557C45.0492 21.2882 44.713 16.7162 44.5674 12.5657C45.4256 12.2395 48.6928 11.6774 51.3628 11.6774M49.3603 40.9313C50.8458 38.9439 51.6438 36.4145 51.694 34.407C47.5837 33.062 49.2097 31.5363 48.2512 28.6506C46.9915 30.7885 46.0731 32.8964 45.1848 35.2351C46.8108 35.4258 48.0755 35.3505 48.8283 36.5299L49.3653 40.9313M47.7192 47.5058C47.95 47.305 48.1357 47.1996 48.2813 47.1544C48.2512 47.1294 48.216 47.1143 48.1759 47.1143C48.0554 47.1143 47.9049 47.2398 47.7192 47.5058ZM51.3477 9.15803C48.5774 9.15803 44.9388 9.72513 43.6591 10.2119C43.4633 10.2872 43.2827 10.3826 43.112 10.503C43.0167 10.4328 42.9163 10.3675 42.8109 10.3023C42.3994 10.0363 41.9276 9.90581 41.4559 9.90581C40.9841 9.90581 40.4772 10.0463 40.0557 10.3324C39.2276 10.8895 38.806 11.8882 38.9917 12.8718C39.5839 16.0637 39.0369 19.1402 37.4861 21.3133C36.2565 23.0397 34.4448 24.1237 32.2516 24.455C31.549 24.5603 30.8715 24.6105 30.2391 24.6105C26.6357 24.6105 24.9143 22.9092 23.6596 21.6646C22.7964 20.8114 21.9031 19.9231 20.5029 19.9231C19.8153 19.9231 19.1629 20.154 18.6159 20.5956C18.2997 20.8515 17.9283 21.2229 17.6724 21.7148C17.4064 21.8202 17.1604 21.9757 16.9346 22.1715C9.18575 29.0972 8.44802 32.1837 6.82197 38.9489C6.43553 40.5599 5.99889 42.3867 5.39162 44.5648C5.34144 44.6451 5.25614 44.7706 5.19592 44.8609C4.64888 45.6739 3.19346 47.832 4.81449 49.9298C5.75801 51.1493 7.13812 51.34 7.96119 51.4555C7.9913 51.4555 8.02643 51.4655 8.05654 51.4705C8.0716 51.4956 8.08667 51.5157 8.10172 51.5358C8.55341 52.2083 9.49191 53.6085 11.4693 53.8544C11.5747 53.8694 11.675 53.8745 11.7754 53.8745C12.5182 53.8745 13.2258 53.5432 13.7026 52.9711C14.4503 53.4178 15.2232 53.6888 15.8606 53.9096C15.8957 53.9196 15.9258 53.9347 15.961 53.9447C16.3625 54.3964 17.1755 55.2145 18.5155 55.2998C18.5707 55.2998 18.6359 55.3048 18.6911 55.3048C20.2971 55.3048 21.4414 53.9146 22.1942 52.4993C23.4338 55.2947 24.7587 58.0701 26.1138 60.9157L26.44 61.6032C26.7411 62.2356 27.2932 62.7124 27.9657 62.9231C28.2066 62.9984 28.4575 63.0336 28.7084 63.0336C29.145 63.0336 29.5817 62.9181 29.9681 62.6923C31.2981 61.9194 32.0509 60.9106 32.5979 60.1729C32.8237 59.8718 33.0195 59.6108 33.1901 59.4452C34.0935 58.582 34.8664 57.7439 35.5288 56.9409C35.6192 57.7639 35.8249 58.4816 36.1913 59.0939C36.658 59.8768 37.4861 60.3235 38.3493 60.3235C38.6856 60.3235 39.0268 60.2532 39.3581 60.1127C39.9503 59.8517 40.4873 59.6158 40.9741 59.4C40.0356 61.6685 39.7395 64.1025 40.1661 66.1451C40.2263 66.4412 40.2062 66.5567 40.2062 66.5567C40.146 66.6771 39.7395 67.0284 39.4735 67.2543C39.1824 67.5052 38.8562 67.7862 38.5199 68.1225C38.2188 68.4236 37.9478 68.7247 37.7069 68.9857C37.0746 69.6783 36.658 70.135 36.0006 70.4712C35.5941 70.682 35.2478 70.9982 35.0069 71.3897C32.2014 75.9366 34.5502 80.1121 36.6229 83.7958L36.9591 84.3931C37.4108 85.2061 38.264 85.6778 39.1473 85.6778C39.4283 85.6778 39.7144 85.6327 39.9904 85.5323C46.2136 83.309 47.6339 82.1748 48.6225 80.3279C48.758 80.077 48.7681 80.0519 48.9036 79.9365C49.4255 79.4697 49.8571 78.9879 50.2336 78.5614C51.1821 77.4874 51.6287 76.9805 53.1193 76.9152C53.4054 77.0557 53.9875 77.5426 54.3489 77.8387C54.6901 78.1247 55.0465 78.4208 55.4279 78.7019C55.8595 79.018 56.3814 79.1837 56.9084 79.1837C57.1041 79.1837 57.2998 79.1636 57.4905 79.1134C63.0914 77.7784 66.9307 75.1336 70.9958 72.3332C72.7273 71.1387 74.5189 69.9041 76.5214 68.7247C77.5201 68.1376 77.9868 66.9381 77.6455 65.8289C76.3608 61.6233 71.8038 52.2835 69.2644 49.1469L67.0561 46.4217C66.6296 45.8948 66.0374 45.5886 65.4151 45.5133C65.3297 44.2687 65.4151 43.1244 65.947 41.9501C66.2281 41.3177 66.2431 40.6001 65.9771 39.9577C65.139 37.9351 64.2859 35.9929 63.4126 34.1109C63.774 34.2464 64.1554 34.3819 64.5569 34.5174C64.8128 34.6027 65.0788 34.6429 65.3398 34.6429C66.0223 34.6429 66.6898 34.3618 67.1716 33.8499C68.2807 32.6655 68.9532 31.18 69.2292 29.298C69.425 27.9881 69.1741 26.5678 68.9332 25.1977C68.8478 24.7109 68.7274 24.0384 68.6922 23.5968C68.7625 23.5365 68.8227 23.4813 68.8779 23.4312C69.1088 23.5014 69.3798 23.5466 69.6759 23.5466C70.6445 23.5466 71.4826 23.0798 72.1652 22.1664C72.8778 21.2129 73.0936 20.1088 72.7775 19.0599C72.1501 16.9721 69.8516 16.139 67.1816 15.1754C66.1729 14.8091 65.134 14.4327 64.2557 14.0161C63.6535 13.73 63.0312 13.3838 62.3737 13.0224C60.6925 12.094 58.8054 11.0501 56.6524 10.6837C55.192 9.16304 52.497 9.16304 51.3527 9.16304L51.3477 9.15803Z" fill="#231F20"/>
<path d="M61.5408 61.0712C58.8458 62.0248 56.7229 62.9683 54.2437 63.5254L58.8759 52.8506C59.7491 53.4981 61.5207 54.2057 61.4454 55.3449C61.32 57.2018 60.3715 58.6221 61.5458 61.0712H61.5408Z" fill="#231F20"/>
</g>
<defs>
<filter id="filter0_dnn_535_846" x="0" y="-2" width="89" height="101" filterUnits="userSpaceOnUse" color-interpolation-filters="sRGB">
<feFlood flood-opacity="0" result="BackgroundImageFix"/>
<feColorMatrix in="SourceAlpha" type="matrix" values="0 0 0 0 0 0 0 0 0 0 0 0 0 0 0 0 0 0 127 0" result="hardAlpha"/>
<feOffset dx="3" dy="3"/>
<feGaussianBlur stdDeviation="2.5"/>
<feComposite in2="hardAlpha" operator="out"/>
<feColorMatrix type="matrix" values="0 0 0 0 0 0 0 0 0 0 0 0 0 0 0 0 0 0 0.25 0"/>
<feBlend mode="normal" in2="BackgroundImageFix" result="effect1_dropShadow_535_846"/>
<feBlend mode="normal" in="SourceGraphic" in2="BackgroundImageFix" result="shape"/>
<feTurbulence type="fractalNoise" baseFrequency="0.5 0.5" stitchTiles="stitch" numOctaves="3" result="noise" seed="7937" />
<feColorMatrix in="noise" type="luminanceToAlpha" result="alphaNoise" />
<feComponentTransfer in="alphaNoise" result="coloredNoise1">
<feFuncA type="discrete" tableValues="0 0 0 0 0 0 0 0 0 0 0 1 1 1 1 1 1 1 1 1 1 1 1 1 1 1 1 1 1 1 1 1 1 1 1 1 1 1 1 0 0 0 0 0 0 0 0 0 0 0 0 0 0 0 0 0 0 0 0 0 0 0 0 0 0 0 0 0 0 0 0 0 0 0 0 0 0 0 0 0 0 0 0 0 0 0 0 0 0 0 0 0 0 0 0 0 0 0 0 0 "/>
</feComponentTransfer>
<feComposite operator="in" in2="shape" in="coloredNoise1" result="noise1Clipped" />
<feComponentTransfer in="alphaNoise" result="coloredNoise2">
<feFuncA type="discrete" tableValues="0 0 0 0 0 0 0 0 0 0 0 0 0 0 0 0 0 0 0 0 0 0 0 0 0 0 0 0 0 0 0 0 0 0 0 0 0 0 0 0 0 0 0 0 0 0 0 0 0 0 0 0 0 0 0 0 0 0 0 0 0 1 1 1 1 1 1 1 1 1 1 1 1 1 1 1 1 1 1 1 1 1 1 1 1 1 1 1 1 0 0 0 0 0 0 0 0 0 0 0 "/>
</feComponentTransfer>
<feComposite operator="in" in2="shape" in="coloredNoise2" result="noise2Clipped" />
<feFlood flood-color="rgba(0, 0, 0, 0.1)" result="color1Flood" />
<feComposite operator="in" in2="noise1Clipped" in="color1Flood" result="color1" />
<feFlood flood-color="rgba(255, 255, 255, 0.1)" result="color2Flood" />
<feComposite operator="in" in2="noise2Clipped" in="color2Flood" result="color2" />
<feMerge result="effect2_noise_535_846">
<feMergeNode in="shape" />
<feMergeNode in="color1" />
<feMergeNode in="color2" />
</feMerge>
<feTurbulence type="fractalNoise" baseFrequency="0.3333333432674408 0.3333333432674408" stitchTiles="stitch" numOctaves="3" result="noise" seed="1755" />
<feColorMatrix in="noise" type="luminanceToAlpha" result="alphaNoise" />
<feComponentTransfer in="alphaNoise" result="coloredNoise1">
<feFuncA type="discrete" tableValues="0 0 0 1 1 1 1 1 1 1 1 1 1 1 1 1 1 1 1 1 1 1 1 1 1 1 1 1 1 1 1 1 1 1 1 1 1 1 1 1 1 1 1 1 1 1 0 0 0 0 0 0 0 0 0 0 0 0 0 0 0 0 0 0 0 0 0 0 0 0 0 0 0 0 0 0 0 0 0 0 0 0 0 0 0 0 0 0 0 0 0 0 0 0 0 0 0 0 0 0 "/>
</feComponentTransfer>
<feComposite operator="in" in2="effect2_noise_535_846" in="coloredNoise1" result="noise1Clipped" />
<feComponentTransfer in="alphaNoise" result="coloredNoise2">
<feFuncA type="discrete" tableValues="0 0 0 0 0 0 0 0 0 0 0 0 0 0 0 0 0 0 0 0 0 0 0 0 0 0 0 0 0 0 0 0 0 0 0 0 0 0 0 0 0 0 0 0 0 0 0 0 0 0 0 0 0 0 1 1 1 1 1 1 1 1 1 1 1 1 1 1 1 1 1 1 1 1 1 1 1 1 1 1 1 1 1 1 1 1 1 1 1 1 1 1 1 1 1 1 1 0 0 0 "/>
</feComponentTransfer>
<feComposite operator="in" in2="effect2_noise_535_846" in="coloredNoise2" result="noise2Clipped" />
<feFlood flood-color="rgba(0, 0, 0, 0.1)" result="color1Flood" />
<feComposite operator="in" in2="noise1Clipped" in="color1Flood" result="color1" />
<feFlood flood-color="rgba(21, 21, 21, 0.1)" result="color2Flood" />
<feComposite operator="in" in2="noise2Clipped" in="color2Flood" result="color2" />
<feMerge result="effect3_noise_535_846">
<feMergeNode in="effect2_noise_535_846" />
<feMergeNode in="color1" />
<feMergeNode in="color2" />
</feMerge>
<feBlend mode="normal" in="effect3_noise_535_846" in2="effect1_dropShadow_535_846" result="effect3_noise_535_846"/>
</filter>
</defs>
</svg>
