<svg width="117" height="109" viewBox="0 0 117 109" fill="none" xmlns="http://www.w3.org/2000/svg">
<g filter="url(#filter0_dnn_463_1124)">
<g filter="url(#filter1_d_463_1124)">
<path d="M43.0079 95.391C42.6253 95.391 42.2631 95.2226 42.0234 94.9217L38.4222 90.5299C38.1519 90.2034 37.8254 89.9229 37.4837 89.627C36.5553 88.8364 35.4025 87.8468 35.3974 85.7708C35.3872 85.7147 35.3566 85.628 35.3209 85.5464C35.2291 85.5311 35.1067 85.5209 34.9588 85.5209C34.8772 85.5209 34.8006 85.5209 34.7343 85.5311C34.5099 85.5566 34.2855 85.5719 34.0763 85.5719C32.8725 85.5719 30.771 85.1128 30.2201 82.0319C30.1844 81.8228 30.1079 81.583 30.0416 81.4045C29.9957 81.4045 29.9396 81.4045 29.8733 81.4045C29.6743 81.4045 29.4652 81.4198 29.2459 81.43C28.9704 81.4453 28.6899 81.4606 28.4195 81.4606C27.8125 81.4606 26.925 81.3943 26.2262 80.8077C25.3896 80.1038 25.0326 78.7572 24.9204 78.2114C24.6347 76.8495 24.3593 76.8036 23.5329 76.6659C22.1965 76.4465 20.7428 75.9823 20.1766 73.3197L17.3048 71.8252C15.5706 70.9223 16.2592 68.8769 16.6723 67.6527C16.7335 67.4742 16.7948 67.2905 16.8458 67.1222C16.6876 67.0508 16.5091 66.9794 16.3204 66.908C15.7695 66.6937 15.1523 66.454 14.5912 65.9694C13.1732 64.7299 13.7547 62.9701 14.1015 61.9245C14.1729 61.7051 14.2749 61.4042 14.3209 61.19C14.1321 61.093 13.872 60.9757 13.6782 60.889C12.8365 60.5116 11.9694 60.1188 11.5715 59.3639C10.9849 58.2417 11.3624 57.0328 11.6684 56.0636C11.75 55.8035 11.8623 55.4464 11.9082 55.2067C11.7398 55.1047 11.5001 54.9823 11.3267 54.8904C10.5105 54.462 9.58219 53.9723 9.17413 53.1205C8.80687 52.3502 8.82217 51.529 8.9803 50.7843C8.91909 50.7741 8.85788 50.7639 8.80177 50.7537C7.47046 50.5292 5.64436 50.2232 5.30261 48.5297C4.78742 45.9589 10.6381 41.5314 11.0614 41.2968C12.4336 40.5367 13.8618 39.9808 15.2441 39.4503C16.9223 38.8025 18.5086 38.1904 19.942 37.2467C21.6558 36.1194 23.1147 34.7014 24.6602 33.2018C24.9816 32.8855 25.308 32.5744 25.6345 32.2632C29.1489 28.9018 32.8572 25.8668 36.9634 22.9848C43.1252 18.6593 49.9042 16.619 54.8571 15.1245C57.8206 14.2318 60.3813 13.4616 61.3249 12.6098L68.0988 6.49387C68.8333 5.83076 75.1889 3.29565 77.1987 3.29565C77.6118 3.29565 77.9485 3.37727 78.2341 3.54049C79.086 4.03527 79.3614 5.16255 79.1982 6.02459L78.7748 8.23835C78.938 8.29446 79.1217 8.34547 79.29 8.39137C80.0398 8.60051 81.0651 8.88105 81.7078 9.8196C82.5239 11.0132 82.1618 12.3649 81.8965 13.3494C81.8506 13.5279 81.7996 13.7064 81.7588 13.8799C81.9424 13.9462 82.1567 14.0023 82.3709 14.0635C83.136 14.2777 84.0848 14.543 84.7836 15.3387C85.7068 16.3844 85.3855 17.8075 85.1253 18.9552C85.0743 19.1745 85.008 19.4704 84.9723 19.6948C85.1253 19.7458 85.309 19.7968 85.4467 19.8376C86.4566 20.1233 88.1501 20.6078 88.3848 22.2401C88.5072 23.1072 88.3185 23.8724 88.1501 24.5508C88.0838 24.816 88.0226 25.066 87.992 25.2853C88.1297 25.3261 88.2725 25.3669 88.4154 25.4026C89.2927 25.6372 90.4914 25.9586 91.129 27.0655C91.787 28.2132 91.4963 29.4119 91.2616 30.3759C91.2055 30.6105 91.1494 30.8401 91.1137 31.0492C91.3126 31.1206 91.5626 31.1869 91.7258 31.2328C92.5164 31.4471 93.6029 31.7429 94.2048 32.7784C94.8526 33.8955 94.5415 35.0636 94.2915 36.0072C94.2303 36.247 94.164 36.4918 94.1232 36.7111C94.317 36.7825 94.5466 36.8539 94.7608 36.9152C95.6024 37.1651 96.6532 37.4762 97.2398 38.4709C97.908 39.5982 97.5662 40.7714 97.3163 41.6283C97.2449 41.8681 97.1582 42.1741 97.1276 42.3934C97.352 42.4904 97.704 42.5975 97.9386 42.6689C98.7496 42.9188 99.5913 43.179 100.112 43.8115C101.035 44.9388 100.683 46.3313 100.428 47.3514C100.367 47.5861 100.285 47.9074 100.259 48.1268C100.433 48.1931 100.688 48.2645 100.877 48.3206C101.698 48.545 102.815 48.8562 103.351 49.9988C103.861 51.0852 103.616 52.1615 103.417 53.0286C103.366 53.248 103.32 53.4622 103.284 53.6663C103.478 53.7377 103.697 53.8142 103.871 53.8754C105.09 54.2988 106.758 54.8802 106.809 56.5023C106.85 57.8744 106.166 58.4865 105.753 58.7314C104.983 59.1853 104.243 59.6699 103.463 60.1851C101.984 61.1594 100.458 62.1693 98.7139 62.8987C97.3826 63.4547 96.0156 63.7914 94.6996 64.1127C93.8426 64.3219 93.0367 64.5208 92.2308 64.7758C87.9257 66.1429 86.3648 68.0557 84.2072 70.6979C82.2485 73.0953 79.8154 76.0793 74.6585 79.4713C67.7673 84.0059 60.9526 86.9644 53.8471 88.5151C51.7558 90.9941 45.8184 95.2226 43.1048 95.4216C43.0742 95.4216 43.0436 95.4216 43.013 95.4216L43.0079 95.391Z" fill="white"/>
<path d="M77.1989 4.55041C77.3724 4.55041 77.505 4.57591 77.5917 4.62182C77.862 4.77995 78.0355 5.30533 77.9437 5.7593L77.3571 8.80449C78.1375 9.74815 79.9228 9.4523 80.6522 10.5133C81.4428 11.6661 80.3104 13.3136 80.4074 14.548C81.3255 15.3692 82.9782 15.1958 83.8249 16.1599C84.7329 17.1851 83.1822 19.7662 83.8402 20.5058C84.4064 21.1383 86.9364 21.0873 87.1251 22.3982C87.3088 23.6887 86.4671 24.9231 86.7528 26.1218C87.7321 26.7288 89.4256 26.6268 90.0275 27.6826C90.6906 28.8354 89.7317 30.3198 89.7929 31.6307C90.5274 32.6202 92.4606 32.2836 93.1084 33.4006C93.7766 34.5483 92.634 36.1245 92.833 37.3895C93.7052 38.226 95.5313 38.0679 96.1434 39.0983C96.8269 40.2511 95.6129 41.7354 95.8782 42.8933C96.0873 43.7859 98.5153 43.8522 99.1223 44.597C100.127 45.8262 98.2959 48.1726 99.26 48.9888C100.04 49.6468 101.708 49.4784 102.193 50.5139C102.749 51.6973 101.841 53.0745 101.974 54.365C102.703 55.0791 105.493 55.3087 105.529 56.5176C105.539 56.793 105.514 57.3643 105.1 57.604C102.795 58.9558 100.719 60.6492 98.2143 61.7C96.1587 62.562 93.9653 62.863 91.8383 63.5363C83.0853 66.3162 84.6512 71.3406 73.9497 78.3797C67.5023 82.6185 60.7386 85.7453 53.1231 87.3367C51.5826 89.474 45.3647 93.9525 43.003 94.1208L39.4019 89.729C38.2797 88.3569 36.6525 87.9182 36.6627 85.7453C36.6627 85.4188 36.4128 84.8118 36.2139 84.5823C35.9996 84.3374 35.4232 84.2507 34.9489 84.2507C34.8111 84.2507 34.6836 84.2558 34.5765 84.2711C34.398 84.2915 34.2245 84.3017 34.0664 84.3017C32.5362 84.3017 31.7455 83.3836 31.465 81.8125C31.3885 81.379 31.1998 80.8383 31.0518 80.5679C30.8529 80.2109 30.404 80.1293 29.8633 80.1293C29.4094 80.1293 28.8942 80.1854 28.4096 80.1854C27.8791 80.1854 27.3792 80.1191 27.0375 79.8283C26.6396 79.4917 26.3132 78.6908 26.1601 77.9512C25.2114 73.3809 22.0234 77.5278 21.3144 72.478L17.8815 70.6927C16.7491 70.1061 18.1263 67.8975 18.259 66.5968C17.5449 65.7603 16.2543 65.7398 15.4178 65.0053C14.112 63.8576 15.9636 61.7153 15.5606 60.6033C15.326 59.9606 13.0765 59.4913 12.6991 58.767C12.0819 57.5938 13.454 55.7473 13.1581 54.6762C12.9745 54.008 10.7557 53.4673 10.3221 52.5593C9.94973 51.7738 10.2354 50.774 10.6026 49.8916C9.57227 49.3203 6.81783 49.56 6.55769 48.2644C6.28224 46.877 10.6741 42.9545 11.684 42.3934C14.5915 40.7815 17.856 40.1286 20.6462 38.2923C22.8344 36.8488 24.6299 34.9666 26.5172 33.1609C30.0623 29.774 33.6787 26.8257 37.6931 24.0049C47.6448 17.0168 59.2798 16.1497 62.177 13.5381L68.9509 7.42217C69.3539 7.05491 75.3932 4.55041 77.1938 4.55041M77.1989 2C74.9699 2 68.2725 4.60142 67.2472 5.52977L60.4734 11.6457C59.7439 12.3037 57.0762 13.1045 54.4952 13.8849C49.4607 15.3999 42.5644 17.4759 36.2343 21.9187C32.0771 24.8364 28.3229 27.9122 24.7574 31.3195C24.4259 31.6358 24.1045 31.952 23.7781 32.2683C22.2784 33.7271 20.8604 35.1043 19.2485 36.1653C17.9274 37.0324 16.4074 37.6241 14.7955 38.2464C13.3724 38.7973 11.9033 39.3635 10.4547 40.1694C9.53147 40.6795 7.92981 42.1026 6.81783 43.2452C4.57347 45.5508 3.75224 47.2035 4.06339 48.7694C4.46635 50.7944 6.20063 51.4933 7.60336 51.8146C7.61356 52.4165 7.73598 53.0439 8.03183 53.6662C8.55721 54.7629 9.53657 55.375 10.4088 55.8443C10.0773 56.9103 9.65389 58.4457 10.4496 59.9606C10.9699 60.9553 11.9238 61.4858 12.7807 61.8836C12.4032 63.0925 11.8982 65.3114 13.7498 66.9385C14.2497 67.3772 14.7853 67.6629 15.2648 67.8669C15.1118 68.3515 14.9791 68.8717 14.923 69.4022C14.77 70.9733 15.4382 72.3046 16.7185 72.9677L19.0853 74.197C19.8963 76.9974 21.7428 77.6758 23.3343 77.9359C23.3955 77.9461 23.472 77.9563 23.5383 77.9716C23.5791 78.0787 23.6301 78.242 23.676 78.4817C23.8495 79.3233 24.3085 80.874 25.4154 81.7972C26.5478 82.746 27.9607 82.746 28.4249 82.746C28.6493 82.746 28.8636 82.7358 29.0676 82.7256C29.695 85.327 31.5466 86.8623 34.0817 86.8623C34.1276 86.8623 34.1735 86.8623 34.2245 86.8623C34.5816 88.8313 35.8517 89.9228 36.6627 90.6115C36.979 90.8818 37.2493 91.1113 37.4483 91.3511L41.0494 95.7429C41.534 96.3346 42.2583 96.6763 43.0235 96.6763C43.0847 96.6763 43.1459 96.6763 43.2071 96.6712C46.3696 96.4417 52.1386 92.2233 54.5258 89.6525C61.6465 88.0457 68.4714 85.0516 75.3728 80.5169C80.693 77.0178 83.1975 73.9522 85.2123 71.4885C87.3802 68.8309 88.6911 67.2293 92.6391 65.9745C93.3991 65.7347 94.1898 65.5409 95.0263 65.3369C96.3933 65.0053 97.8063 64.6585 99.2294 64.0617C101.086 63.2864 102.662 62.2407 104.187 61.2358C104.953 60.7308 105.677 60.2514 106.422 59.8178C107.539 59.1649 108.156 57.9356 108.11 56.4513C108.044 54.2324 106.126 53.3194 104.789 52.8297C104.978 51.9115 105.116 50.6975 104.529 49.4478C103.892 48.0859 102.683 47.535 101.79 47.2443C102.06 46.0966 102.3 44.4388 101.122 43.0004C100.454 42.1843 99.515 41.8221 98.6887 41.5569C98.9488 40.5877 99.1835 39.2054 98.3622 37.818C97.6634 36.6346 96.5668 36.1449 95.6741 35.849C95.919 34.834 96.1128 33.4823 95.3324 32.1356C94.6335 30.9268 93.5165 30.432 92.6442 30.1616C92.8687 29.1364 93.0319 27.7795 92.2566 26.4278C91.5629 25.2189 90.4407 24.6833 89.5225 24.3824C89.6653 23.7346 89.7929 22.9389 89.6704 22.0513C89.3797 20.011 87.6964 19.2051 86.4824 18.8021C86.7375 17.5881 86.9619 15.8487 85.7581 14.4868C85.0134 13.6452 84.0799 13.2473 83.3148 13.0025C83.5597 11.9211 83.7127 10.4623 82.7741 9.09524C82.0651 8.05977 81.0603 7.6007 80.2594 7.34056L80.4686 6.26429C80.7644 4.72384 80.1166 3.15279 78.8924 2.43867C78.4129 2.15813 77.8518 2.0204 77.2142 2.0204L77.1989 2Z" fill="white"/>
<path d="M15.336 99.4307C14.6321 99.4307 14.0149 99.2573 13.4538 98.8951C12.5051 98.2932 11.4288 96.9721 11.5053 95.2429C11.6277 92.4273 13.3773 89.8718 15.8461 88.8771C16.346 88.6731 16.8459 88.571 17.3305 88.571C19.3657 88.571 20.5338 90.3053 21.2275 91.3459C21.3397 91.5142 21.5845 91.6825 21.8396 91.8611C22.4772 92.3048 23.5382 93.0394 23.3647 94.6002L23.3341 94.9165C23.2321 96.0182 23.0128 98.3187 20.7072 98.6554L17.3764 99.145C17.1774 99.1756 16.9836 99.2114 16.7898 99.2522C16.3307 99.344 15.8563 99.4358 15.336 99.4358V99.4307Z" fill="white"/>
<path d="M17.3307 89.8463C18.6161 89.8463 19.4475 90.9787 20.1667 92.055C20.8196 93.0241 22.2428 93.1669 22.0999 94.4574C21.9826 95.5337 21.9826 97.1762 20.5238 97.3904L17.193 97.8801C16.5554 97.9719 15.9382 98.1555 15.3414 98.1555C14.9333 98.1555 14.5354 98.0739 14.1427 97.824C13.4847 97.4006 12.7297 96.457 12.7807 95.3042C12.8828 93.0139 14.2753 90.8869 16.3258 90.0656C16.6931 89.9177 17.0246 89.8514 17.3358 89.8514M17.3307 87.2959C16.6829 87.2959 16.0249 87.4285 15.372 87.6938C12.4441 88.8721 10.3783 91.8815 10.2303 95.1869C10.1283 97.4567 11.5361 99.1808 12.7654 99.9714C13.5306 100.461 14.3926 100.706 15.3363 100.706C15.979 100.706 16.54 100.594 17.0348 100.497C17.2083 100.461 17.3817 100.425 17.5602 100.4L20.891 99.9102C24.1862 99.4256 24.4973 96.1203 24.6044 95.0338C24.6146 94.9318 24.6248 94.8349 24.635 94.738C24.8901 92.4273 23.2629 91.2949 22.5692 90.8155C22.4621 90.7389 22.3193 90.642 22.253 90.5859C21.5133 89.4841 20.0086 87.301 17.3307 87.301V87.2959Z" fill="white"/>
<path d="M26.9606 93.3097C26.4352 93.3097 25.8588 93.2026 25.3028 92.9986C23.39 92.2998 22.2984 88.0406 22.7269 86.5562C23.0075 85.5769 23.8032 84.2609 25.9761 83.5315C26.4556 83.3682 26.9657 83.2866 27.4809 83.2866C30.1843 83.2866 32.9133 85.633 32.9745 87.3826C33.0561 89.7545 31.5309 90.8307 29.4192 92.3202L28.7918 92.7639C28.2817 93.1261 27.6645 93.3097 26.9555 93.3097H26.9606Z" fill="white"/>
<path d="M27.4811 84.5619C29.6643 84.5619 31.6689 86.5104 31.6995 87.4234C31.7658 89.2699 30.4855 89.9841 28.0524 91.7183C27.7413 91.9428 27.3536 92.0295 26.9557 92.0295C26.5579 92.0295 26.1141 91.9326 25.7315 91.7948C24.6604 91.4021 23.6453 87.9539 23.9462 86.9032C24.3186 85.6076 25.5428 85.0108 26.3793 84.7353C26.7466 84.6129 27.1139 84.5568 27.4811 84.5568M27.4811 82.0115C26.8231 82.0115 26.1804 82.1135 25.5683 82.3226C23.4617 83.0316 22.0181 84.4089 21.4978 86.2043C20.9317 88.1682 22.1559 93.2129 24.8593 94.1973C25.5581 94.4524 26.2824 94.585 26.9557 94.585C27.9198 94.585 28.8124 94.3147 29.5316 93.7995C29.7459 93.6464 29.955 93.4985 30.1539 93.3608C32.3167 91.8357 34.357 90.3972 34.2499 87.3367C34.1581 84.7506 30.6793 82.0115 27.4811 82.0115Z" fill="white"/>
<path d="M18.7231 85.781C17.2184 85.781 15.7238 85.1128 14.7241 83.9855C13.8518 83.0062 13.4489 81.7871 13.5917 80.5476C13.862 78.1859 16.5757 76.9158 18.9883 76.9158C19.7535 76.9158 20.8246 77.0484 21.6051 77.6809C23.5332 79.2366 22.1458 82.0676 21.1358 84.1334C20.9981 84.414 20.8655 84.6843 20.7481 84.9343C20.5849 85.2811 20.2789 85.5362 19.9065 85.6331C19.5239 85.73 19.1261 85.781 18.718 85.781H18.7231Z" fill="white"/>
<path d="M18.9932 78.1909C19.743 78.1909 20.4113 78.349 20.8091 78.6704C22.1251 79.7314 20.4929 82.4756 19.5951 84.3935C19.3095 84.4649 19.0187 84.5006 18.7229 84.5006C16.6826 84.5006 14.6116 82.8225 14.8565 80.6903C15.0452 79.0581 17.2334 78.1858 18.9881 78.1858M18.9932 75.6405C16.0296 75.6405 12.6835 77.3085 12.3265 80.4047C12.1428 82.0114 12.658 83.5825 13.7751 84.8373C15.0146 86.2298 16.8662 87.0561 18.728 87.0561C19.2381 87.0561 19.7481 86.9949 20.2327 86.8674C20.9723 86.6787 21.5895 86.1686 21.9109 85.4749C22.0282 85.2249 22.1557 84.9648 22.2884 84.6945C23.3544 82.5215 25.1346 78.8846 22.4108 76.6913C21.5589 76.0078 20.3806 75.6456 18.9932 75.6456V75.6405Z" fill="white"/>
<path d="M32.9793 99.6348C32.76 99.6348 32.5305 99.6144 32.2958 99.5787C30.684 99.3237 29.6281 98.3494 29.5465 97.0385C29.4751 95.8908 30.1076 94.784 31.194 94.1515C31.7908 93.8046 32.4029 93.6312 33.015 93.6312C33.6271 93.6312 34.1729 93.7893 34.7085 94.1055C35.7695 94.7329 36.2592 96.1867 35.846 97.4976C35.4124 98.8595 34.3668 99.6399 32.9691 99.6399L32.9793 99.6348Z" fill="white"/>
<path d="M33.0255 94.9012C33.3672 94.9012 33.7192 94.9931 34.0712 95.2022C34.622 95.5286 34.8771 96.3601 34.6424 97.1099C34.4129 97.8342 33.9232 98.3647 32.9847 98.3647C32.8368 98.3647 32.6786 98.3494 32.5052 98.3239C31.5156 98.1658 30.8729 97.671 30.827 96.962C30.7862 96.3142 31.1637 95.6511 31.8421 95.2532C32.2196 95.0339 32.6174 94.9063 33.0255 94.9063M33.0255 92.3508C32.1839 92.3508 31.3524 92.5855 30.5618 93.0445C29.0571 93.9219 28.1848 95.4827 28.2817 97.115C28.399 99.0227 29.8987 100.487 32.1022 100.839C32.4032 100.885 32.699 100.91 32.9847 100.91C34.9434 100.91 36.4736 99.7776 37.0755 97.8801C37.6774 95.9877 36.9582 93.9372 35.3668 93.0037C34.6322 92.5702 33.8467 92.3508 33.0255 92.3508Z" fill="white"/>
<path d="M53.1278 87.3367C51.5874 89.474 45.3695 93.9525 43.0078 94.1208L39.4066 89.729C38.2844 88.3569 36.6573 87.9182 36.6675 85.7453C36.6675 85.4188 36.4175 84.8118 36.2186 84.5823C35.9432 84.2711 35.0658 84.215 34.5812 84.2711C32.7092 84.4905 31.7809 83.5519 31.4646 81.8126C31.3881 81.379 31.1994 80.8383 31.0515 80.568C30.5006 79.5835 28.0675 80.6955 27.0371 79.8334C26.6393 79.4968 26.3128 78.696 26.1598 77.9563C25.211 73.386 22.023 77.533 21.314 72.4831L17.8811 70.6979C16.7488 70.1113 18.126 67.9026 18.2586 66.6019C17.5445 65.7654 16.254 65.745 15.4175 65.0105C14.1116 63.8628 15.9632 61.7204 15.5603 60.6084C15.3256 59.9657 13.0762 59.4965 12.6987 58.7722C12.0815 57.599 13.4536 55.7525 13.1578 54.6813C12.9742 54.0131 10.7553 53.4724 10.3217 52.5644C9.94937 51.7789 10.235 50.7792 10.6023 49.8967C9.57191 49.3254 6.81747 49.5652 6.55733 48.2696C6.28188 46.8821 10.6737 42.9596 11.6837 42.3985C14.5911 40.7867 17.8556 40.1338 20.6458 38.2975C22.834 36.8539 24.6295 34.9717 26.5168 33.166C30.0619 29.7791 33.6784 26.8308 37.6927 24.0101C47.6444 17.0219 59.2794 16.1548 62.1767 13.5432L68.9506 7.4273C69.3943 7.02433 76.6018 4.05565 77.5863 4.62695C77.8566 4.78507 78.03 5.31046 77.9382 5.76443L77.3516 8.80962C78.132 9.75837 79.9173 9.45742 80.6467 10.5184C81.4374 11.6712 80.305 13.3187 80.4019 14.5531C81.32 15.3744 82.9727 15.2009 83.8195 16.165C84.7274 17.1903 83.1768 19.7713 83.8348 20.5109C84.4009 21.1434 86.931 21.0924 87.1197 22.4033C87.3084 23.7142 86.4617 24.9282 86.7473 26.1269C87.7267 26.7339 89.4201 26.6319 90.022 27.6878C90.6852 28.8405 89.7262 30.3249 89.7874 31.6358C90.5219 32.6253 92.4551 32.2887 93.1029 33.4058C93.7507 34.5229 92.6286 36.1296 92.8275 37.3946C93.6997 38.2311 95.5258 38.073 96.1379 39.1034C96.8214 40.2562 95.6074 41.7405 95.8727 42.8984C96.0818 43.791 98.5098 43.8573 99.1168 44.6021C100.122 45.8314 98.2905 48.1777 99.2545 48.9939C100.035 49.6519 101.703 49.4836 102.188 50.519C102.743 51.7024 101.841 53.0796 101.968 54.3701C102.698 55.0843 105.488 55.3138 105.523 56.5227C105.534 56.7981 105.508 57.3694 105.095 57.6092C102.789 58.9609 100.713 60.6544 98.2089 61.7051C96.1532 62.5672 93.9599 62.8681 91.8328 63.5414C83.0798 66.3214 84.6458 71.3457 73.9443 78.3848C67.4968 82.6236 60.7331 85.7504 53.1176 87.3418L53.1278 87.3367Z" fill="#10100E"/>
<path d="M20.5233 97.3905L17.1925 97.8802C16.1264 98.0383 15.1114 98.4413 14.1422 97.8241C13.4791 97.4007 12.7293 96.457 12.7803 95.3043C12.8823 93.014 14.2748 90.887 16.3254 90.0657C18.2127 89.3057 19.2787 90.7288 20.1714 92.0601C20.8243 93.0293 22.2474 93.1721 22.1046 94.4626C21.9873 95.5389 21.9873 97.1814 20.5284 97.3956L20.5233 97.3905Z" fill="#161511"/>
<path d="M31.7049 87.4234C31.7712 89.2699 30.4909 89.984 28.0578 91.7183C27.4202 92.1722 26.4867 92.0651 25.7369 91.7948C24.6657 91.402 23.6507 87.9539 23.9516 86.9031C24.324 85.6075 25.5482 85.0107 26.3847 84.7352C28.9402 83.8783 31.6692 86.3522 31.7049 87.4234Z" fill="#141310"/>
<path d="M19.5954 84.3986C17.3256 84.9801 14.5762 83.1336 14.8568 80.6954C15.1373 78.2572 19.4628 77.589 20.8043 78.6755C22.1458 79.762 20.4881 82.4807 19.5903 84.3986H19.5954Z" fill="#161512"/>
<path d="M32.5005 98.3188C31.5109 98.1607 30.8682 97.6659 30.8223 96.9569C30.7815 96.3091 31.159 95.646 31.8374 95.2481C32.5158 94.8503 33.2962 94.7431 34.0665 95.1971C34.6173 95.5236 34.8724 96.355 34.6377 97.1048C34.3725 97.9465 33.7604 98.5177 32.5005 98.3188Z" fill="#1C1C1B"/>
<path d="M39.2488 65.7501C37.7696 62.4855 35.6578 60.5013 33.0972 58.4508L22.6507 50.1059C19.9575 47.9533 17.2796 46.0915 14.4741 43.6635C20.3401 40.5469 27.2721 40.6744 32.9136 43.7859C33.4645 44.092 33.9337 44.1787 34.2908 43.7349C35.9792 41.6436 25.2624 39.1289 23.1557 39.4859C32.73 30.4014 40.7791 22.3829 54.0973 19.1031C56.9078 18.4094 59.4277 17.328 62.279 16.2262C61.7434 19.7101 61.7077 23.0307 63.1614 26.1779C63.3859 26.6574 64.0643 26.5401 64.3295 26.2289C65.7017 24.612 59.2389 18.0166 69.262 10.1052L74.572 19.9447L96.2046 60.0167C89.094 63.5873 82.4324 55.8596 81.3765 57.6398C80.4685 59.17 87.5893 61.8224 88.7217 62.3376C86.0743 63.6332 84.0442 65.3624 82.3405 67.5864C79.0556 71.8813 75.1739 75.1305 70.5372 77.9308C65.4925 80.976 60.4376 83.4958 54.5054 84.6639C56.0509 82.7052 59.4072 72.2587 56.8262 72.4577C56.3774 72.4934 56.0152 72.9065 55.9897 73.59C55.7857 79.1193 53.4699 84.2763 49.3433 88.0152L39.259 65.745L39.2488 65.7501Z" fill="#FBB040"/>
<path d="M90.981 34.686C91.0167 36.2009 90.0068 37.6802 90.6852 38.8329C91.3024 39.8837 93.1285 39.7409 93.9905 40.4703C93.9395 41.8985 93.2764 43.2758 93.5263 44.7754L96.8572 45.9843C97.1275 47.5043 96.4644 48.7999 96.4491 50.32L100.117 51.7227L99.5504 55.8136C100.168 56.3696 101.05 56.3696 101.846 56.9154C100.79 57.8386 99.6269 58.4813 98.2089 59.2515L78.9278 23.3877L71.2153 8.90643C72.363 8.11581 73.7555 7.94238 75.1685 7.20276L74.8369 10.049L78.6625 12.0077C78.6217 13.2574 77.6118 14.8081 78.2545 15.9558C78.8615 17.0371 80.7539 16.7821 81.7179 17.6186L81.0089 21.6177C82.0648 22.4338 83.4012 22.5766 84.6509 23.2244L84.2989 27.4785C85.3446 28.3253 86.7779 28.4222 87.9766 29.0955C87.8134 30.5798 87.0687 31.8652 87.3543 33.2628L90.9759 34.6809L90.981 34.686Z" fill="#9B8579"/>
<path d="M36.9734 82.292C36.0298 82.0829 34.3159 82.6389 33.9486 81.8023L32.4133 78.3338C31.9491 77.283 29.4752 78.5429 28.5469 77.7013C27.1696 76.4516 28.7968 73.8043 24.0173 73.3809L22.6707 70.3867C22.283 69.5247 20.5539 69.9123 19.8347 69.1931C19.9775 67.923 21.0793 66.4642 20.3294 65.291C19.7173 64.3422 18.1922 64.281 17.4016 63.4955L18.0596 59.7158C18.2483 58.6242 16.0345 58.308 15.0603 57.5734C15.0501 56.4513 15.3816 55.2577 15.907 54.2018C16.1519 53.7172 17.1669 54.0845 17.5699 54.2783C18.4268 54.6966 18.1718 56.7318 19.1001 57.5632C20.0285 58.3947 22.0637 57.9101 22.7217 58.3539C23.2369 58.7007 22.686 61.1236 23.5379 61.9704C24.2826 62.71 26.3841 62.1336 27.1288 62.7559C27.7562 63.2762 27.1645 65.5715 27.9042 66.4285C28.5571 67.1783 31.0208 66.7957 31.4339 67.3415C31.9593 68.0403 31.1891 69.7542 31.7553 71.0039C32.2194 72.0241 35.183 71.8659 35.234 72.8861C35.2952 74.0899 33.9588 75.5181 34.826 76.6352C35.4942 77.4922 36.9887 77.3646 37.8814 78.1247L36.9734 82.2971V82.292Z" fill="#F9ED32"/>
<path d="M37.6367 71.8404C37.6061 70.249 35.0965 70.3765 34.1273 69.7389C33.1581 69.1013 34.6068 66.8314 33.4081 65.7042C32.546 64.8931 30.5822 65.1686 29.9752 64.735C29.0214 64.0617 30.0415 62.0418 28.8479 61.0114C27.5115 59.8586 25.9864 60.6492 25.308 60.1392C24.6296 59.6291 25.4151 57.7214 24.2368 56.4156C23.3391 55.4158 21.4161 56.3544 20.5846 55.6351C19.947 55.0842 20.3857 51.7789 17.1722 51.9676C13.6679 52.1717 17.922 48.3818 10.082 47.0709C10.7247 46.2088 11.3164 45.5916 12.2142 44.7704C19.3145 50.0956 26.2159 55.3597 32.9439 61.144C35.0454 62.9497 36.591 64.9441 37.7285 67.4486L41.299 75.3294L47.6445 89.2852L45.2012 90.5757C45.14 89.5607 45.5378 88.6221 44.7727 88.0661C43.8801 87.4132 42.6916 87.2755 41.9418 86.4594C42.1254 85.3627 43.2884 84.0773 42.7324 82.9755C42.1764 81.8738 40.539 81.7207 39.524 81.0678C39.626 79.7161 40.5186 78.4715 40.3809 77.0229C39.3862 76.1455 38.0804 75.8701 36.9787 75.1866C36.8919 74.0746 37.6673 73.085 37.6418 71.8404H37.6367Z" fill="#9B8579"/>
<path d="M40.1466 84.0619C40.4118 84.9546 39.8456 86.0717 39.2744 86.7399C38.6163 85.5106 38.5653 84.4904 38.2134 83.2611C38.8765 83.3274 39.8456 83.5213 40.1466 84.0619Z" fill="#F9ED32"/>
<path d="M42.4623 90.9787C42.1409 90.3105 41.8706 89.7392 41.1514 88.9537C41.6614 88.6272 42.0389 89.0914 42.3348 89.2342C42.8754 89.4944 43.4263 90.2238 42.4623 90.9838V90.9787Z" fill="#F9ED32"/>
<path d="M13.25 51.7228C13.1378 52.0645 12.439 51.5136 12.4288 51.2331C12.4135 50.8199 12.3013 50.4119 12.6481 50.1007C13.0715 50.468 13.5255 50.8964 13.25 51.7177V51.7228Z" fill="#F9ED32"/>
<path d="M18.8149 95.8806C17.402 95.2736 16.4329 96.2224 15.5096 96.2071C14.3874 96.1867 14.7241 94.636 15.122 93.9423C15.632 93.0497 16.591 91.3205 17.7387 92.1621C18.6262 92.8099 19.0037 94.131 20.1361 94.6819C20.4319 94.8247 20.1361 95.5491 19.9524 95.646C19.7127 95.7735 19.3301 96.1051 18.8149 95.8857V95.8806Z" fill="#E8C45C"/>
<path d="M26.772 90.1217C26.4099 89.3515 25.9304 88.6782 25.9253 87.8315C25.9202 86.9847 27.1648 86.6022 27.7718 86.5358C28.4757 86.4593 29.7713 87.1837 29.6999 87.8876C28.9858 88.7955 27.7769 89.1424 26.772 90.1217Z" fill="#E5C56B"/>
<path d="M18.3252 82.4654C17.9375 82.6847 16.7439 81.5268 16.9837 81.0678C17.3458 80.3638 18.5649 80.3281 19.1923 80.4404C19.0342 81.032 18.8965 81.8125 18.3252 82.4654Z" fill="#D9C079"/>
<path d="M64.6762 67.3517C64.1559 67.6883 63.9264 69.2288 63.0338 69.3767C61.274 69.6725 61.5953 63.6179 59.5958 61.3837C57.1117 58.6089 41.5797 53.1765 44.2474 41.5568C42.86 40.047 37.8714 37.0987 39.116 35.6654C39.6108 35.0941 41.1104 35.7113 41.6766 35.4562C42.2428 35.2012 42.1459 33.5842 42.656 33.2527C43.3038 32.8344 44.3903 33.5587 44.9768 33.3292C45.5634 33.0997 45.3441 31.6051 46.0531 31.1613C46.7621 30.7176 48.0986 31.5847 48.578 31.1971C48.9963 30.8553 48.9504 29.5189 49.6288 29.2077C50.4041 28.8558 51.4753 29.83 51.863 29.5087C52.3883 29.07 52.373 27.8305 52.9596 27.3918C55.0867 25.8157 55.102 33.6403 56.6883 34.9564C58.2186 36.7314 60.9985 37.517 62.998 38.8432C68.4865 42.4852 74.8269 47.5503 72.8528 55.1097C73.7098 56.5991 78.9891 60.0728 77.9843 61.1899C77.3773 61.8632 75.6277 61.2358 74.9697 61.4908C74.3117 61.7459 74.7707 63.3628 73.9495 63.7913C73.2099 64.179 72.2305 63.424 71.6235 63.674C70.9808 63.9392 71.2512 65.648 70.2871 65.9948C69.4557 66.2958 68.3896 65.444 67.9764 65.648C67.5633 65.852 67.446 67.1986 66.9614 67.5608C66.2269 68.1066 65.1863 67.0252 64.6813 67.3517H64.6762Z" fill="#121511"/>
<path d="M58.4278 21.123C59.8969 20.5977 59.953 25.1731 58.9991 25.3414C57.1883 25.6577 57.7035 21.3832 58.4278 21.123Z" fill="#14312A"/>
<path d="M60.9323 76.1608C61.9167 75.1203 62.9471 80.1548 61.2383 80.2619C59.7234 80.3588 60.2998 75.2529 60.9323 76.1608Z" fill="#0D241F"/>
<path d="M65.8853 65.0717C65.0845 65.4389 63.7532 65.0155 62.7381 64.9186C62.5443 61.6592 61.213 59.471 58.5044 58.0682C52.8833 55.1557 43.4825 48.7796 46.4818 41.1437L42.6919 37.3946C43.5794 37.2212 43.6202 35.9409 44.2731 35.5787C44.8597 35.2523 45.8238 35.8695 46.5073 35.2931C46.9562 34.9105 47.1041 33.7322 47.7621 33.3752C48.211 33.1354 49.1648 33.722 49.7667 33.4568C50.2666 33.2374 50.2258 32.2173 50.7614 31.8449C51.3531 31.4317 52.5314 32.1357 53.1537 31.3807C54.9798 36.0531 53.8984 36.1245 58.2341 38.4352C63.6614 41.3273 70.0017 45.0101 71.2718 51.5545C71.8992 54.7833 68.6245 54.4109 74.3731 59.2771C72.9755 59.2771 72.9194 60.7156 72.0879 61.3736C71.6237 61.7408 70.4914 61.1899 69.9201 61.5674C69.3998 61.9091 69.4355 62.965 68.8897 63.5261C68.5786 63.8169 67.5533 63.1486 67.1095 63.2099C66.375 63.3119 66.3342 64.2249 65.8853 65.0666V65.0717Z" fill="#F9ED32"/>
</g>
</g>
<defs>
<filter id="filter0_dnn_463_1124" x="-2" y="0" width="118.112" height="113" filterUnits="userSpaceOnUse" color-interpolation-filters="sRGB">
<feFlood flood-opacity="0" result="BackgroundImageFix"/>
<feColorMatrix in="SourceAlpha" type="matrix" values="0 0 0 0 0 0 0 0 0 0 0 0 0 0 0 0 0 0 127 0" result="hardAlpha"/>
<feOffset dx="3" dy="3"/>
<feGaussianBlur stdDeviation="2.5"/>
<feComposite in2="hardAlpha" operator="out"/>
<feColorMatrix type="matrix" values="0 0 0 0 0 0 0 0 0 0 0 0 0 0 0 0 0 0 0.25 0"/>
<feBlend mode="normal" in2="BackgroundImageFix" result="effect1_dropShadow_463_1124"/>
<feBlend mode="normal" in="SourceGraphic" in2="BackgroundImageFix" result="shape"/>
<feTurbulence type="fractalNoise" baseFrequency="0.5 0.5" stitchTiles="stitch" numOctaves="3" result="noise" seed="7937" />
<feColorMatrix in="noise" type="luminanceToAlpha" result="alphaNoise" />
<feComponentTransfer in="alphaNoise" result="coloredNoise1">
<feFuncA type="discrete" tableValues="0 0 0 0 0 0 0 0 0 0 0 1 1 1 1 1 1 1 1 1 1 1 1 1 1 1 1 1 1 1 1 1 1 1 1 1 1 1 1 0 0 0 0 0 0 0 0 0 0 0 0 0 0 0 0 0 0 0 0 0 0 0 0 0 0 0 0 0 0 0 0 0 0 0 0 0 0 0 0 0 0 0 0 0 0 0 0 0 0 0 0 0 0 0 0 0 0 0 0 0 "/>
</feComponentTransfer>
<feComposite operator="in" in2="shape" in="coloredNoise1" result="noise1Clipped" />
<feComponentTransfer in="alphaNoise" result="coloredNoise2">
<feFuncA type="discrete" tableValues="0 0 0 0 0 0 0 0 0 0 0 0 0 0 0 0 0 0 0 0 0 0 0 0 0 0 0 0 0 0 0 0 0 0 0 0 0 0 0 0 0 0 0 0 0 0 0 0 0 0 0 0 0 0 0 0 0 0 0 0 0 1 1 1 1 1 1 1 1 1 1 1 1 1 1 1 1 1 1 1 1 1 1 1 1 1 1 1 1 0 0 0 0 0 0 0 0 0 0 0 "/>
</feComponentTransfer>
<feComposite operator="in" in2="shape" in="coloredNoise2" result="noise2Clipped" />
<feFlood flood-color="rgba(0, 0, 0, 0.1)" result="color1Flood" />
<feComposite operator="in" in2="noise1Clipped" in="color1Flood" result="color1" />
<feFlood flood-color="rgba(255, 255, 255, 0.1)" result="color2Flood" />
<feComposite operator="in" in2="noise2Clipped" in="color2Flood" result="color2" />
<feMerge result="effect2_noise_463_1124">
<feMergeNode in="shape" />
<feMergeNode in="color1" />
<feMergeNode in="color2" />
</feMerge>
<feTurbulence type="fractalNoise" baseFrequency="0.3333333432674408 0.3333333432674408" stitchTiles="stitch" numOctaves="3" result="noise" seed="1755" />
<feColorMatrix in="noise" type="luminanceToAlpha" result="alphaNoise" />
<feComponentTransfer in="alphaNoise" result="coloredNoise1">
<feFuncA type="discrete" tableValues="0 0 0 1 1 1 1 1 1 1 1 1 1 1 1 1 1 1 1 1 1 1 1 1 1 1 1 1 1 1 1 1 1 1 1 1 1 1 1 1 1 1 1 1 1 1 0 0 0 0 0 0 0 0 0 0 0 0 0 0 0 0 0 0 0 0 0 0 0 0 0 0 0 0 0 0 0 0 0 0 0 0 0 0 0 0 0 0 0 0 0 0 0 0 0 0 0 0 0 0 "/>
</feComponentTransfer>
<feComposite operator="in" in2="effect2_noise_463_1124" in="coloredNoise1" result="noise1Clipped" />
<feComponentTransfer in="alphaNoise" result="coloredNoise2">
<feFuncA type="discrete" tableValues="0 0 0 0 0 0 0 0 0 0 0 0 0 0 0 0 0 0 0 0 0 0 0 0 0 0 0 0 0 0 0 0 0 0 0 0 0 0 0 0 0 0 0 0 0 0 0 0 0 0 0 0 0 0 1 1 1 1 1 1 1 1 1 1 1 1 1 1 1 1 1 1 1 1 1 1 1 1 1 1 1 1 1 1 1 1 1 1 1 1 1 1 1 1 1 1 1 0 0 0 "/>
</feComponentTransfer>
<feComposite operator="in" in2="effect2_noise_463_1124" in="coloredNoise2" result="noise2Clipped" />
<feFlood flood-color="rgba(0, 0, 0, 0.1)" result="color1Flood" />
<feComposite operator="in" in2="noise1Clipped" in="color1Flood" result="color1" />
<feFlood flood-color="rgba(21, 21, 21, 0.1)" result="color2Flood" />
<feComposite operator="in" in2="noise2Clipped" in="color2Flood" result="color2" />
<feMerge result="effect3_noise_463_1124">
<feMergeNode in="effect2_noise_463_1124" />
<feMergeNode in="color1" />
<feMergeNode in="color2" />
</feMerge>
<feBlend mode="normal" in="effect3_noise_463_1124" in2="effect1_dropShadow_463_1124" result="effect3_noise_463_1124"/>
</filter>
<filter id="filter1_d_463_1124" x="2" y="0" width="114.112" height="108.91" filterUnits="userSpaceOnUse" color-interpolation-filters="sRGB">
<feFlood flood-opacity="0" result="BackgroundImageFix"/>
<feColorMatrix in="SourceAlpha" type="matrix" values="0 0 0 0 0 0 0 0 0 0 0 0 0 0 0 0 0 0 127 0" result="hardAlpha"/>
<feOffset dx="3" dy="3"/>
<feGaussianBlur stdDeviation="2.5"/>
<feComposite in2="hardAlpha" operator="out"/>
<feColorMatrix type="matrix" values="0 0 0 0 0 0 0 0 0 0 0 0 0 0 0 0 0 0 0.5 0"/>
<feBlend mode="normal" in2="BackgroundImageFix" result="effect1_dropShadow_463_1124"/>
<feBlend mode="normal" in="SourceGraphic" in2="effect1_dropShadow_463_1124" result="shape"/>
</filter>
</defs>
</svg>
