<svg width="85" height="91" viewBox="0 0 85 91" fill="none" xmlns="http://www.w3.org/2000/svg">
<g filter="url(#filter0_dnn_463_1035)">
<g filter="url(#filter1_d_463_1035)">
<path d="M28.0182 78.5729C27.4408 78.5729 26.8052 78.471 26.0774 78.2624L12.5502 74.3711C12.0844 74.2353 11.7399 73.8374 11.6817 73.3571C11.473 71.688 11.6623 69.9413 11.8369 68.2528C12.1086 65.6716 12.3658 63.2359 11.1286 61.7803C10.2212 60.7129 9.20233 59.6698 8.21739 58.6557C6.53376 56.9284 4.78706 55.1429 3.40911 53.076C3.10829 52.6247 3.14226 52.0328 3.49159 51.6204C5.90301 48.7577 7.47989 47.2827 8.52791 46.3124C9.41581 45.4875 9.72634 45.1819 9.84764 44.7986C10.0078 44.2891 9.96894 43.3284 9.90586 41.5866C9.86219 40.393 9.79912 38.7627 9.77971 36.5988C9.77971 36.0893 10.0902 35.6284 10.5706 35.4489C12.0359 34.9054 13.9524 34.6677 15.9805 34.4203C19.7796 33.9496 24.0881 33.4159 25.6067 30.8056C26.2326 29.7333 26.2035 28.2292 26.1744 26.6377C26.1453 24.959 26.1113 23.222 26.7761 21.5578C26.8682 21.3297 27.0284 21.1308 27.2321 20.9949C31.3903 18.2439 35.9996 15.5753 42.1858 12.3536C42.3605 12.2614 42.5546 12.2178 42.7486 12.2178C42.9427 12.2178 43.1223 12.2614 43.2921 12.3488C44.9466 13.1833 46.3342 14.44 47.6782 15.6578C49.4492 17.2638 51.1183 18.7824 53.0978 19.0008L62.9473 20.0925C63.3985 20.141 63.7867 20.4418 63.9468 20.8688L67.0957 29.1559C67.6343 30.5775 69.2936 31.5382 71.0452 32.562C72.559 33.445 74.1262 34.3572 75.2858 35.706C75.5672 36.036 75.6497 36.4872 75.5089 36.8947L72.0107 46.9237C71.7972 47.5399 71.6759 48.1609 71.5546 48.816C71.2684 50.3152 70.9481 52.0134 69.3324 53.5126C67.6634 55.0604 67.6245 56.8459 67.5663 59.3156C67.5227 61.2175 67.4741 63.3766 66.6396 65.8269C66.5377 66.1277 66.3194 66.3751 66.038 66.5207L49.3667 74.9146C49.1969 75.0019 49.0077 75.0456 48.8233 75.0456C48.7262 75.0456 48.6292 75.0359 48.537 75.0116C47.062 74.6525 45.6695 73.9878 44.3207 73.3522C42.7438 72.605 41.1232 71.8384 39.3717 71.5473C37.6978 72.3285 36.1597 73.5657 34.5392 74.8709C33.0739 76.0499 31.5601 77.2677 29.9007 78.1508C29.3573 78.4419 28.7314 78.5875 28.0376 78.5875L28.0182 78.5729Z" fill="white"/>
<path d="M42.7485 13.4308C46.4554 15.294 48.9687 19.7626 52.9619 20.2041L62.8113 21.2958L65.9602 29.5829C67.1684 32.7707 71.9766 33.7022 74.3638 36.4872L70.8655 46.5162C70.0989 48.719 70.4434 50.815 68.5026 52.6151C65.0044 55.861 67.3479 59.9706 65.4896 65.4242L48.8183 73.8181C45.6743 73.0515 42.8213 70.7468 39.1872 70.281C35.621 71.8045 32.7438 75.2348 29.3184 77.064C28.9157 77.2775 28.4741 77.36 28.0278 77.36C27.4843 77.36 26.9312 77.2435 26.4218 77.098L12.8945 73.2067C12.3802 69.0583 14.5588 63.925 12.0649 60.9895C9.60493 58.0929 6.54821 55.5748 4.43276 52.3968C12.618 42.6686 11.1187 49.2478 11.0023 36.5843C15.0925 35.0753 23.9618 36.0506 26.6644 31.4121C28.1782 28.8115 26.7032 25.0415 27.9162 22.0042C32.6274 18.8844 37.6103 16.1091 42.7582 13.426M30.0559 23.0231C30.1383 23.2026 30.2208 23.387 30.313 23.5859C30.5847 24.1682 30.9001 24.8183 31.2397 25.5219C31.4678 25.9876 31.7055 26.4825 31.9481 26.992C31.7055 26.4825 31.4678 25.9925 31.2397 25.5219C30.9001 24.8183 30.5847 24.1682 30.313 23.5859C30.2208 23.3919 30.1383 23.2026 30.0559 23.0231ZM49.5704 22.9503C49.9828 22.5137 50.4583 22.1255 51.0162 21.8101C50.4534 22.1255 49.9828 22.5137 49.5704 22.9503ZM42.1081 22.305C42.1081 23.6345 42.3701 24.9542 42.9523 26.2351C42.3701 24.9542 42.1129 23.6345 42.1081 22.305ZM56.7901 22.6883H56.8143C56.8143 22.6883 56.7949 22.6883 56.7901 22.6883ZM60.2058 22.6883C60.9676 22.7611 61.5304 22.9067 61.6274 23.1784C61.7973 23.6442 62.001 24.2215 62.2242 24.8571C62.2922 25.0561 62.3649 25.2647 62.4377 25.4733C62.3649 25.2647 62.297 25.0561 62.2242 24.8571C62.001 24.2215 61.7973 23.6393 61.6274 23.1784C61.5304 22.9067 60.9676 22.7611 60.2058 22.6883C60.2058 22.6883 60.1961 22.6883 60.1913 22.6883C60.1913 22.6883 60.201 22.6883 60.2058 22.6883ZM55.5577 22.7708C55.5577 22.7708 55.5722 22.7708 55.5819 22.7708C55.5722 22.7708 55.5674 22.7708 55.5577 22.7708ZM55.1938 22.7999C55.2277 22.7999 55.2665 22.7951 55.3102 22.7902C55.2665 22.7902 55.2277 22.7951 55.1938 22.7999ZM43.1027 26.5553C43.1415 26.1186 43.1755 25.6868 43.2095 25.2647C43.1804 25.6868 43.1415 26.1186 43.1027 26.5553ZM40.0314 34.1583C40.6185 31.8342 43.3793 30.6115 45.3007 29.0735C46.14 28.4039 46.732 27.4529 47.3045 26.434C47.4937 26.0944 47.683 25.7499 47.877 25.4006C47.683 25.745 47.4937 26.0944 47.3045 26.434C46.732 27.4529 46.14 28.4039 45.3007 29.0735C43.3793 30.6067 40.6185 31.8342 40.0314 34.1583ZM29.3766 27.4141C29.7308 28.0352 30.0801 28.6417 30.4149 29.2336C30.6429 29.6363 30.8613 30.0342 31.0796 30.4272C30.8661 30.0342 30.6429 29.6363 30.4149 29.2336C30.0801 28.6417 29.7356 28.0352 29.3766 27.4141C29.3766 27.4093 29.3717 27.4044 29.3669 27.3996C29.3669 27.4044 29.3717 27.4093 29.3766 27.4141ZM46.208 30.4223C46.6398 30.2428 47.0813 30.0827 47.5471 29.9517C47.0862 30.0827 46.6398 30.2428 46.208 30.4223ZM58.7696 32.0089C59.4926 31.6741 60.2689 31.4752 61.0792 31.3102C60.2737 31.4752 59.4926 31.679 58.7696 32.0089ZM58.4494 33.5033C60.1622 33.2898 61.6226 32.4601 63.2189 32.0235C61.6226 32.4601 60.1622 33.285 58.4494 33.5033ZM34.8593 33.741C34.6749 33.2316 34.476 32.727 34.277 32.2224C34.4808 32.727 34.6749 33.2316 34.8593 33.741ZM56.7901 33.4984C56.9841 33.5227 57.1782 33.5421 57.3626 33.547C57.1734 33.5373 56.9841 33.5227 56.7901 33.4984C56.9065 33.3577 57.0278 33.2316 57.1539 33.1103C57.0278 33.2316 56.9065 33.3626 56.7901 33.4984ZM49.5073 34.7842C49.5073 34.7842 49.4733 34.7842 49.4539 34.7842C49.4733 34.7842 49.4879 34.7842 49.5073 34.7842ZM51.8653 35.25C52.3166 35.4101 52.7435 35.609 53.1462 35.8468C53.1462 35.8468 53.1511 35.8468 53.1559 35.8516C53.1559 35.8516 53.1511 35.8516 53.1462 35.8468C52.7435 35.609 52.3166 35.4101 51.8653 35.25C51.5645 35.1433 51.254 35.0559 50.9338 34.9831C51.2491 35.0559 51.5645 35.1433 51.8653 35.25ZM39.9781 35.774C40.0363 36.1282 40.1333 36.5018 40.2838 36.8997C40.4584 36.4242 40.6525 35.9729 40.866 35.5508C40.6573 35.9778 40.4633 36.4242 40.2838 36.8997C40.1333 36.5018 40.0363 36.1282 39.9781 35.774C39.9781 35.774 39.9781 35.7692 39.9781 35.7643C39.9393 35.5266 39.9247 35.2985 39.9247 35.0802C39.9247 35.2985 39.9441 35.5266 39.9781 35.7643C39.9781 35.7643 39.9781 35.7692 39.9781 35.774ZM23.9715 36.0603C23.826 36.1185 23.6853 36.1767 23.5446 36.2301C23.6853 36.1767 23.8308 36.1185 23.9715 36.0603ZM36.145 38.1466C36.5575 40.1505 36.6545 42.0476 36.2227 43.639C35.8539 45.0073 35.097 46.1572 33.821 46.9674C35.097 46.1523 35.8539 45.0073 36.2227 43.639C36.6545 42.0427 36.5575 40.1505 36.145 38.1466C36.0286 37.5741 35.883 36.9918 35.7181 36.4048C35.883 36.9918 36.0237 37.5741 36.145 38.1466ZM49.0366 36.8123C48.9396 36.8123 48.8377 36.8123 48.7358 36.8172C48.8377 36.8172 48.9396 36.8123 49.0366 36.8123C49.8857 36.8123 50.6087 36.9433 51.2346 37.1714H51.2394C51.2394 37.1714 51.254 37.1762 51.2588 37.1811C51.254 37.1811 51.2443 37.1811 51.2394 37.1762H51.2346C50.6087 36.9482 49.8906 36.8172 49.0366 36.8172M46.077 37.3169C45.5966 37.4916 45.1163 37.6808 44.6165 37.8167C44.3448 37.8895 44.0634 37.9428 43.7723 37.9622C43.6753 37.9671 43.5782 37.9719 43.4812 37.9719C43.4569 37.9719 43.4327 37.9719 43.4132 37.9719C42.9863 37.9622 42.5399 37.8798 42.0596 37.6857C42.0596 37.6857 42.0547 37.6857 42.0499 37.6857C42.1663 37.5547 42.2876 37.4334 42.4138 37.3121C42.2876 37.4334 42.1663 37.5595 42.0499 37.6857C42.0499 37.6857 42.0547 37.6857 42.0596 37.6857C42.5399 37.8798 42.9863 37.9622 43.4132 37.9719C43.4375 37.9719 43.4618 37.9719 43.4812 37.9719C43.5782 37.9719 43.6753 37.9719 43.7723 37.9622C44.0634 37.938 44.3448 37.8846 44.6165 37.8167C45.1211 37.6857 45.6015 37.4916 46.077 37.3169ZM27.3339 39.5197C27.5183 39.083 27.6784 38.6318 27.8288 38.1757C27.6784 38.6367 27.5183 39.083 27.3339 39.5197ZM13.1468 43.2023C13.1468 44.2698 13.0644 45.0509 12.8897 45.6768C12.8266 45.9 12.7538 46.0989 12.6714 46.293C12.7538 46.1038 12.8315 45.9 12.8897 45.6768C13.0644 45.0509 13.1468 44.2698 13.1468 43.2023C13.1468 41.9796 13.0353 40.3834 12.8266 38.2C13.0353 40.3834 13.1468 41.9845 13.1468 43.2023ZM54.3107 40.0777C54.2088 39.8933 54.1021 39.7138 53.9953 39.5391C54.1069 39.7138 54.2137 39.8933 54.3107 40.0777ZM60.1233 40.9656C60.1816 41.0335 60.2398 41.0966 60.298 41.1548C60.2398 41.0966 60.1767 41.0335 60.1233 40.9656C61.0209 40.5871 61.9283 40.4076 62.8113 40.4076C63.937 40.4076 65.0286 40.7036 66.0087 41.2664C66.0087 41.2664 66.0136 41.2664 66.0184 41.2664C66.0184 41.2664 66.0233 41.2664 66.0282 41.2713C66.0282 41.2713 66.0233 41.2713 66.0184 41.2664C66.0184 41.2664 66.0136 41.2664 66.0087 41.2664C65.0286 40.7036 63.937 40.4076 62.8113 40.4076C61.9283 40.4076 61.0161 40.592 60.1233 40.9656ZM52.6999 40.82C52.5931 40.7618 52.4767 40.7133 52.3602 40.6745C52.1176 40.5968 51.8799 40.5338 51.6567 40.4804C51.8847 40.5338 52.1176 40.5968 52.3602 40.6745C52.4767 40.7133 52.5883 40.7618 52.6999 40.82ZM34.5973 42.1398C34.5973 43.2072 33.8549 44.0708 33.5687 45.0315C33.5007 45.2596 33.4571 45.4924 33.4571 45.735C33.4571 45.803 33.4571 45.8709 33.4668 45.9437C33.4619 45.8758 33.4571 45.803 33.4571 45.735C33.4571 45.4924 33.5007 45.2596 33.5687 45.0315C33.8549 44.0708 34.5973 43.2072 34.5973 42.1398C34.5973 42.1301 34.5973 42.1155 34.5973 42.1058C34.5924 41.7565 34.5779 41.412 34.5585 41.0723C34.5779 41.412 34.5924 41.7516 34.5973 42.1058C34.5973 42.1155 34.5973 42.1301 34.5973 42.1398ZM66.9452 41.9117C66.8772 41.8583 66.8093 41.8098 66.7462 41.7565C66.8142 41.8098 66.8821 41.8583 66.9452 41.9117ZM64.9365 42.5134C64.8055 42.4406 64.6745 42.3824 64.5435 42.3338C64.6745 42.3872 64.8055 42.4454 64.9365 42.5134ZM53.2772 43.411C53.2772 43.411 53.2821 43.4207 53.2869 43.4255C53.418 43.2897 53.5198 43.149 53.5975 43.0083C53.5247 43.149 53.4228 43.2897 53.2869 43.4255C53.2869 43.4207 53.2821 43.4158 53.2772 43.411ZM53.6169 42.9646C53.7139 42.7657 53.7624 42.5716 53.7673 42.3775C53.7673 42.5716 53.7139 42.7705 53.6169 42.9646ZM18.4355 47.4429C18.4355 47.4429 18.3966 47.4526 18.3772 47.4526C18.3772 47.4526 18.3772 47.4526 18.3724 47.4526C18.3724 47.4526 18.3724 47.4526 18.3675 47.4526C18.3675 47.4526 18.3675 47.4526 18.3724 47.4526C18.3724 47.4526 18.3724 47.4526 18.3772 47.4526C18.3772 47.4526 18.4161 47.4526 18.4355 47.4429C21.759 46.3318 24.0298 44.6579 25.5969 42.5861C24.0298 44.6628 21.7639 46.3318 18.4355 47.4429ZM45.8538 50.3832C46.1497 49.9999 46.436 49.5826 46.7126 49.1168C47.5326 47.7292 48.2312 45.9582 48.7019 43.6875C48.2312 45.9631 47.5326 47.7292 46.7126 49.1168C46.4409 49.5778 46.1497 49.9999 45.8538 50.3832ZM45.0872 44.9733C45.4705 44.7938 45.815 44.5851 46.1352 44.3522C45.815 44.5803 45.4705 44.7938 45.0872 44.9733ZM63.2334 47.6904C62.9083 47.0839 62.6075 46.4968 62.2242 46.0116C62.1175 45.8709 62.001 45.7447 61.8797 45.6234C61.7584 45.5022 61.6274 45.3954 61.4867 45.2935C61.6274 45.3906 61.7584 45.5022 61.8797 45.6234C62.001 45.7447 62.1175 45.8758 62.2242 46.0116C62.6027 46.4968 62.9083 47.079 63.2334 47.6904ZM18.0085 46.5938C18.0085 46.4143 18.0376 46.2639 18.1055 46.2154C18.0425 46.2688 18.0085 46.4143 18.0085 46.5938ZM57.6003 46.5114C58.2117 46.1863 58.8279 46.0359 59.4004 46.0359C59.5848 46.0359 59.7643 46.0504 59.939 46.0844C59.939 46.0844 59.939 46.0844 59.9438 46.0844H59.9487C59.9487 46.0844 59.9487 46.0844 59.9535 46.0844C59.9535 46.0844 59.9535 46.0844 59.9487 46.0844H59.9438C59.9438 46.0844 59.9438 46.0844 59.939 46.0844C59.7643 46.0553 59.5848 46.0359 59.4004 46.0359C58.823 46.0359 58.2117 46.1911 57.6003 46.5114ZM30.905 47.0936C30.8564 47.016 30.8128 46.9335 30.7739 46.8364C30.706 46.6812 30.6429 46.4871 30.5896 46.2348C30.6478 46.4871 30.706 46.6763 30.7739 46.8364C30.8176 46.9335 30.8613 47.0208 30.905 47.0936ZM33.7336 46.7928C33.6414 46.6132 33.5687 46.4386 33.525 46.2736C33.5687 46.4434 33.6414 46.6181 33.7336 46.7928ZM11.3322 48.0688C11.4923 47.9039 11.6427 47.7437 11.7835 47.5885C11.6427 47.7437 11.4923 47.899 11.3322 48.0688ZM68.9248 47.7729C68.9248 47.7146 68.9199 47.6613 68.9102 47.6079C68.9199 47.6613 68.9248 47.7195 68.9248 47.7729ZM48.697 49.0586C48.6485 49.1751 48.5903 49.2915 48.5369 49.4031C48.5951 49.2867 48.6485 49.1751 48.697 49.0586C48.7455 48.9422 48.7941 48.8257 48.8426 48.7093C48.7989 48.8257 48.7504 48.9422 48.697 49.0586ZM9.08577 50.4414C9.45452 50.0096 9.79416 49.6409 10.1095 49.3109C9.79416 49.6409 9.45452 50.0145 9.08577 50.4414ZM30.3373 49.4225C30.3373 49.4225 30.3373 49.4177 30.3373 49.4128C30.3373 49.4128 30.3373 49.4177 30.3373 49.4225ZM53.6411 50.3686C53.4325 50.1552 53.2045 49.9562 52.957 49.7767C52.8357 49.6894 52.7047 49.6069 52.5737 49.5244C52.7047 49.602 52.8309 49.6845 52.957 49.7767C53.2045 49.9562 53.4325 50.1503 53.6411 50.3686ZM65.4896 50.9412C65.4896 50.7471 65.4314 50.5627 65.2761 50.4366C65.4314 50.5579 65.4896 50.7471 65.4896 50.9412ZM65.3101 51.5671C65.3489 51.4991 65.3877 51.4215 65.4168 51.339C65.3877 51.4264 65.3489 51.4991 65.3101 51.5671ZM19.8522 51.5913C19.9299 51.5913 20.0026 51.601 20.0803 51.6253C20.0803 51.6253 20.0803 51.6253 20.0851 51.6253C20.0851 51.6253 20.0851 51.6253 20.0803 51.6253C20.0026 51.601 19.925 51.5913 19.8522 51.5913ZM65.1596 51.7612C65.0383 51.8582 64.9025 51.9019 64.7618 51.9019C64.6405 51.9019 64.5192 51.8727 64.4076 51.8097C64.5241 51.8679 64.6453 51.9019 64.7618 51.9019C64.9025 51.9019 65.0432 51.8582 65.1596 51.7612ZM46.2031 52.4841C46.3923 52.2997 46.5816 52.1105 46.7611 51.9213C46.5816 52.1153 46.3972 52.3046 46.2031 52.4841ZM42.5593 53.1828C43.0299 52.9256 43.5103 52.6199 43.9906 52.2512C43.5103 52.6248 43.0299 52.9305 42.5593 53.1828ZM26.7468 52.3725C26.6352 52.3725 26.5285 52.3773 26.4315 52.3919C26.4315 52.3919 26.4218 52.3919 26.4169 52.3919C26.4121 52.3919 26.4072 52.3919 26.3975 52.3919C26.4023 52.3919 26.4072 52.3919 26.4169 52.3919C26.4218 52.3919 26.4266 52.3919 26.4315 52.3919C26.5285 52.3773 26.6352 52.3725 26.7468 52.3725C26.7808 52.3725 26.8099 52.3725 26.8439 52.3725C26.8099 52.3725 26.7759 52.3725 26.7468 52.3725ZM33.8113 58.5927C31.8268 54.027 28.5857 52.4356 26.8487 52.3773C28.5857 52.4404 31.822 54.0319 33.8113 58.5927ZM41.0261 68.3791C41.6326 67.7192 42.2973 67.1806 42.9669 66.6663C43.6316 66.152 44.2963 65.662 44.8979 65.1088C45.2958 64.7401 45.6694 64.3422 45.9896 63.891C48.3477 60.5917 49.3084 56.5791 49.6674 52.4841C49.3084 56.584 48.3477 60.5965 45.9896 63.891C45.6646 64.3422 45.2958 64.7401 44.8979 65.1088C44.2963 65.662 43.6316 66.1472 42.9669 66.6663C42.3022 67.1806 41.6326 67.724 41.0261 68.3791ZM19.4592 53.1003C20.0415 53.8184 20.4587 54.5559 20.745 55.3128C20.4587 54.5559 20.0415 53.8135 19.4592 53.1003ZM26.15 53.7893C25.9366 53.6243 25.7619 53.3671 25.694 53.1585C25.7667 53.372 25.9366 53.6243 26.15 53.7893ZM12.846 53.8135C12.9819 53.9154 13.1129 54.0125 13.2439 54.1143C13.1177 54.0173 12.9867 53.9154 12.846 53.8135ZM26.2422 53.8572C26.2422 53.8572 26.2422 53.8572 26.2374 53.8572C26.2374 53.8572 26.2374 53.8572 26.2422 53.8572ZM39.5996 54.3375C39.949 54.2356 40.342 54.1192 40.7641 53.9688C40.342 54.1143 39.949 54.2356 39.5996 54.3375ZM9.12459 54.3181C10.6093 56.3948 11.7446 57.7727 12.6131 58.7674C11.7446 57.7727 10.6093 56.3899 9.12459 54.3181C9.22648 54.2211 9.33322 54.1532 9.44482 54.0949C9.33807 54.1532 9.23133 54.2211 9.12459 54.3181ZM15.4079 55.24C15.4758 55.2448 15.5486 55.2497 15.6213 55.2497C15.8833 55.2497 16.1745 55.2157 16.4995 55.1381C16.5141 55.1381 16.5287 55.1333 16.5432 55.1284C16.5432 55.1284 16.5432 55.1284 16.5481 55.1284C16.6985 55.0896 16.8489 54.9925 16.9993 54.8518C16.9993 54.8518 17.0041 54.847 17.009 54.8421C17.009 54.8421 17.0041 54.847 16.9993 54.8518C16.8489 54.9925 16.7033 55.0896 16.5481 55.1284C16.5481 55.1284 16.5481 55.1284 16.5432 55.1284C16.5287 55.1284 16.5141 55.1381 16.4995 55.1381C16.1696 55.2157 15.8833 55.2497 15.6213 55.2497C15.5486 55.2497 15.4758 55.2497 15.4079 55.24C15.2429 55.2254 15.0876 55.2012 14.9421 55.1624C14.7965 55.1236 14.6607 55.0702 14.5297 55.012C14.2676 54.8907 14.0299 54.7305 13.7922 54.5462C14.0299 54.7257 14.2725 54.8858 14.5297 55.012C14.6607 55.075 14.7965 55.1236 14.9421 55.1624C15.0876 55.2012 15.2429 55.2303 15.4079 55.24ZM47.8576 55.0508C47.8867 54.9731 47.911 54.8955 47.9401 54.8179C47.911 54.8955 47.8819 54.9731 47.8576 55.0508ZM52.8697 55.6573C52.729 55.6573 52.5592 55.7689 52.4233 55.9532V55.9629C52.4233 55.9629 52.4233 55.9581 52.4233 55.9532C52.5592 55.7689 52.7241 55.6573 52.8697 55.6573C52.8697 55.6573 52.8939 55.6573 52.9085 55.6573C52.8939 55.6573 52.8842 55.6573 52.8697 55.6573ZM39.3085 56.0309C39.4638 56.0309 39.6287 56.0115 39.7986 55.992C39.6287 56.0163 39.4589 56.0309 39.3085 56.0309ZM59.1141 57.3603C59.1141 57.4476 59.1141 57.5301 59.119 57.6174C59.1287 57.9086 59.1724 58.1948 59.2354 58.4762C59.1724 58.1948 59.1335 57.9086 59.119 57.6174C59.119 57.5301 59.1141 57.4476 59.1141 57.3603ZM53.6751 57.7436C53.6751 57.7436 53.6751 57.7436 53.6751 57.7387C53.6751 57.7387 53.6751 57.7387 53.6751 57.7436ZM22.9914 58.1123C22.9914 58.1123 22.9914 58.0978 22.9914 58.0929C22.9914 58.0978 22.9914 58.1075 22.9914 58.1123ZM34.8641 61.9502C34.8641 61.9502 34.8641 61.9648 34.8641 61.9696C34.8641 61.9648 34.8641 61.9551 34.8641 61.9502ZM32.1956 67.8162C32.1956 66.9477 31.9336 66.0744 31.3659 65.2593C31.9384 66.0695 32.1956 66.9477 32.1956 67.8162ZM29.8909 72.1053C30.0947 71.2417 30.313 70.412 30.5168 69.5823C30.313 70.412 30.0947 71.2368 29.8909 72.1053ZM18.6198 69.9802C18.7072 69.922 18.7897 69.8589 18.8673 69.791C18.7848 69.854 18.7023 69.9171 18.6198 69.9802ZM42.7485 11.0049C42.3652 11.0049 41.9771 11.097 41.6277 11.2814C35.4027 14.5274 30.7594 17.2105 26.5673 19.9858C26.1549 20.2575 25.8347 20.6505 25.6551 21.1114C24.8982 23.0037 24.9371 24.9493 24.9662 26.6621C24.9904 28.0788 25.0147 29.4131 24.5635 30.1943C23.3456 32.2855 19.3573 32.7804 15.8348 33.217C13.7339 33.479 11.7495 33.7265 10.1532 34.3136C9.19252 34.6678 8.55691 35.5896 8.56662 36.6134C8.58602 38.7919 8.6491 40.4367 8.69277 41.6352C8.74129 42.9355 8.7898 44.163 8.69277 44.4444C8.61514 44.5803 8.12994 45.0315 7.70782 45.4245C6.6404 46.4192 5.02955 47.9184 2.56962 50.8393C1.87579 51.6641 1.80786 52.848 2.4095 53.7456C3.85053 55.9047 5.63119 57.7339 7.35848 59.5C8.37739 60.5432 9.33808 61.5281 10.2163 62.5616C11.1187 63.6241 10.8858 65.8075 10.6432 68.1219C10.4589 69.8783 10.2648 71.6978 10.488 73.5027C10.6093 74.4682 11.2886 75.2688 12.225 75.5357L25.7522 79.4269C26.5916 79.6695 27.3339 79.786 28.0278 79.786C28.9205 79.786 29.7405 79.5919 30.4634 79.2037C32.2247 78.2673 33.7822 77.0106 35.2911 75.7977C36.7418 74.6332 38.1198 73.5221 39.5414 72.7943C40.9824 73.0951 42.3555 73.7453 43.7966 74.4294C45.1988 75.0941 46.6543 75.7831 48.2458 76.1713C48.435 76.2198 48.6291 76.2392 48.8232 76.2392C49.2016 76.2392 49.5752 76.1519 49.9149 75.982L66.5861 67.5882C67.1538 67.3019 67.5856 66.807 67.7894 66.2054C68.687 63.5805 68.7404 61.2273 68.7792 59.3302C68.8374 56.8023 68.9199 55.536 70.1572 54.3861C72.064 52.6151 72.4424 50.6258 72.7481 49.0295C72.8645 48.4182 72.9761 47.8408 73.1605 47.3071L76.6588 37.2781C76.945 36.463 76.7703 35.5557 76.2124 34.9007C74.9218 33.3966 73.1896 32.3874 71.6613 31.4994C70.0989 30.5921 68.6239 29.7333 68.2358 28.7144L65.0869 20.4273C64.7618 19.5782 63.9903 18.9766 63.0879 18.8796L53.2384 17.7879C51.6518 17.6132 50.1914 16.2886 48.5029 14.7506C47.1007 13.4793 45.6549 12.1645 43.8499 11.2572C43.5054 11.0825 43.1318 11 42.7582 11L42.7485 11.0049Z" fill="white"/>
<path d="M39.1822 70.2858C35.616 71.8093 32.7388 75.2396 29.3133 77.0688C28.4303 77.5394 27.3435 77.3648 26.4167 77.0979L12.8895 73.2067C12.3752 69.0583 14.5537 63.9249 12.0598 60.9895C9.56594 58.0541 6.54318 55.5747 4.42773 52.3967C12.613 42.6685 11.1137 49.2478 10.9973 36.5842C15.0874 35.0753 23.9568 36.0505 26.6593 31.412C28.1731 28.8114 26.6981 25.0414 27.9111 22.0041C32.6224 18.8843 37.6053 16.109 42.7532 13.4259C46.4601 15.289 48.9734 19.7577 52.9666 20.1992L62.816 21.2909L65.9649 29.578C67.173 32.7657 71.9813 33.6973 74.3685 36.4823L70.8702 46.5113C70.1036 48.7141 70.4481 50.8101 68.5073 52.6102C65.0042 55.8561 67.3526 59.9657 65.4943 65.4193L48.823 73.8132C45.6789 73.0465 42.826 70.7419 39.1919 70.2761L39.1822 70.2858ZM61.6273 23.1783C61.3119 22.3098 56.1737 22.7174 55.1936 22.8047C54.9267 22.829 54.6308 22.892 54.3639 22.8726C53.7768 22.8338 52.8792 22.5136 52.2096 23.0522C49.9244 24.891 48.2456 27.3025 47.5469 29.9516C44.2039 30.9074 41.6955 33.1005 40.2836 36.8996C38.6921 32.6202 42.7387 31.1209 45.3053 29.0734C47.5421 27.2879 48.0273 23.484 51.0209 21.8101L42.9133 15.6578L30.0605 23.023C32.6466 28.7532 40.6329 42.6297 33.8305 46.9674C32.6757 45.0266 34.6311 43.8427 34.602 42.1057C34.5146 36.2591 32.2439 32.4213 29.3716 27.3995C28.8476 36.23 28.1198 44.2066 18.445 47.4429C18.0423 47.5787 17.9016 46.3803 18.1102 46.2153L19.1679 45.3711C22.8263 42.4502 26.4458 39.4517 26.5235 34.7308C21.6327 37.8748 17.7463 37.0306 12.8361 38.1999C13.8842 49.1168 12.4383 45.439 7.27097 52.8043C13.8745 51.9309 13.0011 56.0065 16.5721 55.1283C17.8385 54.8178 18.9399 50.2473 20.6284 51.9843C25.1407 56.6227 22.3265 64.1141 19.5658 69.0194C18.8234 70.3343 17.0525 70.4702 16.2859 72.0568L28.1683 75.4483C32.2294 72.8234 35.7228 69.9316 39.4345 66.9962C41.3316 65.4969 43.6314 64.478 45.2326 62.6246C47.3237 60.2035 47.0909 53.7164 49.6818 52.4889C49.3227 56.5888 48.3621 60.6013 46.004 63.8958C44.7134 65.7007 42.6513 66.6274 41.0405 68.3838L48.168 71.392C50.3368 66.5741 51.2538 61.5766 52.2242 56.4578C52.3164 55.9677 52.6706 55.6281 52.9229 55.6669C55.344 56.0259 51.3606 67.5202 50.7783 70.4653L63.9174 63.9686L64.9411 54.0269L68.7548 48.3259C69.4535 47.2827 67.9396 46.3948 67.4593 45.4487C64.7762 40.1844 61.996 43.1489 60.1377 40.9704C63.6166 39.5099 67.2701 40.951 69.075 44.653L72.1317 37.2732L64.8635 31.7565C62.0397 31.8681 59.9194 33.9156 56.7996 33.5032C58.687 31.2859 61.3895 31.4023 64.0775 30.7037C63.5729 28.7289 62.3114 25.0317 61.637 23.1783H61.6273ZM15.0341 71.2028C16.9166 70.4265 18.1102 68.9806 18.8234 67.1223C20.6041 62.4839 22.9379 57.3699 19.4639 53.1002C18.4595 53.6291 19.1388 54.7353 18.5808 55.2982C14.7866 59.1215 11.2544 52.3142 9.12927 54.3229C16.4314 64.5362 15.3495 57.9473 15.0341 71.2077V71.2028Z" fill="#212423"/>
<path d="M18.8187 67.1223C20.5994 62.4839 22.9331 57.3699 19.4591 53.1002C18.4548 53.6291 19.1341 54.7353 18.5761 55.2981C14.7819 59.1215 11.2497 52.3142 9.12451 54.3229C16.4267 64.5362 15.3398 57.9473 15.0293 71.2077C16.9119 70.4314 18.1055 68.9855 18.8187 67.1272V67.1223Z" fill="#E6E7E8"/>
<path d="M69.0604 44.6481L72.1172 37.2684L64.8489 31.7517C62.0251 31.8633 59.9048 33.9157 56.785 33.4984C58.6724 31.2811 61.375 31.3975 64.0629 30.6988C63.5583 28.7241 62.2968 25.0269 61.6224 23.1735C61.307 22.305 56.1688 22.7077 55.1887 22.7999C54.9219 22.8241 54.6259 22.8872 54.3591 22.8678C53.772 22.829 52.8744 22.5087 52.2048 23.0473C49.9195 24.8862 48.2408 27.2976 47.5421 29.9468C44.1991 30.9026 41.6906 33.0957 40.2787 36.8948C38.6873 32.6153 42.7338 31.1161 45.3005 29.0686C47.5372 27.2831 48.0224 23.4791 51.0161 21.8052L42.9085 15.653L30.0557 23.0182C32.6418 28.7483 40.6281 42.6249 33.8256 46.9625C32.6709 45.0218 34.6262 43.8379 34.5971 42.1009C34.5098 36.2543 32.2391 32.4164 29.3667 27.3947C28.8427 36.2252 28.1149 44.2018 18.4401 47.438C18.0374 47.5739 17.8967 46.3754 18.1053 46.2105L19.1631 45.3662C22.8214 42.4454 26.441 39.4469 26.5186 34.7259C21.6279 37.87 17.7415 37.0258 12.8313 38.1951C13.8793 49.1119 12.4334 45.4342 7.26611 52.7994C13.8696 51.9261 12.9963 56.0017 16.5673 55.1235C17.8336 54.813 18.935 50.2424 20.6235 51.9794C25.1358 56.6179 22.3217 64.1093 19.5609 69.0146C18.8186 70.3295 17.0476 70.4653 16.281 72.0519L28.1634 75.4434C32.2245 72.8185 35.7179 69.9268 39.4296 66.9913C41.3267 65.4921 43.6266 64.4732 45.2277 62.6197C47.3189 60.1986 47.086 53.7116 49.6769 52.484C49.3179 56.5839 48.3572 60.5965 45.9992 63.8909C44.7085 65.6959 42.6465 66.6226 41.0356 68.379L48.1631 71.3872C50.3319 66.5692 51.249 61.5717 52.2193 56.4529C52.3115 55.9629 52.6657 55.6232 52.918 55.6621C55.3391 56.0211 51.3557 67.5154 50.7735 70.4605L63.9125 63.9637L64.9363 54.0221L68.7499 48.3211C69.4486 47.2779 67.9348 46.39 67.4544 45.4439C64.7713 40.1795 61.9912 43.1441 60.1329 40.9655C63.6117 39.5051 67.2652 40.9461 69.0701 44.6481H69.0604ZM43.3063 16.7738C43.4519 20.0148 43.4179 23.0619 43.1026 26.5553C41.5111 23.3821 42.0254 19.9324 43.3063 16.7738ZM30.2255 42.3241C30.5409 49.9756 31.2735 44.7306 32.7291 52.0571C31.5452 52.9886 26.8437 43.8718 30.2255 42.3241ZM29.8907 72.1053C30.4341 69.8006 31.06 67.7531 31.3657 65.264C32.9814 67.5639 32.1226 70.3634 29.8907 72.1053ZM34.1604 62.5809C31.6083 62.6634 33.8596 56.5209 26.3828 53.9202C25.98 53.7795 25.6259 53.2167 25.655 52.9401C25.8005 51.4457 32.666 52.3918 34.8494 61.7804C34.9707 62.2995 34.4758 62.5664 34.1604 62.5809ZM37.9692 55.4098C37.1686 53.6194 46.1932 55.8125 48.7017 43.6875C52.2339 51.2371 39.2161 58.1802 37.9692 55.4098ZM48.8909 42.1397C47.513 43.0276 46.6202 44.2551 45.0821 44.9684C46.7706 41.7758 48.4639 39.4178 52.3552 40.6744C53.4711 41.0335 54.3396 42.3289 53.2819 43.4255C52.2727 41.6982 50.5018 41.0965 48.8861 42.1397H48.8909ZM54.8928 56.2783C53.4566 54.124 52.9811 51.9309 52.5735 49.5292C54.6841 50.781 55.6885 53.3913 54.8928 56.2783ZM59.1188 57.6174C59.0218 55.1089 60.3609 52.6539 61.865 51.0187C62.3599 53.7504 59.473 55.2205 60.1037 57.7969C60.5744 59.7231 62.5734 61.0235 62.8014 63.071C61.113 61.9453 59.2061 59.956 59.114 57.6174H59.1188ZM65.2759 50.4365C65.6932 50.7713 65.4166 51.5525 65.1595 51.7562C64.7859 52.0571 64.2182 51.8678 63.9513 51.339L62.1852 47.8359C61.3119 46.1037 59.4633 45.5264 57.6001 46.5064C54.4755 43.4255 55.3925 35.6187 47.314 36.9627C45.6401 37.2392 44.1506 38.5396 42.0497 37.6808C45.8148 33.5566 53.5391 33.741 55.6303 38.6512L58.2988 44.9296C63.1314 43.8961 62.4424 48.1852 65.2759 50.4365Z" fill="#E6E7E8"/>
<path d="M63.951 51.3439L62.1849 47.8408C61.3115 46.1087 59.4629 45.5313 57.5998 46.5114C54.4751 43.4304 55.3922 35.6236 47.3137 36.9676C45.6398 37.2442 44.1502 38.5445 42.0493 37.6857C45.8144 33.5615 53.5387 33.7459 55.6299 38.6561L58.2985 44.9345C63.131 43.901 62.442 48.1901 65.2756 50.4414C65.6928 50.7762 65.4163 51.5574 65.1591 51.7612C64.7855 52.062 64.2178 51.8728 63.951 51.3439Z" fill="#212423"/>
<path d="M48.7015 43.6874C52.2337 51.237 39.216 58.1801 37.969 55.4097C37.1685 53.6193 46.1931 55.8124 48.7015 43.6874Z" fill="#212423"/>
<path d="M34.1604 62.5808C31.6083 62.6633 33.8596 56.5208 26.3828 53.9201C25.9849 53.7794 25.6259 53.2166 25.655 52.94C25.8005 51.4456 32.666 52.3918 34.8494 61.7803C34.9707 62.2994 34.4758 62.5663 34.1604 62.5808Z" fill="#212423"/>
<path d="M30.2256 42.3242C30.5409 49.9757 31.2687 44.7259 32.7292 52.0572C31.5453 52.9888 26.8438 43.872 30.2256 42.3242Z" fill="#212423"/>
<path d="M60.109 57.7968C60.5797 59.7231 62.5787 61.0234 62.8067 63.0709C61.1182 61.9452 59.2114 59.956 59.1192 57.6173C59.0222 55.1089 60.3613 52.6538 61.8654 51.0187C62.3603 53.7503 59.4734 55.2205 60.1042 57.7968H60.109Z" fill="#212423"/>
<path d="M53.2867 43.4303C52.2775 41.703 50.5065 41.1014 48.8908 42.1446C47.5129 43.0325 46.6201 44.26 45.082 44.9733C46.7705 41.7807 48.4638 39.4226 52.3551 40.6793C53.471 41.0383 54.3395 42.3289 53.2818 43.4303H53.2867Z" fill="#212423"/>
<path d="M43.1026 26.5552C41.5112 23.382 42.0255 19.9323 43.3064 16.7737C43.4519 20.0148 43.418 23.0618 43.1026 26.5552Z" fill="#212423"/>
<path d="M54.8925 56.2782C53.4563 54.124 52.9808 51.9309 52.5732 49.5292C54.6838 50.781 55.6882 53.3913 54.8925 56.2782Z" fill="#212423"/>
<path d="M29.8906 72.1053C30.434 69.8006 31.0599 67.7531 31.3656 65.264C32.9813 67.5639 32.1225 70.3634 29.8906 72.1053Z" fill="#212423"/>
</g>
</g>
<defs>
<filter id="filter0_dnn_463_1035" x="0" y="-2" width="85" height="101" filterUnits="userSpaceOnUse" color-interpolation-filters="sRGB">
<feFlood flood-opacity="0" result="BackgroundImageFix"/>
<feColorMatrix in="SourceAlpha" type="matrix" values="0 0 0 0 0 0 0 0 0 0 0 0 0 0 0 0 0 0 127 0" result="hardAlpha"/>
<feOffset dx="3" dy="3"/>
<feGaussianBlur stdDeviation="2.5"/>
<feComposite in2="hardAlpha" operator="out"/>
<feColorMatrix type="matrix" values="0 0 0 0 0 0 0 0 0 0 0 0 0 0 0 0 0 0 0.25 0"/>
<feBlend mode="normal" in2="BackgroundImageFix" result="effect1_dropShadow_463_1035"/>
<feBlend mode="normal" in="SourceGraphic" in2="BackgroundImageFix" result="shape"/>
<feTurbulence type="fractalNoise" baseFrequency="0.5 0.5" stitchTiles="stitch" numOctaves="3" result="noise" seed="7937" />
<feColorMatrix in="noise" type="luminanceToAlpha" result="alphaNoise" />
<feComponentTransfer in="alphaNoise" result="coloredNoise1">
<feFuncA type="discrete" tableValues="0 0 0 0 0 0 0 0 0 0 0 1 1 1 1 1 1 1 1 1 1 1 1 1 1 1 1 1 1 1 1 1 1 1 1 1 1 1 1 0 0 0 0 0 0 0 0 0 0 0 0 0 0 0 0 0 0 0 0 0 0 0 0 0 0 0 0 0 0 0 0 0 0 0 0 0 0 0 0 0 0 0 0 0 0 0 0 0 0 0 0 0 0 0 0 0 0 0 0 0 "/>
</feComponentTransfer>
<feComposite operator="in" in2="shape" in="coloredNoise1" result="noise1Clipped" />
<feComponentTransfer in="alphaNoise" result="coloredNoise2">
<feFuncA type="discrete" tableValues="0 0 0 0 0 0 0 0 0 0 0 0 0 0 0 0 0 0 0 0 0 0 0 0 0 0 0 0 0 0 0 0 0 0 0 0 0 0 0 0 0 0 0 0 0 0 0 0 0 0 0 0 0 0 0 0 0 0 0 0 0 1 1 1 1 1 1 1 1 1 1 1 1 1 1 1 1 1 1 1 1 1 1 1 1 1 1 1 1 0 0 0 0 0 0 0 0 0 0 0 "/>
</feComponentTransfer>
<feComposite operator="in" in2="shape" in="coloredNoise2" result="noise2Clipped" />
<feFlood flood-color="rgba(0, 0, 0, 0.1)" result="color1Flood" />
<feComposite operator="in" in2="noise1Clipped" in="color1Flood" result="color1" />
<feFlood flood-color="rgba(255, 255, 255, 0.1)" result="color2Flood" />
<feComposite operator="in" in2="noise2Clipped" in="color2Flood" result="color2" />
<feMerge result="effect2_noise_463_1035">
<feMergeNode in="shape" />
<feMergeNode in="color1" />
<feMergeNode in="color2" />
</feMerge>
<feTurbulence type="fractalNoise" baseFrequency="0.3333333432674408 0.3333333432674408" stitchTiles="stitch" numOctaves="3" result="noise" seed="1755" />
<feColorMatrix in="noise" type="luminanceToAlpha" result="alphaNoise" />
<feComponentTransfer in="alphaNoise" result="coloredNoise1">
<feFuncA type="discrete" tableValues="0 0 0 1 1 1 1 1 1 1 1 1 1 1 1 1 1 1 1 1 1 1 1 1 1 1 1 1 1 1 1 1 1 1 1 1 1 1 1 1 1 1 1 1 1 1 0 0 0 0 0 0 0 0 0 0 0 0 0 0 0 0 0 0 0 0 0 0 0 0 0 0 0 0 0 0 0 0 0 0 0 0 0 0 0 0 0 0 0 0 0 0 0 0 0 0 0 0 0 0 "/>
</feComponentTransfer>
<feComposite operator="in" in2="effect2_noise_463_1035" in="coloredNoise1" result="noise1Clipped" />
<feComponentTransfer in="alphaNoise" result="coloredNoise2">
<feFuncA type="discrete" tableValues="0 0 0 0 0 0 0 0 0 0 0 0 0 0 0 0 0 0 0 0 0 0 0 0 0 0 0 0 0 0 0 0 0 0 0 0 0 0 0 0 0 0 0 0 0 0 0 0 0 0 0 0 0 0 1 1 1 1 1 1 1 1 1 1 1 1 1 1 1 1 1 1 1 1 1 1 1 1 1 1 1 1 1 1 1 1 1 1 1 1 1 1 1 1 1 1 1 0 0 0 "/>
</feComponentTransfer>
<feComposite operator="in" in2="effect2_noise_463_1035" in="coloredNoise2" result="noise2Clipped" />
<feFlood flood-color="rgba(0, 0, 0, 0.1)" result="color1Flood" />
<feComposite operator="in" in2="noise1Clipped" in="color1Flood" result="color1" />
<feFlood flood-color="rgba(21, 21, 21, 0.1)" result="color2Flood" />
<feComposite operator="in" in2="noise2Clipped" in="color2Flood" result="color2" />
<feMerge result="effect3_noise_463_1035">
<feMergeNode in="effect2_noise_463_1035" />
<feMergeNode in="color1" />
<feMergeNode in="color2" />
</feMerge>
<feBlend mode="normal" in="effect3_noise_463_1035" in2="effect1_dropShadow_463_1035" result="effect3_noise_463_1035"/>
</filter>
<filter id="filter1_d_463_1035" x="0" y="9" width="84.7944" height="78.786" filterUnits="userSpaceOnUse" color-interpolation-filters="sRGB">
<feFlood flood-opacity="0" result="BackgroundImageFix"/>
<feColorMatrix in="SourceAlpha" type="matrix" values="0 0 0 0 0 0 0 0 0 0 0 0 0 0 0 0 0 0 127 0" result="hardAlpha"/>
<feOffset dx="3" dy="3"/>
<feGaussianBlur stdDeviation="2.5"/>
<feComposite in2="hardAlpha" operator="out"/>
<feColorMatrix type="matrix" values="0 0 0 0 0 0 0 0 0 0 0 0 0 0 0 0 0 0 0.5 0"/>
<feBlend mode="normal" in2="BackgroundImageFix" result="effect1_dropShadow_463_1035"/>
<feBlend mode="normal" in="SourceGraphic" in2="effect1_dropShadow_463_1035" result="shape"/>
</filter>
</defs>
</svg>
