<svg width="77" height="114" viewBox="0 0 77 114" fill="none" xmlns="http://www.w3.org/2000/svg">
<g filter="url(#filter0_dnn_535_747)">
<g filter="url(#filter1_d_535_747)">
<path d="M30.2443 103.92C27.5726 103.92 25.019 103.02 22.6427 101.239C21.484 101.616 20.3209 101.807 19.1713 101.807C15.4637 101.807 12.1877 99.812 10.193 96.3361C8.26645 92.9874 7.78027 89.2298 7.53946 85.6675C6.69433 73.236 7.49402 44.1337 9.42963 32.5018C10.0567 28.7396 11.6288 25.8998 14.3777 23.5553C17.581 20.8245 20.8479 18.5072 24.3102 16.0582C25.0917 15.5039 25.8732 14.9495 26.6638 14.3861C26.6775 14.1635 26.6184 13.7636 26.5775 13.5001C26.5275 13.1593 26.4776 12.8049 26.473 12.4505C26.473 12.0915 26.6411 11.7508 26.9274 11.5327C27.7316 10.9329 27.7998 9.88785 27.8179 8.24303C27.8407 6.212 27.8725 3.13593 32.03 3.13593L42.9575 3.17228C44.2207 3.17228 45.2657 3.74933 45.8246 4.28094C47.0423 5.44867 46.9696 6.86176 46.906 8.11127C46.8424 9.28354 46.7879 10.3922 47.6739 11.5781C48.1964 12.2778 48.1601 13.0912 48.1282 13.7409C48.1192 13.9499 48.1101 14.1544 48.1192 14.3316L55.0937 18.38C58.1653 20.1657 59.9328 22.7465 60.4962 26.2769L64.1039 48.8727C64.5491 51.6625 65.1853 53.7754 65.7987 55.82C66.6801 58.7598 67.5162 61.536 67.4889 65.5844L67.3799 83.173C67.3571 87.1533 66.9573 90.7428 66.1667 94.1461C65.1307 98.608 60.8915 103.924 46.6152 103.924L30.2488 103.92H30.2443Z" fill="#FCFCFC"/>
<path d="M32.0253 4.27185H32.048L42.9484 4.3082C43.8435 4.3082 44.6295 4.71713 45.0339 5.0988C46.815 6.80723 44.6023 9.37441 46.756 12.2551C47.2694 12.9412 46.756 14.0953 47.0922 15.054L54.5075 19.3614C57.261 20.9608 58.8513 23.2645 59.3602 26.4541L62.9679 49.0499C64.0811 56.0199 66.3802 58.9961 66.3393 65.5753L66.2302 83.1639C66.2075 86.8443 65.8713 90.3521 65.0489 93.8825C63.2541 101.598 53.3716 102.784 46.6015 102.784H30.2397C27.4771 102.779 25.0099 101.711 22.8425 99.9574C21.593 100.435 20.3571 100.666 19.1667 100.666C15.9043 100.666 12.9873 98.9305 11.1698 95.7636C9.40229 92.6875 8.91157 89.2525 8.66167 85.5857C7.8438 73.5404 8.58897 44.3881 10.5382 32.6835C11.1107 29.244 12.5147 26.6223 15.1001 24.414C19.0849 21.0199 23.2969 18.1801 27.5907 15.0995C28.0178 14.4179 27.5998 13.3002 27.5952 12.4323C30.6395 10.1514 26.7001 4.26276 32.0162 4.26276M32.0253 2C29.2128 2 27.9315 3.32222 27.3499 4.43088C26.7092 5.65313 26.6956 7.02077 26.6819 8.2294C26.6683 9.45165 26.6274 10.3377 26.2457 10.6239C25.6687 11.0556 25.3325 11.7371 25.337 12.4596C25.337 12.8958 25.4006 13.3047 25.4506 13.6682C25.4597 13.7182 25.4688 13.7772 25.4733 13.8409C24.8645 14.2771 24.2556 14.7042 23.6513 15.1358C20.1708 17.603 16.8812 19.934 13.637 22.6965C10.6745 25.2228 8.97972 28.2807 8.30726 32.3201C6.35801 44.0155 5.55832 73.2632 6.40345 85.7493C6.65335 89.4479 7.16679 93.3554 9.20691 96.9041C11.4106 100.743 15.0456 102.947 19.1712 102.947C20.2526 102.947 21.3431 102.793 22.4336 102.493C24.8781 104.197 27.4998 105.055 30.2442 105.06H46.5879C61.632 105.065 66.1348 99.2668 67.2662 94.405C68.075 90.92 68.4839 87.2487 68.5066 83.1821L68.6157 65.5935C68.6429 61.3769 67.7842 58.519 66.8754 55.4974C66.2711 53.4891 65.6486 51.4126 65.217 48.7001L61.6093 26.1043C60.9959 22.2694 58.9921 19.3433 55.6571 17.4031L49.2641 13.6909C49.3004 12.9458 49.3141 11.878 48.578 10.9011C47.9646 10.0832 47.9691 9.40621 48.0373 8.17487C48.11 6.83449 48.2054 4.9943 46.6106 3.46762C45.8972 2.78152 44.5614 2.04998 42.962 2.04544L32.0617 2.0091H32.0299L32.0253 2Z" fill="white"/>
<path d="M65.0533 93.887C63.2585 101.611 53.3578 102.788 46.5877 102.788H30.2441C27.4815 102.784 25.0143 101.716 22.8469 99.962C18.1851 101.752 13.6551 100.089 11.1742 95.7727C9.4067 92.6966 8.91598 89.2616 8.66608 85.5948C7.84822 73.5495 8.59338 44.3972 10.5426 32.6926C11.1151 29.2531 12.5191 26.6313 15.1045 24.4231C19.0893 21.029 23.3013 18.1892 27.5951 15.1085C28.0222 14.427 27.6042 13.3092 27.5996 12.4414C30.6485 10.1559 26.6909 4.25366 32.0434 4.27183L42.9437 4.30819C43.8388 4.30819 44.6248 4.71712 45.0292 5.09879C46.8104 6.80721 44.5976 9.3744 46.7513 12.2551C47.2647 12.9412 46.7513 14.0953 47.0875 15.054L54.5028 19.3614C57.2563 20.9608 58.8466 23.2645 59.3555 26.4541L62.9632 49.0499C64.0764 56.0199 66.3755 58.9961 66.3346 65.5753L66.2256 83.1639C66.2028 86.8443 65.8666 90.3521 65.0442 93.8825L65.0533 93.887Z" fill="#0A0A09"/>
<path d="M30.894 100.739C27.7407 100.739 25.069 99.553 23.147 97.4857L19.4712 93.5372C19.0941 93.1283 18.6079 93.0692 18.2126 93.3645C17.8582 93.6326 17.6401 94.3142 18.0899 94.8639L20.8661 98.249C18.5397 99.2123 16.1725 98.4444 14.4504 96.6678C12.1649 94.3187 11.2335 91.2881 10.9245 87.9485C9.96579 77.557 10.2838 67.361 10.7246 56.856C11.0517 49.0635 11.179 41.6573 12.4239 34.033C12.8056 31.7021 13.2781 29.1985 14.9775 27.5083C19.0986 23.4053 23.9013 20.4019 28.5268 17.0078C29.9262 15.9809 30.4578 14.6633 29.6718 12.7549L45.0385 12.7731C44.3388 14.6996 44.7659 16.1309 46.4016 17.0669L53.3126 21.0108C55.698 22.3739 56.9021 24.364 57.3565 27.0948L61.7411 53.4527C62.3 56.8151 64.0721 59.7412 64.1993 63.2035C64.4537 70.219 64.322 77.0481 64.1993 84.0863C64.1448 87.2396 63.654 90.243 63.0497 93.2464C62.4954 95.9817 60.6961 97.9446 58.0926 98.8488C54.703 100.026 51.1952 100.73 47.5148 100.73L30.8986 100.739H30.894Z" fill="white"/>
<path d="M43.6342 10.6193H31.4708C30.5302 9.8969 30.8438 7.74319 31.2391 6.43461L43.4707 6.39825C44.0068 7.71138 43.866 9.0336 43.6297 10.6193H43.6342Z" fill="#F3C849"/>
<path d="M53.1943 53.2028C49.7002 54.6614 47.6419 49.6542 47.0876 46.7508C45.9381 40.7395 45.0021 34.86 44.6431 28.7033C44.5432 27.013 45.0657 24.9547 46.7696 24.4004C49.4049 23.5416 52.2492 25.6863 52.8263 28.4806C54.2576 35.4416 55.2163 42.4252 55.3708 49.5497C55.4071 51.1991 54.4484 52.6758 53.1989 53.2028H53.1943Z" fill="#0A0A0A"/>
<path d="M52.7399 60.0184C53.4487 60.2319 53.5169 60.5046 53.526 60.7226C53.5396 61.1679 53.0216 61.6359 52.4582 61.4633L33.8609 55.8564C29.7306 54.6114 27.0908 50.2313 27.059 45.992L26.9681 34.1466C26.9454 31.1387 28.1903 28.4943 30.3213 26.5087L36.8824 20.4065C37.1914 20.1202 37.6412 20.1384 37.9411 20.2974C38.2046 20.4383 38.3318 20.9744 37.9047 21.3834L31.1937 27.7582C29.4535 29.4121 28.4221 31.6385 28.4266 34.1284L28.4584 45.5376C28.4675 49.4907 30.8666 53.4755 34.7378 54.6341L52.7444 60.0184H52.7399Z" fill="#0E0E0F"/>
<path d="M42.2987 15.4266H32.1117C31.6119 15.4221 31.4029 15.0631 31.362 14.845C31.3075 14.536 31.5983 14.1135 32.1117 14.1135H42.3986C42.8257 14.1135 43.0711 14.5497 43.0802 14.8132C43.0847 15.0086 43.0302 15.4266 42.2987 15.422V15.4266Z" fill="#242525"/>
<path d="M52.1309 51.2809C50.6224 51.299 49.7455 48.9909 49.4274 47.6868C48.805 45.156 44.9883 26.7177 47.6645 26.2633C49.0594 26.027 50.6133 27.5265 50.8769 28.9804C52.0492 35.4188 53.076 41.6301 53.4032 48.232C53.4486 49.1272 53.4713 51.2627 52.1309 51.2809Z" fill="#FCFCFC"/>
</g>
</g>
<defs>
<filter id="filter0_dnn_535_747" x="-2" y="0" width="84" height="117" filterUnits="userSpaceOnUse" color-interpolation-filters="sRGB">
<feFlood flood-opacity="0" result="BackgroundImageFix"/>
<feColorMatrix in="SourceAlpha" type="matrix" values="0 0 0 0 0 0 0 0 0 0 0 0 0 0 0 0 0 0 127 0" result="hardAlpha"/>
<feOffset dx="3" dy="3"/>
<feGaussianBlur stdDeviation="2.5"/>
<feComposite in2="hardAlpha" operator="out"/>
<feColorMatrix type="matrix" values="0 0 0 0 0 0 0 0 0 0 0 0 0 0 0 0 0 0 0.25 0"/>
<feBlend mode="normal" in2="BackgroundImageFix" result="effect1_dropShadow_535_747"/>
<feBlend mode="normal" in="SourceGraphic" in2="BackgroundImageFix" result="shape"/>
<feTurbulence type="fractalNoise" baseFrequency="0.5 0.5" stitchTiles="stitch" numOctaves="3" result="noise" seed="7937" />
<feColorMatrix in="noise" type="luminanceToAlpha" result="alphaNoise" />
<feComponentTransfer in="alphaNoise" result="coloredNoise1">
<feFuncA type="discrete" tableValues="0 0 0 0 0 0 0 0 0 0 0 1 1 1 1 1 1 1 1 1 1 1 1 1 1 1 1 1 1 1 1 1 1 1 1 1 1 1 1 0 0 0 0 0 0 0 0 0 0 0 0 0 0 0 0 0 0 0 0 0 0 0 0 0 0 0 0 0 0 0 0 0 0 0 0 0 0 0 0 0 0 0 0 0 0 0 0 0 0 0 0 0 0 0 0 0 0 0 0 0 "/>
</feComponentTransfer>
<feComposite operator="in" in2="shape" in="coloredNoise1" result="noise1Clipped" />
<feComponentTransfer in="alphaNoise" result="coloredNoise2">
<feFuncA type="discrete" tableValues="0 0 0 0 0 0 0 0 0 0 0 0 0 0 0 0 0 0 0 0 0 0 0 0 0 0 0 0 0 0 0 0 0 0 0 0 0 0 0 0 0 0 0 0 0 0 0 0 0 0 0 0 0 0 0 0 0 0 0 0 0 1 1 1 1 1 1 1 1 1 1 1 1 1 1 1 1 1 1 1 1 1 1 1 1 1 1 1 1 0 0 0 0 0 0 0 0 0 0 0 "/>
</feComponentTransfer>
<feComposite operator="in" in2="shape" in="coloredNoise2" result="noise2Clipped" />
<feFlood flood-color="rgba(0, 0, 0, 0.1)" result="color1Flood" />
<feComposite operator="in" in2="noise1Clipped" in="color1Flood" result="color1" />
<feFlood flood-color="rgba(255, 255, 255, 0.1)" result="color2Flood" />
<feComposite operator="in" in2="noise2Clipped" in="color2Flood" result="color2" />
<feMerge result="effect2_noise_535_747">
<feMergeNode in="shape" />
<feMergeNode in="color1" />
<feMergeNode in="color2" />
</feMerge>
<feTurbulence type="fractalNoise" baseFrequency="0.3333333432674408 0.3333333432674408" stitchTiles="stitch" numOctaves="3" result="noise" seed="1755" />
<feColorMatrix in="noise" type="luminanceToAlpha" result="alphaNoise" />
<feComponentTransfer in="alphaNoise" result="coloredNoise1">
<feFuncA type="discrete" tableValues="0 0 0 1 1 1 1 1 1 1 1 1 1 1 1 1 1 1 1 1 1 1 1 1 1 1 1 1 1 1 1 1 1 1 1 1 1 1 1 1 1 1 1 1 1 1 0 0 0 0 0 0 0 0 0 0 0 0 0 0 0 0 0 0 0 0 0 0 0 0 0 0 0 0 0 0 0 0 0 0 0 0 0 0 0 0 0 0 0 0 0 0 0 0 0 0 0 0 0 0 "/>
</feComponentTransfer>
<feComposite operator="in" in2="effect2_noise_535_747" in="coloredNoise1" result="noise1Clipped" />
<feComponentTransfer in="alphaNoise" result="coloredNoise2">
<feFuncA type="discrete" tableValues="0 0 0 0 0 0 0 0 0 0 0 0 0 0 0 0 0 0 0 0 0 0 0 0 0 0 0 0 0 0 0 0 0 0 0 0 0 0 0 0 0 0 0 0 0 0 0 0 0 0 0 0 0 0 1 1 1 1 1 1 1 1 1 1 1 1 1 1 1 1 1 1 1 1 1 1 1 1 1 1 1 1 1 1 1 1 1 1 1 1 1 1 1 1 1 1 1 0 0 0 "/>
</feComponentTransfer>
<feComposite operator="in" in2="effect2_noise_535_747" in="coloredNoise2" result="noise2Clipped" />
<feFlood flood-color="rgba(0, 0, 0, 0.1)" result="color1Flood" />
<feComposite operator="in" in2="noise1Clipped" in="color1Flood" result="color1" />
<feFlood flood-color="rgba(21, 21, 21, 0.1)" result="color2Flood" />
<feComposite operator="in" in2="noise2Clipped" in="color2Flood" result="color2" />
<feMerge result="effect3_noise_535_747">
<feMergeNode in="effect2_noise_535_747" />
<feMergeNode in="color1" />
<feMergeNode in="color2" />
</feMerge>
<feBlend mode="normal" in="effect3_noise_535_747" in2="effect1_dropShadow_535_747" result="effect3_noise_535_747"/>
</filter>
<filter id="filter1_d_535_747" x="4.06885" y="0" width="72.5474" height="113.06" filterUnits="userSpaceOnUse" color-interpolation-filters="sRGB">
<feFlood flood-opacity="0" result="BackgroundImageFix"/>
<feColorMatrix in="SourceAlpha" type="matrix" values="0 0 0 0 0 0 0 0 0 0 0 0 0 0 0 0 0 0 127 0" result="hardAlpha"/>
<feOffset dx="3" dy="3"/>
<feGaussianBlur stdDeviation="2.5"/>
<feComposite in2="hardAlpha" operator="out"/>
<feColorMatrix type="matrix" values="0 0 0 0 0 0 0 0 0 0 0 0 0 0 0 0 0 0 0.5 0"/>
<feBlend mode="normal" in2="BackgroundImageFix" result="effect1_dropShadow_535_747"/>
<feBlend mode="normal" in="SourceGraphic" in2="effect1_dropShadow_535_747" result="shape"/>
</filter>
</defs>
</svg>
