<svg width="74" height="114" viewBox="0 0 74 114" fill="none" xmlns="http://www.w3.org/2000/svg">
<g filter="url(#filter0_dnn_535_553)">
<g filter="url(#filter1_d_535_553)">
<path d="M19.2629 103.915C15.4022 103.915 12.0521 101.15 11.1145 97.1929C8.9486 88.0495 8.5568 78.6245 9.94349 69.173C10.6522 64.3482 11.7572 59.9328 12.9326 55.2576L13.1923 54.2187C14.8167 47.7299 14.0067 44.0057 13.3552 41.0122C12.8137 38.5249 12.3471 36.3767 13.3156 33.6033C14.7155 29.5929 17.009 25.9391 20.139 22.7387C20.1918 21.6161 20.1478 20.7533 20.1125 20.0446C19.9981 17.7598 20.0553 16.6329 22.6262 14.4406C22.8243 13.8859 22.8067 12.6709 22.7891 11.5835C22.7539 9.21517 22.7098 6.27011 24.4443 4.50923C25.3688 3.57156 26.6674 3.09613 28.3094 3.09613H36.7132C39.7639 3.10053 42.1147 5.14755 42.1807 7.8593L42.348 14.5418C45.0597 16.0077 44.9893 18.1736 44.9277 20.0974C44.9013 20.859 44.8792 21.6381 45.0069 22.4305C57.4211 31.5078 64.8168 46.2376 64.8124 61.9226L64.8035 95.6433C64.8035 100.023 61.1189 103.871 56.9192 103.875L19.2805 103.911H19.2717L19.2629 103.915Z" fill="#FEFEFE"/>
<path d="M28.3006 4.20109H36.7044C38.9098 4.2055 41.0185 5.6186 41.0757 7.89453L41.2562 15.2506C45.1918 16.9498 43.2372 19.7364 43.9988 23.0777C56.4394 31.9965 63.703 46.4797 63.6986 61.9358L63.6898 95.6565C63.6898 99.3192 60.6699 102.784 56.9016 102.788L19.2629 102.823H19.2585C15.6619 102.823 12.9281 100.098 12.1798 96.9464C10.0139 87.7942 9.6617 78.6333 11.0264 69.3403C11.7792 64.2117 13.0074 59.4794 14.2532 54.4917C17.2247 42.6058 12.347 39.7003 14.3456 33.9731C15.7807 29.8526 18.1095 26.3089 21.2043 23.2273C21.5168 18.3409 20.0861 17.9843 23.5066 15.1361C24.836 12.825 21.7061 4.2099 28.2962 4.2099M28.305 2H28.3006C26.3548 2 24.792 2.58549 23.6519 3.73886C21.596 5.8299 21.6445 9.03029 21.6797 11.6012C21.6885 12.3099 21.7061 13.318 21.6269 13.8419C19.0912 16.087 18.8711 17.5265 19.0032 20.1018C19.034 20.7269 19.0692 21.4136 19.0472 22.2809C15.9568 25.5209 13.6765 29.2055 12.2678 33.2423C11.1981 36.3106 11.7219 38.7098 12.2722 41.2455C12.9325 44.2742 13.6809 47.7123 12.1181 53.9502L11.8584 54.9803C10.6786 59.6863 9.56486 64.1325 8.84731 69.0145C7.43861 78.6025 7.8392 88.1684 10.0359 97.4482C11.0924 101.903 14.8827 105.02 19.2541 105.02L56.9016 104.985C61.7704 104.98 65.8865 100.706 65.8865 95.6521L65.8953 61.9314C65.8953 46.0571 58.4864 31.1381 46.0238 21.8319C45.9754 21.286 45.993 20.7225 46.0106 20.1414C46.0678 18.3321 46.1514 15.7128 43.4133 13.9167L43.2636 7.8373C43.1844 4.56648 40.2965 2.0044 36.6955 2.0044H28.2962L28.305 2Z" fill="white"/>
<path d="M19.6505 102.815C16.0539 102.815 13.3158 100.09 12.5674 96.9376C10.4015 87.7854 10.0493 78.6245 11.414 69.3315C12.1668 64.2029 13.395 59.4706 14.6408 54.4829C17.6123 42.597 12.7347 39.6915 14.7333 33.9643C16.1684 29.8439 18.4971 26.3001 21.5919 23.2186C21.9044 18.3321 20.4737 17.9756 23.8942 15.1273C25.2237 12.8162 22.0937 4.19671 28.6882 4.20111H37.0876C39.2931 4.20551 41.4017 5.61862 41.459 7.89455L41.6394 15.2506C45.575 16.9498 43.6204 19.7364 44.382 23.0777C56.8226 31.9965 64.0862 46.4797 64.0818 61.9358L64.073 95.6566C64.073 99.3192 61.0531 102.784 57.2848 102.788L19.6461 102.823L19.6505 102.815Z" fill="#080909"/>
<path d="M20.1171 100.825C17.0796 100.825 15.1382 98.9934 14.4867 96.3125C11.973 85.9893 11.7397 75.4021 14.1741 65.0393L16.767 54.003C17.8587 49.3543 17.9952 44.6528 16.6834 40.0745C16.1155 38.0935 15.957 36.1434 16.7978 34.2416C18.1889 30.579 20.2535 27.4006 23.1106 24.57L43.0569 24.6272C54.1724 32.692 61.8146 45.0446 61.8982 58.9291L62.1183 95.3572C62.1359 98.628 59.477 100.878 56.4043 100.878L20.1127 100.834L20.1171 100.825Z" fill="#FEFEFE"/>
<path d="M39.6141 15.3386L26.3327 15.365C26.6409 11.8037 24.9328 6.16887 29.1149 6.16006L37.0389 6.14246C38.5444 6.14246 39.5437 7.28702 39.5569 8.73974L39.6185 15.343L39.6141 15.3386Z" fill="#49B578"/>
<path d="M42.1236 22.4745L23.8942 22.4481C23.5948 20.8105 23.2514 18.7239 24.3124 17.5177L41.8111 17.4913C42.5286 19.1201 42.2513 20.6476 42.1236 22.4745Z" fill="#4AB679"/>
<path d="M50.7603 94.7585L25.1968 94.8378C21.1072 94.851 17.876 92.104 17.022 88.1464C14.702 77.3831 17.1496 67.7247 19.6016 57.2211C20.7726 52.2026 21.2348 47.2281 20.4337 42.148C19.9758 35.2409 30.2769 34.2813 34.8112 34.6819C38.4782 35.0076 40.1863 37.8999 40.0278 41.2983C39.6184 50.0675 42.11 58.5901 46.5606 66.0298C51.1125 73.6412 56.7649 72.1004 57.8963 78.9414C58.4025 82.0098 58.4685 85.1221 58.0459 88.2873C57.5793 91.7914 54.599 94.7453 50.7559 94.7585H50.7603Z" fill="#110E0A"/>
<path d="M53.9258 66.2587C51.9008 66.4568 50.1047 64.9645 49.1186 63.4149C44.9805 56.9129 42.7398 49.1342 43.2328 41.448C43.3341 39.8764 44.3994 38.4325 45.2975 37.8426C50.9191 34.1316 59.0411 49.3763 57.5664 61.7421C57.3331 63.7055 56.1885 66.0342 53.9258 66.2587Z" fill="#090909"/>
<path d="M50.5005 93.3146L25.6149 93.3762C21.9743 93.385 19.1657 91.2676 18.4086 87.5785C17.1055 81.2306 17.3036 74.6537 18.6947 68.2353L21.5913 54.8615C23.8056 44.6484 19.5443 39.6475 25.0339 37.5345C28.4411 36.2226 38.7159 34.0039 38.4385 39.9557C38.0379 48.5399 39.9969 56.6972 43.8488 64.2822C49.5716 75.5606 55.8536 72.3778 56.6372 80.2093C57.0906 84.7259 57.7729 93.2926 50.5049 93.3102L50.5005 93.3146Z" fill="#F3C93F"/>
<path d="M54.2914 63.9608C52.9267 64.9073 51.3992 63.3709 50.7125 62.2792C47.1379 56.5871 45.2493 49.8958 45.0424 43.1209C45.0028 41.8354 45.4518 39.9513 46.5964 39.4802C47.8774 38.952 49.4006 40.2726 50.1798 41.3776C53.8732 46.6074 55.8454 52.8145 55.8454 59.3077C55.8454 60.8088 55.6517 63.0231 54.2914 63.9652V63.9608Z" fill="#FEFEFE"/>
</g>
</g>
<defs>
<filter id="filter0_dnn_535_553" x="-2" y="0" width="84" height="115" filterUnits="userSpaceOnUse" color-interpolation-filters="sRGB">
<feFlood flood-opacity="0" result="BackgroundImageFix"/>
<feColorMatrix in="SourceAlpha" type="matrix" values="0 0 0 0 0 0 0 0 0 0 0 0 0 0 0 0 0 0 127 0" result="hardAlpha"/>
<feOffset dx="3" dy="3"/>
<feGaussianBlur stdDeviation="2.5"/>
<feComposite in2="hardAlpha" operator="out"/>
<feColorMatrix type="matrix" values="0 0 0 0 0 0 0 0 0 0 0 0 0 0 0 0 0 0 0.25 0"/>
<feBlend mode="normal" in2="BackgroundImageFix" result="effect1_dropShadow_535_553"/>
<feBlend mode="normal" in="SourceGraphic" in2="BackgroundImageFix" result="shape"/>
<feTurbulence type="fractalNoise" baseFrequency="0.5 0.5" stitchTiles="stitch" numOctaves="3" result="noise" seed="7937" />
<feColorMatrix in="noise" type="luminanceToAlpha" result="alphaNoise" />
<feComponentTransfer in="alphaNoise" result="coloredNoise1">
<feFuncA type="discrete" tableValues="0 0 0 0 0 0 0 0 0 0 0 1 1 1 1 1 1 1 1 1 1 1 1 1 1 1 1 1 1 1 1 1 1 1 1 1 1 1 1 0 0 0 0 0 0 0 0 0 0 0 0 0 0 0 0 0 0 0 0 0 0 0 0 0 0 0 0 0 0 0 0 0 0 0 0 0 0 0 0 0 0 0 0 0 0 0 0 0 0 0 0 0 0 0 0 0 0 0 0 0 "/>
</feComponentTransfer>
<feComposite operator="in" in2="shape" in="coloredNoise1" result="noise1Clipped" />
<feComponentTransfer in="alphaNoise" result="coloredNoise2">
<feFuncA type="discrete" tableValues="0 0 0 0 0 0 0 0 0 0 0 0 0 0 0 0 0 0 0 0 0 0 0 0 0 0 0 0 0 0 0 0 0 0 0 0 0 0 0 0 0 0 0 0 0 0 0 0 0 0 0 0 0 0 0 0 0 0 0 0 0 1 1 1 1 1 1 1 1 1 1 1 1 1 1 1 1 1 1 1 1 1 1 1 1 1 1 1 1 0 0 0 0 0 0 0 0 0 0 0 "/>
</feComponentTransfer>
<feComposite operator="in" in2="shape" in="coloredNoise2" result="noise2Clipped" />
<feFlood flood-color="rgba(0, 0, 0, 0.1)" result="color1Flood" />
<feComposite operator="in" in2="noise1Clipped" in="color1Flood" result="color1" />
<feFlood flood-color="rgba(255, 255, 255, 0.1)" result="color2Flood" />
<feComposite operator="in" in2="noise2Clipped" in="color2Flood" result="color2" />
<feMerge result="effect2_noise_535_553">
<feMergeNode in="shape" />
<feMergeNode in="color1" />
<feMergeNode in="color2" />
</feMerge>
<feTurbulence type="fractalNoise" baseFrequency="0.3333333432674408 0.3333333432674408" stitchTiles="stitch" numOctaves="3" result="noise" seed="1755" />
<feColorMatrix in="noise" type="luminanceToAlpha" result="alphaNoise" />
<feComponentTransfer in="alphaNoise" result="coloredNoise1">
<feFuncA type="discrete" tableValues="0 0 0 1 1 1 1 1 1 1 1 1 1 1 1 1 1 1 1 1 1 1 1 1 1 1 1 1 1 1 1 1 1 1 1 1 1 1 1 1 1 1 1 1 1 1 0 0 0 0 0 0 0 0 0 0 0 0 0 0 0 0 0 0 0 0 0 0 0 0 0 0 0 0 0 0 0 0 0 0 0 0 0 0 0 0 0 0 0 0 0 0 0 0 0 0 0 0 0 0 "/>
</feComponentTransfer>
<feComposite operator="in" in2="effect2_noise_535_553" in="coloredNoise1" result="noise1Clipped" />
<feComponentTransfer in="alphaNoise" result="coloredNoise2">
<feFuncA type="discrete" tableValues="0 0 0 0 0 0 0 0 0 0 0 0 0 0 0 0 0 0 0 0 0 0 0 0 0 0 0 0 0 0 0 0 0 0 0 0 0 0 0 0 0 0 0 0 0 0 0 0 0 0 0 0 0 0 1 1 1 1 1 1 1 1 1 1 1 1 1 1 1 1 1 1 1 1 1 1 1 1 1 1 1 1 1 1 1 1 1 1 1 1 1 1 1 1 1 1 1 0 0 0 "/>
</feComponentTransfer>
<feComposite operator="in" in2="effect2_noise_535_553" in="coloredNoise2" result="noise2Clipped" />
<feFlood flood-color="rgba(0, 0, 0, 0.1)" result="color1Flood" />
<feComposite operator="in" in2="noise1Clipped" in="color1Flood" result="color1" />
<feFlood flood-color="rgba(21, 21, 21, 0.1)" result="color2Flood" />
<feComposite operator="in" in2="noise2Clipped" in="color2Flood" result="color2" />
<feMerge result="effect3_noise_535_553">
<feMergeNode in="effect2_noise_535_553" />
<feMergeNode in="color1" />
<feMergeNode in="color2" />
</feMerge>
<feBlend mode="normal" in="effect3_noise_535_553" in2="effect1_dropShadow_535_553" result="effect3_noise_535_553"/>
</filter>
<filter id="filter1_d_535_553" x="6.02393" y="0" width="67.8711" height="113.02" filterUnits="userSpaceOnUse" color-interpolation-filters="sRGB">
<feFlood flood-opacity="0" result="BackgroundImageFix"/>
<feColorMatrix in="SourceAlpha" type="matrix" values="0 0 0 0 0 0 0 0 0 0 0 0 0 0 0 0 0 0 127 0" result="hardAlpha"/>
<feOffset dx="3" dy="3"/>
<feGaussianBlur stdDeviation="2.5"/>
<feComposite in2="hardAlpha" operator="out"/>
<feColorMatrix type="matrix" values="0 0 0 0 0 0 0 0 0 0 0 0 0 0 0 0 0 0 0.5 0"/>
<feBlend mode="normal" in2="BackgroundImageFix" result="effect1_dropShadow_535_553"/>
<feBlend mode="normal" in="SourceGraphic" in2="effect1_dropShadow_535_553" result="shape"/>
</filter>
</defs>
</svg>
