<svg width="80" height="110" viewBox="0 0 80 110" fill="none" xmlns="http://www.w3.org/2000/svg">
<!-- Disposable Coffee Cup - paper cup with sleeve and lid -->
<defs>
  <filter id="grain-dc" x="-10%" y="-10%" width="120%" height="120%" filterUnits="objectBoundingBox">
    <feTurbulence type="fractalNoise" baseFrequency="0.5" numOctaves="3" seed="44" stitchTiles="stitch" result="noise"/>
    <feColorMatrix in="noise" type="saturate" values="0" result="grayNoise"/>
    <feBlend in="SourceGraphic" in2="grayNoise" mode="multiply" result="textured"/>
    <feOffset dx="2" dy="3" in="SourceAlpha" result="shadowOffset"/>
    <feGaussianBlur in="shadowOffset" stdDeviation="2" result="shadowBlur"/>
    <feColorMatrix in="shadowBlur" type="matrix" values="0 0 0 0 0 0 0 0 0 0 0 0 0 0 0 0 0 0 0.25 0" result="shadow"/>
    <feMerge>
      <feMergeNode in="shadow"/>
      <feMergeNode in="textured"/>
    </feMerge>
  </filter>
</defs>
<g filter="url(#grain-dc)">
  <!-- Cup body (tapered) -->
  <path d="M18 26 L14 94 C14 96, 16 98, 20 98 L60 98 C64 98, 66 96, 66 94 L62 26 Z" fill="#FCFCFC" stroke="#1A1A1A" stroke-width="4" stroke-linejoin="round"/>
  <!-- Cardboard sleeve -->
  <path d="M19 50 L17 80 L63 80 L61 50 Z" fill="#C49530" stroke="#1A1A1A" stroke-width="3" stroke-linejoin="round"/>
  <!-- Sleeve texture lines -->
  <line x1="25" y1="55" x2="23" y2="75" stroke="#A67D28" stroke-width="1.5" opacity="0.4"/>
  <line x1="40" y1="52" x2="39" y2="78" stroke="#A67D28" stroke-width="1.5" opacity="0.4"/>
  <line x1="55" y1="53" x2="57" y2="77" stroke="#A67D28" stroke-width="1.5" opacity="0.4"/>
  <!-- Lid -->
  <ellipse cx="40" cy="24" rx="24" ry="6" fill="#EDECEB" stroke="#1A1A1A" stroke-width="4"/>
  <!-- Lid rim -->
  <path d="M16 22 C16 18, 28 14, 40 14 C52 14, 64 18, 64 22" stroke="#1A1A1A" stroke-width="3.5" fill="#E6E7E8"/>
  <!-- Drink hole -->
  <ellipse cx="34" cy="18" rx="5" ry="2" fill="#808285" stroke="#1A1A1A" stroke-width="2"/>
  <!-- Steam wisps -->
  <path d="M32 10 C30 6, 34 4, 32 0" stroke="#BCBEC0" stroke-width="2" fill="none" stroke-linecap="round" opacity="0.5"/>
  <path d="M40 8 C38 4, 42 2, 40 -2" stroke="#BCBEC0" stroke-width="1.5" fill="none" stroke-linecap="round" opacity="0.4"/>
</g>
</svg>
