<svg width="110" height="100" viewBox="0 0 110 100" fill="none" xmlns="http://www.w3.org/2000/svg">
<!-- Food Waste - banana peel, apple core, and scraps -->
<defs>
  <filter id="grain-fw" x="-10%" y="-10%" width="120%" height="120%" filterUnits="objectBoundingBox">
    <feTurbulence type="fractalNoise" baseFrequency="0.5" numOctaves="3" seed="73" stitchTiles="stitch" result="noise"/>
    <feColorMatrix in="noise" type="saturate" values="0" result="grayNoise"/>
    <feBlend in="SourceGraphic" in2="grayNoise" mode="multiply" result="textured"/>
    <feOffset dx="2" dy="3" in="SourceAlpha" result="shadowOffset"/>
    <feGaussianBlur in="shadowOffset" stdDeviation="2" result="shadowBlur"/>
    <feColorMatrix in="shadowBlur" type="matrix" values="0 0 0 0 0 0 0 0 0 0 0 0 0 0 0 0 0 0 0.25 0" result="shadow"/>
    <feMerge>
      <feMergeNode in="shadow"/>
      <feMergeNode in="textured"/>
    </feMerge>
  </filter>
</defs>
<g filter="url(#grain-fw)">
  <!-- Banana peel -->
  <path d="M20 65 C22 40, 40 25, 55 30 C50 35, 35 50, 30 70 Z" fill="#F8C226" stroke="#1A1A1A" stroke-width="4" stroke-linejoin="round"/>
  <path d="M55 30 C60 32, 65 45, 58 65 C52 55, 48 42, 55 30Z" fill="#E5AD1A" stroke="#1A1A1A" stroke-width="3" stroke-linejoin="round"/>
  <!-- Banana brown spots -->
  <circle cx="38" cy="48" r="2" fill="#8B6914" opacity="0.6"/>
  <circle cx="45" cy="42" r="1.5" fill="#8B6914" opacity="0.5"/>
  <!-- Apple core -->
  <path d="M72 35 C68 38, 66 50, 68 62 C70 68, 76 68, 78 62 C80 50, 78 38, 74 35 Z" fill="#E8D5B0" stroke="#1A1A1A" stroke-width="3.5" stroke-linejoin="round"/>
  <!-- Apple core seeds -->
  <ellipse cx="73" cy="48" rx="1.5" ry="2.5" fill="#5C4016" transform="rotate(-10 73 48)"/>
  <ellipse cx="73" cy="55" rx="1.5" ry="2.5" fill="#5C4016" transform="rotate(10 73 55)"/>
  <!-- Apple stem -->
  <path d="M73 35 C73 30, 76 27, 78 28" stroke="#5C4016" stroke-width="2.5" fill="none" stroke-linecap="round"/>
  <!-- Small scraps -->
  <ellipse cx="88" cy="60" rx="8" ry="5" fill="#74AC4B" stroke="#1A1A1A" stroke-width="2.5" transform="rotate(-15 88 60)"/>
  <path d="M15 75 C18 72, 28 73, 30 78 C28 82, 18 81, 15 75Z" fill="#C4956A" stroke="#1A1A1A" stroke-width="2.5"/>
</g>
</svg>
