<svg width="70" height="120" viewBox="0 0 70 120" fill="none" xmlns="http://www.w3.org/2000/svg">
<!-- Plastic Straw - bendy straw with stripes -->
<defs>
  <filter id="grain-ps" x="-10%" y="-10%" width="120%" height="120%" filterUnits="objectBoundingBox">
    <feTurbulence type="fractalNoise" baseFrequency="0.5" numOctaves="3" seed="82" stitchTiles="stitch" result="noise"/>
    <feColorMatrix in="noise" type="saturate" values="0" result="grayNoise"/>
    <feBlend in="SourceGraphic" in2="grayNoise" mode="multiply" result="textured"/>
    <feOffset dx="2" dy="3" in="SourceAlpha" result="shadowOffset"/>
    <feGaussianBlur in="shadowOffset" stdDeviation="2" result="shadowBlur"/>
    <feColorMatrix in="shadowBlur" type="matrix" values="0 0 0 0 0 0 0 0 0 0 0 0 0 0 0 0 0 0 0.25 0" result="shadow"/>
    <feMerge>
      <feMergeNode in="shadow"/>
      <feMergeNode in="textured"/>
    </feMerge>
  </filter>
</defs>
<g filter="url(#grain-ps)">
  <!-- Straw bottom section (straight) -->
  <rect x="28" y="50" width="10" height="60" rx="2" fill="#DF1725" stroke="#1A1A1A" stroke-width="3.5"/>
  <!-- Bendy accordion section -->
  <path d="M28 50 C28 42, 26 38, 24 36 L20 28 C18 24, 18 20, 20 16 L24 10" fill="none" stroke="#1A1A1A" stroke-width="3.5" stroke-linecap="round"/>
  <path d="M38 50 C38 42, 36 38, 34 36 L30 28 C28 24, 28 20, 30 16 L34 10" fill="none" stroke="#1A1A1A" stroke-width="3.5" stroke-linecap="round"/>
  <!-- Bendy fill -->
  <path d="M28 50 C28 42, 26 38, 24 36 L20 28 C18 24, 18 20, 20 16 L24 10 L34 10 C30 16, 28 24, 30 28 L34 36 C36 38, 38 42, 38 50 Z" fill="#DF1725" stroke="none"/>
  <!-- Accordion ridges -->
  <line x1="26" y1="38" x2="36" y2="38" stroke="#B01420" stroke-width="1.5"/>
  <line x1="25" y1="42" x2="37" y2="42" stroke="#B01420" stroke-width="1.5"/>
  <line x1="26" y1="46" x2="37" y2="46" stroke="#B01420" stroke-width="1.5"/>
  <!-- Stripe pattern -->
  <rect x="29" y="60" width="8" height="4" fill="#FCFCFC" opacity="0.5"/>
  <rect x="29" y="72" width="8" height="4" fill="#FCFCFC" opacity="0.5"/>
  <rect x="29" y="84" width="8" height="4" fill="#FCFCFC" opacity="0.5"/>
  <rect x="29" y="96" width="8" height="4" fill="#FCFCFC" opacity="0.5"/>
  <!-- Top opening -->
  <ellipse cx="29" cy="10" rx="6" ry="2" fill="#B01420" stroke="#1A1A1A" stroke-width="2"/>
</g>
</svg>
