<svg width="75" height="126" viewBox="0 0 75 126" fill="none" xmlns="http://www.w3.org/2000/svg">
<g filter="url(#filter0_dnn_535_772)">
<path d="M38.0201 115.882C27.3771 115.882 18.0755 113.722 13.1338 110.107C9.27212 107.281 10.0711 103.863 10.7122 101.111C11.24 98.8523 11.166 96.2828 11.1019 93.7922C11.0772 92.9686 11.0575 92.1499 11.0525 91.3361L10.9046 46.4165C10.9046 45.731 10.7418 45.0011 10.5692 44.2317C10.1895 42.5056 9.75545 40.5427 11.0427 38.5847C12.103 36.972 11.4224 36.39 11.0969 36.1089C8.557 33.9241 9.19322 32.1289 9.71107 30.6838C10.0218 29.806 10.3177 28.9725 10.0366 27.8233C9.46447 25.5103 10.3621 24.4647 11.1561 23.5474C11.8318 22.7632 12.5962 21.8755 12.9809 19.6364C13.193 18.3985 13.9476 17.7919 14.6775 17.205C15.6244 16.4405 16.808 15.4887 17.9276 12.4309C18.0558 12.0758 18.3468 11.7996 18.7068 11.6813C21.0199 10.9316 22.5734 9.63947 23.6091 7.6174C23.7176 7.40533 23.8804 7.23272 24.0875 7.11435C24.9111 6.63596 25.8137 6.47814 26.6126 6.34004C27.3228 6.21675 27.9935 6.10332 28.3437 5.78767C30.0452 4.26865 31.7221 4.11577 33.5025 3.95795C33.8921 3.92343 34.2965 3.88397 34.7256 3.83465L39.4503 3.24776C39.4996 3.24283 39.5539 3.23788 39.6032 3.23788C39.9287 3.23788 40.2444 3.36612 40.4761 3.60285C41.6795 4.8161 43.2133 5.71369 45.0381 6.27593C45.4376 6.39922 45.7483 6.71487 45.8618 7.11929L47.0356 11.2818C47.4992 12.929 47.7852 13.7971 47.943 14.2656C48.1452 14.8821 48.3968 15.6416 47.652 16.2531C47.5386 16.4603 47.0947 17.5551 46.7446 22.0629C46.7199 22.4131 46.5374 22.7386 46.2563 22.9506C44.6189 24.1836 43.6178 25.9542 43.0999 28.5286C43.0555 28.7555 42.947 28.9626 42.7941 29.1303C42.2171 29.7517 41.5464 30.1561 40.9545 30.5211C40.925 30.5408 40.9003 30.5556 40.8707 30.5704C47.2082 30.8811 62.211 32.2966 65.175 38.7425C66.0973 40.7498 65.683 42.6486 65.323 44.3205C65.1306 45.2181 64.9432 46.0664 64.9432 46.9147L64.815 100.899C66.7384 104.435 65.7175 108.312 62.206 110.635C57.2298 113.924 48.1945 115.887 38.0398 115.887L38.0201 115.882Z" fill="#FEFDFD"/>
<path d="M39.5884 4.46594C41.0137 5.90112 42.7448 6.8579 44.6633 7.44972L45.8371 11.6122C47.9923 19.2567 46.3944 10.4335 45.5017 21.9643C43.3761 23.5671 42.3848 25.7766 41.8817 28.2869C40.6784 29.5791 38.8141 29.8208 38.0546 31.7146C44.6239 31.7491 61.269 33.2139 64.0407 39.2555C65.2243 41.8299 63.7004 44.2219 63.6905 46.9147L63.5574 101.229C65.4414 104.391 64.45 107.661 61.5057 109.609C56.4505 112.948 47.2526 114.659 38.0151 114.659C28.7777 114.659 18.9386 112.839 13.8588 109.12C10.7714 106.862 11.2153 104.381 11.9058 101.402C12.6455 98.2358 12.2904 94.7194 12.2806 91.3411L12.1326 46.4215C12.1228 44.0049 10.5594 41.5685 12.0685 39.2702C12.8872 38.0274 13.3508 36.4344 11.8959 35.1817C8.63591 32.3804 12.1228 31.1573 11.2252 27.5373C10.3917 24.1787 13.2916 25.0516 14.1843 19.8534C14.5196 17.8905 17.0201 18.4577 19.0718 12.86C21.587 12.0462 23.4759 10.5667 24.6941 8.18459C26.0849 7.37576 28.0231 7.72098 29.1525 6.71488C30.8787 5.1712 32.5555 5.34874 34.8637 5.0627L39.5884 4.4758M39.5884 2C39.4848 2 39.3862 2.00494 39.2826 2.01973L34.5579 2.60661C34.1535 2.65593 33.7589 2.69046 33.3742 2.72499C31.5642 2.88774 29.5076 3.07515 27.5053 4.86542C27.3672 4.94926 26.7754 5.05283 26.3858 5.12188C25.5325 5.26983 24.4673 5.45231 23.4513 6.04414C23.0419 6.28087 22.7115 6.63104 22.4945 7.05518C21.6166 8.77148 20.29 9.86635 18.3073 10.5075C17.5873 10.7393 17.0152 11.2917 16.7538 12.0068C15.7526 14.744 14.7613 15.5429 13.8884 16.2482C13.1091 16.8746 12.0438 17.7376 11.7529 19.4342C11.4274 21.333 10.8355 22.0234 10.2092 22.7484C9.37076 23.7249 8.10327 25.1946 8.82826 28.1291C9.01567 28.8837 8.85785 29.3867 8.54221 30.2794C8.00463 31.7886 7.1021 34.3186 10.2881 37.0509C10.3276 37.0854 10.3522 37.1101 10.3719 37.1298C10.3571 37.2186 10.298 37.475 10.0119 37.914C8.43864 40.3059 8.97128 42.7324 9.36583 44.503C9.52365 45.2082 9.66668 45.879 9.67161 46.4264L9.81956 91.346C9.81956 92.1795 9.84422 93.0179 9.86888 93.8317C9.93793 96.3518 10.002 98.734 9.51379 100.84C8.86771 103.612 7.8912 107.804 12.4088 111.108C17.5528 114.876 27.1305 117.12 38.025 117.12C48.9195 117.12 57.7032 115.078 62.8718 111.66C66.7976 109.066 68.0355 104.603 66.0332 100.598L66.1614 46.9147C66.1614 46.1946 66.334 45.4055 66.5165 44.5769C66.9012 42.8064 67.3796 40.6019 66.2847 38.2198C64.7114 34.797 60.3615 32.3755 52.9834 30.817C49.9996 30.1857 46.8531 29.7764 44.0123 29.5347C44.1504 29.298 44.249 29.0415 44.3033 28.7703C44.762 26.4819 45.5905 24.9875 46.9912 23.937C47.5583 23.5129 47.9134 22.8619 47.9677 22.1566C48.2389 18.6599 48.5546 17.3727 48.6877 16.9633C49.758 15.8438 49.2894 14.4382 49.1069 13.8809C48.9541 13.4222 48.6729 12.569 48.2143 10.9464L47.0405 6.78392C46.8136 5.98002 46.1922 5.34382 45.3932 5.09722C43.7657 4.59417 42.3996 3.80013 41.3442 2.73485C40.8806 2.26632 40.2493 2.00492 39.5933 2.00492L39.5884 2Z" fill="white"/>
<path d="M13.8588 109.116C10.7715 106.857 11.2154 104.376 11.9058 101.397C12.6456 98.2309 12.2905 94.7145 12.2806 91.3361L12.1327 46.4165C12.1228 43.9999 10.5594 41.5636 12.0686 39.2653C12.8873 38.0225 13.3509 36.4295 11.896 35.1768C8.63599 32.3755 12.1228 31.1524 11.2252 27.5323C10.3917 24.1737 13.2917 25.0467 14.1844 19.8485C14.5197 17.8856 17.0202 18.4527 19.0719 12.8551C21.5871 12.0413 23.476 10.5617 24.6942 8.17964C26.085 7.37081 28.0232 7.71604 29.1526 6.70994C30.8788 5.16626 32.5556 5.3438 34.8637 5.05775L39.5885 4.47086C41.0138 5.90603 42.7449 6.86283 44.6634 7.45465L45.8372 11.6172C47.9924 19.2616 46.3945 10.4384 45.5018 21.9692C43.3762 23.572 42.3849 25.7815 41.8818 28.2919C40.6784 29.584 38.8142 29.8257 38.0547 31.7195C44.6239 31.754 61.269 33.2188 64.0408 39.2604C65.2244 41.8348 63.7005 44.2268 63.6906 46.9196L63.5574 101.234C65.4414 104.396 64.4501 107.666 61.5058 109.614C51.2425 116.395 23.8706 116.454 13.8588 109.125V109.116Z" fill="#090A09"/>
<path d="M60.8945 56.9017C59.9525 59.0668 56.224 60.0384 53.8961 60.5957C43.3912 63.111 32.6052 63.0863 22.1003 60.576C19.6985 60.0039 16.2215 59.0274 15.0477 56.956C13.6569 54.5048 14.9787 51.235 14.5742 48.5225C25.1679 54.7268 50.7743 54.8155 61.2693 48.5225C61.003 51.1265 62.1176 54.0955 60.8945 56.9067V56.9017Z" fill="#FEFEFE"/>
<path d="M61.0715 102.857C60.2972 105.057 56.6969 106.275 54.3888 106.872C43.8493 109.594 32.9647 109.678 22.4104 107.084C19.7127 106.418 16.4922 105.387 14.8104 103.276C13.8388 101.077 14.8647 98.2408 14.5737 95.543C24.5312 102.132 51.0893 102.275 61.2046 95.7107C61.0764 97.792 61.9839 100.263 61.0715 102.857Z" fill="#FEFEFE"/>
<path d="M55.0943 45.3216C43.6573 48.2857 31.8996 48.2314 20.7339 45.2575C19.0965 44.8235 17.5331 44.2958 16.5171 42.9198C17.9621 41.1739 19.9645 40.5476 22.1 39.936C33.0142 36.8141 44.7077 37.0016 55.6417 40.1284C56.9339 40.4983 59.1828 41.5685 59.0645 42.9494C58.9559 44.2218 56.5936 44.932 55.0943 45.3216Z" fill="#3C514E"/>
<path d="M19.2445 39.2209L15.2348 36.8142C14.8403 35.3741 13.5777 33.7811 12.833 32.5876L13.6418 26.5411C13.8934 24.6521 19.4565 16.1989 20.9953 14.9018L26.4499 10.3102C27.8851 9.10193 30.7949 8.55448 32.7085 7.31165C34.0105 6.46336 37.019 8.00705 38.7254 6.61133C39.5392 7.74566 42.1087 8.38186 42.6364 9.38797C43.2282 10.5174 44.4858 13.1066 44.2935 14.3741C44.042 16.0214 43.7904 19.0742 43.095 20.4305C39.0854 28.2179 36.2447 31.5469 28.7531 36.247C25.9814 37.988 22.2677 37.0016 19.2445 39.2209Z" fill="#FBFAFA"/>
<path d="M61.1064 87.6964C62.5811 90.8922 54.7542 93.0031 52.7962 93.4272C42.8683 95.5825 32.7629 95.5677 22.8745 93.2793C21.0447 92.8551 13.2968 90.8133 14.7714 87.4991C24.137 94.0536 51.5583 94.0634 61.1015 87.6964H61.1064Z" fill="#F8F7F7"/>
<path d="M61.037 71.4804C62.7238 74.1929 56.2433 76.2692 54.2606 76.7624C43.6522 79.396 32.7428 79.3517 22.1146 76.8413C20.1813 76.3827 13.0843 74.0449 14.7365 71.1992C23.7915 77.7143 51.4939 77.8573 61.037 71.4804Z" fill="#F8F7F6"/>
<path d="M61.0028 63.3181C62.9755 66.3167 55.1141 68.5114 52.9688 68.9848C42.9521 71.1992 32.7036 71.1351 22.7117 68.8714C20.8869 68.4571 13.0106 66.2131 14.6924 63.0419C23.9545 69.6161 51.5829 69.6802 61.0028 63.3181Z" fill="#FAFAF9"/>
<path d="M61.0276 75.5837C62.8376 78.1581 55.8146 80.5205 54.0539 80.9447C43.4799 83.4797 32.6051 83.4451 22.0312 80.8658C20.4776 80.486 13.1982 78.2765 14.7221 75.3272C24.6599 81.862 50.9123 81.862 61.0227 75.5837H61.0276Z" fill="#F9F8F7"/>
<path d="M61.0079 79.5933C62.8623 82.2664 56.0958 84.4907 54.1674 84.9592C43.5343 87.5386 32.546 87.5731 21.9277 84.9247C19.9253 84.4266 13.1736 82.2911 14.8504 79.4503C24.1273 85.9062 51.8445 85.9703 61.0079 79.5933Z" fill="#F9F8F8"/>
<path d="M61.146 67.456C62.5762 71.3225 51.7014 73.4334 49.3489 73.7885C40.9401 75.0609 32.5263 74.9475 24.1963 73.2558C22.0707 72.8218 13.213 70.5532 14.6975 67.2883C24.9065 73.7046 50.8679 73.754 61.1411 67.451L61.146 67.456Z" fill="#FBFAFA"/>
<path d="M61.2987 83.8101C61.1508 86.5226 58.818 87.509 56.7219 88.1797C45.6153 91.7356 33.6062 91.6715 22.2185 89.0576C20.369 88.6335 13.2326 86.3204 14.7713 83.4944C25.1973 90.1278 50.3055 89.9158 61.2987 83.8101Z" fill="#F9F8F8"/>
<path d="M61.1309 59.2641C62.5365 62.6326 54.1129 64.6793 52.0119 65.1133C42.301 67.0959 32.4619 66.9332 22.7806 64.7977C21.1333 64.4327 13.1388 62.0802 14.6923 59.1457C24.5068 65.6361 51.4398 65.5868 61.1309 59.269V59.2641Z" fill="#FAF9F9"/>
<path d="M60.9927 91.8638C62.9112 94.2805 55.7452 96.7168 53.9845 97.1508C43.5634 99.7204 32.8514 99.7154 22.4303 97.1706C20.64 96.7316 12.7687 94.3101 14.9388 91.6962C24.8617 98.226 51.484 98.0682 60.9927 91.8589V91.8638Z" fill="#FAF9F9"/>
<path d="M62.1124 104.83C61.7228 107.237 59.607 108.302 57.5849 109.145C46.8384 113.643 28.6101 113.599 17.7501 108.825C15.9352 108.026 13.9871 107.02 13.6665 104.672C22.9187 112.376 52.3571 112.4 62.1124 104.83Z" fill="#F7F5F5"/>
<path d="M61.7769 45.1786C60.6327 47.5311 58.2555 48.6359 55.8487 49.2918C43.9777 52.5518 31.1548 52.6504 19.4021 49.0058C17.0841 48.2857 14.7316 47.3487 13.9771 44.8433C26.4547 51.5506 49.2745 51.1265 61.7719 45.1786H61.7769Z" fill="#F8F7F6"/>
<path d="M61.0423 42.4168C58.9216 35.9461 39.0905 35.7587 33.2808 35.9807C34.0156 35.3198 35.1845 34.3186 36.3583 34.2348C43.3023 33.7416 55.6518 34.8858 61.2741 39.1469C61.8462 39.5809 62.2112 40.1678 62.1767 40.7005C62.1323 41.4057 61.8166 42.111 61.0473 42.4118L61.0423 42.4168Z" fill="#F5F4F3"/>
<path d="M16.2066 40.4046C16.1178 40.9076 15.2893 41.8693 14.7517 42.0567C14.2487 42.2343 13.9281 41.3663 13.8541 41.026C13.7407 40.518 13.9478 39.7437 14.4262 39.6746C15.023 39.5908 16.0735 39.6549 16.2066 40.4046Z" fill="#D8D6D6"/>
<path d="M23.2936 36.1138C19.0374 36.7254 16.1128 33.9833 16.1128 30.0575C16.1227 18.2308 32.9108 5.28958 39.5688 11.267C45.7731 16.8401 35.4507 34.368 23.2936 36.1188V36.1138Z" fill="#0F0F0F"/>
<path d="M38.7104 12.5197C42.9715 16.4011 35.9633 31.0488 24.043 34.5406C22.1688 35.088 20.0038 34.6441 18.8842 33.5394C14.3666 29.0908 21.7398 14.8426 33.7095 11.3755C35.5047 10.8577 37.5514 11.4692 38.7104 12.5197Z" fill="#FBFAFA"/>
<path d="M37.3247 19.3701C35.5196 27.631 25.6411 34.8759 21.2961 31.0586C17.2963 27.5471 23.0025 17.0373 31.4262 14.1078C33.1079 13.5209 34.9574 13.8661 36.0325 14.818C37.1077 15.7698 37.7193 17.565 37.3247 19.3701Z" fill="#101111"/>
<path d="M35.0216 15.8635C39.5787 19.7646 27.3082 33.934 22.3566 29.9884C19.6243 27.8086 23.7079 18.2703 32.3683 15.4197C33.3103 15.1089 34.4988 15.4197 35.0216 15.8635Z" fill="#FEFDFD"/>
</g>
<defs>
<filter id="filter0_dnn_535_772" x="-2" y="0" width="84" height="125.12" filterUnits="userSpaceOnUse" color-interpolation-filters="sRGB">
<feFlood flood-opacity="0" result="BackgroundImageFix"/>
<feColorMatrix in="SourceAlpha" type="matrix" values="0 0 0 0 0 0 0 0 0 0 0 0 0 0 0 0 0 0 127 0" result="hardAlpha"/>
<feOffset dx="3" dy="3"/>
<feGaussianBlur stdDeviation="2.5"/>
<feComposite in2="hardAlpha" operator="out"/>
<feColorMatrix type="matrix" values="0 0 0 0 0 0 0 0 0 0 0 0 0 0 0 0 0 0 0.25 0"/>
<feBlend mode="normal" in2="BackgroundImageFix" result="effect1_dropShadow_535_772"/>
<feBlend mode="normal" in="SourceGraphic" in2="BackgroundImageFix" result="shape"/>
<feTurbulence type="fractalNoise" baseFrequency="0.5 0.5" stitchTiles="stitch" numOctaves="3" result="noise" seed="7937" />
<feColorMatrix in="noise" type="luminanceToAlpha" result="alphaNoise" />
<feComponentTransfer in="alphaNoise" result="coloredNoise1">
<feFuncA type="discrete" tableValues="0 0 0 0 0 0 0 0 0 0 0 1 1 1 1 1 1 1 1 1 1 1 1 1 1 1 1 1 1 1 1 1 1 1 1 1 1 1 1 0 0 0 0 0 0 0 0 0 0 0 0 0 0 0 0 0 0 0 0 0 0 0 0 0 0 0 0 0 0 0 0 0 0 0 0 0 0 0 0 0 0 0 0 0 0 0 0 0 0 0 0 0 0 0 0 0 0 0 0 0 "/>
</feComponentTransfer>
<feComposite operator="in" in2="shape" in="coloredNoise1" result="noise1Clipped" />
<feComponentTransfer in="alphaNoise" result="coloredNoise2">
<feFuncA type="discrete" tableValues="0 0 0 0 0 0 0 0 0 0 0 0 0 0 0 0 0 0 0 0 0 0 0 0 0 0 0 0 0 0 0 0 0 0 0 0 0 0 0 0 0 0 0 0 0 0 0 0 0 0 0 0 0 0 0 0 0 0 0 0 0 1 1 1 1 1 1 1 1 1 1 1 1 1 1 1 1 1 1 1 1 1 1 1 1 1 1 1 1 0 0 0 0 0 0 0 0 0 0 0 "/>
</feComponentTransfer>
<feComposite operator="in" in2="shape" in="coloredNoise2" result="noise2Clipped" />
<feFlood flood-color="rgba(0, 0, 0, 0.1)" result="color1Flood" />
<feComposite operator="in" in2="noise1Clipped" in="color1Flood" result="color1" />
<feFlood flood-color="rgba(255, 255, 255, 0.1)" result="color2Flood" />
<feComposite operator="in" in2="noise2Clipped" in="color2Flood" result="color2" />
<feMerge result="effect2_noise_535_772">
<feMergeNode in="shape" />
<feMergeNode in="color1" />
<feMergeNode in="color2" />
</feMerge>
<feTurbulence type="fractalNoise" baseFrequency="0.3333333432674408 0.3333333432674408" stitchTiles="stitch" numOctaves="3" result="noise" seed="1755" />
<feColorMatrix in="noise" type="luminanceToAlpha" result="alphaNoise" />
<feComponentTransfer in="alphaNoise" result="coloredNoise1">
<feFuncA type="discrete" tableValues="0 0 0 1 1 1 1 1 1 1 1 1 1 1 1 1 1 1 1 1 1 1 1 1 1 1 1 1 1 1 1 1 1 1 1 1 1 1 1 1 1 1 1 1 1 1 0 0 0 0 0 0 0 0 0 0 0 0 0 0 0 0 0 0 0 0 0 0 0 0 0 0 0 0 0 0 0 0 0 0 0 0 0 0 0 0 0 0 0 0 0 0 0 0 0 0 0 0 0 0 "/>
</feComponentTransfer>
<feComposite operator="in" in2="effect2_noise_535_772" in="coloredNoise1" result="noise1Clipped" />
<feComponentTransfer in="alphaNoise" result="coloredNoise2">
<feFuncA type="discrete" tableValues="0 0 0 0 0 0 0 0 0 0 0 0 0 0 0 0 0 0 0 0 0 0 0 0 0 0 0 0 0 0 0 0 0 0 0 0 0 0 0 0 0 0 0 0 0 0 0 0 0 0 0 0 0 0 1 1 1 1 1 1 1 1 1 1 1 1 1 1 1 1 1 1 1 1 1 1 1 1 1 1 1 1 1 1 1 1 1 1 1 1 1 1 1 1 1 1 1 0 0 0 "/>
</feComponentTransfer>
<feComposite operator="in" in2="effect2_noise_535_772" in="coloredNoise2" result="noise2Clipped" />
<feFlood flood-color="rgba(0, 0, 0, 0.1)" result="color1Flood" />
<feComposite operator="in" in2="noise1Clipped" in="color1Flood" result="color1" />
<feFlood flood-color="rgba(21, 21, 21, 0.1)" result="color2Flood" />
<feComposite operator="in" in2="noise2Clipped" in="color2Flood" result="color2" />
<feMerge result="effect3_noise_535_772">
<feMergeNode in="effect2_noise_535_772" />
<feMergeNode in="color1" />
<feMergeNode in="color2" />
</feMerge>
<feBlend mode="normal" in="effect3_noise_535_772" in2="effect1_dropShadow_535_772" result="effect3_noise_535_772"/>
</filter>
</defs>
</svg>
