<svg width="103" height="101" viewBox="0 0 103 101" fill="none" xmlns="http://www.w3.org/2000/svg">
<g filter="url(#filter0_dng_431_9151)">
<g clip-path="url(#clip0_431_9151)">
<path d="M91.3148 5.01904H10.5637C8.57664 5.01904 6.9519 6.89011 6.9519 9.17864V85.5236C6.9519 87.8121 8.57664 89.6832 10.5637 89.6832H91.311C93.2981 89.6832 94.9228 87.8121 94.9228 85.5236V9.17864C94.9228 6.89011 93.2981 5.01904 91.311 5.01904H91.3148Z" fill="#DF1725"/>
<path d="M86.2389 5.49614C88.1064 5.12342 89.6004 5.12342 91.468 5.12342C93.709 5.12342 95.203 6.98704 95.203 9.22338C95.95 33.0777 94.0825 56.5592 94.456 80.4135C94.8295 82.2772 94.8295 83.7681 94.8295 85.6317C94.8295 87.4953 94.0825 89.3589 92.215 89.3589C64.5758 91.5952 36.9367 88.9862 9.29754 88.9862C7.43003 88.9862 6.68303 87.1226 6.68303 85.2589C6.30952 61.7774 7.80353 37.9231 7.43003 14.4415C7.05653 12.5779 7.05653 10.7143 7.05653 8.85065C7.43003 7.35976 8.17703 5.49614 9.67104 5.12342C35.4427 3.2598 60.8408 6.24159 86.2389 5.49614Z" stroke="#670000" stroke-width="6" stroke-miterlimit="10"/>
<path d="M82.0743 80.2566L81.8195 77.9826C80.8112 73.2203 78.89 68.9942 76.2788 64.8754L70.8548 58.976C68.2118 57.1526 65.6431 55.5544 62.7878 53.9884L56.7057 52.2507L53.5851 51.8002L49.1589 51.6501L49.1058 60.8531C48.6388 63.2664 46.7388 64.9719 44.1913 64.6179L42.7265 64.3498L36.3685 59.2549L22.8244 48.3357L16.6786 43.4339C15.4686 42.4149 14.6831 40.9669 14.5027 39.5832C14.5027 37.8456 15.2139 36.419 16.477 35.1212L30.3288 23.8695L40.0835 15.8357L43.788 13.4116C46.4522 13.1756 48.4371 14.3984 49.0952 16.8439L49.1483 26.3151L53.6912 26.551L55.846 26.9801L57.3638 27.2482L59.4973 27.8489C64.3375 29.1253 68.6895 31.3349 72.8185 34.1666C76.4062 36.9661 79.4737 40.1839 81.9469 44.0024C84.4095 48.207 86.2776 52.4224 87.477 57.1204L87.9122 59.5659L88.2731 61.4966C88.5916 64.8432 88.5491 68.2755 88.3262 71.7937L87.8379 74.5825L87.0631 78.0255L86.5748 79.9026C86.0441 80.4604 85.3011 81.0074 84.6005 81.3828L82.0424 80.2673L82.0743 80.2566Z" fill="#543620"/>
<path d="M83.4399 65.1199L83.2934 63.2176C83.2934 63.2176 83.2934 63.1753 83.2934 63.1542L83.0213 61.4738L82.6969 59.8992L82.3411 58.4936L81.9854 56.8978C81.9854 56.8978 81.9749 56.845 81.9644 56.8133L80.6145 52.9665C80.6145 52.9665 80.5936 52.9031 80.5727 52.8713L78.9298 49.6375C78.9298 49.6375 78.8984 49.5847 78.8879 49.5635L78.1868 48.5173L77.4124 47.2491L76.502 45.7378C76.502 45.7378 76.4811 45.7061 76.4706 45.685L75.4451 44.2477C75.4451 44.2477 75.4137 44.2055 75.3928 44.1843C74.1162 42.747 72.7767 41.183 71.2071 40.3164C70.6315 39.6928 69.8572 39.0905 69.1142 38.6149L68.0468 37.8434C65.1482 35.9306 61.9461 34.525 58.4824 33.4576L55.7721 32.6967C55.7721 32.6967 55.7198 32.6861 55.6884 32.6756L53.2921 32.2951L51.1155 31.9781C51.1155 31.9781 51.0527 31.9781 51.0318 31.9781L46.417 31.8724C46.2287 31.8724 46.0403 31.7984 45.9147 31.6505C45.538 31.2383 45.088 30.7099 44.7009 30.2026C44.6067 30.0758 44.5544 29.9279 44.5544 29.7588L44.4602 21.114C44.4602 20.501 43.7591 20.1629 43.2882 20.5433L38.6943 24.1788L31.8716 29.7799L29.3078 31.7139C29.3078 31.7139 29.2869 31.735 29.2764 31.7456L27.5812 33.1934L22.3281 37.463L20.2561 39.1644C20.2561 39.1644 19.5027 39.714 19.5027 40.2001C19.5027 40.6863 20.3922 41.2781 20.3922 41.2781L22.3699 42.8105L24.1279 44.2477L30.5112 49.2887L33.1901 51.4764L37.0514 54.6679L43.33 59.6667C43.8114 60.0471 44.502 59.709 44.5125 59.096L44.5439 49.7643C44.5439 49.6058 44.5857 49.4473 44.6799 49.331C45.1404 48.6969 45.831 48.2531 46.5949 47.9043C46.6891 47.862 46.8042 47.8409 46.9088 47.8409L52.0992 47.9255C52.0992 47.9255 52.1515 47.9255 52.1829 47.9255L55.3222 48.3482L56.7872 48.5173C56.7872 48.5173 56.85 48.5173 56.8918 48.5384L61.2659 49.6903C61.2659 49.6903 61.2973 49.6903 61.3183 49.7009C65.7237 51.1276 69.7421 53.2835 73.2999 56.3588L76.2404 59.0749L76.8055 59.5187L77.7159 60.6073L78.9716 62.2559C78.9716 62.2559 78.9925 62.277 78.9925 62.2876L79.6727 63.3021L80.3843 64.4858L81.5563 66.462C81.5563 66.462 81.5772 66.4937 81.5772 66.5043L82.6132 68.5862C82.6132 68.5862 82.6446 68.6496 82.6551 68.6813L83.2306 70.3828L83.5027 68.0472C83.5027 68.0472 83.5027 67.9838 83.5027 67.9521L83.4713 65.1199C83.4713 65.1199 83.4713 65.0882 83.4713 65.067L83.4399 65.1199Z" fill="#F4C441"/>
<path d="M19.853 40.9564C19.9059 40.9987 19.9588 41.041 19.9905 41.0622L19.853 40.9564Z" fill="#978273"/>
<path d="M69.402 38.5139C69.5289 38.6408 69.6663 38.7677 69.7826 38.8946C70.1527 39.0955 70.5122 39.3387 70.8506 39.603C70.4065 39.2012 69.8989 38.8311 69.402 38.5139Z" fill="#978273"/>
<path d="M59.7586 48.2841C59.7586 48.2841 59.7269 48.2735 59.7058 48.2735L55.2859 47.121C55.2859 47.121 55.2225 47.1104 55.1802 47.0998L53.6998 46.9306L50.5277 46.5077C50.5277 46.5077 50.4748 46.5077 50.4431 46.5077L45.1985 46.4231C45.0927 46.4231 44.9764 46.4442 44.8812 46.4865C44.1094 46.8249 43.4115 47.2796 42.9462 47.914C42.8511 48.0409 42.8088 48.1995 42.8088 48.3475L42.7771 57.6842C42.7771 58.2341 42.2061 58.5619 41.7514 58.3504L43.2317 59.5241C43.7181 59.9047 44.416 59.5664 44.4266 58.9531L44.4583 49.6164C44.4583 49.4578 44.5006 49.2992 44.5958 49.1829C45.061 48.5484 45.7589 48.1043 46.5308 47.7554C46.6259 47.7131 46.7422 47.692 46.848 47.692L52.0926 47.7765C52.0926 47.7765 52.1455 47.7765 52.1772 47.7765L55.3493 48.1995L56.8297 48.3687C56.8297 48.3687 56.8931 48.3687 56.9354 48.3898L61.3553 49.5424C61.3553 49.5424 61.387 49.5424 61.4081 49.553C64.9715 50.6949 68.2706 52.3127 71.2947 54.4909C67.837 51.6677 63.9776 49.6481 59.7586 48.2947V48.2841Z" fill="#978273"/>
<path d="M83.8037 64.9802C83.8037 64.9802 83.8037 64.9485 83.8037 64.9273L83.6556 63.0241C83.6556 63.0241 83.6556 62.9818 83.6556 62.9606L83.3807 61.2794L83.0529 59.7039L82.6934 58.2976L82.3339 56.7009C82.3339 56.7009 82.3233 56.648 82.3127 56.6163L80.9487 52.7674C80.9487 52.7674 80.9276 52.704 80.9064 52.6723L79.2463 49.4367C79.2463 49.4367 79.2146 49.3838 79.204 49.3627L78.4956 48.3159L77.7131 47.047L76.7932 45.5349C76.7932 45.5349 76.7721 45.5032 76.7615 45.4821L75.7252 44.044C75.7252 44.044 75.6935 44.0017 75.6724 43.9806C74.4458 42.6271 73.177 41.1574 71.7072 40.2692C72.5214 41.0199 73.2827 41.887 74.0334 42.7117C74.0546 42.7329 74.0652 42.754 74.0863 42.7752L75.1225 44.2132C75.1225 44.2132 75.1437 44.2449 75.1543 44.2661L76.0742 45.7781L76.8566 47.047L77.5651 48.0938C77.5651 48.0938 77.5968 48.1467 77.6074 48.1678L79.2675 51.4034C79.2675 51.4034 79.2992 51.4669 79.3098 51.4986L80.6738 55.3475C80.6738 55.3475 80.6949 55.4003 80.6949 55.432L81.0545 57.0287L81.414 58.435L81.7418 60.0105L82.0167 61.6917C82.0167 61.6917 82.0167 61.734 82.0167 61.7552L82.1647 63.6585C82.1647 63.6585 82.1647 63.6902 82.1647 63.7114L82.1964 66.5451C82.1964 66.5451 82.1964 66.6086 82.1964 66.6403L82.1647 66.8941L82.9472 68.4484C82.9472 68.4484 82.9789 68.5119 82.9895 68.5436L83.571 70.246L83.8459 67.9092C83.8459 67.9092 83.8459 67.8457 83.8459 67.814L83.8142 64.9802H83.8037Z" fill="#978273"/>
<path d="M48.0536 33.2482L53.0656 33.3645L55.3073 33.6923L57.771 34.0835L60.5413 34.8554C64.0307 35.9234 67.2663 37.3297 70.2058 39.2435L71.2632 39.9943C70.7028 39.4233 70.0049 38.884 69.307 38.4611L68.2285 37.6892C65.2995 35.7753 62.0639 34.369 58.564 33.301L55.7937 32.5291L53.33 32.1379L51.0883 31.8101L46.7213 31.715C47.1654 32.2754 47.6624 32.8569 48.0536 33.2482Z" fill="white"/>
<path d="M21.1433 41.5909C21.1433 41.0939 21.9046 40.5546 21.9046 40.5546L23.9983 38.8523L29.3063 34.5804L31.0404 33.1212L33.6416 31.1651L40.5357 25.5609L44.4058 22.5263L44.3846 20.9613C44.3846 20.3481 43.6656 19.9991 43.1792 20.3798L38.5584 24.0066L31.6643 29.6107L29.0631 31.5669L27.329 33.0261L22.021 37.2979L19.9273 39.0003C19.9273 39.0003 19.166 39.5501 19.166 40.0365C19.166 40.5229 20.0648 41.1151 20.0648 41.1151L21.524 42.2359C21.3231 42.035 21.1433 41.7918 21.1433 41.5803V41.5909Z" fill="white"/>
</g>
<path d="M37.0027 3.12054L37.0875 2.12414L37.0027 3.12054ZM38.5027 3.24824L38.5875 2.25185L38.5027 3.24824ZM40.0027 3.37594L39.9179 4.37234L40.0027 3.37594ZM43.0027 3.48638L42.9912 2.48645L43.0027 3.48638ZM46.0027 3.45186L45.9912 2.45192L46.0027 3.45186ZM73.0027 3.08109L72.9313 4.07854L73.0027 3.08109ZM74.5027 3.18844L74.5741 2.191L74.5027 3.18844ZM76.0027 3.2958L76.0741 2.29835L76.0027 3.2958ZM91.0027 3.34277L91.0175 4.34266L91.0027 3.34277ZM94.0027 3.29824L94.0175 4.29813L94.0027 3.29824ZM95.7226 4.55268L94.7371 4.72242L95.7226 4.55268ZM95.9425 5.82939L96.928 5.65965L95.9425 5.82939ZM96.1624 7.1061L95.1769 7.27585L96.1624 7.1061ZM96.4659 9.88281L97.4643 9.8272L96.4659 9.88281ZM96.6329 12.8828L95.6345 12.9384L96.6329 12.8828ZM96.7973 15.8828L95.7988 15.9366L96.7973 15.8828ZM97.052 21.8828L98.052 21.8748L97.052 21.8828ZM97.0762 24.8828L96.0762 24.8909L97.0762 24.8828ZM96.9584 27.8828L95.9622 27.7966L96.9584 27.8828ZM96.6987 30.8828L97.695 30.9691L96.6987 30.8828ZM96.4724 33.8828L95.4745 33.8186L96.4724 33.8828ZM96.2795 36.8828L97.2774 36.947L96.2795 36.8828ZM96.1578 39.8828L97.1577 39.8996L96.1578 39.8828ZM96.1074 42.8828L95.1075 42.866L96.1074 42.8828ZM96.2294 45.8828L97.2246 45.7851L96.2294 45.8828ZM96.524 48.8828L95.5288 48.9805L96.524 48.8828ZM96.7323 51.8828L95.7331 51.9235L96.7323 51.8828ZM96.7934 53.3828L97.7925 53.3422L96.7934 53.3828ZM96.8544 54.8828L95.8552 54.9235L96.8544 54.8828ZM96.8093 57.8828L95.8118 57.8122L96.8093 57.8828ZM96.5971 60.8828L95.5995 60.8122L96.5971 60.8828ZM96.4384 63.8828L95.439 63.8478L96.4384 63.8828ZM96.3333 66.8828L97.3327 66.9178L96.3333 66.8828ZM96.1955 69.8828L95.1971 69.826L96.1955 69.8828ZM96.1101 71.3828L97.1085 71.4396L96.1101 71.3828ZM96.0248 72.8828L95.0264 72.826L96.0248 72.8828ZM96.1977 75.8828L95.2122 76.0525L96.1977 75.8828ZM96.456 77.3828L97.4415 77.2131L96.456 77.3828ZM96.7143 78.8828L95.7288 79.0525L96.7143 78.8828ZM96.7339 81.8828L95.7463 81.7257L96.7339 81.8828ZM96.2567 84.8828L95.2691 84.7257L96.2567 84.8828ZM95.8892 87.6569L96.8841 87.7575L95.8892 87.6569ZM95.7604 88.9309L96.7553 89.0315L95.7604 88.9309ZM95.6315 90.205L94.6366 90.1043L95.6315 90.205ZM94.0027 91.4727L93.9985 92.4727L94.0027 91.4727ZM92.5027 91.4663L92.5069 90.4664L92.5027 91.4663ZM91.0027 91.46L90.9985 92.46L91.0027 91.46ZM85.0027 91.7492L85.0682 92.7471L85.0027 91.7492ZM82.0027 91.6529L81.8739 92.6446L82.0027 91.6529ZM79.0027 91.2633L79.1315 90.2717L79.0027 91.2633ZM76.0027 91.1455L76.0539 92.1442L76.0027 91.1455ZM73.0027 91.2995L72.9514 90.3008L73.0027 91.2995ZM70.0027 91.4864L69.9296 90.489L70.0027 91.4864ZM67.0027 91.7061L67.0757 92.7034L67.0027 91.7061ZM64.0027 91.8507L63.9796 90.8509L64.0027 91.8507ZM62.5027 91.8854L62.5258 92.8851L62.5027 91.8854ZM58.0027 91.7494L57.8671 92.7401L58.0027 91.7494ZM55.0027 91.3387L55.1383 90.3479L55.0027 91.3387ZM52.0027 91.201L52.0477 92.1999L52.0027 91.201ZM50.5027 91.2686L50.4577 90.2696L50.5027 91.2686ZM49.0027 91.3362L49.0477 92.3351L49.0027 91.3362ZM46.0027 91.3274L45.9519 92.3261L46.0027 91.3274ZM44.5027 91.2511L44.5535 90.2524L44.5027 91.2511ZM43.0027 91.1747L42.9519 92.1734L43.0027 91.1747ZM38.5027 91.2499L38.4522 90.2512L38.5027 91.2499ZM37.0027 91.3257L37.0531 92.3245L37.0027 91.3257ZM34.0027 91.5224L34.083 92.5192L34.0027 91.5224ZM32.5027 91.6433L32.4224 90.6465L32.5027 91.6433ZM31.0027 91.7642L31.083 92.7609L31.0027 91.7642ZM28.0027 91.8342L27.9688 92.8337L28.0027 91.8342ZM26.5027 91.7834L26.4688 92.7828L26.5027 91.7834ZM25.0027 91.7326L25.0365 90.7332L25.0027 91.7326ZM22.0027 91.6692L21.9943 92.6692L22.0027 91.6692ZM19.0027 91.6441L19.0111 90.6442L19.0027 91.6441ZM16.0027 91.5135L16.0812 90.5166L16.0027 91.5135ZM13.0027 91.2774L12.9242 92.2743L13.0027 91.2774ZM10.0027 91.296L10.0934 92.2918L10.0027 91.296ZM8.50269 91.4326L8.41198 90.4367L8.50269 91.4326ZM5.61433 74.8828L4.61437 74.8913L5.61433 74.8828ZM5.48916 65.8828L4.49033 65.9312L5.48916 65.8828ZM5.612 29.8828L4.61649 29.7882L5.612 29.8828ZM5.65797 20.8828L4.66155 20.9674L5.65797 20.8828ZM8.50269 3.20178L8.56292 4.19996L10.0629 4.10944L10.0027 3.11126L9.94245 2.11308L8.44245 2.20359L8.50269 3.20178ZM10.0027 3.11126L10.0629 4.10944C11.0114 4.05221 11.9598 4.06835 12.9087 4.15795L13.0027 3.16238L13.0967 2.16681C12.0456 2.06755 10.994 2.04962 9.94245 2.11308L10.0027 3.11126ZM13.0027 3.16238L12.9087 4.15795L14.4087 4.29958L14.5027 3.30401L14.5967 2.30844L13.0967 2.16681L13.0027 3.16238ZM14.5027 3.30401L14.4087 4.29958L15.9087 4.44122L16.0027 3.44565L16.0967 2.45007L14.5967 2.30844L14.5027 3.30401ZM16.0027 3.44565L15.9087 4.44122C16.9239 4.53708 17.9393 4.60943 18.9547 4.65825L19.0027 3.65941L19.0507 2.66056C18.0661 2.61322 17.0814 2.54306 16.0967 2.45007L16.0027 3.44565ZM19.0027 3.65941L18.9547 4.65825L20.4547 4.73038L20.5027 3.73154L20.5507 2.73269L19.0507 2.66056L19.0027 3.65941ZM20.5027 3.73154L20.4547 4.73038L21.9547 4.80251L22.0027 3.80367L22.0507 2.80482L20.5507 2.73269L20.5027 3.73154ZM22.0027 3.80367L21.9547 4.80251C23.0182 4.85366 24.0814 4.80362 25.1433 4.65276L25.0027 3.6627L24.862 2.67264C23.924 2.80591 22.9871 2.84985 22.0507 2.80482L22.0027 3.80367ZM25.0027 3.6627L25.1433 4.65276L26.6433 4.43967L26.5027 3.44961L26.362 2.45955L24.862 2.67264L25.0027 3.6627ZM26.5027 3.44961L26.6433 4.43967L28.1433 4.22658L28.0027 3.23652L27.862 2.24646L26.362 2.45955L26.5027 3.44961ZM28.0027 3.23652L28.1433 4.22658C29.0989 4.09083 30.0536 4.02063 31.0078 4.01576L31.0027 3.01578L30.9976 2.01579C29.9518 2.02112 28.9065 2.09808 27.862 2.24646L28.0027 3.23652ZM31.0027 3.01578L31.0078 4.01576L32.5078 4.00812L32.5027 3.00813L32.4976 2.00814L30.9976 2.01579L31.0027 3.01578ZM32.5027 3.00813L32.5078 4.00812L34.0078 4.00047L34.0027 3.00048L33.9976 2.0005L32.4976 2.00814L32.5027 3.00813ZM34.0027 3.00048L34.0078 4.00047C34.9777 3.99553 35.9477 4.03434 36.9179 4.11693L37.0027 3.12054L37.0875 2.12414C36.0577 2.03647 35.0277 1.99525 33.9976 2.0005L34.0027 3.00048ZM37.0027 3.12054L36.9179 4.11693L38.4179 4.24464L38.5027 3.24824L38.5875 2.25185L37.0875 2.12414L37.0027 3.12054ZM38.5027 3.24824L38.4179 4.24464L39.9179 4.37234L40.0027 3.37594L40.0875 2.37955L38.5875 2.25185L38.5027 3.24824ZM40.0027 3.37594L39.9179 4.37234C40.9498 4.46019 41.9819 4.4982 43.0142 4.48632L43.0027 3.48638L42.9912 2.48645C42.0234 2.49759 41.0556 2.46196 40.0875 2.37955L40.0027 3.37594ZM43.0027 3.48638L43.0142 4.48632L44.5142 4.46905L44.5027 3.46912L44.4912 2.46919L42.9912 2.48645L43.0027 3.48638ZM44.5027 3.46912L44.5142 4.46905L46.0142 4.45179L46.0027 3.45186L45.9912 2.45192L44.4912 2.46919L44.5027 3.46912ZM46.0027 3.45186L46.0142 4.45179C47.0141 4.44028 48.014 4.42889 49.014 4.41762L49.0027 3.41768L48.9914 2.41775C47.9913 2.42902 46.9913 2.44041 45.9912 2.45192L46.0027 3.45186ZM49.0027 3.41768L49.014 4.41762L50.514 4.40071L50.5027 3.40077L50.4914 2.40084L48.9914 2.41775L49.0027 3.41768ZM50.5027 3.40077L50.514 4.40071L52.014 4.3838L52.0027 3.38386L51.9914 2.38392L50.4914 2.40084L50.5027 3.40077ZM52.0027 3.38386L52.014 4.3838C52.9825 4.37288 53.9511 4.40761 54.92 4.48803L55.0027 3.49145L55.0854 2.49488C54.0542 2.40929 53.0229 2.3723 51.9914 2.38392L52.0027 3.38386ZM55.0027 3.49145L54.92 4.48803L56.42 4.61253L56.5027 3.61595L56.5854 2.61938L55.0854 2.49488L55.0027 3.49145ZM56.5027 3.61595L56.42 4.61253L57.92 4.73703L58.0027 3.74046L58.0854 2.74388L56.5854 2.61938L56.5027 3.61595ZM58.0027 3.74046L57.92 4.73703C58.9481 4.82236 59.9763 4.86399 61.0047 4.86188L61.0027 3.86189L61.0006 2.86189C60.029 2.86388 59.0573 2.82455 58.0854 2.74388L58.0027 3.74046ZM61.0027 3.86189L61.0047 4.86188L62.5047 4.85881L62.5027 3.85882L62.5006 2.85882L61.0006 2.86189L61.0027 3.86189ZM62.5027 3.85882L62.5047 4.85881L64.0047 4.85574L64.0027 3.85574L64.0006 2.85575L62.5006 2.85882L62.5027 3.85882ZM64.0027 3.85574L64.0047 4.85574C65.0531 4.85359 66.1008 4.77573 67.1476 4.62238L67.0027 3.63294L66.8577 2.6435C65.9046 2.78313 64.9523 2.8538 64.0006 2.85575L64.0027 3.85574ZM67.0027 3.63294L67.1476 4.62238L68.6476 4.40264L68.5027 3.4132L68.3577 2.42376L66.8577 2.6435L67.0027 3.63294ZM68.5027 3.4132L68.6476 4.40264L70.1476 4.18291L70.0027 3.19347L69.8577 2.20403L68.3577 2.42376L68.5027 3.4132ZM70.0027 3.19347L70.1476 4.18291C71.0766 4.04683 72.0041 4.01218 72.9313 4.07854L73.0027 3.08109L73.0741 2.08364C72.0013 2.00687 70.9288 2.04714 69.8577 2.20403L70.0027 3.19347ZM73.0027 3.08109L72.9313 4.07854L74.4313 4.18589L74.5027 3.18844L74.5741 2.191L73.0741 2.08364L73.0027 3.08109ZM74.5027 3.18844L74.4313 4.18589L75.9313 4.29325L76.0027 3.2958L76.0741 2.29835L74.5741 2.191L74.5027 3.18844ZM76.0027 3.2958L75.9313 4.29325C76.9272 4.36452 77.9232 4.4419 78.9192 4.52538L79.0027 3.52888L79.0862 2.53237C78.0822 2.44822 77.0781 2.37021 76.0741 2.29835L76.0027 3.2958ZM79.0027 3.52888L78.9192 4.52538L80.4192 4.65111L80.5027 3.65461L80.5862 2.6581L79.0862 2.53237L79.0027 3.52888ZM80.5027 3.65461L80.4192 4.65111L81.9192 4.77684L82.0027 3.78034L82.0862 2.78383L80.5862 2.6581L80.5027 3.65461ZM82.0027 3.78034L81.9192 4.77684C82.9769 4.8655 84.0349 4.86214 85.0925 4.76677L85.0027 3.77081L84.9129 2.77485C83.9705 2.85983 83.0285 2.86281 82.0862 2.78383L82.0027 3.78034ZM85.0027 3.77081L85.0925 4.76677L86.5925 4.63151L86.5027 3.63555L86.4129 2.63959L84.9129 2.77485L85.0027 3.77081ZM86.5027 3.63555L86.5925 4.63151L88.0925 4.49626L88.0027 3.5003L87.9129 2.50434L86.4129 2.63959L86.5027 3.63555ZM88.0027 3.5003L88.0925 4.49626C89.0677 4.40832 90.0427 4.35713 91.0175 4.34266L91.0027 3.34277L90.9878 2.34288C89.9627 2.3581 88.9377 2.41193 87.9129 2.50434L88.0027 3.5003ZM91.0027 3.34277L91.0175 4.34266L92.5175 4.32039L92.5027 3.3205L92.4878 2.32061L90.9878 2.34288L91.0027 3.34277ZM92.5027 3.3205L92.5175 4.32039L94.0175 4.29813L94.0027 3.29824L93.9878 2.29835L92.4878 2.32061L92.5027 3.3205ZM94.0027 3.29824L94.0175 4.29813C94.3871 4.29264 94.5409 4.37035 94.5934 4.40864C94.6262 4.43258 94.6978 4.49401 94.7371 4.72242L95.7226 4.55268L96.7081 4.38293C96.6008 3.76021 96.3124 3.18699 95.7719 2.79278C95.2511 2.41292 94.6182 2.28899 93.9878 2.29835L94.0027 3.29824ZM95.7226 4.55268L94.7371 4.72242L94.957 5.99913L95.9425 5.82939L96.928 5.65965L96.7081 4.38293L95.7226 4.55268ZM95.9425 5.82939L94.957 5.99913L95.1769 7.27585L96.1624 7.1061L97.1479 6.93636L96.928 5.65965L95.9425 5.82939ZM96.1624 7.1061L95.1769 7.27585C95.3161 8.08383 95.4135 8.97081 95.4674 9.93842L96.4659 9.88281L97.4643 9.8272C97.4068 8.79482 97.3019 7.83065 97.1479 6.93636L96.1624 7.1061ZM96.4659 9.88281L95.4674 9.93842L95.5509 11.4384L96.5494 11.3828L97.5479 11.3272L97.4643 9.8272L96.4659 9.88281ZM96.5494 11.3828L95.5509 11.4384L95.6345 12.9384L96.6329 12.8828L97.6314 12.8272L97.5479 11.3272L96.5494 11.3828ZM96.6329 12.8828L95.6345 12.9384C95.6902 13.9378 95.7449 14.9372 95.7988 15.9366L96.7973 15.8828L97.7959 15.829C97.742 14.8284 97.6871 13.8278 97.6314 12.8272L96.6329 12.8828ZM96.7973 15.8828L95.7988 15.9366L95.8797 17.4366L96.8782 17.3828L97.8768 17.329L97.7959 15.829L96.7973 15.8828ZM96.8782 17.3828L95.8797 17.4366L95.9605 18.9366L96.9591 18.8828L97.9576 18.829L97.8768 17.329L96.8782 17.3828ZM96.9591 18.8828L95.9605 18.9366C96.0136 19.9214 96.0441 20.9062 96.052 21.8909L97.052 21.8828L98.052 21.8748C98.0438 20.8595 98.0123 19.8442 97.9576 18.829L96.9591 18.8828ZM97.052 21.8828L96.052 21.8909L96.0641 23.3909L97.0641 23.3828L98.0641 23.3748L98.052 21.8748L97.052 21.8828ZM97.0641 23.3828L96.0641 23.3909L96.0762 24.8909L97.0762 24.8828L98.0762 24.8748L98.0641 23.3748L97.0641 23.3828ZM97.0762 24.8828L96.0762 24.8909C96.084 25.8593 96.046 26.8278 95.9622 27.7966L96.9584 27.8828L97.9547 27.9691C98.044 26.9378 98.0845 25.9063 98.0762 24.8748L97.0762 24.8828ZM96.9584 27.8828L95.9622 27.7966L95.8323 29.2966L96.8286 29.3828L97.8248 29.4691L97.9547 27.9691L96.9584 27.8828ZM96.8286 29.3828L95.8323 29.2966L95.7024 30.7966L96.6987 30.8828L97.695 30.9691L97.8248 29.4691L96.8286 29.3828ZM96.6987 30.8828L95.7024 30.7966C95.6152 31.8039 95.5392 32.8113 95.4745 33.8186L96.4724 33.8828L97.4703 33.947C97.5342 32.9544 97.609 31.9617 97.695 30.9691L96.6987 30.8828ZM96.4724 33.8828L95.4745 33.8186L95.378 35.3186L96.376 35.3828L97.3739 35.447L97.4703 33.947L96.4724 33.8828ZM96.376 35.3828L95.378 35.3186L95.2816 36.8186L96.2795 36.8828L97.2774 36.947L97.3739 35.447L96.376 35.3828ZM96.2795 36.8828L95.2816 36.8186C95.2163 37.8344 95.1751 38.8502 95.158 39.866L96.1578 39.8828L97.1577 39.8996C97.1742 38.9155 97.2142 37.9312 97.2774 36.947L96.2795 36.8828ZM96.1578 39.8828L95.158 39.866L95.1327 41.366L96.1326 41.3828L97.1325 41.3996L97.1577 39.8996L96.1578 39.8828ZM96.1326 41.3828L95.1327 41.366L95.1075 42.866L96.1074 42.8828L97.1072 42.8996L97.1325 41.3996L96.1326 41.3828ZM96.1074 42.8828L95.1075 42.866C95.09 43.9044 95.1323 44.9426 95.2342 45.9805L96.2294 45.8828L97.2246 45.7851C97.1302 44.823 97.0911 43.8612 97.1072 42.8996L96.1074 42.8828ZM96.2294 45.8828L95.2342 45.9805L95.3815 47.4805L96.3767 47.3828L97.3719 47.2851L97.2246 45.7851L96.2294 45.8828ZM96.3767 47.3828L95.3815 47.4805L95.5288 48.9805L96.524 48.8828L97.5192 48.7851L97.3719 47.2851L96.3767 47.3828ZM96.524 48.8828L95.5288 48.9805C95.6251 49.9616 95.6932 50.9426 95.7331 51.9235L96.7323 51.8828L97.7315 51.8422C97.69 50.823 97.6192 49.804 97.5192 48.7851L96.524 48.8828ZM96.7323 51.8828L95.7331 51.9235L95.7942 53.4235L96.7934 53.3828L97.7925 53.3422L97.7315 51.8422L96.7323 51.8828ZM96.7934 53.3828L95.7942 53.4235L95.8552 54.9235L96.8544 54.8828L97.8536 54.8422L97.7925 53.3422L96.7934 53.3828ZM96.8544 54.8828L95.8552 54.9235C95.8944 55.8863 95.88 56.8492 95.8118 57.8122L96.8093 57.8828L97.8068 57.9534C97.8802 56.9164 97.8958 55.8793 97.8536 54.8422L96.8544 54.8828ZM96.8093 57.8828L95.8118 57.8122L95.7057 59.3122L96.7032 59.3828L97.7007 59.4534L97.8068 57.9534L96.8093 57.8828ZM96.7032 59.3828L95.7057 59.3122L95.5995 60.8122L96.5971 60.8828L97.5946 60.9534L97.7007 59.4534L96.7032 59.3828ZM96.5971 60.8828L95.5995 60.8122C95.528 61.8241 95.4744 62.8359 95.439 63.8478L96.4384 63.8828L97.4378 63.9178C97.4724 62.9297 97.5246 61.9416 97.5946 60.9534L96.5971 60.8828ZM96.4384 63.8828L95.439 63.8478L95.3865 65.3478L96.3859 65.3828L97.3853 65.4178L97.4378 63.9178L96.4384 63.8828ZM96.3859 65.3828L95.3865 65.3478L95.334 66.8478L96.3333 66.8828L97.3327 66.9178L97.3853 65.4178L96.3859 65.3828ZM96.3333 66.8828L95.334 66.8478C95.2992 67.8405 95.2536 68.8333 95.1971 69.826L96.1955 69.8828L97.1939 69.9396C97.2512 68.9324 97.2975 67.9251 97.3327 66.9178L96.3333 66.8828ZM96.1955 69.8828L95.1971 69.826L95.1117 71.326L96.1101 71.3828L97.1085 71.4396L97.1939 69.9396L96.1955 69.8828ZM96.1101 71.3828L95.1117 71.326L95.0264 72.826L96.0248 72.8828L97.0232 72.9396L97.1085 71.4396L96.1101 71.3828ZM96.0248 72.8828L95.0264 72.826C94.9651 73.9027 95.0273 74.9787 95.2122 76.0525L96.1977 75.8828L97.1832 75.7131C97.0238 74.7869 96.9707 73.8629 97.0232 72.9396L96.0248 72.8828ZM96.1977 75.8828L95.2122 76.0525L95.4705 77.5525L96.456 77.3828L97.4415 77.2131L97.1832 75.7131L96.1977 75.8828ZM96.456 77.3828L95.4705 77.5525L95.7288 79.0525L96.7143 78.8828L97.6998 78.7131L97.4415 77.2131L96.456 77.3828ZM96.7143 78.8828L95.7288 79.0525C95.8824 79.9446 95.8881 80.8343 95.7463 81.7257L96.7339 81.8828L97.7215 82.0399C97.8978 80.9314 97.8905 79.821 97.6998 78.7131L96.7143 78.8828ZM96.7339 81.8828L95.7463 81.7257L95.5077 83.2257L96.4953 83.3828L97.4829 83.5399L97.7215 82.0399L96.7339 81.8828ZM96.4953 83.3828L95.5077 83.2257L95.2691 84.7257L96.2567 84.8828L97.2443 85.0399L97.4829 83.5399L96.4953 83.3828ZM96.2567 84.8828L95.2691 84.7257C95.1076 85.7411 94.9824 86.6849 94.8943 87.5562L95.8892 87.6569L96.8841 87.7575C96.9678 86.9301 97.0876 86.0245 97.2443 85.0399L96.2567 84.8828ZM95.8892 87.6569L94.8943 87.5562L94.7654 88.8303L95.7604 88.9309L96.7553 89.0315L96.8841 87.7575L95.8892 87.6569ZM95.7604 88.9309L94.7654 88.8303L94.6366 90.1043L95.6315 90.205L96.6265 90.3056L96.7553 89.0315L95.7604 88.9309ZM95.6315 90.205L94.6366 90.1043C94.6141 90.327 94.5518 90.365 94.5457 90.3698C94.5154 90.3934 94.3812 90.4743 94.0069 90.4727L94.0027 91.4727L93.9985 92.4727C94.6242 92.4753 95.2615 92.347 95.7741 91.9481C96.311 91.5302 96.5631 90.9323 96.6265 90.3056L95.6315 90.205ZM94.0027 91.4727L94.0069 90.4727L92.5069 90.4664L92.5027 91.4663L92.4985 92.4663L93.9985 92.4727L94.0027 91.4727ZM92.5027 91.4663L92.5069 90.4664L91.0069 90.46L91.0027 91.46L90.9985 92.46L92.4985 92.4663L92.5027 91.4663ZM91.0027 91.46L91.0069 90.46C89.9836 90.4557 88.9603 90.4872 87.9371 90.5544L88.0027 91.5522L88.0682 92.5501C89.0451 92.4859 90.0218 92.4559 90.9985 92.46L91.0027 91.46ZM88.0027 91.5522L87.9371 90.5544L86.4371 90.6529L86.5027 91.6507L86.5682 92.6486L88.0682 92.5501L88.0027 91.5522ZM86.5027 91.6507L86.4371 90.6529L84.9371 90.7514L85.0027 91.7492L85.0682 92.7471L86.5682 92.6486L86.5027 91.6507ZM85.0027 91.7492L84.9371 90.7514C84.0024 90.8128 83.0675 90.7828 82.1315 90.6613L82.0027 91.6529L81.8739 92.6446C82.9379 92.7828 84.003 92.8171 85.0682 92.7471L85.0027 91.7492ZM82.0027 91.6529L82.1315 90.6613L80.6315 90.4665L80.5027 91.4581L80.3739 92.4498L81.8739 92.6446L82.0027 91.6529ZM80.5027 91.4581L80.6315 90.4665L79.1315 90.2717L79.0027 91.2633L78.8739 92.255L80.3739 92.4498L80.5027 91.4581ZM79.0027 91.2633L79.1315 90.2717C78.0722 90.1341 77.012 90.0924 75.9514 90.1468L76.0027 91.1455L76.0539 92.1442C76.9934 92.096 77.9332 92.1328 78.8739 92.255L79.0027 91.2633ZM76.0027 91.1455L75.9514 90.1468L74.4514 90.2238L74.5027 91.2225L74.5539 92.2212L76.0539 92.1442L76.0027 91.1455ZM74.5027 91.2225L74.4514 90.2238L72.9514 90.3008L73.0027 91.2995L73.0539 92.2982L74.5539 92.2212L74.5027 91.2225ZM73.0027 91.2995L72.9514 90.3008C71.9441 90.3525 70.9369 90.4152 69.9296 90.489L70.0027 91.4864L70.0757 92.4837C71.0685 92.411 72.0612 92.3491 73.0539 92.2982L73.0027 91.2995ZM70.0027 91.4864L69.9296 90.489L68.4296 90.5989L68.5027 91.5962L68.5757 92.5936L70.0757 92.4837L70.0027 91.4864ZM68.5027 91.5962L68.4296 90.5989L66.9296 90.7088L67.0027 91.7061L67.0757 92.7034L68.5757 92.5936L68.5027 91.5962ZM67.0027 91.7061L66.9296 90.7088C65.9462 90.7808 64.9629 90.8282 63.9796 90.8509L64.0027 91.8507L64.0258 92.8504C65.0425 92.8269 66.0592 92.7779 67.0757 92.7034L67.0027 91.7061ZM64.0027 91.8507L63.9796 90.8509L62.4796 90.8856L62.5027 91.8854L62.5258 92.8851L64.0258 92.8504L64.0027 91.8507ZM62.5027 91.8854L62.4796 90.8856L60.9796 90.9203L61.0027 91.92L61.0258 92.9198L62.5258 92.8851L62.5027 91.8854ZM61.0027 91.92L60.9796 90.9203C60.0331 90.9422 59.0862 90.8884 58.1383 90.7586L58.0027 91.7494L57.8671 92.7401C58.9192 92.8842 59.9723 92.9441 61.0258 92.9198L61.0027 91.92ZM58.0027 91.7494L58.1383 90.7586L56.6383 90.5533L56.5027 91.544L56.3671 92.5348L57.8671 92.7401L58.0027 91.7494ZM56.5027 91.544L56.6383 90.5533L55.1383 90.3479L55.0027 91.3387L54.8671 92.3295L56.3671 92.5348L56.5027 91.544ZM55.0027 91.3387L55.1383 90.3479C54.079 90.2029 53.0185 90.1542 51.9577 90.202L52.0027 91.201L52.0477 92.1999C52.9869 92.1576 53.9264 92.2007 54.8671 92.3295L55.0027 91.3387ZM52.0027 91.201L51.9577 90.202L50.4577 90.2696L50.5027 91.2686L50.5477 92.2675L52.0477 92.1999L52.0027 91.201ZM50.5027 91.2686L50.4577 90.2696L48.9577 90.3372L49.0027 91.3362L49.0477 92.3351L50.5477 92.2675L50.5027 91.2686ZM49.0027 91.3362L48.9577 90.3372C47.9896 90.3808 47.0216 90.378 46.0535 90.3287L46.0027 91.3274L45.9519 92.3261C46.9838 92.3786 48.0158 92.3816 49.0477 92.3351L49.0027 91.3362ZM46.0027 91.3274L46.0535 90.3287L44.5535 90.2524L44.5027 91.2511L44.4519 92.2498L45.9519 92.3261L46.0027 91.3274ZM44.5027 91.2511L44.5535 90.2524L43.0535 90.176L43.0027 91.1747L42.9519 92.1734L44.4519 92.2498L44.5027 91.2511ZM43.0027 91.1747L43.0535 90.176C42.0198 90.1234 40.986 90.1232 39.9522 90.1754L40.0027 91.1742L40.0531 92.1729C41.0194 92.1241 41.9856 92.1243 42.9519 92.1734L43.0027 91.1747ZM40.0027 91.1742L39.9522 90.1754L38.4522 90.2512L38.5027 91.2499L38.5531 92.2487L40.0531 92.1729L40.0027 91.1742ZM38.5027 91.2499L38.4522 90.2512L36.9522 90.327L37.0027 91.3257L37.0531 92.3245L38.5531 92.2487L38.5027 91.2499ZM37.0027 91.3257L36.9522 90.327C35.9422 90.378 34.9323 90.4442 33.9224 90.5256L34.0027 91.5224L34.083 92.5192C35.0731 92.4394 36.0631 92.3745 37.0531 92.3245L37.0027 91.3257ZM34.0027 91.5224L33.9224 90.5256L32.4224 90.6465L32.5027 91.6433L32.583 92.64L34.083 92.5192L34.0027 91.5224ZM32.5027 91.6433L32.4224 90.6465L30.9224 90.7674L31.0027 91.7642L31.083 92.7609L32.583 92.64L32.5027 91.6433ZM31.0027 91.7642L30.9224 90.7674C29.9602 90.8449 28.9984 90.8674 28.0365 90.8348L28.0027 91.8342L27.9688 92.8337C29.007 92.8688 30.0451 92.8446 31.083 92.7609L31.0027 91.7642ZM28.0027 91.8342L28.0365 90.8348L26.5365 90.784L26.5027 91.7834L26.4688 92.7828L27.9688 92.8337L28.0027 91.8342ZM26.5027 91.7834L26.5365 90.784L25.0365 90.7332L25.0027 91.7326L24.9688 92.732L26.4688 92.7828L26.5027 91.7834ZM25.0027 91.7326L25.0365 90.7332C24.0281 90.699 23.0196 90.6777 22.011 90.6693L22.0027 91.6692L21.9943 92.6692C22.9858 92.6775 23.9773 92.6984 24.9688 92.732L25.0027 91.7326ZM22.0027 91.6692L22.011 90.6693L20.5111 90.6567L20.5027 91.6567L20.4943 92.6567L21.9943 92.6692L22.0027 91.6692ZM20.5027 91.6567L20.5111 90.6567L19.0111 90.6442L19.0027 91.6441L18.9943 92.6441L20.4943 92.6567L20.5027 91.6567ZM19.0027 91.6441L19.0111 90.6442C18.0345 90.636 17.0579 90.5935 16.0812 90.5166L16.0027 91.5135L15.9242 92.5104C16.9475 92.591 17.9709 92.6355 18.9943 92.6441L19.0027 91.6441ZM16.0027 91.5135L16.0812 90.5166L14.5812 90.3985L14.5027 91.3955L14.4242 92.3924L15.9242 92.5104L16.0027 91.5135ZM14.5027 91.3955L14.5812 90.3985L13.0812 90.2805L13.0027 91.2774L12.9242 92.2743L14.4242 92.3924L14.5027 91.3955ZM13.0027 91.2774L13.0812 90.2805C12.0248 90.1973 10.9682 90.2039 9.91198 90.3001L10.0027 91.296L10.0934 92.2918C11.0372 92.2059 11.9806 92.2 12.9242 92.2743L13.0027 91.2774ZM10.0027 91.296L9.91198 90.3001L8.41198 90.4367L8.50269 91.4326L8.59339 92.4285L10.0934 92.2918L10.0027 91.296ZM8.50269 91.4326L8.41198 90.4367L6.91198 90.5733L7.00269 91.5692L7.09339 92.5651L8.59339 92.4285L8.50269 91.4326ZM7.00269 91.5692L6.91198 90.5733C6.55815 90.6056 6.55937 90.5127 6.62802 90.5842C6.65363 90.6109 6.64464 90.6195 6.63088 90.5647C6.61563 90.5039 6.60094 90.3881 6.61477 90.1975L5.6174 90.1251L4.62002 90.0527C4.57304 90.7001 4.66815 91.4303 5.18471 91.9688C5.71512 92.5217 6.44722 92.624 7.09339 92.5651L7.00269 91.5692ZM5.6174 90.1251L6.61477 90.1975L6.72948 88.6167L5.73211 88.5443L4.73473 88.472L4.62002 90.0527L5.6174 90.1251ZM5.73211 88.5443L6.72948 88.6167L6.84419 87.0359L5.84682 86.9636L4.84944 86.8912L4.73473 88.472L5.73211 88.5443ZM5.84682 86.9636L6.84419 87.0359C6.92349 85.9432 6.93669 84.8748 6.88294 83.8314L5.88427 83.8828L4.88559 83.9342C4.93486 84.8908 4.92309 85.8763 4.84944 86.8912L5.84682 86.9636ZM5.88427 83.8828L6.88294 83.8314L6.80569 82.3314L5.80701 82.3828L4.80833 82.4342L4.88559 83.9342L5.88427 83.8828ZM5.80701 82.3828L6.80569 82.3314L6.72843 80.8314L5.72975 80.8828L4.73108 80.9342L4.80833 82.4342L5.80701 82.3828ZM5.72975 80.8828L6.72843 80.8314C6.67766 79.8457 6.6481 78.86 6.63974 77.8743L5.63977 77.8828L4.63981 77.8913C4.64841 78.9056 4.67883 79.92 4.73108 80.9342L5.72975 80.8828ZM5.63977 77.8828L6.63974 77.8743L6.62702 76.3743L5.62705 76.3828L4.62709 76.3913L4.63981 77.8913L5.63977 77.8828ZM5.62705 76.3828L6.62702 76.3743L6.6143 74.8743L5.61433 74.8828L4.61437 74.8913L4.62709 76.3913L5.62705 76.3828ZM5.61433 74.8828L6.6143 74.8743C6.60582 73.8749 6.59827 72.8756 6.59163 71.8762L5.59166 71.8828L4.59168 71.8895C4.59832 72.8901 4.60588 73.8907 4.61437 74.8913L5.61433 74.8828ZM5.59166 71.8828L6.59163 71.8762L6.58168 70.3762L5.5817 70.3828L4.58172 70.3895L4.59168 71.8895L5.59166 71.8828ZM5.5817 70.3828L6.58168 70.3762L6.57172 68.8762L5.57174 68.8828L4.57177 68.8895L4.58172 70.3895L5.5817 70.3828ZM5.57174 68.8828L6.57172 68.8762C6.56499 67.8622 6.53708 66.8483 6.48799 65.8344L5.48916 65.8828L4.49033 65.9312C4.53807 66.9173 4.56522 67.9034 4.57177 68.8895L5.57174 68.8828ZM5.48916 65.8828L6.48799 65.8344L6.41535 64.3344L5.41652 64.3828L4.41769 64.4312L4.49033 65.9312L5.48916 65.8828ZM5.41652 64.3828L6.41535 64.3344L6.34272 62.8344L5.34389 62.8828L4.34506 62.9312L4.41769 64.4312L5.41652 64.3828ZM5.34389 62.8828L6.34272 62.8344C6.29515 61.8521 6.27364 60.8697 6.27817 59.8874L5.27818 59.8828L4.27819 59.8782C4.2735 60.8959 4.29579 61.9136 4.34506 62.9312L5.34389 62.8828ZM5.27818 59.8828L6.27817 59.8874L6.28509 58.3874L5.2851 58.3828L4.28512 58.3782L4.27819 59.8782L5.27818 59.8828ZM5.2851 58.3828L6.28509 58.3874L6.29202 56.8874L5.29203 56.8828L4.29204 56.8782L4.28512 58.3782L5.2851 58.3828ZM5.29203 56.8828L6.29202 56.8874C6.29653 55.9088 6.33239 54.9301 6.39959 53.9513L5.40194 53.8828L4.40429 53.8143C4.33417 54.8355 4.29675 55.8568 4.29204 56.8782L5.29203 56.8828ZM5.40194 53.8828L6.39959 53.9513L6.50258 52.4513L5.50493 52.3828L4.50727 52.3143L4.40429 53.8143L5.40194 53.8828ZM5.50493 52.3828L6.50258 52.4513L6.60557 50.9513L5.60791 50.8828L4.61026 50.8143L4.50727 52.3143L5.50493 52.3828ZM5.60791 50.8828L6.60557 50.9513C6.67709 49.9095 6.68305 48.8676 6.62342 47.8257L5.62505 47.8828L4.62669 47.9399C4.68152 48.8981 4.67605 49.8561 4.61026 50.8143L5.60791 50.8828ZM5.62505 47.8828L6.62342 47.8257L6.53757 46.3257L5.53921 46.3828L4.54084 46.4399L4.62669 47.9399L5.62505 47.8828ZM5.53921 46.3828L6.53757 46.3257L6.45173 44.8257L5.45336 44.8828L4.45499 44.9399L4.54084 46.4399L5.53921 46.3828ZM5.45336 44.8828L6.45173 44.8257C6.39586 43.8496 6.37511 42.8735 6.38945 41.8975L5.38956 41.8828L4.38967 41.8681C4.37462 42.8921 4.3964 43.9161 4.45499 44.9399L5.45336 44.8828ZM5.38956 41.8828L6.38945 41.8975L6.41149 40.3975L5.4116 40.3828L4.41171 40.3681L4.38967 41.8681L5.38956 41.8828ZM5.4116 40.3828L6.41149 40.3975L6.43354 38.8975L5.43365 38.8828L4.43376 38.8681L4.41171 40.3681L5.4116 40.3828ZM5.43365 38.8828L6.43354 38.8975C6.4483 37.8934 6.45682 36.8892 6.45911 35.8851L5.45911 35.8828L4.45912 35.8805C4.45684 36.8764 4.44839 37.8723 4.43376 38.8681L5.43365 38.8828ZM5.45911 35.8828L6.45911 35.8851L6.46253 34.3851L5.46253 34.3828L4.46254 34.3805L4.45912 35.8805L5.45911 35.8828ZM5.46253 34.3828L6.46253 34.3851L6.46595 32.8851L5.46596 32.8828L4.46596 32.8805L4.46254 34.3805L5.46253 34.3828ZM5.46596 32.8828L6.46595 32.8851C6.46816 31.9161 6.51533 30.9469 6.60751 29.9775L5.612 29.8828L4.61649 29.7882C4.5185 30.8187 4.46831 31.8495 4.46596 32.8805L5.46596 32.8828ZM5.612 29.8828L6.60751 29.9775L6.75013 28.4775L5.75462 28.3828L4.75911 28.2882L4.61649 29.7882L5.612 29.8828ZM5.75462 28.3828L6.75013 28.4775L6.89275 26.9775L5.89724 26.8828L4.90173 26.7882L4.75911 28.2882L5.75462 28.3828ZM5.89724 26.8828L6.89275 26.9775C6.9935 25.9179 6.99892 24.858 6.90899 23.7983L5.91257 23.8828L4.91615 23.9674C4.99595 24.9077 4.99116 25.8477 4.90173 26.7882L5.89724 26.8828ZM5.91257 23.8828L6.90899 23.7983L6.78169 22.2983L5.78527 22.3828L4.78885 22.4674L4.91615 23.9674L5.91257 23.8828ZM5.78527 22.3828L6.78169 22.2983L6.65439 20.7983L5.65797 20.8828L4.66155 20.9674L4.78885 22.4674L5.78527 22.3828ZM5.65797 20.8828L6.65439 20.7983C6.56907 19.793 6.47576 18.7878 6.37443 17.7825L5.37947 17.8828L4.38451 17.9831C4.48478 18.9779 4.57713 19.9726 4.66155 20.9674L5.65797 20.8828ZM5.37947 17.8828L6.37443 17.7825L6.22323 16.2825L5.22827 16.3828L4.23332 16.4831L4.38451 17.9831L5.37947 17.8828ZM5.22827 16.3828L6.22323 16.2825L6.07204 14.7825L5.07708 14.8828L4.08212 14.9831L4.23332 16.4831L5.22827 16.3828ZM5.07708 14.8828L6.07204 14.7825C5.97783 13.8479 5.97601 12.9138 6.06656 11.9793L5.07122 11.8828L4.07589 11.7864C3.97265 12.8518 3.97473 13.9177 4.08212 14.9831L5.07708 14.8828ZM5.07122 11.8828L6.06656 11.9793L6.21191 10.4793L5.21657 10.3828L4.22123 10.2864L4.07589 11.7864L5.07122 11.8828ZM5.21657 10.3828L6.21191 10.4793L6.35725 8.97926L5.36191 8.88281L4.36658 8.78637L4.22123 10.2864L5.21657 10.3828ZM5.36191 8.88281L6.35725 8.97926C6.45437 7.977 6.53144 7.13931 6.58833 6.46715L5.59189 6.38281L4.59546 6.29848C4.5395 6.95965 4.46325 7.78862 4.36658 8.78637L5.36191 8.88281ZM5.59189 6.38281L6.58833 6.46715L6.67297 5.46715L5.67653 5.38281L4.68009 5.29848L4.59546 6.29848L5.59189 6.38281ZM5.67653 5.38281L6.67297 5.46715L6.7576 4.46715L5.76116 4.38281L4.76472 4.29848L4.68009 5.29848L5.67653 5.38281ZM5.76116 4.38281L6.7576 4.46715C6.78633 4.12764 6.80343 3.8428 6.80319 3.63167C6.80308 3.53497 6.79981 3.40331 6.77767 3.27513C6.76829 3.2208 6.74297 3.08627 6.66754 2.94002C6.60777 2.82415 6.34203 2.38281 5.76002 2.38281V3.38281V4.38281C5.49766 4.38281 5.28053 4.28026 5.13053 4.15547C4.99586 4.04344 4.92397 3.92259 4.89006 3.85686C4.82537 3.73144 4.80903 3.62816 4.80684 3.61549C4.7991 3.57065 4.80311 3.56398 4.80319 3.63396C4.80333 3.75616 4.79241 3.97132 4.76472 4.29848L5.76116 4.38281ZM5.76002 3.38281V2.38281H5.67424V3.38281V4.38281H5.76002V3.38281ZM5.67424 3.38281V2.38281H5.58846V3.38281V4.38281H5.67424V3.38281ZM5.58846 3.38281V2.38281C5.59247 2.38281 5.59987 2.38284 5.60935 2.38306C5.61653 2.38323 5.63662 2.38374 5.66251 2.38576C5.67508 2.38674 5.69986 2.38889 5.73093 2.3935C5.74671 2.39584 5.83073 2.40761 5.93153 2.44498C5.97325 2.46045 6.10688 2.51139 6.24257 2.6302C6.39458 2.76329 6.65694 3.09383 6.56611 3.56995C6.49435 3.94605 6.2413 4.13984 6.18022 4.18521C6.08948 4.25263 6.00802 4.28881 5.97453 4.30302C5.90138 4.33406 5.84098 4.349 5.82443 4.35309C5.79893 4.3594 5.77838 4.3634 5.76718 4.36548C5.74453 4.36968 5.72686 4.37212 5.72004 4.37304C5.70478 4.3751 5.69361 4.3762 5.69192 4.37637C5.68559 4.37701 5.69004 4.3765 5.71733 4.37451C5.76435 4.37109 5.84536 4.36567 5.963 4.35814C6.19678 4.34318 6.56311 4.32064 7.06292 4.29048L7.00269 3.2923L6.94245 2.29411C6.44226 2.32429 6.07289 2.34702 5.83526 2.36223C5.7172 2.36978 5.62857 2.37568 5.57204 2.3798C5.54756 2.38158 5.51675 2.3839 5.49168 2.38642C5.4853 2.38706 5.47048 2.38858 5.45259 2.391C5.44447 2.39209 5.42574 2.39469 5.4023 2.39904C5.3907 2.4012 5.36982 2.40526 5.34405 2.41164C5.32723 2.4158 5.26663 2.4308 5.19334 2.4619C5.15979 2.47613 5.07827 2.51235 4.98749 2.57979C4.92637 2.62519 4.6733 2.819 4.60154 3.19514C4.5107 3.67128 4.77307 4.00185 4.92511 4.13496C5.06083 4.25379 5.1945 4.30476 5.23628 4.32025C5.3372 4.35766 5.4214 4.36947 5.43743 4.37185C5.46876 4.3765 5.49385 4.37868 5.5068 4.37969C5.5502 4.38308 5.58602 4.38281 5.58846 4.38281V3.38281ZM7.00269 3.2923L7.06292 4.29048L8.56292 4.19996L8.50269 3.20178L8.44245 2.20359L6.94245 2.29411L7.00269 3.2923Z" fill="black" fill-opacity="0.25"/>
</g>
<defs>
<filter id="filter0_dng_431_9151" x="0" y="0" width="102.077" height="100.925" filterUnits="userSpaceOnUse" color-interpolation-filters="sRGB">
<feFlood flood-opacity="0" result="BackgroundImageFix"/>
<feColorMatrix in="SourceAlpha" type="matrix" values="0 0 0 0 0 0 0 0 0 0 0 0 0 0 0 0 0 0 127 0" result="hardAlpha"/>
<feOffset dy="4"/>
<feGaussianBlur stdDeviation="2"/>
<feComposite in2="hardAlpha" operator="out"/>
<feColorMatrix type="matrix" values="0 0 0 0 0 0 0 0 0 0 0 0 0 0 0 0 0 0 0.25 0"/>
<feBlend mode="normal" in2="BackgroundImageFix" result="effect1_dropShadow_431_9151"/>
<feBlend mode="normal" in="SourceGraphic" in2="BackgroundImageFix" result="shape"/>
<feTurbulence type="fractalNoise" baseFrequency="0.019999999552965164 0.019999999552965164" stitchTiles="stitch" numOctaves="3" result="noise" seed="4598" />
<feColorMatrix in="noise" type="luminanceToAlpha" result="alphaNoise" />
<feComponentTransfer in="alphaNoise" result="coloredNoise1">
<feFuncA type="discrete" tableValues="0 0 0 0 0 0 0 0 0 0 0 0 0 0 0 0 0 0 1 1 1 1 1 1 1 1 1 1 1 1 1 0 0 0 0 0 0 0 0 0 0 0 0 0 0 0 0 0 0 0 0 0 0 0 0 0 0 0 0 0 0 0 0 0 0 0 0 0 0 0 0 0 0 0 0 0 0 0 0 0 0 0 0 0 0 0 0 0 0 0 0 0 0 0 0 0 0 0 0 0 "/>
</feComponentTransfer>
<feComposite operator="in" in2="shape" in="coloredNoise1" result="noise1Clipped" />
<feComponentTransfer in="alphaNoise" result="coloredNoise2">
<feFuncA type="discrete" tableValues="0 0 0 0 0 0 0 0 0 0 0 0 0 0 0 0 0 0 0 0 0 0 0 0 0 0 0 0 0 0 0 0 0 0 0 0 0 0 0 0 0 0 0 0 0 0 0 0 0 0 0 0 0 0 0 0 0 0 0 0 0 0 0 0 0 0 0 0 0 1 1 1 1 1 1 1 1 1 1 1 1 1 0 0 0 0 0 0 0 0 0 0 0 0 0 0 0 0 0 0 "/>
</feComponentTransfer>
<feComposite operator="in" in2="shape" in="coloredNoise2" result="noise2Clipped" />
<feFlood flood-color="rgba(255, 255, 255, 0.25)" result="color1Flood" />
<feComposite operator="in" in2="noise1Clipped" in="color1Flood" result="color1" />
<feFlood flood-color="rgba(27, 4, 4, 0.25)" result="color2Flood" />
<feComposite operator="in" in2="noise2Clipped" in="color2Flood" result="color2" />
<feMerge result="effect2_noise_431_9151">
<feMergeNode in="shape" />
<feMergeNode in="color1" />
<feMergeNode in="color2" />
</feMerge>
<feBlend mode="normal" in="effect2_noise_431_9151" in2="effect1_dropShadow_431_9151" result="effect2_noise_431_9151"/>
<feTurbulence type="fractalNoise" baseFrequency="0.039999999105930328 0.039999999105930328" numOctaves="3" seed="4342" />
<feDisplacementMap in="effect2_noise_431_9151" scale="4" xChannelSelector="R" yChannelSelector="G" result="displacedImage" width="100%" height="100%" />
<feMerge result="effect3_texture_431_9151">
<feMergeNode in="displacedImage"/>
</feMerge>
</filter>
<clipPath id="clip0_431_9151">
<path d="M5.50269 3.38281H96.5027V91.3828H5.50269V3.38281Z" fill="white"/>
</clipPath>
</defs>
</svg>
