<svg width="103" height="101" viewBox="0 0 103 101" fill="none" xmlns="http://www.w3.org/2000/svg">
<g filter="url(#filter0_dng_431_9131)">
<g clip-path="url(#clip0_431_9131)">
<g filter="url(#filter1_ng_431_9131)">
<g clip-path="url(#clip1_431_9131)">
<path d="M91.3148 5.01904H10.5637C8.57664 5.01904 6.9519 6.89011 6.9519 9.17864V85.5236C6.9519 87.8121 8.57664 89.6832 10.5637 89.6832H91.311C93.2981 89.6832 94.9228 87.8121 94.9228 85.5236V9.17864C94.9228 6.89011 93.2981 5.01904 91.311 5.01904H91.3148Z" fill="#DF1725"/>
<path d="M86.2389 5.49614C88.1064 5.12342 89.6004 5.12342 91.468 5.12342C93.709 5.12342 95.203 6.98704 95.203 9.22338C95.95 33.0777 94.0825 56.5592 94.456 80.4135C94.8295 82.2772 94.8295 83.7681 94.8295 85.6317C94.8295 87.4953 94.0825 89.3589 92.215 89.3589C64.5758 91.5952 36.9367 88.9862 9.29754 88.9862C7.43003 88.9862 6.68303 87.1226 6.68303 85.2589C6.30952 61.7774 7.80353 37.9231 7.43003 14.4415C7.05653 12.5779 7.05653 10.7143 7.05653 8.85065C7.43003 7.35976 8.17703 5.49614 9.67104 5.12342C35.4427 3.2598 60.8408 6.24159 86.2389 5.49614Z" stroke="#670000" stroke-width="6" stroke-miterlimit="10"/>
<path d="M54.3552 83.6751H48.7779C45.9345 83.9485 43.5395 82.0566 42.9599 79.2898L42.0959 75.1778L38.4105 73.6468L34.736 76.009C32.5816 77.3651 29.9241 77.0588 28.0978 75.2981L23.8218 70.9893C22.258 69.1958 21.9627 66.8118 23.1329 64.6792L25.6372 60.9282L24.1937 57.2865L19.699 56.2913C17.4133 55.8211 15.8932 54.0713 15.5542 51.7201L15.587 44.7757C15.926 42.3916 17.3805 40.6419 19.688 40.1497L24.1609 39.1874L25.5935 35.6222L23.3844 32.1008C21.8971 29.9355 22.1377 27.3874 23.789 25.4845L28.1634 21.0226C29.9898 19.4478 32.4285 19.0432 34.5063 20.3336L38.4542 22.8052L42.0413 21.3288L42.9599 17.1294C43.4629 14.6469 45.5299 12.919 48.1436 12.93L54.2349 12.9081C56.4878 12.9628 58.4453 14.3188 59.1671 16.5717L60.2388 21.307L63.8805 22.7833L67.38 20.5086C69.4907 19.0541 72.17 19.2182 74.1276 21.0117L78.5129 25.4408C79.9783 27.1905 80.3283 29.4105 79.3331 31.379L76.6647 35.5785L78.1083 39.1764L82.5702 40.0951C84.8668 40.5872 86.3759 42.3479 86.704 44.7647V51.6326C86.4087 53.9073 84.9871 55.7008 82.767 56.2694L78.0974 57.3193L76.6538 60.9173L79.1581 64.7011C80.3611 66.8008 80.0768 69.2396 78.4911 70.9893L74.2369 75.3091C72.2466 77.037 69.5673 77.3869 67.4019 75.8777L63.8586 73.6031L60.1732 75.1669L59.3202 79.2898C58.839 81.7285 56.9908 83.533 54.3334 83.6861L54.3552 83.6751Z" fill="#563C29"/>
<path d="M21.5033 52.6714C21.2518 52.6058 20.9456 52.4637 20.869 52.2231C20.7706 51.9059 20.8362 47.0285 20.9346 46.7769C22.6406 45.0818 24.9153 44.1741 27.7696 44.0539C29.3226 43.4305 30.5255 38.7827 30.8645 37.0548C30.1428 36.2674 29.9896 35.5894 30.4162 35.0098C29.7272 34.4848 29.2897 33.8287 29.1038 33.0522C28.4258 32.4289 27.7478 31.2806 28.0649 30.3401C28.4258 29.3011 31.7285 25.9328 32.6252 25.6157C32.9205 25.5173 33.2595 25.6485 33.5548 25.7688C35.0749 25.0361 37.1856 26.5999 38.0167 27.6717C38.4979 27.0702 39.4821 27.6717 40.0617 28.0763C42.1724 27.5514 44.2284 26.8515 46.2515 25.9547C46.9952 24.0956 47.531 22.1709 47.8701 20.1696C48.0013 19.7977 48.22 19.5025 48.4715 19.2072C49.5651 17.9605 53.2396 18.0261 54.8582 18.1027L55.4597 18.4854L56.5533 22.6848C56.7501 23.5269 57.4063 24.3253 58.2483 24.7627L62.1088 26.2719C63.432 27.1577 64.9084 26.8077 66.1004 25.9985L69.3375 23.8331C69.9499 23.4066 70.8795 23.4285 71.47 23.8878L75.3632 27.7045L76.1506 29.1371L74.6086 31.6743L72.673 34.6379L72.6948 36.4205L74.5649 40.8824C74.893 41.8995 75.8444 42.6759 76.9161 42.9056L81.4546 43.8023C82.1217 44.0648 82.7232 44.6663 82.8872 45.3006V51.1732C82.7013 51.6544 82.2529 52.234 81.8702 52.5183L77.2442 53.5354C75.9866 53.7541 74.8055 54.5306 74.5321 55.8429L72.9245 59.6924C72.4433 60.5673 72.5745 61.6499 73.0557 62.4592L74.1384 64.0559L75.9975 67.3585L75.0133 69.0427L71.4481 72.5641C70.9888 72.8484 70.267 72.9359 69.6984 72.7828L65.5427 69.9722L63.4211 69.3598L61.4089 70.4644L58.2374 71.6455C57.6469 71.9954 57.0673 72.586 56.7064 73.1984L55.5143 78.7429C55.2628 79.3444 54.5629 79.7819 53.9067 79.8475H48.045C47.6623 79.6725 47.0827 79.1694 46.7983 78.7429L45.7813 73.7889C45.5735 72.6516 44.6767 71.6564 43.4191 71.4595L39.165 69.5895C38.4869 69.4692 37.5355 69.677 36.7809 69.9941L32.6143 72.7828C31.9363 72.925 31.1926 72.8156 30.6567 72.4328L26.7635 68.4193C26.3261 67.8397 26.2714 67.0195 26.6104 66.3852L29.3335 62.4045C29.7053 61.5952 29.7928 60.5345 29.3554 59.7689L27.7806 55.7882C27.6275 54.8477 26.7745 54.0384 25.9214 53.776L21.5142 52.6496L21.5033 52.6714Z" fill="#F8C226"/>
<path d="M54.9239 16.7904H47.7061L46.7109 17.8184L45.672 22.9365C45.3549 23.8332 44.6768 24.6315 43.7254 24.8393L39.3072 26.7094L37.5028 26.6656L36.4092 26.0095L34.8016 25.1346L32.2973 23.363L30.9849 23.7238L26.7746 27.8795C26.4246 28.4373 26.3043 29.2137 26.4793 29.848L28.8633 33.3366L29.5086 34.6708L29.7273 35.2614L29.3445 36.8799L27.7041 40.8934C27.4854 41.7792 26.6324 42.501 25.681 42.8072L20.4426 43.9227C20.0598 44.2726 19.6771 44.8304 19.4802 45.3116L19.5568 51.8294C20.1364 52.2997 20.8582 52.6278 21.5253 52.6715V47.0067C22.2033 46.2739 22.8266 45.8256 23.625 45.5522L27.3323 44.7976C28.3603 44.6992 29.3992 44.0758 29.5523 43.1134L31.1271 39.0452C31.4114 38.3781 31.5317 37.5798 31.4989 36.9236L30.4381 35.0208L30.1319 34.2443L29.1367 33.0632L28.415 31.0072L30.2632 28.4591C31.4224 27.4202 32.4285 26.4797 33.5986 25.7798C34.6048 25.6267 35.5999 26.0095 36.4201 26.6766L37.306 27.125L37.6559 27.3765C37.7434 27.464 37.8746 27.5624 38.0715 27.6718L39.9962 28.6779C40.8492 28.6123 41.8116 28.4263 42.5552 28.0983L46.7109 26.4032C47.0718 25.7361 47.4655 24.7737 47.7389 23.9754L48.3842 20.8586C48.5591 19.7431 49.3684 19.1198 50.5057 18.8464L54.9348 18.8136L55.5144 18.4855C55.427 18.0262 55.252 17.4684 54.9786 16.7904H54.9239Z" fill="#FCEFD4"/>
<path d="M47.2905 79.8366H54.5083C54.5083 79.8366 55.3504 79.1585 55.5253 78.8523C56.1487 77.6931 56.5971 73.6905 56.5971 73.6905C56.9142 72.7938 57.5376 71.9845 58.489 71.7767L62.9072 69.9067L64.7116 69.9504L65.8052 70.6066L67.4128 71.4814L69.9172 73.2531L71.2295 72.8922L75.4398 68.7365C76.2272 67.796 76.0195 67.3695 75.8554 66.7352L73.6791 63.2575L72.7933 61.8796L72.6621 61.3547L72.8808 59.7252L74.5431 55.7992C74.7618 54.9134 75.6039 54.1041 76.5444 53.7979L81.7827 52.6824C82.1655 52.3324 82.7014 51.6325 82.8982 51.1514V44.9725C82.4717 44.2835 81.8702 43.693 80.7766 43.6383L80.711 49.5766C80.022 50.3093 79.4096 50.7577 78.6113 51.0311L74.904 51.7856C73.876 51.8841 72.8371 52.5074 72.684 53.4698L71.1092 57.538C70.8248 58.2051 70.7045 59.0034 70.7374 59.6596L71.7981 61.5625L72.1044 62.3389L73.023 63.8262L73.8322 65.576L71.9841 68.1241C70.8248 69.163 69.8187 70.1035 68.6486 70.8034C67.6425 70.9565 66.8988 70.5847 66.0895 69.9285L65.2256 69.4911L64.6679 69.1411C64.5804 69.0536 64.3835 69.0099 64.1867 68.9005L62.2619 67.8944C61.4089 67.96 60.4465 68.1459 59.7029 68.474L55.5472 70.1691C55.1863 70.8362 54.7926 71.7986 54.5192 72.5969L53.874 75.7137C53.699 76.8292 52.8898 77.4525 51.7524 77.7259L47.3014 77.9337L46.7546 78.6883C46.8421 79.1476 46.9952 79.1039 47.2686 79.7819L47.2905 79.8366Z" fill="#968071"/>
<path d="M55.8535 59.244C52.0915 60.7751 48.1764 60.4798 44.9284 58.4348C39.7229 55.1977 37.8091 48.8111 40.3025 43.1571C41.2539 41.1668 42.5772 39.6467 44.3269 38.3672C45.7377 37.5141 47.1594 36.8908 48.7342 36.4862C52.0368 35.9066 55.1864 36.4643 57.986 38.4875C61.8683 41.2105 63.6728 45.8037 62.9401 50.4733C62.0871 54.3884 59.5936 57.5161 55.8535 59.244Z" fill="#FCEFD4"/>
<path d="M64.0554 38.9795C62.918 37.6344 61.7916 36.4861 60.4028 35.316C55.1097 31.6852 48.3731 31.5102 42.8286 34.7254C41.1553 35.7862 39.7227 37.0439 38.5307 38.6077C34.7468 43.5508 34.2 49.9593 37.0653 55.5367L38.6838 57.9754L40.0617 59.4846L41.6037 60.8078C47.028 65.0182 54.4973 65.1604 60.2278 61.1687L62.8196 58.9269L63.9132 57.6364C67.9924 52.059 67.9814 44.546 64.0445 38.9577L64.0554 38.9795ZM62.9399 50.4624C62.0869 54.3775 59.5935 57.5052 55.8534 59.2331C52.0914 60.7641 48.1763 60.4688 44.9283 58.4238C39.7227 55.1867 37.8089 48.8001 40.3023 43.1462C41.2538 41.1558 42.577 39.6357 44.3268 38.3562C45.7375 37.5032 47.1592 36.8798 48.734 36.4752C52.0367 35.8956 55.1863 36.4533 57.9859 38.4765C61.8682 41.1996 63.6726 45.7927 62.9399 50.4624Z" fill="#563C29"/>
</g>
<path d="M37.0027 3.12054L37.0875 2.12414L37.0027 3.12054ZM38.5027 3.24824L38.5875 2.25185L38.5027 3.24824ZM40.0027 3.37594L39.9179 4.37234L40.0027 3.37594ZM43.0027 3.48638L42.9912 2.48645L43.0027 3.48638ZM46.0027 3.45186L45.9912 2.45192L46.0027 3.45186ZM73.0027 3.08109L72.9313 4.07854L73.0027 3.08109ZM74.5027 3.18844L74.5741 2.191L74.5027 3.18844ZM76.0027 3.2958L76.0741 2.29835L76.0027 3.2958ZM91.0027 3.34277L91.0175 4.34266L91.0027 3.34277ZM94.0027 3.29824L94.0175 4.29813L94.0027 3.29824ZM95.7226 4.55268L94.7371 4.72242L95.7226 4.55268ZM95.9425 5.82939L96.928 5.65965L95.9425 5.82939ZM96.1624 7.1061L95.1769 7.27585L96.1624 7.1061ZM96.4659 9.88281L97.4643 9.8272L96.4659 9.88281ZM96.6329 12.8828L95.6345 12.9384L96.6329 12.8828ZM96.7973 15.8828L95.7988 15.9366L96.7973 15.8828ZM97.052 21.8828L98.052 21.8748L97.052 21.8828ZM97.0762 24.8828L96.0762 24.8909L97.0762 24.8828ZM96.9584 27.8828L95.9622 27.7966L96.9584 27.8828ZM96.6987 30.8828L97.695 30.9691L96.6987 30.8828ZM96.4724 33.8828L95.4745 33.8186L96.4724 33.8828ZM96.2795 36.8828L97.2774 36.947L96.2795 36.8828ZM96.1578 39.8828L97.1577 39.8996L96.1578 39.8828ZM96.1074 42.8828L95.1075 42.866L96.1074 42.8828ZM96.2294 45.8828L97.2246 45.7851L96.2294 45.8828ZM96.524 48.8828L95.5288 48.9805L96.524 48.8828ZM96.7323 51.8828L95.7331 51.9235L96.7323 51.8828ZM96.7934 53.3828L97.7925 53.3422L96.7934 53.3828ZM96.8544 54.8828L95.8552 54.9235L96.8544 54.8828ZM96.8093 57.8828L95.8118 57.8122L96.8093 57.8828ZM96.5971 60.8828L95.5995 60.8122L96.5971 60.8828ZM96.4384 63.8828L95.439 63.8478L96.4384 63.8828ZM96.3333 66.8828L97.3327 66.9178L96.3333 66.8828ZM96.1955 69.8828L95.1971 69.826L96.1955 69.8828ZM96.1101 71.3828L97.1085 71.4396L96.1101 71.3828ZM96.0248 72.8828L95.0264 72.826L96.0248 72.8828ZM96.1977 75.8828L95.2122 76.0525L96.1977 75.8828ZM96.456 77.3828L97.4415 77.2131L96.456 77.3828ZM96.7143 78.8828L95.7288 79.0525L96.7143 78.8828ZM96.7339 81.8828L95.7463 81.7257L96.7339 81.8828ZM96.2567 84.8828L95.2691 84.7257L96.2567 84.8828ZM95.8892 87.6569L96.8841 87.7575L95.8892 87.6569ZM95.7604 88.9309L96.7553 89.0315L95.7604 88.9309ZM95.6315 90.205L94.6366 90.1043L95.6315 90.205ZM94.0027 91.4727L93.9985 92.4727L94.0027 91.4727ZM92.5027 91.4663L92.5069 90.4664L92.5027 91.4663ZM91.0027 91.46L90.9985 92.46L91.0027 91.46ZM85.0027 91.7492L85.0682 92.7471L85.0027 91.7492ZM82.0027 91.6529L81.8739 92.6446L82.0027 91.6529ZM79.0027 91.2633L79.1315 90.2717L79.0027 91.2633ZM76.0027 91.1455L76.0539 92.1442L76.0027 91.1455ZM73.0027 91.2995L72.9514 90.3008L73.0027 91.2995ZM70.0027 91.4864L69.9296 90.489L70.0027 91.4864ZM67.0027 91.7061L67.0757 92.7034L67.0027 91.7061ZM64.0027 91.8507L63.9796 90.8509L64.0027 91.8507ZM62.5027 91.8854L62.5258 92.8851L62.5027 91.8854ZM58.0027 91.7494L57.8671 92.7401L58.0027 91.7494ZM55.0027 91.3387L55.1383 90.3479L55.0027 91.3387ZM52.0027 91.201L52.0477 92.1999L52.0027 91.201ZM50.5027 91.2686L50.4577 90.2696L50.5027 91.2686ZM49.0027 91.3362L49.0477 92.3351L49.0027 91.3362ZM46.0027 91.3274L45.9519 92.3261L46.0027 91.3274ZM44.5027 91.2511L44.5535 90.2524L44.5027 91.2511ZM43.0027 91.1747L42.9519 92.1734L43.0027 91.1747ZM38.5027 91.2499L38.4522 90.2512L38.5027 91.2499ZM37.0027 91.3257L37.0531 92.3245L37.0027 91.3257ZM34.0027 91.5224L34.083 92.5192L34.0027 91.5224ZM32.5027 91.6433L32.4224 90.6465L32.5027 91.6433ZM31.0027 91.7642L31.083 92.7609L31.0027 91.7642ZM28.0027 91.8342L27.9688 92.8337L28.0027 91.8342ZM26.5027 91.7834L26.4688 92.7828L26.5027 91.7834ZM25.0027 91.7326L25.0365 90.7332L25.0027 91.7326ZM22.0027 91.6692L21.9943 92.6692L22.0027 91.6692ZM19.0027 91.6441L19.0111 90.6442L19.0027 91.6441ZM16.0027 91.5135L16.0812 90.5166L16.0027 91.5135ZM13.0027 91.2774L12.9242 92.2743L13.0027 91.2774ZM10.0027 91.296L10.0934 92.2918L10.0027 91.296ZM8.50269 91.4326L8.41198 90.4367L8.50269 91.4326ZM5.61433 74.8828L4.61437 74.8913L5.61433 74.8828ZM5.48916 65.8828L4.49033 65.9312L5.48916 65.8828ZM5.612 29.8828L4.61649 29.7882L5.612 29.8828ZM5.65797 20.8828L4.66155 20.9674L5.65797 20.8828ZM8.50269 3.20178L8.56292 4.19996L10.0629 4.10944L10.0027 3.11126L9.94245 2.11308L8.44245 2.20359L8.50269 3.20178ZM10.0027 3.11126L10.0629 4.10944C11.0114 4.05221 11.9598 4.06835 12.9087 4.15795L13.0027 3.16238L13.0967 2.16681C12.0456 2.06755 10.994 2.04962 9.94245 2.11308L10.0027 3.11126ZM13.0027 3.16238L12.9087 4.15795L14.4087 4.29958L14.5027 3.30401L14.5967 2.30844L13.0967 2.16681L13.0027 3.16238ZM14.5027 3.30401L14.4087 4.29958L15.9087 4.44122L16.0027 3.44565L16.0967 2.45007L14.5967 2.30844L14.5027 3.30401ZM16.0027 3.44565L15.9087 4.44122C16.9239 4.53708 17.9393 4.60943 18.9547 4.65825L19.0027 3.65941L19.0507 2.66056C18.0661 2.61322 17.0814 2.54306 16.0967 2.45007L16.0027 3.44565ZM19.0027 3.65941L18.9547 4.65825L20.4547 4.73038L20.5027 3.73154L20.5507 2.73269L19.0507 2.66056L19.0027 3.65941ZM20.5027 3.73154L20.4547 4.73038L21.9547 4.80251L22.0027 3.80367L22.0507 2.80482L20.5507 2.73269L20.5027 3.73154ZM22.0027 3.80367L21.9547 4.80251C23.0182 4.85366 24.0814 4.80362 25.1433 4.65276L25.0027 3.6627L24.862 2.67264C23.924 2.80591 22.9871 2.84985 22.0507 2.80482L22.0027 3.80367ZM25.0027 3.6627L25.1433 4.65276L26.6433 4.43967L26.5027 3.44961L26.362 2.45955L24.862 2.67264L25.0027 3.6627ZM26.5027 3.44961L26.6433 4.43967L28.1433 4.22658L28.0027 3.23652L27.862 2.24646L26.362 2.45955L26.5027 3.44961ZM28.0027 3.23652L28.1433 4.22658C29.0989 4.09083 30.0536 4.02063 31.0078 4.01576L31.0027 3.01578L30.9976 2.01579C29.9518 2.02112 28.9065 2.09808 27.862 2.24646L28.0027 3.23652ZM31.0027 3.01578L31.0078 4.01576L32.5078 4.00812L32.5027 3.00813L32.4976 2.00814L30.9976 2.01579L31.0027 3.01578ZM32.5027 3.00813L32.5078 4.00812L34.0078 4.00047L34.0027 3.00048L33.9976 2.0005L32.4976 2.00814L32.5027 3.00813ZM34.0027 3.00048L34.0078 4.00047C34.9777 3.99553 35.9477 4.03434 36.9179 4.11693L37.0027 3.12054L37.0875 2.12414C36.0577 2.03647 35.0277 1.99525 33.9976 2.0005L34.0027 3.00048ZM37.0027 3.12054L36.9179 4.11693L38.4179 4.24464L38.5027 3.24824L38.5875 2.25185L37.0875 2.12414L37.0027 3.12054ZM38.5027 3.24824L38.4179 4.24464L39.9179 4.37234L40.0027 3.37594L40.0875 2.37955L38.5875 2.25185L38.5027 3.24824ZM40.0027 3.37594L39.9179 4.37234C40.9498 4.46019 41.9819 4.4982 43.0142 4.48632L43.0027 3.48638L42.9912 2.48645C42.0234 2.49759 41.0556 2.46196 40.0875 2.37955L40.0027 3.37594ZM43.0027 3.48638L43.0142 4.48632L44.5142 4.46905L44.5027 3.46912L44.4912 2.46919L42.9912 2.48645L43.0027 3.48638ZM44.5027 3.46912L44.5142 4.46905L46.0142 4.45179L46.0027 3.45186L45.9912 2.45192L44.4912 2.46919L44.5027 3.46912ZM46.0027 3.45186L46.0142 4.45179C47.0141 4.44028 48.014 4.42889 49.014 4.41762L49.0027 3.41768L48.9914 2.41775C47.9913 2.42902 46.9913 2.44041 45.9912 2.45192L46.0027 3.45186ZM49.0027 3.41768L49.014 4.41762L50.514 4.40071L50.5027 3.40077L50.4914 2.40084L48.9914 2.41775L49.0027 3.41768ZM50.5027 3.40077L50.514 4.40071L52.014 4.3838L52.0027 3.38386L51.9914 2.38392L50.4914 2.40084L50.5027 3.40077ZM52.0027 3.38386L52.014 4.3838C52.9825 4.37288 53.9511 4.40761 54.92 4.48803L55.0027 3.49145L55.0854 2.49488C54.0542 2.40929 53.0229 2.3723 51.9914 2.38392L52.0027 3.38386ZM55.0027 3.49145L54.92 4.48803L56.42 4.61253L56.5027 3.61595L56.5854 2.61938L55.0854 2.49488L55.0027 3.49145ZM56.5027 3.61595L56.42 4.61253L57.92 4.73703L58.0027 3.74046L58.0854 2.74388L56.5854 2.61938L56.5027 3.61595ZM58.0027 3.74046L57.92 4.73703C58.9481 4.82236 59.9763 4.86399 61.0047 4.86188L61.0027 3.86189L61.0006 2.86189C60.029 2.86388 59.0573 2.82455 58.0854 2.74388L58.0027 3.74046ZM61.0027 3.86189L61.0047 4.86188L62.5047 4.85881L62.5027 3.85882L62.5006 2.85882L61.0006 2.86189L61.0027 3.86189ZM62.5027 3.85882L62.5047 4.85881L64.0047 4.85574L64.0027 3.85574L64.0006 2.85575L62.5006 2.85882L62.5027 3.85882ZM64.0027 3.85574L64.0047 4.85574C65.0531 4.85359 66.1008 4.77573 67.1476 4.62238L67.0027 3.63294L66.8577 2.6435C65.9046 2.78313 64.9523 2.8538 64.0006 2.85575L64.0027 3.85574ZM67.0027 3.63294L67.1476 4.62238L68.6476 4.40264L68.5027 3.4132L68.3577 2.42376L66.8577 2.6435L67.0027 3.63294ZM68.5027 3.4132L68.6476 4.40264L70.1476 4.18291L70.0027 3.19347L69.8577 2.20403L68.3577 2.42376L68.5027 3.4132ZM70.0027 3.19347L70.1476 4.18291C71.0766 4.04683 72.0041 4.01218 72.9313 4.07854L73.0027 3.08109L73.0741 2.08364C72.0013 2.00687 70.9288 2.04714 69.8577 2.20403L70.0027 3.19347ZM73.0027 3.08109L72.9313 4.07854L74.4313 4.18589L74.5027 3.18844L74.5741 2.191L73.0741 2.08364L73.0027 3.08109ZM74.5027 3.18844L74.4313 4.18589L75.9313 4.29325L76.0027 3.2958L76.0741 2.29835L74.5741 2.191L74.5027 3.18844ZM76.0027 3.2958L75.9313 4.29325C76.9272 4.36452 77.9232 4.4419 78.9192 4.52538L79.0027 3.52888L79.0862 2.53237C78.0822 2.44822 77.0781 2.37021 76.0741 2.29835L76.0027 3.2958ZM79.0027 3.52888L78.9192 4.52538L80.4192 4.65111L80.5027 3.65461L80.5862 2.6581L79.0862 2.53237L79.0027 3.52888ZM80.5027 3.65461L80.4192 4.65111L81.9192 4.77684L82.0027 3.78034L82.0862 2.78383L80.5862 2.6581L80.5027 3.65461ZM82.0027 3.78034L81.9192 4.77684C82.9769 4.8655 84.0349 4.86214 85.0925 4.76677L85.0027 3.77081L84.9129 2.77485C83.9705 2.85983 83.0285 2.86281 82.0862 2.78383L82.0027 3.78034ZM85.0027 3.77081L85.0925 4.76677L86.5925 4.63151L86.5027 3.63555L86.4129 2.63959L84.9129 2.77485L85.0027 3.77081ZM86.5027 3.63555L86.5925 4.63151L88.0925 4.49626L88.0027 3.5003L87.9129 2.50434L86.4129 2.63959L86.5027 3.63555ZM88.0027 3.5003L88.0925 4.49626C89.0677 4.40832 90.0427 4.35713 91.0175 4.34266L91.0027 3.34277L90.9878 2.34288C89.9627 2.3581 88.9377 2.41193 87.9129 2.50434L88.0027 3.5003ZM91.0027 3.34277L91.0175 4.34266L92.5175 4.32039L92.5027 3.3205L92.4878 2.32061L90.9878 2.34288L91.0027 3.34277ZM92.5027 3.3205L92.5175 4.32039L94.0175 4.29813L94.0027 3.29824L93.9878 2.29835L92.4878 2.32061L92.5027 3.3205ZM94.0027 3.29824L94.0175 4.29813C94.3871 4.29264 94.5409 4.37035 94.5934 4.40864C94.6262 4.43258 94.6978 4.49401 94.7371 4.72242L95.7226 4.55268L96.7081 4.38293C96.6008 3.76021 96.3124 3.18699 95.7719 2.79278C95.2511 2.41292 94.6182 2.28899 93.9878 2.29835L94.0027 3.29824ZM95.7226 4.55268L94.7371 4.72242L94.957 5.99913L95.9425 5.82939L96.928 5.65965L96.7081 4.38293L95.7226 4.55268ZM95.9425 5.82939L94.957 5.99913L95.1769 7.27585L96.1624 7.1061L97.1479 6.93636L96.928 5.65965L95.9425 5.82939ZM96.1624 7.1061L95.1769 7.27585C95.3161 8.08383 95.4135 8.97081 95.4674 9.93842L96.4659 9.88281L97.4643 9.8272C97.4068 8.79482 97.3019 7.83065 97.1479 6.93636L96.1624 7.1061ZM96.4659 9.88281L95.4674 9.93842L95.5509 11.4384L96.5494 11.3828L97.5479 11.3272L97.4643 9.8272L96.4659 9.88281ZM96.5494 11.3828L95.5509 11.4384L95.6345 12.9384L96.6329 12.8828L97.6314 12.8272L97.5479 11.3272L96.5494 11.3828ZM96.6329 12.8828L95.6345 12.9384C95.6902 13.9378 95.7449 14.9372 95.7988 15.9366L96.7973 15.8828L97.7959 15.829C97.742 14.8284 97.6871 13.8278 97.6314 12.8272L96.6329 12.8828ZM96.7973 15.8828L95.7988 15.9366L95.8797 17.4366L96.8782 17.3828L97.8768 17.329L97.7959 15.829L96.7973 15.8828ZM96.8782 17.3828L95.8797 17.4366L95.9605 18.9366L96.9591 18.8828L97.9576 18.829L97.8768 17.329L96.8782 17.3828ZM96.9591 18.8828L95.9605 18.9366C96.0136 19.9214 96.0441 20.9062 96.052 21.8909L97.052 21.8828L98.052 21.8748C98.0438 20.8595 98.0123 19.8442 97.9576 18.829L96.9591 18.8828ZM97.052 21.8828L96.052 21.8909L96.0641 23.3909L97.0641 23.3828L98.0641 23.3748L98.052 21.8748L97.052 21.8828ZM97.0641 23.3828L96.0641 23.3909L96.0762 24.8909L97.0762 24.8828L98.0762 24.8748L98.0641 23.3748L97.0641 23.3828ZM97.0762 24.8828L96.0762 24.8909C96.084 25.8593 96.046 26.8278 95.9622 27.7966L96.9584 27.8828L97.9547 27.9691C98.044 26.9378 98.0845 25.9063 98.0762 24.8748L97.0762 24.8828ZM96.9584 27.8828L95.9622 27.7966L95.8323 29.2966L96.8286 29.3828L97.8248 29.4691L97.9547 27.9691L96.9584 27.8828ZM96.8286 29.3828L95.8323 29.2966L95.7024 30.7966L96.6987 30.8828L97.695 30.9691L97.8248 29.4691L96.8286 29.3828ZM96.6987 30.8828L95.7024 30.7966C95.6152 31.8039 95.5392 32.8113 95.4745 33.8186L96.4724 33.8828L97.4703 33.947C97.5342 32.9544 97.609 31.9617 97.695 30.9691L96.6987 30.8828ZM96.4724 33.8828L95.4745 33.8186L95.378 35.3186L96.376 35.3828L97.3739 35.447L97.4703 33.947L96.4724 33.8828ZM96.376 35.3828L95.378 35.3186L95.2816 36.8186L96.2795 36.8828L97.2774 36.947L97.3739 35.447L96.376 35.3828ZM96.2795 36.8828L95.2816 36.8186C95.2163 37.8344 95.1751 38.8502 95.158 39.866L96.1578 39.8828L97.1577 39.8996C97.1742 38.9155 97.2142 37.9312 97.2774 36.947L96.2795 36.8828ZM96.1578 39.8828L95.158 39.866L95.1327 41.366L96.1326 41.3828L97.1325 41.3996L97.1577 39.8996L96.1578 39.8828ZM96.1326 41.3828L95.1327 41.366L95.1075 42.866L96.1074 42.8828L97.1072 42.8996L97.1325 41.3996L96.1326 41.3828ZM96.1074 42.8828L95.1075 42.866C95.09 43.9044 95.1323 44.9426 95.2342 45.9805L96.2294 45.8828L97.2246 45.7851C97.1302 44.823 97.0911 43.8612 97.1072 42.8996L96.1074 42.8828ZM96.2294 45.8828L95.2342 45.9805L95.3815 47.4805L96.3767 47.3828L97.3719 47.2851L97.2246 45.7851L96.2294 45.8828ZM96.3767 47.3828L95.3815 47.4805L95.5288 48.9805L96.524 48.8828L97.5192 48.7851L97.3719 47.2851L96.3767 47.3828ZM96.524 48.8828L95.5288 48.9805C95.6251 49.9616 95.6932 50.9426 95.7331 51.9235L96.7323 51.8828L97.7315 51.8422C97.69 50.823 97.6192 49.804 97.5192 48.7851L96.524 48.8828ZM96.7323 51.8828L95.7331 51.9235L95.7942 53.4235L96.7934 53.3828L97.7925 53.3422L97.7315 51.8422L96.7323 51.8828ZM96.7934 53.3828L95.7942 53.4235L95.8552 54.9235L96.8544 54.8828L97.8536 54.8422L97.7925 53.3422L96.7934 53.3828ZM96.8544 54.8828L95.8552 54.9235C95.8944 55.8863 95.88 56.8492 95.8118 57.8122L96.8093 57.8828L97.8068 57.9534C97.8802 56.9164 97.8958 55.8793 97.8536 54.8422L96.8544 54.8828ZM96.8093 57.8828L95.8118 57.8122L95.7057 59.3122L96.7032 59.3828L97.7007 59.4534L97.8068 57.9534L96.8093 57.8828ZM96.7032 59.3828L95.7057 59.3122L95.5995 60.8122L96.5971 60.8828L97.5946 60.9534L97.7007 59.4534L96.7032 59.3828ZM96.5971 60.8828L95.5995 60.8122C95.528 61.8241 95.4744 62.8359 95.439 63.8478L96.4384 63.8828L97.4378 63.9178C97.4724 62.9297 97.5246 61.9416 97.5946 60.9534L96.5971 60.8828ZM96.4384 63.8828L95.439 63.8478L95.3865 65.3478L96.3859 65.3828L97.3853 65.4178L97.4378 63.9178L96.4384 63.8828ZM96.3859 65.3828L95.3865 65.3478L95.334 66.8478L96.3333 66.8828L97.3327 66.9178L97.3853 65.4178L96.3859 65.3828ZM96.3333 66.8828L95.334 66.8478C95.2992 67.8405 95.2536 68.8333 95.1971 69.826L96.1955 69.8828L97.1939 69.9396C97.2512 68.9324 97.2975 67.9251 97.3327 66.9178L96.3333 66.8828ZM96.1955 69.8828L95.1971 69.826L95.1117 71.326L96.1101 71.3828L97.1085 71.4396L97.1939 69.9396L96.1955 69.8828ZM96.1101 71.3828L95.1117 71.326L95.0264 72.826L96.0248 72.8828L97.0232 72.9396L97.1085 71.4396L96.1101 71.3828ZM96.0248 72.8828L95.0264 72.826C94.9651 73.9027 95.0273 74.9787 95.2122 76.0525L96.1977 75.8828L97.1832 75.7131C97.0238 74.7869 96.9707 73.8629 97.0232 72.9396L96.0248 72.8828ZM96.1977 75.8828L95.2122 76.0525L95.4705 77.5525L96.456 77.3828L97.4415 77.2131L97.1832 75.7131L96.1977 75.8828ZM96.456 77.3828L95.4705 77.5525L95.7288 79.0525L96.7143 78.8828L97.6998 78.7131L97.4415 77.2131L96.456 77.3828ZM96.7143 78.8828L95.7288 79.0525C95.8824 79.9446 95.8881 80.8343 95.7463 81.7257L96.7339 81.8828L97.7215 82.0399C97.8978 80.9314 97.8905 79.821 97.6998 78.7131L96.7143 78.8828ZM96.7339 81.8828L95.7463 81.7257L95.5077 83.2257L96.4953 83.3828L97.4829 83.5399L97.7215 82.0399L96.7339 81.8828ZM96.4953 83.3828L95.5077 83.2257L95.2691 84.7257L96.2567 84.8828L97.2443 85.0399L97.4829 83.5399L96.4953 83.3828ZM96.2567 84.8828L95.2691 84.7257C95.1076 85.7411 94.9824 86.6849 94.8943 87.5562L95.8892 87.6569L96.8841 87.7575C96.9678 86.9301 97.0876 86.0245 97.2443 85.0399L96.2567 84.8828ZM95.8892 87.6569L94.8943 87.5562L94.7654 88.8303L95.7604 88.9309L96.7553 89.0315L96.8841 87.7575L95.8892 87.6569ZM95.7604 88.9309L94.7654 88.8303L94.6366 90.1043L95.6315 90.205L96.6265 90.3056L96.7553 89.0315L95.7604 88.9309ZM95.6315 90.205L94.6366 90.1043C94.6141 90.327 94.5518 90.365 94.5457 90.3698C94.5154 90.3934 94.3812 90.4743 94.0069 90.4727L94.0027 91.4727L93.9985 92.4727C94.6242 92.4753 95.2615 92.347 95.7741 91.9481C96.311 91.5302 96.5631 90.9323 96.6265 90.3056L95.6315 90.205ZM94.0027 91.4727L94.0069 90.4727L92.5069 90.4664L92.5027 91.4663L92.4985 92.4663L93.9985 92.4727L94.0027 91.4727ZM92.5027 91.4663L92.5069 90.4664L91.0069 90.46L91.0027 91.46L90.9985 92.46L92.4985 92.4663L92.5027 91.4663ZM91.0027 91.46L91.0069 90.46C89.9836 90.4557 88.9603 90.4872 87.9371 90.5544L88.0027 91.5522L88.0682 92.5501C89.0451 92.4859 90.0218 92.4559 90.9985 92.46L91.0027 91.46ZM88.0027 91.5522L87.9371 90.5544L86.4371 90.6529L86.5027 91.6507L86.5682 92.6486L88.0682 92.5501L88.0027 91.5522ZM86.5027 91.6507L86.4371 90.6529L84.9371 90.7514L85.0027 91.7492L85.0682 92.7471L86.5682 92.6486L86.5027 91.6507ZM85.0027 91.7492L84.9371 90.7514C84.0024 90.8128 83.0675 90.7828 82.1315 90.6613L82.0027 91.6529L81.8739 92.6446C82.9379 92.7828 84.003 92.8171 85.0682 92.7471L85.0027 91.7492ZM82.0027 91.6529L82.1315 90.6613L80.6315 90.4665L80.5027 91.4581L80.3739 92.4498L81.8739 92.6446L82.0027 91.6529ZM80.5027 91.4581L80.6315 90.4665L79.1315 90.2717L79.0027 91.2633L78.8739 92.255L80.3739 92.4498L80.5027 91.4581ZM79.0027 91.2633L79.1315 90.2717C78.0722 90.1341 77.012 90.0924 75.9514 90.1468L76.0027 91.1455L76.0539 92.1442C76.9934 92.096 77.9332 92.1328 78.8739 92.255L79.0027 91.2633ZM76.0027 91.1455L75.9514 90.1468L74.4514 90.2238L74.5027 91.2225L74.5539 92.2212L76.0539 92.1442L76.0027 91.1455ZM74.5027 91.2225L74.4514 90.2238L72.9514 90.3008L73.0027 91.2995L73.0539 92.2982L74.5539 92.2212L74.5027 91.2225ZM73.0027 91.2995L72.9514 90.3008C71.9441 90.3525 70.9369 90.4152 69.9296 90.489L70.0027 91.4864L70.0757 92.4837C71.0685 92.411 72.0612 92.3491 73.0539 92.2982L73.0027 91.2995ZM70.0027 91.4864L69.9296 90.489L68.4296 90.5989L68.5027 91.5962L68.5757 92.5936L70.0757 92.4837L70.0027 91.4864ZM68.5027 91.5962L68.4296 90.5989L66.9296 90.7088L67.0027 91.7061L67.0757 92.7034L68.5757 92.5936L68.5027 91.5962ZM67.0027 91.7061L66.9296 90.7088C65.9462 90.7808 64.9629 90.8282 63.9796 90.8509L64.0027 91.8507L64.0258 92.8504C65.0425 92.8269 66.0592 92.7779 67.0757 92.7034L67.0027 91.7061ZM64.0027 91.8507L63.9796 90.8509L62.4796 90.8856L62.5027 91.8854L62.5258 92.8851L64.0258 92.8504L64.0027 91.8507ZM62.5027 91.8854L62.4796 90.8856L60.9796 90.9203L61.0027 91.92L61.0258 92.9198L62.5258 92.8851L62.5027 91.8854ZM61.0027 91.92L60.9796 90.9203C60.0331 90.9422 59.0862 90.8884 58.1383 90.7586L58.0027 91.7494L57.8671 92.7401C58.9192 92.8842 59.9723 92.9441 61.0258 92.9198L61.0027 91.92ZM58.0027 91.7494L58.1383 90.7586L56.6383 90.5533L56.5027 91.544L56.3671 92.5348L57.8671 92.7401L58.0027 91.7494ZM56.5027 91.544L56.6383 90.5533L55.1383 90.3479L55.0027 91.3387L54.8671 92.3295L56.3671 92.5348L56.5027 91.544ZM55.0027 91.3387L55.1383 90.3479C54.079 90.2029 53.0185 90.1542 51.9577 90.202L52.0027 91.201L52.0477 92.1999C52.9869 92.1576 53.9264 92.2007 54.8671 92.3295L55.0027 91.3387ZM52.0027 91.201L51.9577 90.202L50.4577 90.2696L50.5027 91.2686L50.5477 92.2675L52.0477 92.1999L52.0027 91.201ZM50.5027 91.2686L50.4577 90.2696L48.9577 90.3372L49.0027 91.3362L49.0477 92.3351L50.5477 92.2675L50.5027 91.2686ZM49.0027 91.3362L48.9577 90.3372C47.9896 90.3808 47.0216 90.378 46.0535 90.3287L46.0027 91.3274L45.9519 92.3261C46.9838 92.3786 48.0158 92.3816 49.0477 92.3351L49.0027 91.3362ZM46.0027 91.3274L46.0535 90.3287L44.5535 90.2524L44.5027 91.2511L44.4519 92.2498L45.9519 92.3261L46.0027 91.3274ZM44.5027 91.2511L44.5535 90.2524L43.0535 90.176L43.0027 91.1747L42.9519 92.1734L44.4519 92.2498L44.5027 91.2511ZM43.0027 91.1747L43.0535 90.176C42.0198 90.1234 40.986 90.1232 39.9522 90.1754L40.0027 91.1742L40.0531 92.1729C41.0194 92.1241 41.9856 92.1243 42.9519 92.1734L43.0027 91.1747ZM40.0027 91.1742L39.9522 90.1754L38.4522 90.2512L38.5027 91.2499L38.5531 92.2487L40.0531 92.1729L40.0027 91.1742ZM38.5027 91.2499L38.4522 90.2512L36.9522 90.327L37.0027 91.3257L37.0531 92.3245L38.5531 92.2487L38.5027 91.2499ZM37.0027 91.3257L36.9522 90.327C35.9422 90.378 34.9323 90.4442 33.9224 90.5256L34.0027 91.5224L34.083 92.5192C35.0731 92.4394 36.0631 92.3745 37.0531 92.3245L37.0027 91.3257ZM34.0027 91.5224L33.9224 90.5256L32.4224 90.6465L32.5027 91.6433L32.583 92.64L34.083 92.5192L34.0027 91.5224ZM32.5027 91.6433L32.4224 90.6465L30.9224 90.7674L31.0027 91.7642L31.083 92.7609L32.583 92.64L32.5027 91.6433ZM31.0027 91.7642L30.9224 90.7674C29.9602 90.8449 28.9984 90.8674 28.0365 90.8348L28.0027 91.8342L27.9688 92.8337C29.007 92.8688 30.0451 92.8446 31.083 92.7609L31.0027 91.7642ZM28.0027 91.8342L28.0365 90.8348L26.5365 90.784L26.5027 91.7834L26.4688 92.7828L27.9688 92.8337L28.0027 91.8342ZM26.5027 91.7834L26.5365 90.784L25.0365 90.7332L25.0027 91.7326L24.9688 92.732L26.4688 92.7828L26.5027 91.7834ZM25.0027 91.7326L25.0365 90.7332C24.0281 90.699 23.0196 90.6777 22.011 90.6693L22.0027 91.6692L21.9943 92.6692C22.9858 92.6775 23.9773 92.6984 24.9688 92.732L25.0027 91.7326ZM22.0027 91.6692L22.011 90.6693L20.5111 90.6567L20.5027 91.6567L20.4943 92.6567L21.9943 92.6692L22.0027 91.6692ZM20.5027 91.6567L20.5111 90.6567L19.0111 90.6442L19.0027 91.6441L18.9943 92.6441L20.4943 92.6567L20.5027 91.6567ZM19.0027 91.6441L19.0111 90.6442C18.0345 90.636 17.0579 90.5935 16.0812 90.5166L16.0027 91.5135L15.9242 92.5104C16.9475 92.591 17.9709 92.6355 18.9943 92.6441L19.0027 91.6441ZM16.0027 91.5135L16.0812 90.5166L14.5812 90.3985L14.5027 91.3955L14.4242 92.3924L15.9242 92.5104L16.0027 91.5135ZM14.5027 91.3955L14.5812 90.3985L13.0812 90.2805L13.0027 91.2774L12.9242 92.2743L14.4242 92.3924L14.5027 91.3955ZM13.0027 91.2774L13.0812 90.2805C12.0248 90.1973 10.9682 90.2039 9.91198 90.3001L10.0027 91.296L10.0934 92.2918C11.0372 92.2059 11.9806 92.2 12.9242 92.2743L13.0027 91.2774ZM10.0027 91.296L9.91198 90.3001L8.41198 90.4367L8.50269 91.4326L8.59339 92.4285L10.0934 92.2918L10.0027 91.296ZM8.50269 91.4326L8.41198 90.4367L6.91198 90.5733L7.00269 91.5692L7.09339 92.5651L8.59339 92.4285L8.50269 91.4326ZM7.00269 91.5692L6.91198 90.5733C6.55815 90.6056 6.55937 90.5127 6.62802 90.5842C6.65363 90.6109 6.64464 90.6195 6.63088 90.5647C6.61563 90.5039 6.60094 90.3881 6.61477 90.1975L5.6174 90.1251L4.62002 90.0527C4.57304 90.7001 4.66815 91.4303 5.18471 91.9688C5.71512 92.5217 6.44722 92.624 7.09339 92.5651L7.00269 91.5692ZM5.6174 90.1251L6.61477 90.1975L6.72948 88.6167L5.73211 88.5443L4.73473 88.472L4.62002 90.0527L5.6174 90.1251ZM5.73211 88.5443L6.72948 88.6167L6.84419 87.0359L5.84682 86.9636L4.84944 86.8912L4.73473 88.472L5.73211 88.5443ZM5.84682 86.9636L6.84419 87.0359C6.92349 85.9432 6.93669 84.8748 6.88294 83.8314L5.88427 83.8828L4.88559 83.9342C4.93486 84.8908 4.92309 85.8763 4.84944 86.8912L5.84682 86.9636ZM5.88427 83.8828L6.88294 83.8314L6.80569 82.3314L5.80701 82.3828L4.80833 82.4342L4.88559 83.9342L5.88427 83.8828ZM5.80701 82.3828L6.80569 82.3314L6.72843 80.8314L5.72975 80.8828L4.73108 80.9342L4.80833 82.4342L5.80701 82.3828ZM5.72975 80.8828L6.72843 80.8314C6.67766 79.8457 6.6481 78.86 6.63974 77.8743L5.63977 77.8828L4.63981 77.8913C4.64841 78.9056 4.67883 79.92 4.73108 80.9342L5.72975 80.8828ZM5.63977 77.8828L6.63974 77.8743L6.62702 76.3743L5.62705 76.3828L4.62709 76.3913L4.63981 77.8913L5.63977 77.8828ZM5.62705 76.3828L6.62702 76.3743L6.6143 74.8743L5.61433 74.8828L4.61437 74.8913L4.62709 76.3913L5.62705 76.3828ZM5.61433 74.8828L6.6143 74.8743C6.60582 73.8749 6.59827 72.8756 6.59163 71.8762L5.59166 71.8828L4.59168 71.8895C4.59832 72.8901 4.60588 73.8907 4.61437 74.8913L5.61433 74.8828ZM5.59166 71.8828L6.59163 71.8762L6.58168 70.3762L5.5817 70.3828L4.58172 70.3895L4.59168 71.8895L5.59166 71.8828ZM5.5817 70.3828L6.58168 70.3762L6.57172 68.8762L5.57174 68.8828L4.57177 68.8895L4.58172 70.3895L5.5817 70.3828ZM5.57174 68.8828L6.57172 68.8762C6.56499 67.8622 6.53708 66.8483 6.48799 65.8344L5.48916 65.8828L4.49033 65.9312C4.53807 66.9173 4.56522 67.9034 4.57177 68.8895L5.57174 68.8828ZM5.48916 65.8828L6.48799 65.8344L6.41535 64.3344L5.41652 64.3828L4.41769 64.4312L4.49033 65.9312L5.48916 65.8828ZM5.41652 64.3828L6.41535 64.3344L6.34272 62.8344L5.34389 62.8828L4.34506 62.9312L4.41769 64.4312L5.41652 64.3828ZM5.34389 62.8828L6.34272 62.8344C6.29515 61.8521 6.27364 60.8697 6.27817 59.8874L5.27818 59.8828L4.27819 59.8782C4.2735 60.8959 4.29579 61.9136 4.34506 62.9312L5.34389 62.8828ZM5.27818 59.8828L6.27817 59.8874L6.28509 58.3874L5.2851 58.3828L4.28512 58.3782L4.27819 59.8782L5.27818 59.8828ZM5.2851 58.3828L6.28509 58.3874L6.29202 56.8874L5.29203 56.8828L4.29204 56.8782L4.28512 58.3782L5.2851 58.3828ZM5.29203 56.8828L6.29202 56.8874C6.29653 55.9088 6.33239 54.9301 6.39959 53.9513L5.40194 53.8828L4.40429 53.8143C4.33417 54.8355 4.29675 55.8568 4.29204 56.8782L5.29203 56.8828ZM5.40194 53.8828L6.39959 53.9513L6.50258 52.4513L5.50493 52.3828L4.50727 52.3143L4.40429 53.8143L5.40194 53.8828ZM5.50493 52.3828L6.50258 52.4513L6.60557 50.9513L5.60791 50.8828L4.61026 50.8143L4.50727 52.3143L5.50493 52.3828ZM5.60791 50.8828L6.60557 50.9513C6.67709 49.9095 6.68305 48.8676 6.62342 47.8257L5.62505 47.8828L4.62669 47.9399C4.68152 48.8981 4.67605 49.8561 4.61026 50.8143L5.60791 50.8828ZM5.62505 47.8828L6.62342 47.8257L6.53757 46.3257L5.53921 46.3828L4.54084 46.4399L4.62669 47.9399L5.62505 47.8828ZM5.53921 46.3828L6.53757 46.3257L6.45173 44.8257L5.45336 44.8828L4.45499 44.9399L4.54084 46.4399L5.53921 46.3828ZM5.45336 44.8828L6.45173 44.8257C6.39586 43.8496 6.37511 42.8735 6.38945 41.8975L5.38956 41.8828L4.38967 41.8681C4.37462 42.8921 4.3964 43.9161 4.45499 44.9399L5.45336 44.8828ZM5.38956 41.8828L6.38945 41.8975L6.41149 40.3975L5.4116 40.3828L4.41171 40.3681L4.38967 41.8681L5.38956 41.8828ZM5.4116 40.3828L6.41149 40.3975L6.43354 38.8975L5.43365 38.8828L4.43376 38.8681L4.41171 40.3681L5.4116 40.3828ZM5.43365 38.8828L6.43354 38.8975C6.4483 37.8934 6.45682 36.8892 6.45911 35.8851L5.45911 35.8828L4.45912 35.8805C4.45684 36.8764 4.44839 37.8723 4.43376 38.8681L5.43365 38.8828ZM5.45911 35.8828L6.45911 35.8851L6.46253 34.3851L5.46253 34.3828L4.46254 34.3805L4.45912 35.8805L5.45911 35.8828ZM5.46253 34.3828L6.46253 34.3851L6.46595 32.8851L5.46596 32.8828L4.46596 32.8805L4.46254 34.3805L5.46253 34.3828ZM5.46596 32.8828L6.46595 32.8851C6.46816 31.9161 6.51533 30.9469 6.60751 29.9775L5.612 29.8828L4.61649 29.7882C4.5185 30.8187 4.46831 31.8495 4.46596 32.8805L5.46596 32.8828ZM5.612 29.8828L6.60751 29.9775L6.75013 28.4775L5.75462 28.3828L4.75911 28.2882L4.61649 29.7882L5.612 29.8828ZM5.75462 28.3828L6.75013 28.4775L6.89275 26.9775L5.89724 26.8828L4.90173 26.7882L4.75911 28.2882L5.75462 28.3828ZM5.89724 26.8828L6.89275 26.9775C6.9935 25.9179 6.99892 24.858 6.90899 23.7983L5.91257 23.8828L4.91615 23.9674C4.99595 24.9077 4.99116 25.8477 4.90173 26.7882L5.89724 26.8828ZM5.91257 23.8828L6.90899 23.7983L6.78169 22.2983L5.78527 22.3828L4.78885 22.4674L4.91615 23.9674L5.91257 23.8828ZM5.78527 22.3828L6.78169 22.2983L6.65439 20.7983L5.65797 20.8828L4.66155 20.9674L4.78885 22.4674L5.78527 22.3828ZM5.65797 20.8828L6.65439 20.7983C6.56907 19.793 6.47576 18.7878 6.37443 17.7825L5.37947 17.8828L4.38451 17.9831C4.48478 18.9779 4.57713 19.9726 4.66155 20.9674L5.65797 20.8828ZM5.37947 17.8828L6.37443 17.7825L6.22323 16.2825L5.22827 16.3828L4.23332 16.4831L4.38451 17.9831L5.37947 17.8828ZM5.22827 16.3828L6.22323 16.2825L6.07204 14.7825L5.07708 14.8828L4.08212 14.9831L4.23332 16.4831L5.22827 16.3828ZM5.07708 14.8828L6.07204 14.7825C5.97783 13.8479 5.97601 12.9138 6.06656 11.9793L5.07122 11.8828L4.07589 11.7864C3.97265 12.8518 3.97473 13.9177 4.08212 14.9831L5.07708 14.8828ZM5.07122 11.8828L6.06656 11.9793L6.21191 10.4793L5.21657 10.3828L4.22123 10.2864L4.07589 11.7864L5.07122 11.8828ZM5.21657 10.3828L6.21191 10.4793L6.35725 8.97926L5.36191 8.88281L4.36658 8.78637L4.22123 10.2864L5.21657 10.3828ZM5.36191 8.88281L6.35725 8.97926C6.45437 7.977 6.53144 7.13931 6.58833 6.46715L5.59189 6.38281L4.59546 6.29848C4.5395 6.95965 4.46325 7.78862 4.36658 8.78637L5.36191 8.88281ZM5.59189 6.38281L6.58833 6.46715L6.67297 5.46715L5.67653 5.38281L4.68009 5.29848L4.59546 6.29848L5.59189 6.38281ZM5.67653 5.38281L6.67297 5.46715L6.7576 4.46715L5.76116 4.38281L4.76472 4.29848L4.68009 5.29848L5.67653 5.38281ZM5.76116 4.38281L6.7576 4.46715C6.78633 4.12764 6.80343 3.8428 6.80319 3.63167C6.80308 3.53497 6.79981 3.40331 6.77767 3.27513C6.76829 3.2208 6.74297 3.08627 6.66754 2.94002C6.60777 2.82415 6.34203 2.38281 5.76002 2.38281V3.38281V4.38281C5.49766 4.38281 5.28053 4.28026 5.13053 4.15547C4.99586 4.04344 4.92397 3.92259 4.89006 3.85686C4.82537 3.73144 4.80903 3.62816 4.80684 3.61549C4.7991 3.57065 4.80311 3.56398 4.80319 3.63396C4.80333 3.75616 4.79241 3.97132 4.76472 4.29848L5.76116 4.38281ZM5.76002 3.38281V2.38281H5.67424V3.38281V4.38281H5.76002V3.38281ZM5.67424 3.38281V2.38281H5.58846V3.38281V4.38281H5.67424V3.38281ZM5.58846 3.38281V2.38281C5.59247 2.38281 5.59987 2.38284 5.60935 2.38306C5.61653 2.38323 5.63662 2.38374 5.66251 2.38576C5.67508 2.38674 5.69986 2.38889 5.73093 2.3935C5.74671 2.39584 5.83073 2.40761 5.93153 2.44498C5.97325 2.46045 6.10688 2.51139 6.24257 2.6302C6.39458 2.76329 6.65694 3.09383 6.56611 3.56995C6.49435 3.94605 6.2413 4.13984 6.18022 4.18521C6.08948 4.25263 6.00802 4.28881 5.97453 4.30302C5.90138 4.33406 5.84098 4.349 5.82443 4.35309C5.79893 4.3594 5.77838 4.3634 5.76718 4.36548C5.74453 4.36968 5.72686 4.37212 5.72004 4.37304C5.70478 4.3751 5.69361 4.3762 5.69192 4.37637C5.68559 4.37701 5.69004 4.3765 5.71733 4.37451C5.76435 4.37109 5.84536 4.36567 5.963 4.35814C6.19678 4.34318 6.56311 4.32064 7.06292 4.29048L7.00269 3.2923L6.94245 2.29411C6.44226 2.32429 6.07289 2.34702 5.83526 2.36223C5.7172 2.36978 5.62857 2.37568 5.57204 2.3798C5.54756 2.38158 5.51675 2.3839 5.49168 2.38642C5.4853 2.38706 5.47048 2.38858 5.45259 2.391C5.44447 2.39209 5.42574 2.39469 5.4023 2.39904C5.3907 2.4012 5.36982 2.40526 5.34405 2.41164C5.32723 2.4158 5.26663 2.4308 5.19334 2.4619C5.15979 2.47613 5.07827 2.51235 4.98749 2.57979C4.92637 2.62519 4.6733 2.819 4.60154 3.19514C4.5107 3.67128 4.77307 4.00185 4.92511 4.13496C5.06083 4.25379 5.1945 4.30476 5.23628 4.32025C5.3372 4.35766 5.4214 4.36947 5.43743 4.37185C5.46876 4.3765 5.49385 4.37868 5.5068 4.37969C5.5502 4.38308 5.58602 4.38281 5.58846 4.38281V3.38281ZM7.00269 3.2923L7.06292 4.29048L8.56292 4.19996L8.50269 3.20178L8.44245 2.20359L6.94245 2.29411L7.00269 3.2923Z" fill="black" fill-opacity="0.25"/>
</g>
</g>
<path d="M37.0027 3.12054L37.0875 2.12414L37.0027 3.12054ZM38.5027 3.24824L38.5875 2.25185L38.5027 3.24824ZM40.0027 3.37594L39.9179 4.37234L40.0027 3.37594ZM43.0027 3.48638L42.9912 2.48645L43.0027 3.48638ZM46.0027 3.45186L45.9912 2.45192L46.0027 3.45186ZM73.0027 3.08109L72.9313 4.07854L73.0027 3.08109ZM74.5027 3.18844L74.5741 2.191L74.5027 3.18844ZM76.0027 3.2958L76.0741 2.29835L76.0027 3.2958ZM91.0027 3.34277L91.0175 4.34266L91.0027 3.34277ZM94.0027 3.29824L94.0175 4.29813L94.0027 3.29824ZM95.7226 4.55268L94.7371 4.72242L95.7226 4.55268ZM95.9425 5.82939L96.928 5.65965L95.9425 5.82939ZM96.1624 7.1061L95.1769 7.27585L96.1624 7.1061ZM96.4659 9.88281L97.4643 9.8272L96.4659 9.88281ZM96.6329 12.8828L95.6345 12.9384L96.6329 12.8828ZM96.7973 15.8828L95.7988 15.9366L96.7973 15.8828ZM97.052 21.8828L98.052 21.8748L97.052 21.8828ZM97.0762 24.8828L96.0762 24.8909L97.0762 24.8828ZM96.9584 27.8828L95.9622 27.7966L96.9584 27.8828ZM96.6987 30.8828L97.695 30.9691L96.6987 30.8828ZM96.4724 33.8828L95.4745 33.8186L96.4724 33.8828ZM96.2795 36.8828L97.2774 36.947L96.2795 36.8828ZM96.1578 39.8828L97.1577 39.8996L96.1578 39.8828ZM96.1074 42.8828L95.1075 42.866L96.1074 42.8828ZM96.2294 45.8828L97.2246 45.7851L96.2294 45.8828ZM96.524 48.8828L95.5288 48.9805L96.524 48.8828ZM96.7323 51.8828L95.7331 51.9235L96.7323 51.8828ZM96.7934 53.3828L97.7925 53.3422L96.7934 53.3828ZM96.8544 54.8828L95.8552 54.9235L96.8544 54.8828ZM96.8093 57.8828L95.8118 57.8122L96.8093 57.8828ZM96.5971 60.8828L95.5995 60.8122L96.5971 60.8828ZM96.4384 63.8828L95.439 63.8478L96.4384 63.8828ZM96.3333 66.8828L97.3327 66.9178L96.3333 66.8828ZM96.1955 69.8828L95.1971 69.826L96.1955 69.8828ZM96.1101 71.3828L97.1085 71.4396L96.1101 71.3828ZM96.0248 72.8828L95.0264 72.826L96.0248 72.8828ZM96.1977 75.8828L95.2122 76.0525L96.1977 75.8828ZM96.456 77.3828L97.4415 77.2131L96.456 77.3828ZM96.7143 78.8828L95.7288 79.0525L96.7143 78.8828ZM96.7339 81.8828L95.7463 81.7257L96.7339 81.8828ZM96.2567 84.8828L95.2691 84.7257L96.2567 84.8828ZM95.8892 87.6569L96.8841 87.7575L95.8892 87.6569ZM95.7604 88.9309L96.7553 89.0315L95.7604 88.9309ZM95.6315 90.205L94.6366 90.1043L95.6315 90.205ZM94.0027 91.4727L93.9985 92.4727L94.0027 91.4727ZM92.5027 91.4663L92.5069 90.4664L92.5027 91.4663ZM91.0027 91.46L90.9985 92.46L91.0027 91.46ZM85.0027 91.7492L85.0682 92.7471L85.0027 91.7492ZM82.0027 91.6529L81.8739 92.6446L82.0027 91.6529ZM79.0027 91.2633L79.1315 90.2717L79.0027 91.2633ZM76.0027 91.1455L76.0539 92.1442L76.0027 91.1455ZM73.0027 91.2995L72.9514 90.3008L73.0027 91.2995ZM70.0027 91.4864L69.9296 90.489L70.0027 91.4864ZM67.0027 91.7061L67.0757 92.7034L67.0027 91.7061ZM64.0027 91.8507L63.9796 90.8509L64.0027 91.8507ZM62.5027 91.8854L62.5258 92.8851L62.5027 91.8854ZM58.0027 91.7494L57.8671 92.7401L58.0027 91.7494ZM55.0027 91.3387L55.1383 90.3479L55.0027 91.3387ZM52.0027 91.201L52.0477 92.1999L52.0027 91.201ZM50.5027 91.2686L50.4577 90.2696L50.5027 91.2686ZM49.0027 91.3362L49.0477 92.3351L49.0027 91.3362ZM46.0027 91.3274L45.9519 92.3261L46.0027 91.3274ZM44.5027 91.2511L44.5535 90.2524L44.5027 91.2511ZM43.0027 91.1747L42.9519 92.1734L43.0027 91.1747ZM38.5027 91.2499L38.4522 90.2512L38.5027 91.2499ZM37.0027 91.3257L37.0531 92.3245L37.0027 91.3257ZM34.0027 91.5224L34.083 92.5192L34.0027 91.5224ZM32.5027 91.6433L32.4224 90.6465L32.5027 91.6433ZM31.0027 91.7642L31.083 92.7609L31.0027 91.7642ZM28.0027 91.8342L27.9688 92.8337L28.0027 91.8342ZM26.5027 91.7834L26.4688 92.7828L26.5027 91.7834ZM25.0027 91.7326L25.0365 90.7332L25.0027 91.7326ZM22.0027 91.6692L21.9943 92.6692L22.0027 91.6692ZM19.0027 91.6441L19.0111 90.6442L19.0027 91.6441ZM16.0027 91.5135L16.0812 90.5166L16.0027 91.5135ZM13.0027 91.2774L12.9242 92.2743L13.0027 91.2774ZM10.0027 91.296L10.0934 92.2918L10.0027 91.296ZM8.50269 91.4326L8.41198 90.4367L8.50269 91.4326ZM5.61433 74.8828L4.61437 74.8913L5.61433 74.8828ZM5.48916 65.8828L4.49033 65.9312L5.48916 65.8828ZM5.612 29.8828L4.61649 29.7882L5.612 29.8828ZM5.65797 20.8828L4.66155 20.9674L5.65797 20.8828ZM8.50269 3.20178L8.56292 4.19996L10.0629 4.10944L10.0027 3.11126L9.94245 2.11308L8.44245 2.20359L8.50269 3.20178ZM10.0027 3.11126L10.0629 4.10944C11.0114 4.05221 11.9598 4.06835 12.9087 4.15795L13.0027 3.16238L13.0967 2.16681C12.0456 2.06755 10.994 2.04962 9.94245 2.11308L10.0027 3.11126ZM13.0027 3.16238L12.9087 4.15795L14.4087 4.29958L14.5027 3.30401L14.5967 2.30844L13.0967 2.16681L13.0027 3.16238ZM14.5027 3.30401L14.4087 4.29958L15.9087 4.44122L16.0027 3.44565L16.0967 2.45007L14.5967 2.30844L14.5027 3.30401ZM16.0027 3.44565L15.9087 4.44122C16.9239 4.53708 17.9393 4.60943 18.9547 4.65825L19.0027 3.65941L19.0507 2.66056C18.0661 2.61322 17.0814 2.54306 16.0967 2.45007L16.0027 3.44565ZM19.0027 3.65941L18.9547 4.65825L20.4547 4.73038L20.5027 3.73154L20.5507 2.73269L19.0507 2.66056L19.0027 3.65941ZM20.5027 3.73154L20.4547 4.73038L21.9547 4.80251L22.0027 3.80367L22.0507 2.80482L20.5507 2.73269L20.5027 3.73154ZM22.0027 3.80367L21.9547 4.80251C23.0182 4.85366 24.0814 4.80362 25.1433 4.65276L25.0027 3.6627L24.862 2.67264C23.924 2.80591 22.9871 2.84985 22.0507 2.80482L22.0027 3.80367ZM25.0027 3.6627L25.1433 4.65276L26.6433 4.43967L26.5027 3.44961L26.362 2.45955L24.862 2.67264L25.0027 3.6627ZM26.5027 3.44961L26.6433 4.43967L28.1433 4.22658L28.0027 3.23652L27.862 2.24646L26.362 2.45955L26.5027 3.44961ZM28.0027 3.23652L28.1433 4.22658C29.0989 4.09083 30.0536 4.02063 31.0078 4.01576L31.0027 3.01578L30.9976 2.01579C29.9518 2.02112 28.9065 2.09808 27.862 2.24646L28.0027 3.23652ZM31.0027 3.01578L31.0078 4.01576L32.5078 4.00812L32.5027 3.00813L32.4976 2.00814L30.9976 2.01579L31.0027 3.01578ZM32.5027 3.00813L32.5078 4.00812L34.0078 4.00047L34.0027 3.00048L33.9976 2.0005L32.4976 2.00814L32.5027 3.00813ZM34.0027 3.00048L34.0078 4.00047C34.9777 3.99553 35.9477 4.03434 36.9179 4.11693L37.0027 3.12054L37.0875 2.12414C36.0577 2.03647 35.0277 1.99525 33.9976 2.0005L34.0027 3.00048ZM37.0027 3.12054L36.9179 4.11693L38.4179 4.24464L38.5027 3.24824L38.5875 2.25185L37.0875 2.12414L37.0027 3.12054ZM38.5027 3.24824L38.4179 4.24464L39.9179 4.37234L40.0027 3.37594L40.0875 2.37955L38.5875 2.25185L38.5027 3.24824ZM40.0027 3.37594L39.9179 4.37234C40.9498 4.46019 41.9819 4.4982 43.0142 4.48632L43.0027 3.48638L42.9912 2.48645C42.0234 2.49759 41.0556 2.46196 40.0875 2.37955L40.0027 3.37594ZM43.0027 3.48638L43.0142 4.48632L44.5142 4.46905L44.5027 3.46912L44.4912 2.46919L42.9912 2.48645L43.0027 3.48638ZM44.5027 3.46912L44.5142 4.46905L46.0142 4.45179L46.0027 3.45186L45.9912 2.45192L44.4912 2.46919L44.5027 3.46912ZM46.0027 3.45186L46.0142 4.45179C47.0141 4.44028 48.014 4.42889 49.014 4.41762L49.0027 3.41768L48.9914 2.41775C47.9913 2.42902 46.9913 2.44041 45.9912 2.45192L46.0027 3.45186ZM49.0027 3.41768L49.014 4.41762L50.514 4.40071L50.5027 3.40077L50.4914 2.40084L48.9914 2.41775L49.0027 3.41768ZM50.5027 3.40077L50.514 4.40071L52.014 4.3838L52.0027 3.38386L51.9914 2.38392L50.4914 2.40084L50.5027 3.40077ZM52.0027 3.38386L52.014 4.3838C52.9825 4.37288 53.9511 4.40761 54.92 4.48803L55.0027 3.49145L55.0854 2.49488C54.0542 2.40929 53.0229 2.3723 51.9914 2.38392L52.0027 3.38386ZM55.0027 3.49145L54.92 4.48803L56.42 4.61253L56.5027 3.61595L56.5854 2.61938L55.0854 2.49488L55.0027 3.49145ZM56.5027 3.61595L56.42 4.61253L57.92 4.73703L58.0027 3.74046L58.0854 2.74388L56.5854 2.61938L56.5027 3.61595ZM58.0027 3.74046L57.92 4.73703C58.9481 4.82236 59.9763 4.86399 61.0047 4.86188L61.0027 3.86189L61.0006 2.86189C60.029 2.86388 59.0573 2.82455 58.0854 2.74388L58.0027 3.74046ZM61.0027 3.86189L61.0047 4.86188L62.5047 4.85881L62.5027 3.85882L62.5006 2.85882L61.0006 2.86189L61.0027 3.86189ZM62.5027 3.85882L62.5047 4.85881L64.0047 4.85574L64.0027 3.85574L64.0006 2.85575L62.5006 2.85882L62.5027 3.85882ZM64.0027 3.85574L64.0047 4.85574C65.0531 4.85359 66.1008 4.77573 67.1476 4.62238L67.0027 3.63294L66.8577 2.6435C65.9046 2.78313 64.9523 2.8538 64.0006 2.85575L64.0027 3.85574ZM67.0027 3.63294L67.1476 4.62238L68.6476 4.40264L68.5027 3.4132L68.3577 2.42376L66.8577 2.6435L67.0027 3.63294ZM68.5027 3.4132L68.6476 4.40264L70.1476 4.18291L70.0027 3.19347L69.8577 2.20403L68.3577 2.42376L68.5027 3.4132ZM70.0027 3.19347L70.1476 4.18291C71.0766 4.04683 72.0041 4.01218 72.9313 4.07854L73.0027 3.08109L73.0741 2.08364C72.0013 2.00687 70.9288 2.04714 69.8577 2.20403L70.0027 3.19347ZM73.0027 3.08109L72.9313 4.07854L74.4313 4.18589L74.5027 3.18844L74.5741 2.191L73.0741 2.08364L73.0027 3.08109ZM74.5027 3.18844L74.4313 4.18589L75.9313 4.29325L76.0027 3.2958L76.0741 2.29835L74.5741 2.191L74.5027 3.18844ZM76.0027 3.2958L75.9313 4.29325C76.9272 4.36452 77.9232 4.4419 78.9192 4.52538L79.0027 3.52888L79.0862 2.53237C78.0822 2.44822 77.0781 2.37021 76.0741 2.29835L76.0027 3.2958ZM79.0027 3.52888L78.9192 4.52538L80.4192 4.65111L80.5027 3.65461L80.5862 2.6581L79.0862 2.53237L79.0027 3.52888ZM80.5027 3.65461L80.4192 4.65111L81.9192 4.77684L82.0027 3.78034L82.0862 2.78383L80.5862 2.6581L80.5027 3.65461ZM82.0027 3.78034L81.9192 4.77684C82.9769 4.8655 84.0349 4.86214 85.0925 4.76677L85.0027 3.77081L84.9129 2.77485C83.9705 2.85983 83.0285 2.86281 82.0862 2.78383L82.0027 3.78034ZM85.0027 3.77081L85.0925 4.76677L86.5925 4.63151L86.5027 3.63555L86.4129 2.63959L84.9129 2.77485L85.0027 3.77081ZM86.5027 3.63555L86.5925 4.63151L88.0925 4.49626L88.0027 3.5003L87.9129 2.50434L86.4129 2.63959L86.5027 3.63555ZM88.0027 3.5003L88.0925 4.49626C89.0677 4.40832 90.0427 4.35713 91.0175 4.34266L91.0027 3.34277L90.9878 2.34288C89.9627 2.3581 88.9377 2.41193 87.9129 2.50434L88.0027 3.5003ZM91.0027 3.34277L91.0175 4.34266L92.5175 4.32039L92.5027 3.3205L92.4878 2.32061L90.9878 2.34288L91.0027 3.34277ZM92.5027 3.3205L92.5175 4.32039L94.0175 4.29813L94.0027 3.29824L93.9878 2.29835L92.4878 2.32061L92.5027 3.3205ZM94.0027 3.29824L94.0175 4.29813C94.3871 4.29264 94.5409 4.37035 94.5934 4.40864C94.6262 4.43258 94.6978 4.49401 94.7371 4.72242L95.7226 4.55268L96.7081 4.38293C96.6008 3.76021 96.3124 3.18699 95.7719 2.79278C95.2511 2.41292 94.6182 2.28899 93.9878 2.29835L94.0027 3.29824ZM95.7226 4.55268L94.7371 4.72242L94.957 5.99913L95.9425 5.82939L96.928 5.65965L96.7081 4.38293L95.7226 4.55268ZM95.9425 5.82939L94.957 5.99913L95.1769 7.27585L96.1624 7.1061L97.1479 6.93636L96.928 5.65965L95.9425 5.82939ZM96.1624 7.1061L95.1769 7.27585C95.3161 8.08383 95.4135 8.97081 95.4674 9.93842L96.4659 9.88281L97.4643 9.8272C97.4068 8.79482 97.3019 7.83065 97.1479 6.93636L96.1624 7.1061ZM96.4659 9.88281L95.4674 9.93842L95.5509 11.4384L96.5494 11.3828L97.5479 11.3272L97.4643 9.8272L96.4659 9.88281ZM96.5494 11.3828L95.5509 11.4384L95.6345 12.9384L96.6329 12.8828L97.6314 12.8272L97.5479 11.3272L96.5494 11.3828ZM96.6329 12.8828L95.6345 12.9384C95.6902 13.9378 95.7449 14.9372 95.7988 15.9366L96.7973 15.8828L97.7959 15.829C97.742 14.8284 97.6871 13.8278 97.6314 12.8272L96.6329 12.8828ZM96.7973 15.8828L95.7988 15.9366L95.8797 17.4366L96.8782 17.3828L97.8768 17.329L97.7959 15.829L96.7973 15.8828ZM96.8782 17.3828L95.8797 17.4366L95.9605 18.9366L96.9591 18.8828L97.9576 18.829L97.8768 17.329L96.8782 17.3828ZM96.9591 18.8828L95.9605 18.9366C96.0136 19.9214 96.0441 20.9062 96.052 21.8909L97.052 21.8828L98.052 21.8748C98.0438 20.8595 98.0123 19.8442 97.9576 18.829L96.9591 18.8828ZM97.052 21.8828L96.052 21.8909L96.0641 23.3909L97.0641 23.3828L98.0641 23.3748L98.052 21.8748L97.052 21.8828ZM97.0641 23.3828L96.0641 23.3909L96.0762 24.8909L97.0762 24.8828L98.0762 24.8748L98.0641 23.3748L97.0641 23.3828ZM97.0762 24.8828L96.0762 24.8909C96.084 25.8593 96.046 26.8278 95.9622 27.7966L96.9584 27.8828L97.9547 27.9691C98.044 26.9378 98.0845 25.9063 98.0762 24.8748L97.0762 24.8828ZM96.9584 27.8828L95.9622 27.7966L95.8323 29.2966L96.8286 29.3828L97.8248 29.4691L97.9547 27.9691L96.9584 27.8828ZM96.8286 29.3828L95.8323 29.2966L95.7024 30.7966L96.6987 30.8828L97.695 30.9691L97.8248 29.4691L96.8286 29.3828ZM96.6987 30.8828L95.7024 30.7966C95.6152 31.8039 95.5392 32.8113 95.4745 33.8186L96.4724 33.8828L97.4703 33.947C97.5342 32.9544 97.609 31.9617 97.695 30.9691L96.6987 30.8828ZM96.4724 33.8828L95.4745 33.8186L95.378 35.3186L96.376 35.3828L97.3739 35.447L97.4703 33.947L96.4724 33.8828ZM96.376 35.3828L95.378 35.3186L95.2816 36.8186L96.2795 36.8828L97.2774 36.947L97.3739 35.447L96.376 35.3828ZM96.2795 36.8828L95.2816 36.8186C95.2163 37.8344 95.1751 38.8502 95.158 39.866L96.1578 39.8828L97.1577 39.8996C97.1742 38.9155 97.2142 37.9312 97.2774 36.947L96.2795 36.8828ZM96.1578 39.8828L95.158 39.866L95.1327 41.366L96.1326 41.3828L97.1325 41.3996L97.1577 39.8996L96.1578 39.8828ZM96.1326 41.3828L95.1327 41.366L95.1075 42.866L96.1074 42.8828L97.1072 42.8996L97.1325 41.3996L96.1326 41.3828ZM96.1074 42.8828L95.1075 42.866C95.09 43.9044 95.1323 44.9426 95.2342 45.9805L96.2294 45.8828L97.2246 45.7851C97.1302 44.823 97.0911 43.8612 97.1072 42.8996L96.1074 42.8828ZM96.2294 45.8828L95.2342 45.9805L95.3815 47.4805L96.3767 47.3828L97.3719 47.2851L97.2246 45.7851L96.2294 45.8828ZM96.3767 47.3828L95.3815 47.4805L95.5288 48.9805L96.524 48.8828L97.5192 48.7851L97.3719 47.2851L96.3767 47.3828ZM96.524 48.8828L95.5288 48.9805C95.6251 49.9616 95.6932 50.9426 95.7331 51.9235L96.7323 51.8828L97.7315 51.8422C97.69 50.823 97.6192 49.804 97.5192 48.7851L96.524 48.8828ZM96.7323 51.8828L95.7331 51.9235L95.7942 53.4235L96.7934 53.3828L97.7925 53.3422L97.7315 51.8422L96.7323 51.8828ZM96.7934 53.3828L95.7942 53.4235L95.8552 54.9235L96.8544 54.8828L97.8536 54.8422L97.7925 53.3422L96.7934 53.3828ZM96.8544 54.8828L95.8552 54.9235C95.8944 55.8863 95.88 56.8492 95.8118 57.8122L96.8093 57.8828L97.8068 57.9534C97.8802 56.9164 97.8958 55.8793 97.8536 54.8422L96.8544 54.8828ZM96.8093 57.8828L95.8118 57.8122L95.7057 59.3122L96.7032 59.3828L97.7007 59.4534L97.8068 57.9534L96.8093 57.8828ZM96.7032 59.3828L95.7057 59.3122L95.5995 60.8122L96.5971 60.8828L97.5946 60.9534L97.7007 59.4534L96.7032 59.3828ZM96.5971 60.8828L95.5995 60.8122C95.528 61.8241 95.4744 62.8359 95.439 63.8478L96.4384 63.8828L97.4378 63.9178C97.4724 62.9297 97.5246 61.9416 97.5946 60.9534L96.5971 60.8828ZM96.4384 63.8828L95.439 63.8478L95.3865 65.3478L96.3859 65.3828L97.3853 65.4178L97.4378 63.9178L96.4384 63.8828ZM96.3859 65.3828L95.3865 65.3478L95.334 66.8478L96.3333 66.8828L97.3327 66.9178L97.3853 65.4178L96.3859 65.3828ZM96.3333 66.8828L95.334 66.8478C95.2992 67.8405 95.2536 68.8333 95.1971 69.826L96.1955 69.8828L97.1939 69.9396C97.2512 68.9324 97.2975 67.9251 97.3327 66.9178L96.3333 66.8828ZM96.1955 69.8828L95.1971 69.826L95.1117 71.326L96.1101 71.3828L97.1085 71.4396L97.1939 69.9396L96.1955 69.8828ZM96.1101 71.3828L95.1117 71.326L95.0264 72.826L96.0248 72.8828L97.0232 72.9396L97.1085 71.4396L96.1101 71.3828ZM96.0248 72.8828L95.0264 72.826C94.9651 73.9027 95.0273 74.9787 95.2122 76.0525L96.1977 75.8828L97.1832 75.7131C97.0238 74.7869 96.9707 73.8629 97.0232 72.9396L96.0248 72.8828ZM96.1977 75.8828L95.2122 76.0525L95.4705 77.5525L96.456 77.3828L97.4415 77.2131L97.1832 75.7131L96.1977 75.8828ZM96.456 77.3828L95.4705 77.5525L95.7288 79.0525L96.7143 78.8828L97.6998 78.7131L97.4415 77.2131L96.456 77.3828ZM96.7143 78.8828L95.7288 79.0525C95.8824 79.9446 95.8881 80.8343 95.7463 81.7257L96.7339 81.8828L97.7215 82.0399C97.8978 80.9314 97.8905 79.821 97.6998 78.7131L96.7143 78.8828ZM96.7339 81.8828L95.7463 81.7257L95.5077 83.2257L96.4953 83.3828L97.4829 83.5399L97.7215 82.0399L96.7339 81.8828ZM96.4953 83.3828L95.5077 83.2257L95.2691 84.7257L96.2567 84.8828L97.2443 85.0399L97.4829 83.5399L96.4953 83.3828ZM96.2567 84.8828L95.2691 84.7257C95.1076 85.7411 94.9824 86.6849 94.8943 87.5562L95.8892 87.6569L96.8841 87.7575C96.9678 86.9301 97.0876 86.0245 97.2443 85.0399L96.2567 84.8828ZM95.8892 87.6569L94.8943 87.5562L94.7654 88.8303L95.7604 88.9309L96.7553 89.0315L96.8841 87.7575L95.8892 87.6569ZM95.7604 88.9309L94.7654 88.8303L94.6366 90.1043L95.6315 90.205L96.6265 90.3056L96.7553 89.0315L95.7604 88.9309ZM95.6315 90.205L94.6366 90.1043C94.6141 90.327 94.5518 90.365 94.5457 90.3698C94.5154 90.3934 94.3812 90.4743 94.0069 90.4727L94.0027 91.4727L93.9985 92.4727C94.6242 92.4753 95.2615 92.347 95.7741 91.9481C96.311 91.5302 96.5631 90.9323 96.6265 90.3056L95.6315 90.205ZM94.0027 91.4727L94.0069 90.4727L92.5069 90.4664L92.5027 91.4663L92.4985 92.4663L93.9985 92.4727L94.0027 91.4727ZM92.5027 91.4663L92.5069 90.4664L91.0069 90.46L91.0027 91.46L90.9985 92.46L92.4985 92.4663L92.5027 91.4663ZM91.0027 91.46L91.0069 90.46C89.9836 90.4557 88.9603 90.4872 87.9371 90.5544L88.0027 91.5522L88.0682 92.5501C89.0451 92.4859 90.0218 92.4559 90.9985 92.46L91.0027 91.46ZM88.0027 91.5522L87.9371 90.5544L86.4371 90.6529L86.5027 91.6507L86.5682 92.6486L88.0682 92.5501L88.0027 91.5522ZM86.5027 91.6507L86.4371 90.6529L84.9371 90.7514L85.0027 91.7492L85.0682 92.7471L86.5682 92.6486L86.5027 91.6507ZM85.0027 91.7492L84.9371 90.7514C84.0024 90.8128 83.0675 90.7828 82.1315 90.6613L82.0027 91.6529L81.8739 92.6446C82.9379 92.7828 84.003 92.8171 85.0682 92.7471L85.0027 91.7492ZM82.0027 91.6529L82.1315 90.6613L80.6315 90.4665L80.5027 91.4581L80.3739 92.4498L81.8739 92.6446L82.0027 91.6529ZM80.5027 91.4581L80.6315 90.4665L79.1315 90.2717L79.0027 91.2633L78.8739 92.255L80.3739 92.4498L80.5027 91.4581ZM79.0027 91.2633L79.1315 90.2717C78.0722 90.1341 77.012 90.0924 75.9514 90.1468L76.0027 91.1455L76.0539 92.1442C76.9934 92.096 77.9332 92.1328 78.8739 92.255L79.0027 91.2633ZM76.0027 91.1455L75.9514 90.1468L74.4514 90.2238L74.5027 91.2225L74.5539 92.2212L76.0539 92.1442L76.0027 91.1455ZM74.5027 91.2225L74.4514 90.2238L72.9514 90.3008L73.0027 91.2995L73.0539 92.2982L74.5539 92.2212L74.5027 91.2225ZM73.0027 91.2995L72.9514 90.3008C71.9441 90.3525 70.9369 90.4152 69.9296 90.489L70.0027 91.4864L70.0757 92.4837C71.0685 92.411 72.0612 92.3491 73.0539 92.2982L73.0027 91.2995ZM70.0027 91.4864L69.9296 90.489L68.4296 90.5989L68.5027 91.5962L68.5757 92.5936L70.0757 92.4837L70.0027 91.4864ZM68.5027 91.5962L68.4296 90.5989L66.9296 90.7088L67.0027 91.7061L67.0757 92.7034L68.5757 92.5936L68.5027 91.5962ZM67.0027 91.7061L66.9296 90.7088C65.9462 90.7808 64.9629 90.8282 63.9796 90.8509L64.0027 91.8507L64.0258 92.8504C65.0425 92.8269 66.0592 92.7779 67.0757 92.7034L67.0027 91.7061ZM64.0027 91.8507L63.9796 90.8509L62.4796 90.8856L62.5027 91.8854L62.5258 92.8851L64.0258 92.8504L64.0027 91.8507ZM62.5027 91.8854L62.4796 90.8856L60.9796 90.9203L61.0027 91.92L61.0258 92.9198L62.5258 92.8851L62.5027 91.8854ZM61.0027 91.92L60.9796 90.9203C60.0331 90.9422 59.0862 90.8884 58.1383 90.7586L58.0027 91.7494L57.8671 92.7401C58.9192 92.8842 59.9723 92.9441 61.0258 92.9198L61.0027 91.92ZM58.0027 91.7494L58.1383 90.7586L56.6383 90.5533L56.5027 91.544L56.3671 92.5348L57.8671 92.7401L58.0027 91.7494ZM56.5027 91.544L56.6383 90.5533L55.1383 90.3479L55.0027 91.3387L54.8671 92.3295L56.3671 92.5348L56.5027 91.544ZM55.0027 91.3387L55.1383 90.3479C54.079 90.2029 53.0185 90.1542 51.9577 90.202L52.0027 91.201L52.0477 92.1999C52.9869 92.1576 53.9264 92.2007 54.8671 92.3295L55.0027 91.3387ZM52.0027 91.201L51.9577 90.202L50.4577 90.2696L50.5027 91.2686L50.5477 92.2675L52.0477 92.1999L52.0027 91.201ZM50.5027 91.2686L50.4577 90.2696L48.9577 90.3372L49.0027 91.3362L49.0477 92.3351L50.5477 92.2675L50.5027 91.2686ZM49.0027 91.3362L48.9577 90.3372C47.9896 90.3808 47.0216 90.378 46.0535 90.3287L46.0027 91.3274L45.9519 92.3261C46.9838 92.3786 48.0158 92.3816 49.0477 92.3351L49.0027 91.3362ZM46.0027 91.3274L46.0535 90.3287L44.5535 90.2524L44.5027 91.2511L44.4519 92.2498L45.9519 92.3261L46.0027 91.3274ZM44.5027 91.2511L44.5535 90.2524L43.0535 90.176L43.0027 91.1747L42.9519 92.1734L44.4519 92.2498L44.5027 91.2511ZM43.0027 91.1747L43.0535 90.176C42.0198 90.1234 40.986 90.1232 39.9522 90.1754L40.0027 91.1742L40.0531 92.1729C41.0194 92.1241 41.9856 92.1243 42.9519 92.1734L43.0027 91.1747ZM40.0027 91.1742L39.9522 90.1754L38.4522 90.2512L38.5027 91.2499L38.5531 92.2487L40.0531 92.1729L40.0027 91.1742ZM38.5027 91.2499L38.4522 90.2512L36.9522 90.327L37.0027 91.3257L37.0531 92.3245L38.5531 92.2487L38.5027 91.2499ZM37.0027 91.3257L36.9522 90.327C35.9422 90.378 34.9323 90.4442 33.9224 90.5256L34.0027 91.5224L34.083 92.5192C35.0731 92.4394 36.0631 92.3745 37.0531 92.3245L37.0027 91.3257ZM34.0027 91.5224L33.9224 90.5256L32.4224 90.6465L32.5027 91.6433L32.583 92.64L34.083 92.5192L34.0027 91.5224ZM32.5027 91.6433L32.4224 90.6465L30.9224 90.7674L31.0027 91.7642L31.083 92.7609L32.583 92.64L32.5027 91.6433ZM31.0027 91.7642L30.9224 90.7674C29.9602 90.8449 28.9984 90.8674 28.0365 90.8348L28.0027 91.8342L27.9688 92.8337C29.007 92.8688 30.0451 92.8446 31.083 92.7609L31.0027 91.7642ZM28.0027 91.8342L28.0365 90.8348L26.5365 90.784L26.5027 91.7834L26.4688 92.7828L27.9688 92.8337L28.0027 91.8342ZM26.5027 91.7834L26.5365 90.784L25.0365 90.7332L25.0027 91.7326L24.9688 92.732L26.4688 92.7828L26.5027 91.7834ZM25.0027 91.7326L25.0365 90.7332C24.0281 90.699 23.0196 90.6777 22.011 90.6693L22.0027 91.6692L21.9943 92.6692C22.9858 92.6775 23.9773 92.6984 24.9688 92.732L25.0027 91.7326ZM22.0027 91.6692L22.011 90.6693L20.5111 90.6567L20.5027 91.6567L20.4943 92.6567L21.9943 92.6692L22.0027 91.6692ZM20.5027 91.6567L20.5111 90.6567L19.0111 90.6442L19.0027 91.6441L18.9943 92.6441L20.4943 92.6567L20.5027 91.6567ZM19.0027 91.6441L19.0111 90.6442C18.0345 90.636 17.0579 90.5935 16.0812 90.5166L16.0027 91.5135L15.9242 92.5104C16.9475 92.591 17.9709 92.6355 18.9943 92.6441L19.0027 91.6441ZM16.0027 91.5135L16.0812 90.5166L14.5812 90.3985L14.5027 91.3955L14.4242 92.3924L15.9242 92.5104L16.0027 91.5135ZM14.5027 91.3955L14.5812 90.3985L13.0812 90.2805L13.0027 91.2774L12.9242 92.2743L14.4242 92.3924L14.5027 91.3955ZM13.0027 91.2774L13.0812 90.2805C12.0248 90.1973 10.9682 90.2039 9.91198 90.3001L10.0027 91.296L10.0934 92.2918C11.0372 92.2059 11.9806 92.2 12.9242 92.2743L13.0027 91.2774ZM10.0027 91.296L9.91198 90.3001L8.41198 90.4367L8.50269 91.4326L8.59339 92.4285L10.0934 92.2918L10.0027 91.296ZM8.50269 91.4326L8.41198 90.4367L6.91198 90.5733L7.00269 91.5692L7.09339 92.5651L8.59339 92.4285L8.50269 91.4326ZM7.00269 91.5692L6.91198 90.5733C6.55815 90.6056 6.55937 90.5127 6.62802 90.5842C6.65363 90.6109 6.64464 90.6195 6.63088 90.5647C6.61563 90.5039 6.60094 90.3881 6.61477 90.1975L5.6174 90.1251L4.62002 90.0527C4.57304 90.7001 4.66815 91.4303 5.18471 91.9688C5.71512 92.5217 6.44722 92.624 7.09339 92.5651L7.00269 91.5692ZM5.6174 90.1251L6.61477 90.1975L6.72948 88.6167L5.73211 88.5443L4.73473 88.472L4.62002 90.0527L5.6174 90.1251ZM5.73211 88.5443L6.72948 88.6167L6.84419 87.0359L5.84682 86.9636L4.84944 86.8912L4.73473 88.472L5.73211 88.5443ZM5.84682 86.9636L6.84419 87.0359C6.92349 85.9432 6.93669 84.8748 6.88294 83.8314L5.88427 83.8828L4.88559 83.9342C4.93486 84.8908 4.92309 85.8763 4.84944 86.8912L5.84682 86.9636ZM5.88427 83.8828L6.88294 83.8314L6.80569 82.3314L5.80701 82.3828L4.80833 82.4342L4.88559 83.9342L5.88427 83.8828ZM5.80701 82.3828L6.80569 82.3314L6.72843 80.8314L5.72975 80.8828L4.73108 80.9342L4.80833 82.4342L5.80701 82.3828ZM5.72975 80.8828L6.72843 80.8314C6.67766 79.8457 6.6481 78.86 6.63974 77.8743L5.63977 77.8828L4.63981 77.8913C4.64841 78.9056 4.67883 79.92 4.73108 80.9342L5.72975 80.8828ZM5.63977 77.8828L6.63974 77.8743L6.62702 76.3743L5.62705 76.3828L4.62709 76.3913L4.63981 77.8913L5.63977 77.8828ZM5.62705 76.3828L6.62702 76.3743L6.6143 74.8743L5.61433 74.8828L4.61437 74.8913L4.62709 76.3913L5.62705 76.3828ZM5.61433 74.8828L6.6143 74.8743C6.60582 73.8749 6.59827 72.8756 6.59163 71.8762L5.59166 71.8828L4.59168 71.8895C4.59832 72.8901 4.60588 73.8907 4.61437 74.8913L5.61433 74.8828ZM5.59166 71.8828L6.59163 71.8762L6.58168 70.3762L5.5817 70.3828L4.58172 70.3895L4.59168 71.8895L5.59166 71.8828ZM5.5817 70.3828L6.58168 70.3762L6.57172 68.8762L5.57174 68.8828L4.57177 68.8895L4.58172 70.3895L5.5817 70.3828ZM5.57174 68.8828L6.57172 68.8762C6.56499 67.8622 6.53708 66.8483 6.48799 65.8344L5.48916 65.8828L4.49033 65.9312C4.53807 66.9173 4.56522 67.9034 4.57177 68.8895L5.57174 68.8828ZM5.48916 65.8828L6.48799 65.8344L6.41535 64.3344L5.41652 64.3828L4.41769 64.4312L4.49033 65.9312L5.48916 65.8828ZM5.41652 64.3828L6.41535 64.3344L6.34272 62.8344L5.34389 62.8828L4.34506 62.9312L4.41769 64.4312L5.41652 64.3828ZM5.34389 62.8828L6.34272 62.8344C6.29515 61.8521 6.27364 60.8697 6.27817 59.8874L5.27818 59.8828L4.27819 59.8782C4.2735 60.8959 4.29579 61.9136 4.34506 62.9312L5.34389 62.8828ZM5.27818 59.8828L6.27817 59.8874L6.28509 58.3874L5.2851 58.3828L4.28512 58.3782L4.27819 59.8782L5.27818 59.8828ZM5.2851 58.3828L6.28509 58.3874L6.29202 56.8874L5.29203 56.8828L4.29204 56.8782L4.28512 58.3782L5.2851 58.3828ZM5.29203 56.8828L6.29202 56.8874C6.29653 55.9088 6.33239 54.9301 6.39959 53.9513L5.40194 53.8828L4.40429 53.8143C4.33417 54.8355 4.29675 55.8568 4.29204 56.8782L5.29203 56.8828ZM5.40194 53.8828L6.39959 53.9513L6.50258 52.4513L5.50493 52.3828L4.50727 52.3143L4.40429 53.8143L5.40194 53.8828ZM5.50493 52.3828L6.50258 52.4513L6.60557 50.9513L5.60791 50.8828L4.61026 50.8143L4.50727 52.3143L5.50493 52.3828ZM5.60791 50.8828L6.60557 50.9513C6.67709 49.9095 6.68305 48.8676 6.62342 47.8257L5.62505 47.8828L4.62669 47.9399C4.68152 48.8981 4.67605 49.8561 4.61026 50.8143L5.60791 50.8828ZM5.62505 47.8828L6.62342 47.8257L6.53757 46.3257L5.53921 46.3828L4.54084 46.4399L4.62669 47.9399L5.62505 47.8828ZM5.53921 46.3828L6.53757 46.3257L6.45173 44.8257L5.45336 44.8828L4.45499 44.9399L4.54084 46.4399L5.53921 46.3828ZM5.45336 44.8828L6.45173 44.8257C6.39586 43.8496 6.37511 42.8735 6.38945 41.8975L5.38956 41.8828L4.38967 41.8681C4.37462 42.8921 4.3964 43.9161 4.45499 44.9399L5.45336 44.8828ZM5.38956 41.8828L6.38945 41.8975L6.41149 40.3975L5.4116 40.3828L4.41171 40.3681L4.38967 41.8681L5.38956 41.8828ZM5.4116 40.3828L6.41149 40.3975L6.43354 38.8975L5.43365 38.8828L4.43376 38.8681L4.41171 40.3681L5.4116 40.3828ZM5.43365 38.8828L6.43354 38.8975C6.4483 37.8934 6.45682 36.8892 6.45911 35.8851L5.45911 35.8828L4.45912 35.8805C4.45684 36.8764 4.44839 37.8723 4.43376 38.8681L5.43365 38.8828ZM5.45911 35.8828L6.45911 35.8851L6.46253 34.3851L5.46253 34.3828L4.46254 34.3805L4.45912 35.8805L5.45911 35.8828ZM5.46253 34.3828L6.46253 34.3851L6.46595 32.8851L5.46596 32.8828L4.46596 32.8805L4.46254 34.3805L5.46253 34.3828ZM5.46596 32.8828L6.46595 32.8851C6.46816 31.9161 6.51533 30.9469 6.60751 29.9775L5.612 29.8828L4.61649 29.7882C4.5185 30.8187 4.46831 31.8495 4.46596 32.8805L5.46596 32.8828ZM5.612 29.8828L6.60751 29.9775L6.75013 28.4775L5.75462 28.3828L4.75911 28.2882L4.61649 29.7882L5.612 29.8828ZM5.75462 28.3828L6.75013 28.4775L6.89275 26.9775L5.89724 26.8828L4.90173 26.7882L4.75911 28.2882L5.75462 28.3828ZM5.89724 26.8828L6.89275 26.9775C6.9935 25.9179 6.99892 24.858 6.90899 23.7983L5.91257 23.8828L4.91615 23.9674C4.99595 24.9077 4.99116 25.8477 4.90173 26.7882L5.89724 26.8828ZM5.91257 23.8828L6.90899 23.7983L6.78169 22.2983L5.78527 22.3828L4.78885 22.4674L4.91615 23.9674L5.91257 23.8828ZM5.78527 22.3828L6.78169 22.2983L6.65439 20.7983L5.65797 20.8828L4.66155 20.9674L4.78885 22.4674L5.78527 22.3828ZM5.65797 20.8828L6.65439 20.7983C6.56907 19.793 6.47576 18.7878 6.37443 17.7825L5.37947 17.8828L4.38451 17.9831C4.48478 18.9779 4.57713 19.9726 4.66155 20.9674L5.65797 20.8828ZM5.37947 17.8828L6.37443 17.7825L6.22323 16.2825L5.22827 16.3828L4.23332 16.4831L4.38451 17.9831L5.37947 17.8828ZM5.22827 16.3828L6.22323 16.2825L6.07204 14.7825L5.07708 14.8828L4.08212 14.9831L4.23332 16.4831L5.22827 16.3828ZM5.07708 14.8828L6.07204 14.7825C5.97783 13.8479 5.97601 12.9138 6.06656 11.9793L5.07122 11.8828L4.07589 11.7864C3.97265 12.8518 3.97473 13.9177 4.08212 14.9831L5.07708 14.8828ZM5.07122 11.8828L6.06656 11.9793L6.21191 10.4793L5.21657 10.3828L4.22123 10.2864L4.07589 11.7864L5.07122 11.8828ZM5.21657 10.3828L6.21191 10.4793L6.35725 8.97926L5.36191 8.88281L4.36658 8.78637L4.22123 10.2864L5.21657 10.3828ZM5.36191 8.88281L6.35725 8.97926C6.45437 7.977 6.53144 7.13931 6.58833 6.46715L5.59189 6.38281L4.59546 6.29848C4.5395 6.95965 4.46325 7.78862 4.36658 8.78637L5.36191 8.88281ZM5.59189 6.38281L6.58833 6.46715L6.67297 5.46715L5.67653 5.38281L4.68009 5.29848L4.59546 6.29848L5.59189 6.38281ZM5.67653 5.38281L6.67297 5.46715L6.7576 4.46715L5.76116 4.38281L4.76472 4.29848L4.68009 5.29848L5.67653 5.38281ZM5.76116 4.38281L6.7576 4.46715C6.78633 4.12764 6.80343 3.8428 6.80319 3.63167C6.80308 3.53497 6.79981 3.40331 6.77767 3.27513C6.76829 3.2208 6.74297 3.08627 6.66754 2.94002C6.60777 2.82415 6.34203 2.38281 5.76002 2.38281V3.38281V4.38281C5.49766 4.38281 5.28053 4.28026 5.13053 4.15547C4.99586 4.04344 4.92397 3.92259 4.89006 3.85686C4.82537 3.73144 4.80903 3.62816 4.80684 3.61549C4.7991 3.57065 4.80311 3.56398 4.80319 3.63396C4.80333 3.75616 4.79241 3.97132 4.76472 4.29848L5.76116 4.38281ZM5.76002 3.38281V2.38281H5.67424V3.38281V4.38281H5.76002V3.38281ZM5.67424 3.38281V2.38281H5.58846V3.38281V4.38281H5.67424V3.38281ZM5.58846 3.38281V2.38281C5.59247 2.38281 5.59987 2.38284 5.60935 2.38306C5.61653 2.38323 5.63662 2.38374 5.66251 2.38576C5.67508 2.38674 5.69986 2.38889 5.73093 2.3935C5.74671 2.39584 5.83073 2.40761 5.93153 2.44498C5.97325 2.46045 6.10688 2.51139 6.24257 2.6302C6.39458 2.76329 6.65694 3.09383 6.56611 3.56995C6.49435 3.94605 6.2413 4.13984 6.18022 4.18521C6.08948 4.25263 6.00802 4.28881 5.97453 4.30302C5.90138 4.33406 5.84098 4.349 5.82443 4.35309C5.79893 4.3594 5.77838 4.3634 5.76718 4.36548C5.74453 4.36968 5.72686 4.37212 5.72004 4.37304C5.70478 4.3751 5.69361 4.3762 5.69192 4.37637C5.68559 4.37701 5.69004 4.3765 5.71733 4.37451C5.76435 4.37109 5.84536 4.36567 5.963 4.35814C6.19678 4.34318 6.56311 4.32064 7.06292 4.29048L7.00269 3.2923L6.94245 2.29411C6.44226 2.32429 6.07289 2.34702 5.83526 2.36223C5.7172 2.36978 5.62857 2.37568 5.57204 2.3798C5.54756 2.38158 5.51675 2.3839 5.49168 2.38642C5.4853 2.38706 5.47048 2.38858 5.45259 2.391C5.44447 2.39209 5.42574 2.39469 5.4023 2.39904C5.3907 2.4012 5.36982 2.40526 5.34405 2.41164C5.32723 2.4158 5.26663 2.4308 5.19334 2.4619C5.15979 2.47613 5.07827 2.51235 4.98749 2.57979C4.92637 2.62519 4.6733 2.819 4.60154 3.19514C4.5107 3.67128 4.77307 4.00185 4.92511 4.13496C5.06083 4.25379 5.1945 4.30476 5.23628 4.32025C5.3372 4.35766 5.4214 4.36947 5.43743 4.37185C5.46876 4.3765 5.49385 4.37868 5.5068 4.37969C5.5502 4.38308 5.58602 4.38281 5.58846 4.38281V3.38281ZM7.00269 3.2923L7.06292 4.29048L8.56292 4.19996L8.50269 3.20178L8.44245 2.20359L6.94245 2.29411L7.00269 3.2923Z" fill="black" fill-opacity="0.25"/>
</g>
<defs>
<filter id="filter0_dng_431_9131" x="0" y="0" width="102.077" height="100.925" filterUnits="userSpaceOnUse" color-interpolation-filters="sRGB">
<feFlood flood-opacity="0" result="BackgroundImageFix"/>
<feColorMatrix in="SourceAlpha" type="matrix" values="0 0 0 0 0 0 0 0 0 0 0 0 0 0 0 0 0 0 127 0" result="hardAlpha"/>
<feOffset dy="4"/>
<feGaussianBlur stdDeviation="2"/>
<feComposite in2="hardAlpha" operator="out"/>
<feColorMatrix type="matrix" values="0 0 0 0 0 0 0 0 0 0 0 0 0 0 0 0 0 0 0.25 0"/>
<feBlend mode="normal" in2="BackgroundImageFix" result="effect1_dropShadow_431_9131"/>
<feBlend mode="normal" in="SourceGraphic" in2="BackgroundImageFix" result="shape"/>
<feTurbulence type="fractalNoise" baseFrequency="0.019999999552965164 0.019999999552965164" stitchTiles="stitch" numOctaves="3" result="noise" seed="4598" />
<feColorMatrix in="noise" type="luminanceToAlpha" result="alphaNoise" />
<feComponentTransfer in="alphaNoise" result="coloredNoise1">
<feFuncA type="discrete" tableValues="0 0 0 0 0 0 0 0 0 0 0 0 0 0 0 0 0 0 1 1 1 1 1 1 1 1 1 1 1 1 1 0 0 0 0 0 0 0 0 0 0 0 0 0 0 0 0 0 0 0 0 0 0 0 0 0 0 0 0 0 0 0 0 0 0 0 0 0 0 0 0 0 0 0 0 0 0 0 0 0 0 0 0 0 0 0 0 0 0 0 0 0 0 0 0 0 0 0 0 0 "/>
</feComponentTransfer>
<feComposite operator="in" in2="shape" in="coloredNoise1" result="noise1Clipped" />
<feComponentTransfer in="alphaNoise" result="coloredNoise2">
<feFuncA type="discrete" tableValues="0 0 0 0 0 0 0 0 0 0 0 0 0 0 0 0 0 0 0 0 0 0 0 0 0 0 0 0 0 0 0 0 0 0 0 0 0 0 0 0 0 0 0 0 0 0 0 0 0 0 0 0 0 0 0 0 0 0 0 0 0 0 0 0 0 0 0 0 0 1 1 1 1 1 1 1 1 1 1 1 1 1 0 0 0 0 0 0 0 0 0 0 0 0 0 0 0 0 0 0 "/>
</feComponentTransfer>
<feComposite operator="in" in2="shape" in="coloredNoise2" result="noise2Clipped" />
<feFlood flood-color="rgba(255, 255, 255, 0.25)" result="color1Flood" />
<feComposite operator="in" in2="noise1Clipped" in="color1Flood" result="color1" />
<feFlood flood-color="rgba(27, 4, 4, 0.25)" result="color2Flood" />
<feComposite operator="in" in2="noise2Clipped" in="color2Flood" result="color2" />
<feMerge result="effect2_noise_431_9131">
<feMergeNode in="shape" />
<feMergeNode in="color1" />
<feMergeNode in="color2" />
</feMerge>
<feBlend mode="normal" in="effect2_noise_431_9131" in2="effect1_dropShadow_431_9131" result="effect2_noise_431_9131"/>
<feTurbulence type="fractalNoise" baseFrequency="0.039999999105930328 0.039999999105930328" numOctaves="3" seed="4342" />
<feDisplacementMap in="effect2_noise_431_9131" scale="4" xChannelSelector="R" yChannelSelector="G" result="displacedImage" width="100%" height="100%" />
<feMerge result="effect3_texture_431_9131">
<feMergeNode in="displacedImage"/>
</feMerge>
</filter>
<filter id="filter1_ng_431_9131" x="2" y="0" width="98.0771" height="94.925" filterUnits="userSpaceOnUse" color-interpolation-filters="sRGB">
<feFlood flood-opacity="0" result="BackgroundImageFix"/>
<feBlend mode="normal" in="SourceGraphic" in2="BackgroundImageFix" result="shape"/>
<feTurbulence type="fractalNoise" baseFrequency="0.019999999552965164 0.019999999552965164" stitchTiles="stitch" numOctaves="3" result="noise" seed="4598" />
<feColorMatrix in="noise" type="luminanceToAlpha" result="alphaNoise" />
<feComponentTransfer in="alphaNoise" result="coloredNoise1">
<feFuncA type="discrete" tableValues="0 0 0 0 0 0 0 0 0 0 0 0 0 0 0 0 0 0 1 1 1 1 1 1 1 1 1 1 1 1 1 0 0 0 0 0 0 0 0 0 0 0 0 0 0 0 0 0 0 0 0 0 0 0 0 0 0 0 0 0 0 0 0 0 0 0 0 0 0 0 0 0 0 0 0 0 0 0 0 0 0 0 0 0 0 0 0 0 0 0 0 0 0 0 0 0 0 0 0 0 "/>
</feComponentTransfer>
<feComposite operator="in" in2="shape" in="coloredNoise1" result="noise1Clipped" />
<feComponentTransfer in="alphaNoise" result="coloredNoise2">
<feFuncA type="discrete" tableValues="0 0 0 0 0 0 0 0 0 0 0 0 0 0 0 0 0 0 0 0 0 0 0 0 0 0 0 0 0 0 0 0 0 0 0 0 0 0 0 0 0 0 0 0 0 0 0 0 0 0 0 0 0 0 0 0 0 0 0 0 0 0 0 0 0 0 0 0 0 1 1 1 1 1 1 1 1 1 1 1 1 1 0 0 0 0 0 0 0 0 0 0 0 0 0 0 0 0 0 0 "/>
</feComponentTransfer>
<feComposite operator="in" in2="shape" in="coloredNoise2" result="noise2Clipped" />
<feFlood flood-color="rgba(255, 255, 255, 0.25)" result="color1Flood" />
<feComposite operator="in" in2="noise1Clipped" in="color1Flood" result="color1" />
<feFlood flood-color="rgba(27, 4, 4, 0.25)" result="color2Flood" />
<feComposite operator="in" in2="noise2Clipped" in="color2Flood" result="color2" />
<feMerge result="effect1_noise_431_9131">
<feMergeNode in="shape" />
<feMergeNode in="color1" />
<feMergeNode in="color2" />
</feMerge>
<feTurbulence type="fractalNoise" baseFrequency="0.039999999105930328 0.039999999105930328" numOctaves="3" seed="4342" />
<feDisplacementMap in="effect1_noise_431_9131" scale="4" xChannelSelector="R" yChannelSelector="G" result="displacedImage" width="100%" height="100%" />
<feMerge result="effect2_texture_431_9131">
<feMergeNode in="displacedImage"/>
</feMerge>
</filter>
<clipPath id="clip0_431_9131">
<path d="M5.50269 3.38281H96.5027V91.3828H5.50269V3.38281Z" fill="white"/>
</clipPath>
<clipPath id="clip1_431_9131">
<path d="M5.50269 3.38281H96.5027V91.3828H5.50269V3.38281Z" fill="white"/>
</clipPath>
</defs>
</svg>
